  0
SECTION
  2
HEADER
  9
$ACADVER
  1
AC1014
  9
$HANDSEED
  5
FFFF
  9
$MEASUREMENT
 70
     1
  0
ENDSEC
  0
SECTION
  2
TABLES
  0
TABLE
  2
VPORT
  5
8
330
0
100
AcDbSymbolTable
 70
     4
  0
VPORT
  5
2E
330
8
100
AcDbSymbolTableRecord
100
AcDbViewportTableRecord
  2
*ACTIVE
 70
     0
 10
0.0
 20
0.0
 11
1.0
 21
1.0
 12
210.0
 22
148.5
 13
0.0
 23
0.0
 14
10.0
 24
10.0
 15
10.0
 25
10.0
 16
0.0
 26
0.0
 36
1.0
 17
0.0
 27
0.0
 37
0.0
 40
341.0
 41
1.24
 42
50.0
 43
0.0
 44
0.0
 50
0.0
 51
0.0
 71
     0
 72
   100
 73
     1
 74
     3
 75
     0
 76
     0
 77
     0
 78
     0
  0
ENDTAB
  0
TABLE
  2
LTYPE
  5
5
330
0
100
AcDbSymbolTable
 70
     1
  0
LTYPE
  5
14
330
5
100
AcDbSymbolTableRecord
100
AcDbLinetypeTableRecord
  2
BYBLOCK
 70
     0
  3

 72
    65
 73
     0
 40
0.0
  0
LTYPE
  5
15
330
5
100
AcDbSymbolTableRecord
100
AcDbLinetypeTableRecord
  2
BYLAYER
 70
     0
  3

 72
    65
 73
     0
 40
0.0
  0
LTYPE
  5
16
330
5
100
AcDbSymbolTableRecord
100
AcDbLinetypeTableRecord
  2
CONTINUOUS
 70
     0
  3
Solid line
 72
    65
 73
     0
 40
0.0
  0
ENDTAB
  0
TABLE
  2
LAYER
  5
2
100
AcDbSymbolTable
 70
4
  0
LAYER
  5
50
100
AcDbSymbolTableRecord
100
AcDbLayerTableRecord
  2
0
 70
0
  6
CONTINUOUS
  0
LAYER
  5
51
100
AcDbSymbolTableRecord
100
AcDbLayerTableRecord
  2
chars
 70
0
  6
CONTINUOUS
  0
LAYER
  5
52
100
AcDbSymbolTableRecord
100
AcDbLayerTableRecord
  2
border
 70
0
  6
CONTINUOUS
  0
LAYER
  5
53
100
AcDbSymbolTableRecord
100
AcDbLayerTableRecord
  2
dots_outline
 70
0
  6
CONTINUOUS
  0
ENDTAB
  0
TABLE
  2
STYLE
  5
3
330
0
100
AcDbSymbolTable
 70
     1
  0
STYLE
  5
11
330
3
100
AcDbSymbolTableRecord
100
AcDbTextStyleTableRecord
  2
STANDARD
 70
     0
 40
0.0
 41
1.0
 50
0.0
 71
     0
 42
2.5
  3
txt
  4

  0
ENDTAB
  0
TABLE
  2
VIEW
  5
6
330
0
100
AcDbSymbolTable
 70
     0
  0
ENDTAB
  0
TABLE
  2
UCS
  5
7
330
0
100
AcDbSymbolTable
 70
     0
  0
ENDTAB
  0
TABLE
  2
APPID
  5
9
330
0
100
AcDbSymbolTable
 70
     2
  0
APPID
  5
12
330
9
100
AcDbSymbolTableRecord
100
AcDbRegAppTableRecord
  2
ACAD
 70
     0
  0
ENDTAB
  0
TABLE
  2
DIMSTYLE
  5
A
330
0
100
AcDbSymbolTable
 70
     1
  0
DIMSTYLE
105
27
330
A
100
AcDbSymbolTableRecord
100
AcDbDimStyleTableRecord
  2
ISO-25
 70
     0
  3

  4

  5

  6

  7

 40
1.0
 41
2.5
 42
0.625
 43
3.75
 44
1.25
 45
0.0
 46
0.0
 47
0.0
 48
0.0
140
2.5
141
2.5
142
0.0
143
0.03937007874016
144
1.0
145
0.0
146
1.0
147
0.625
 71
     0
 72
     0
 73
     0
 74
     0
 75
     0
 76
     0
 77
     1
 78
     8
170
     0
171
     3
172
     1
173
     0
174
     0
175
     0
176
     0
177
     0
178
     0
270
     2
271
     2
272
     2
273
     2
274
     3
340
11
275
     0
280
     0
281
     0
282
     0
283
     0
284
     8
285
     0
286
     0
287
     3
288
     0
  0
ENDTAB
  0
TABLE
  2
BLOCK_RECORD
  5
1
330
0
100
AcDbSymbolTable
 70
     1
  0
BLOCK_RECORD
  5
1F
330
1
100
AcDbSymbolTableRecord
100
AcDbBlockTableRecord
  2
*MODEL_SPACE
  0
BLOCK_RECORD
  5
1B
330
1
100
AcDbSymbolTableRecord
100
AcDbBlockTableRecord
  2
*PAPER_SPACE
  0
ENDTAB
  0
ENDSEC
  0
SECTION
  2
BLOCKS
  0
BLOCK
  5
20
330
1F
100
AcDbEntity
  8
0
100
AcDbBlockBegin
  2
*MODEL_SPACE
 70
     0
 10
0.0
 20
0.0
 30
0.0
  3
*MODEL_SPACE
  1

  0
ENDBLK
  5
21
330
1F
100
AcDbEntity
  8
0
100
AcDbBlockEnd
  0
BLOCK
  5
1C
330
1B
100
AcDbEntity
 67
     1
  8
0
100
AcDbBlockBegin
  2
*PAPER_SPACE
  1

  0
ENDBLK
  5
1D
330
1B
100
AcDbEntity
 67
     1
  8
0
100
AcDbBlockEnd
  0
ENDSEC
  0
SECTION
  2
ENTITIES
  0
SPLINE
  5
100
100
AcDbEntity
  8
chars
 62
7
100
AcDbSpline
 70
8
 71
3
 72
8
 73
4
 74
0
 40
0
 40
0
 40
0
 40
0
 40
1
 40
1
 40
1
 40
1
 10
242.840610
 20
90.423990
 30
0.0
 10
242.840610
 20
90.158773
 30
0.0
 10
242.735252
 20
89.904419
 30
0.0
 10
242.547715
 20
89.716883
 30
0.0
  0
SPLINE
  5
101
100
AcDbEntity
  8
chars
 62
7
100
AcDbSpline
 70
8
 71
3
 72
8
 73
4
 74
0
 40
0
 40
0
 40
0
 40
0
 40
1
 40
1
 40
1
 40
1
 10
242.547715
 20
89.716883
 30
0.0
 10
242.360177
 20
89.529347
 30
0.0
 10
242.105822
 20
89.423990
 30
0.0
 10
241.840605
 20
89.423991
 30
0.0
  0
SPLINE
  5
102
100
AcDbEntity
  8
chars
 62
7
100
AcDbSpline
 70
8
 71
3
 72
8
 73
4
 74
0
 40
0
 40
0
 40
0
 40
0
 40
1
 40
1
 40
1
 40
1
 10
241.840605
 20
89.423991
 30
0.0
 10
241.575388
 20
89.423990
 30
0.0
 10
241.321033
 20
89.529347
 30
0.0
 10
241.133496
 20
89.716883
 30
0.0
  0
SPLINE
  5
103
100
AcDbEntity
  8
chars
 62
7
100
AcDbSpline
 70
8
 71
3
 72
8
 73
4
 74
0
 40
0
 40
0
 40
0
 40
0
 40
1
 40
1
 40
1
 40
1
 10
241.133496
 20
89.716883
 30
0.0
 10
240.945959
 20
89.904419
 30
0.0
 10
240.840601
 20
90.158773
 30
0.0
 10
240.840601
 20
90.423990
 30
0.0
  0
SPLINE
  5
104
100
AcDbEntity
  8
chars
 62
7
100
AcDbSpline
 70
8
 71
3
 72
8
 73
4
 74
0
 40
0
 40
0
 40
0
 40
0
 40
1
 40
1
 40
1
 40
1
 10
240.840601
 20
90.423990
 30
0.0
 10
240.840600
 20
90.689208
 30
0.0
 10
240.945958
 20
90.943563
 30
0.0
 10
241.133495
 20
91.131099
 30
0.0
  0
SPLINE
  5
105
100
AcDbEntity
  8
chars
 62
7
100
AcDbSpline
 70
8
 71
3
 72
8
 73
4
 74
0
 40
0
 40
0
 40
0
 40
0
 40
1
 40
1
 40
1
 40
1
 10
241.133495
 20
91.131099
 30
0.0
 10
241.321033
 20
91.318636
 30
0.0
 10
241.575388
 20
91.423993
 30
0.0
 10
241.840605
 20
91.423991
 30
0.0
  0
SPLINE
  5
106
100
AcDbEntity
  8
chars
 62
7
100
AcDbSpline
 70
8
 71
3
 72
8
 73
4
 74
0
 40
0
 40
0
 40
0
 40
0
 40
1
 40
1
 40
1
 40
1
 10
241.840605
 20
91.423991
 30
0.0
 10
242.105823
 20
91.423993
 30
0.0
 10
242.360178
 20
91.318636
 30
0.0
 10
242.547715
 20
91.131099
 30
0.0
  0
SPLINE
  5
107
100
AcDbEntity
  8
chars
 62
7
100
AcDbSpline
 70
8
 71
3
 72
8
 73
4
 74
0
 40
0
 40
0
 40
0
 40
0
 40
1
 40
1
 40
1
 40
1
 10
242.547715
 20
91.131099
 30
0.0
 10
242.735253
 20
90.943563
 30
0.0
 10
242.840610
 20
90.689208
 30
0.0
 10
242.840610
 20
90.423990
 30
0.0
  0
SPLINE
  5
108
100
AcDbEntity
  8
chars
 62
7
100
AcDbSpline
 70
8
 71
3
 72
8
 73
4
 74
0
 40
0
 40
0
 40
0
 40
0
 40
1
 40
1
 40
1
 40
1
 10
112.151460
 20
348.632361
 30
0.0
 10
115.065920
 20
348.632361
 30
0.0
 10
116.791580
 20
350.319676
 30
0.0
 10
116.791580
 20
352.352125
 30
0.0
  0
SPLINE
  5
109
100
AcDbEntity
  8
chars
 62
7
100
AcDbSpline
 70
8
 71
3
 72
8
 73
4
 74
0
 40
0
 40
0
 40
0
 40
0
 40
1
 40
1
 40
1
 40
1
 10
116.791580
 20
352.352125
 30
0.0
 10
116.791580
 20
354.173659
 30
0.0
 10
115.660310
 20
355.113187
 30
0.0
 10
114.068870
 20
355.745930
 30
0.0
  0
LWPOLYLINE
  5
10a
100
AcDbEntity
  8
chars
 62
7
100
AcDbPolyline
 90
1
 70
1
 10
242.840610
 20
90.423990
 30
0.0
  0
SPLINE
  5
10b
100
AcDbEntity
  8
chars
 62
7
100
AcDbSpline
 70
8
 71
3
 72
8
 73
4
 74
0
 40
0
 40
0
 40
0
 40
0
 40
1
 40
1
 40
1
 40
1
 10
112.419900
 20
356.455370
 30
0.0
 10
111.288630
 20
356.896373
 30
0.0
 10
110.272410
 20
357.260679
 30
0.0
 10
110.272410
 20
358.219382
 30
0.0
  0
SPLINE
  5
10c
100
AcDbEntity
  8
chars
 62
7
100
AcDbSpline
 70
8
 71
3
 72
8
 73
4
 74
0
 40
0
 40
0
 40
0
 40
0
 40
1
 40
1
 40
1
 40
1
 10
110.272410
 20
358.219382
 30
0.0
 10
110.272410
 20
359.158910
 30
0.0
 10
111.077720
 20
359.695783
 30
0.0
 10
112.266510
 20
359.695783
 30
0.0
  0
SPLINE
  5
10d
100
AcDbEntity
  8
chars
 62
7
100
AcDbSpline
 70
8
 71
3
 72
8
 73
4
 74
0
 40
0
 40
0
 40
0
 40
0
 40
1
 40
1
 40
1
 40
1
 10
112.266510
 20
359.695783
 30
0.0
 10
113.531990
 20
359.695783
 30
0.0
 10
114.414000
 20
359.293128
 30
0.0
 10
115.257660
 20
358.622036
 30
0.0
  0
LWPOLYLINE
  5
10e
100
AcDbEntity
  8
chars
 62
7
100
AcDbPolyline
 90
2
 70
0
 10
114.068870
 20
355.745930
 30
0.0
 10
112.419900
 20
356.455370
 30
0.0
  0
SPLINE
  5
10f
100
AcDbEntity
  8
chars
 62
7
100
AcDbSpline
 70
8
 71
3
 72
8
 73
4
 74
0
 40
0
 40
0
 40
0
 40
0
 40
1
 40
1
 40
1
 40
1
 10
116.408100
 20
360.040916
 30
0.0
 10
115.372700
 20
361.018792
 30
0.0
 10
113.915470
 20
361.632361
 30
0.0
 10
112.381550
 20
361.632361
 30
0.0
  0
SPLINE
  5
110
100
AcDbEntity
  8
chars
 62
7
100
AcDbSpline
 70
8
 71
3
 72
8
 73
4
 74
0
 40
0
 40
0
 40
0
 40
0
 40
1
 40
1
 40
1
 40
1
 10
112.381550
 20
361.632361
 30
0.0
 10
109.831400
 20
361.632361
 30
0.0
 10
108.029040
 20
360.098438
 30
0.0
 10
108.029040
 20
358.104337
 30
0.0
  0
SPLINE
  5
111
100
AcDbEntity
  8
chars
 62
7
100
AcDbSpline
 70
8
 71
3
 72
8
 73
4
 74
0
 40
0
 40
0
 40
0
 40
0
 40
1
 40
1
 40
1
 40
1
 10
108.029040
 20
358.104337
 30
0.0
 10
108.029040
 20
356.263629
 30
0.0
 10
109.390400
 20
355.285753
 30
0.0
 10
110.713410
 20
354.768054
 30
0.0
  0
LWPOLYLINE
  5
112
100
AcDbEntity
  8
chars
 62
7
100
AcDbPolyline
 90
2
 70
0
 10
115.257660
 20
358.622036
 30
0.0
 10
116.408100
 20
360.040916
 30
0.0
  0
SPLINE
  5
113
100
AcDbEntity
  8
chars
 62
7
100
AcDbSpline
 70
8
 71
3
 72
8
 73
4
 74
0
 40
0
 40
0
 40
0
 40
0
 40
1
 40
1
 40
1
 40
1
 10
112.419900
 20
354.020266
 30
0.0
 10
113.666210
 20
353.502567
 30
0.0
 10
114.529040
 20
353.195783
 30
0.0
 10
114.529040
 20
352.083688
 30
0.0
  0
SPLINE
  5
114
100
AcDbEntity
  8
chars
 62
7
100
AcDbSpline
 70
8
 71
3
 72
8
 73
4
 74
0
 40
0
 40
0
 40
0
 40
0
 40
1
 40
1
 40
1
 40
1
 10
114.529040
 20
352.083688
 30
0.0
 10
114.529040
 20
351.201682
 30
0.0
 10
113.742910
 20
350.568939
 30
0.0
 10
112.285680
 20
350.568939
 30
0.0
  0
SPLINE
  5
115
100
AcDbEntity
  8
chars
 62
7
100
AcDbSpline
 70
8
 71
3
 72
8
 73
4
 74
0
 40
0
 40
0
 40
0
 40
0
 40
1
 40
1
 40
1
 40
1
 10
112.285680
 20
350.568939
 30
0.0
 10
110.962670
 20
350.568939
 30
0.0
 10
109.716360
 20
351.144160
 30
0.0
 10
108.776830
 20
351.987818
 30
0.0
  0
LWPOLYLINE
  5
116
100
AcDbEntity
  8
chars
 62
7
100
AcDbPolyline
 90
2
 70
0
 10
110.713410
 20
354.768054
 30
0.0
 10
112.419900
 20
354.020266
 30
0.0
  0
SPLINE
  5
117
100
AcDbEntity
  8
chars
 62
7
100
AcDbSpline
 70
8
 71
3
 72
8
 73
4
 74
0
 40
0
 40
0
 40
0
 40
0
 40
1
 40
1
 40
1
 40
1
 10
107.473000
 20
350.473069
 30
0.0
 10
108.719310
 20
349.303452
 30
0.0
 10
110.387450
 20
348.632361
 30
0.0
 10
112.151460
 20
348.632361
 30
0.0
  0
LWPOLYLINE
  5
118
100
AcDbEntity
  8
chars
 62
7
100
AcDbPolyline
 90
2
 70
0
 10
108.776830
 20
351.987818
 30
0.0
 10
107.473000
 20
350.473069
 30
0.0
  0
LWPOLYLINE
  5
119
100
AcDbEntity
  8
chars
 62
7
100
AcDbPolyline
 90
1
 70
1
 10
112.151460
 20
348.632361
 30
0.0
  0
LWPOLYLINE
  5
11a
100
AcDbEntity
  8
chars
 62
7
100
AcDbPolyline
 90
12
 70
1
 10
80.868534
 20
348.632361
 30
0.0
 10
89.396057
 20
348.632361
 30
0.0
 10
89.396057
 20
350.580373
 30
0.0
 10
83.174344
 20
350.580373
 30
0.0
 10
83.174344
 20
354.416765
 30
0.0
 10
88.282907
 20
354.416765
 30
0.0
 10
88.282907
 20
356.364777
 30
0.0
 10
83.174344
 20
356.364777
 30
0.0
 10
83.174344
 20
359.684349
 30
0.0
 10
89.197280
 20
359.684349
 30
0.0
 10
89.197280
 20
361.632361
 30
0.0
 10
80.868534
 20
361.632361
 30
0.0
  0
LWPOLYLINE
  5
11b
100
AcDbEntity
  8
chars
 62
7
100
AcDbPolyline
 90
13
 70
1
 10
134.113185
 20
348.632361
 30
0.0
 10
136.458755
 20
348.632361
 30
0.0
 10
136.458755
 20
352.468752
 30
0.0
 10
138.307375
 20
354.814318
 30
0.0
 10
141.587195
 20
348.632361
 30
0.0
 10
144.151415
 20
348.632361
 30
0.0
 10
139.718685
 20
356.583431
 30
0.0
 10
143.733985
 20
361.632361
 30
0.0
 10
141.149885
 20
361.632361
 30
0.0
 10
136.518385
 20
355.728691
 30
0.0
 10
136.458785
 20
355.728691
 30
0.0
 10
136.458785
 20
361.632361
 30
0.0
 10
134.113215
 20
361.632361
 30
0.0
  0
SPLINE
  5
11c
100
AcDbEntity
  8
chars
 62
7
100
AcDbSpline
 70
8
 71
3
 72
8
 73
4
 74
0
 40
0
 40
0
 40
0
 40
0
 40
1
 40
1
 40
1
 40
1
 10
193.151480
 20
348.632361
 30
0.0
 10
196.065930
 20
348.632361
 30
0.0
 10
197.791590
 20
350.319676
 30
0.0
 10
197.791590
 20
352.352125
 30
0.0
  0
SPLINE
  5
11d
100
AcDbEntity
  8
chars
 62
7
100
AcDbSpline
 70
8
 71
3
 72
8
 73
4
 74
0
 40
0
 40
0
 40
0
 40
0
 40
1
 40
1
 40
1
 40
1
 10
197.791590
 20
352.352125
 30
0.0
 10
197.791590
 20
354.173659
 30
0.0
 10
196.660330
 20
355.113187
 30
0.0
 10
195.068880
 20
355.745930
 30
0.0
  0
LWPOLYLINE
  5
11e
100
AcDbEntity
  8
chars
 62
7
100
AcDbPolyline
 90
12
 70
1
 10
161.838725
 20
348.632361
 30
0.0
 10
170.425875
 20
348.632361
 30
0.0
 10
170.425875
 20
350.580373
 30
0.0
 10
167.285205
 20
350.580373
 30
0.0
 10
167.285205
 20
359.684349
 30
0.0
 10
170.425875
 20
359.684349
 30
0.0
 10
170.425875
 20
361.632361
 30
0.0
 10
161.838725
 20
361.632361
 30
0.0
 10
161.838725
 20
359.684349
 30
0.0
 10
164.979395
 20
359.684349
 30
0.0
 10
164.979395
 20
350.580373
 30
0.0
 10
161.838725
 20
350.580373
 30
0.0
  0
SPLINE
  5
11f
100
AcDbEntity
  8
chars
 62
7
100
AcDbSpline
 70
8
 71
3
 72
8
 73
4
 74
0
 40
0
 40
0
 40
0
 40
0
 40
1
 40
1
 40
1
 40
1
 10
193.419910
 20
356.455370
 30
0.0
 10
192.288640
 20
356.896373
 30
0.0
 10
191.272420
 20
357.260679
 30
0.0
 10
191.272420
 20
358.219382
 30
0.0
  0
SPLINE
  5
120
100
AcDbEntity
  8
chars
 62
7
100
AcDbSpline
 70
8
 71
3
 72
8
 73
4
 74
0
 40
0
 40
0
 40
0
 40
0
 40
1
 40
1
 40
1
 40
1
 10
191.272420
 20
358.219382
 30
0.0
 10
191.272420
 20
359.158910
 30
0.0
 10
192.077730
 20
359.695783
 30
0.0
 10
193.266520
 20
359.695783
 30
0.0
  0
SPLINE
  5
121
100
AcDbEntity
  8
chars
 62
7
100
AcDbSpline
 70
8
 71
3
 72
8
 73
4
 74
0
 40
0
 40
0
 40
0
 40
0
 40
1
 40
1
 40
1
 40
1
 10
193.266520
 20
359.695783
 30
0.0
 10
194.532010
 20
359.695783
 30
0.0
 10
195.414010
 20
359.293128
 30
0.0
 10
196.257670
 20
358.622036
 30
0.0
  0
LWPOLYLINE
  5
122
100
AcDbEntity
  8
chars
 62
7
100
AcDbPolyline
 90
2
 70
0
 10
195.068880
 20
355.745930
 30
0.0
 10
193.419910
 20
356.455370
 30
0.0
  0
SPLINE
  5
123
100
AcDbEntity
  8
chars
 62
7
100
AcDbSpline
 70
8
 71
3
 72
8
 73
4
 74
0
 40
0
 40
0
 40
0
 40
0
 40
1
 40
1
 40
1
 40
1
 10
197.408110
 20
360.040916
 30
0.0
 10
196.372720
 20
361.018792
 30
0.0
 10
194.915490
 20
361.632361
 30
0.0
 10
193.381570
 20
361.632361
 30
0.0
  0
SPLINE
  5
124
100
AcDbEntity
  8
chars
 62
7
100
AcDbSpline
 70
8
 71
3
 72
8
 73
4
 74
0
 40
0
 40
0
 40
0
 40
0
 40
1
 40
1
 40
1
 40
1
 10
193.381570
 20
361.632361
 30
0.0
 10
190.831420
 20
361.632361
 30
0.0
 10
189.029060
 20
360.098438
 30
0.0
 10
189.029060
 20
358.104337
 30
0.0
  0
SPLINE
  5
125
100
AcDbEntity
  8
chars
 62
7
100
AcDbSpline
 70
8
 71
3
 72
8
 73
4
 74
0
 40
0
 40
0
 40
0
 40
0
 40
1
 40
1
 40
1
 40
1
 10
189.029060
 20
358.104337
 30
0.0
 10
189.029060
 20
356.263629
 30
0.0
 10
190.390410
 20
355.285753
 30
0.0
 10
191.713420
 20
354.768054
 30
0.0
  0
LWPOLYLINE
  5
126
100
AcDbEntity
  8
chars
 62
7
100
AcDbPolyline
 90
2
 70
0
 10
196.257670
 20
358.622036
 30
0.0
 10
197.408110
 20
360.040916
 30
0.0
  0
SPLINE
  5
127
100
AcDbEntity
  8
chars
 62
7
100
AcDbSpline
 70
8
 71
3
 72
8
 73
4
 74
0
 40
0
 40
0
 40
0
 40
0
 40
1
 40
1
 40
1
 40
1
 10
193.419910
 20
354.020266
 30
0.0
 10
194.666230
 20
353.502567
 30
0.0
 10
195.529060
 20
353.195783
 30
0.0
 10
195.529060
 20
352.083688
 30
0.0
  0
SPLINE
  5
128
100
AcDbEntity
  8
chars
 62
7
100
AcDbSpline
 70
8
 71
3
 72
8
 73
4
 74
0
 40
0
 40
0
 40
0
 40
0
 40
1
 40
1
 40
1
 40
1
 10
195.529060
 20
352.083688
 30
0.0
 10
195.529060
 20
351.201682
 30
0.0
 10
194.742920
 20
350.568939
 30
0.0
 10
193.285700
 20
350.568939
 30
0.0
  0
SPLINE
  5
129
100
AcDbEntity
  8
chars
 62
7
100
AcDbSpline
 70
8
 71
3
 72
8
 73
4
 74
0
 40
0
 40
0
 40
0
 40
0
 40
1
 40
1
 40
1
 40
1
 10
193.285700
 20
350.568939
 30
0.0
 10
191.962690
 20
350.568939
 30
0.0
 10
190.716370
 20
351.144160
 30
0.0
 10
189.776850
 20
351.987818
 30
0.0
  0
LWPOLYLINE
  5
12a
100
AcDbEntity
  8
chars
 62
7
100
AcDbPolyline
 90
2
 70
0
 10
191.713420
 20
354.768054
 30
0.0
 10
193.419910
 20
354.020266
 30
0.0
  0
SPLINE
  5
12b
100
AcDbEntity
  8
chars
 62
7
100
AcDbSpline
 70
8
 71
3
 72
8
 73
4
 74
0
 40
0
 40
0
 40
0
 40
0
 40
1
 40
1
 40
1
 40
1
 10
188.473010
 20
350.473069
 30
0.0
 10
189.719320
 20
349.303452
 30
0.0
 10
191.387460
 20
348.632361
 30
0.0
 10
193.151480
 20
348.632361
 30
0.0
  0
LWPOLYLINE
  5
12c
100
AcDbEntity
  8
chars
 62
7
100
AcDbPolyline
 90
2
 70
0
 10
189.776850
 20
351.987818
 30
0.0
 10
188.473010
 20
350.473069
 30
0.0
  0
LWPOLYLINE
  5
12d
100
AcDbEntity
  8
chars
 62
7
100
AcDbPolyline
 90
1
 70
1
 10
193.151480
 20
348.632361
 30
0.0
  0
LWPOLYLINE
  5
12e
100
AcDbEntity
  8
chars
 62
7
100
AcDbPolyline
 90
8
 70
1
 10
218.979390
 20
348.632361
 30
0.0
 10
221.285200
 20
348.632361
 30
0.0
 10
221.285200
 20
359.684349
 30
0.0
 10
225.380010
 20
359.684349
 30
0.0
 10
225.380010
 20
361.632361
 30
0.0
 10
214.884590
 20
361.632361
 30
0.0
 10
214.884590
 20
359.684349
 30
0.0
 10
218.979390
 20
359.684349
 30
0.0
  0
LWPOLYLINE
  5
12f
100
AcDbEntity
  8
chars
 62
7
100
AcDbPolyline
 90
6
 70
1
 10
242.938110
 20
348.632361
 30
0.0
 10
251.326490
 20
348.632361
 30
0.0
 10
251.326490
 20
350.580373
 30
0.0
 10
245.224040
 20
350.580373
 30
0.0
 10
245.224040
 20
361.632361
 30
0.0
 10
242.938110
 20
361.632361
 30
0.0
  0
SPLINE
  5
130
100
AcDbEntity
  8
chars
 62
7
100
AcDbSpline
 70
8
 71
3
 72
8
 73
4
 74
0
 40
0
 40
0
 40
0
 40
0
 40
1
 40
1
 40
1
 40
1
 10
298.448875
 20
353.880067
 30
0.0
 10
298.448875
 20
355.251627
 30
0.0
 10
298.250105
 20
357.935113
 30
0.0
 10
298.110955
 20
359.207285
 30
0.0
  0
LWPOLYLINE
  5
131
100
AcDbEntity
  8
chars
 62
7
100
AcDbPolyline
 90
3
 70
0
 10
296.461115
 20
348.632361
 30
0.0
 10
298.448875
 20
348.632361
 30
0.0
 10
298.448875
 20
353.880067
 30
0.0
  0
SPLINE
  5
132
100
AcDbEntity
  8
chars
 62
7
100
AcDbSpline
 70
8
 71
3
 72
8
 73
4
 74
0
 40
0
 40
0
 40
0
 40
0
 40
1
 40
1
 40
1
 40
1
 10
304.113945
 20
359.207285
 30
0.0
 10
303.994675
 20
357.935113
 30
0.0
 10
303.776025
 20
355.251627
 30
0.0
 10
303.776025
 20
353.880067
 30
0.0
  0
LWPOLYLINE
  5
133
100
AcDbEntity
  8
chars
 62
7
100
AcDbPolyline
 90
8
 70
0
 10
298.110955
 20
359.207285
 30
0.0
 10
298.170555
 20
359.207285
 30
0.0
 10
299.025295
 20
356.185878
 30
0.0
 10
300.436605
 20
352.071199
 30
0.0
 10
301.748535
 20
352.071199
 30
0.0
 10
303.179725
 20
356.185878
 30
0.0
 10
304.054345
 20
359.207285
 30
0.0
 10
304.113945
 20
359.207285
 30
0.0
  0
LWPOLYLINE
  5
134
100
AcDbEntity
  8
chars
 62
7
100
AcDbPolyline
 90
12
 70
0
 10
303.776025
 20
353.880067
 30
0.0
 10
303.776025
 20
348.632361
 30
0.0
 10
305.803545
 20
348.632361
 30
0.0
 10
305.803545
 20
361.632361
 30
0.0
 10
303.259205
 20
361.632361
 30
0.0
 10
301.688865
 20
356.563554
 30
0.0
 10
301.172045
 20
354.615541
 30
0.0
 10
301.092545
 20
354.615541
 30
0.0
 10
300.555855
 20
356.563554
 30
0.0
 10
299.005395
 20
361.632361
 30
0.0
 10
296.461055
 20
361.632361
 30
0.0
 10
296.461115
 20
348.632361
 30
0.0
  0
SPLINE
  5
135
100
AcDbEntity
  8
chars
 62
7
100
AcDbSpline
 70
8
 71
3
 72
8
 73
4
 74
0
 40
0
 40
0
 40
0
 40
0
 40
1
 40
1
 40
1
 40
1
 10
352.448871
 20
353.880067
 30
0.0
 10
352.448871
 20
355.251627
 30
0.0
 10
352.250101
 20
357.935113
 30
0.0
 10
352.110951
 20
359.207285
 30
0.0
  0
LWPOLYLINE
  5
136
100
AcDbEntity
  8
chars
 62
7
100
AcDbPolyline
 90
3
 70
0
 10
350.461111
 20
348.632361
 30
0.0
 10
352.448871
 20
348.632361
 30
0.0
 10
352.448871
 20
353.880067
 30
0.0
  0
SPLINE
  5
137
100
AcDbEntity
  8
chars
 62
7
100
AcDbSpline
 70
8
 71
3
 72
8
 73
4
 74
0
 40
0
 40
0
 40
0
 40
0
 40
1
 40
1
 40
1
 40
1
 10
358.113941
 20
359.207285
 30
0.0
 10
357.994671
 20
357.935113
 30
0.0
 10
357.776021
 20
355.251627
 30
0.0
 10
357.776021
 20
353.880067
 30
0.0
  0
LWPOLYLINE
  5
138
100
AcDbEntity
  8
chars
 62
7
100
AcDbPolyline
 90
8
 70
0
 10
352.110951
 20
359.207285
 30
0.0
 10
352.170551
 20
359.207285
 30
0.0
 10
353.025291
 20
356.185878
 30
0.0
 10
354.436601
 20
352.071199
 30
0.0
 10
355.748531
 20
352.071199
 30
0.0
 10
357.179721
 20
356.185878
 30
0.0
 10
358.054341
 20
359.207285
 30
0.0
 10
358.113941
 20
359.207285
 30
0.0
  0
LWPOLYLINE
  5
139
100
AcDbEntity
  8
chars
 62
7
100
AcDbPolyline
 90
12
 70
0
 10
357.776021
 20
353.880067
 30
0.0
 10
357.776021
 20
348.632361
 30
0.0
 10
359.803541
 20
348.632361
 30
0.0
 10
359.803541
 20
361.632361
 30
0.0
 10
357.259201
 20
361.632361
 30
0.0
 10
355.688861
 20
356.563554
 30
0.0
 10
355.172041
 20
354.615541
 30
0.0
 10
355.092541
 20
354.615541
 30
0.0
 10
354.555851
 20
356.563554
 30
0.0
 10
353.005391
 20
361.632361
 30
0.0
 10
350.461051
 20
361.632361
 30
0.0
 10
350.461111
 20
348.632361
 30
0.0
  0
LWPOLYLINE
  5
13a
100
AcDbEntity
  8
chars
 62
7
100
AcDbPolyline
 90
12
 70
1
 10
107.868530
 20
318.632350
 30
0.0
 10
116.396050
 20
318.632350
 30
0.0
 10
116.396050
 20
320.580363
 30
0.0
 10
110.174340
 20
320.580363
 30
0.0
 10
110.174340
 20
324.416754
 30
0.0
 10
115.282900
 20
324.416754
 30
0.0
 10
115.282900
 20
326.364766
 30
0.0
 10
110.174340
 20
326.364766
 30
0.0
 10
110.174340
 20
329.684338
 30
0.0
 10
116.197280
 20
329.684338
 30
0.0
 10
116.197280
 20
331.632350
 30
0.0
 10
107.868530
 20
331.632350
 30
0.0
  0
LWPOLYLINE
  5
13b
100
AcDbEntity
  8
chars
 62
7
100
AcDbPolyline
 90
12
 70
1
 10
323.868540
 20
288.632340
 30
0.0
 10
332.396060
 20
288.632340
 30
0.0
 10
332.396060
 20
290.580352
 30
0.0
 10
326.174350
 20
290.580352
 30
0.0
 10
326.174350
 20
294.416743
 30
0.0
 10
331.282910
 20
294.416743
 30
0.0
 10
331.282910
 20
296.364756
 30
0.0
 10
326.174350
 20
296.364756
 30
0.0
 10
326.174350
 20
299.684328
 30
0.0
 10
332.197280
 20
299.684328
 30
0.0
 10
332.197280
 20
301.632340
 30
0.0
 10
323.868540
 20
301.632340
 30
0.0
  0
LWPOLYLINE
  5
13c
100
AcDbEntity
  8
chars
 62
7
100
AcDbPolyline
 90
8
 70
1
 10
299.979390
 20
288.632340
 30
0.0
 10
302.285200
 20
288.632340
 30
0.0
 10
302.285200
 20
299.684328
 30
0.0
 10
306.380010
 20
299.684328
 30
0.0
 10
306.380010
 20
301.632340
 30
0.0
 10
295.884590
 20
301.632340
 30
0.0
 10
295.884590
 20
299.684328
 30
0.0
 10
299.979390
 20
299.684328
 30
0.0
  0
LWPOLYLINE
  5
13d
100
AcDbEntity
  8
chars
 62
7
100
AcDbPolyline
 90
12
 70
1
 10
242.868535
 20
288.632340
 30
0.0
 10
251.396065
 20
288.632340
 30
0.0
 10
251.396065
 20
290.580352
 30
0.0
 10
245.174345
 20
290.580352
 30
0.0
 10
245.174345
 20
294.416743
 30
0.0
 10
250.282915
 20
294.416743
 30
0.0
 10
250.282915
 20
296.364756
 30
0.0
 10
245.174345
 20
296.364756
 30
0.0
 10
245.174345
 20
299.684328
 30
0.0
 10
251.197285
 20
299.684328
 30
0.0
 10
251.197285
 20
301.632340
 30
0.0
 10
242.868535
 20
301.632340
 30
0.0
  0
LWPOLYLINE
  5
13e
100
AcDbEntity
  8
chars
 62
7
100
AcDbPolyline
 90
12
 70
1
 10
215.838720
 20
288.632340
 30
0.0
 10
224.425880
 20
288.632340
 30
0.0
 10
224.425880
 20
290.580352
 30
0.0
 10
221.285200
 20
290.580352
 30
0.0
 10
221.285200
 20
299.684328
 30
0.0
 10
224.425880
 20
299.684328
 30
0.0
 10
224.425880
 20
301.632340
 30
0.0
 10
215.838720
 20
301.632340
 30
0.0
 10
215.838720
 20
299.684328
 30
0.0
 10
218.979390
 20
299.684328
 30
0.0
 10
218.979390
 20
290.580352
 30
0.0
 10
215.838720
 20
290.580352
 30
0.0
  0
LWPOLYLINE
  5
13f
100
AcDbEntity
  8
chars
 62
7
100
AcDbPolyline
 90
8
 70
1
 10
83.979390
 20
258.632330
 30
0.0
 10
86.285201
 20
258.632330
 30
0.0
 10
86.285201
 20
269.684320
 30
0.0
 10
90.380002
 20
269.684320
 30
0.0
 10
90.380002
 20
271.632330
 30
0.0
 10
79.884589
 20
271.632330
 30
0.0
 10
79.884589
 20
269.684320
 30
0.0
 10
83.979390
 20
269.684320
 30
0.0
  0
SPLINE
  5
140
100
AcDbEntity
  8
chars
 62
7
100
AcDbSpline
 70
8
 71
3
 72
8
 73
4
 74
0
 40
0
 40
0
 40
0
 40
0
 40
1
 40
1
 40
1
 40
1
 10
352.448871
 20
263.880040
 30
0.0
 10
352.448871
 20
265.251600
 30
0.0
 10
352.250101
 20
267.935080
 30
0.0
 10
352.110951
 20
269.207250
 30
0.0
  0
LWPOLYLINE
  5
141
100
AcDbEntity
  8
chars
 62
7
100
AcDbPolyline
 90
3
 70
0
 10
350.461111
 20
258.632330
 30
0.0
 10
352.448871
 20
258.632330
 30
0.0
 10
352.448871
 20
263.880040
 30
0.0
  0
SPLINE
  5
142
100
AcDbEntity
  8
chars
 62
7
100
AcDbSpline
 70
8
 71
3
 72
8
 73
4
 74
0
 40
0
 40
0
 40
0
 40
0
 40
1
 40
1
 40
1
 40
1
 10
358.113941
 20
269.207250
 30
0.0
 10
357.994671
 20
267.935080
 30
0.0
 10
357.776021
 20
265.251600
 30
0.0
 10
357.776021
 20
263.880040
 30
0.0
  0
LWPOLYLINE
  5
143
100
AcDbEntity
  8
chars
 62
7
100
AcDbPolyline
 90
8
 70
0
 10
352.110951
 20
269.207250
 30
0.0
 10
352.170551
 20
269.207250
 30
0.0
 10
353.025291
 20
266.185850
 30
0.0
 10
354.436601
 20
262.071170
 30
0.0
 10
355.748531
 20
262.071170
 30
0.0
 10
357.179721
 20
266.185850
 30
0.0
 10
358.054341
 20
269.207250
 30
0.0
 10
358.113941
 20
269.207250
 30
0.0
  0
LWPOLYLINE
  5
144
100
AcDbEntity
  8
chars
 62
7
100
AcDbPolyline
 90
12
 70
0
 10
357.776021
 20
263.880040
 30
0.0
 10
357.776021
 20
258.632330
 30
0.0
 10
359.803541
 20
258.632330
 30
0.0
 10
359.803541
 20
271.632330
 30
0.0
 10
357.259201
 20
271.632330
 30
0.0
 10
355.688861
 20
266.563520
 30
0.0
 10
355.172041
 20
264.615510
 30
0.0
 10
355.092541
 20
264.615510
 30
0.0
 10
354.555851
 20
266.563520
 30
0.0
 10
353.005391
 20
271.632330
 30
0.0
 10
350.461051
 20
271.632330
 30
0.0
 10
350.461111
 20
258.632330
 30
0.0
  0
LWPOLYLINE
  5
145
100
AcDbEntity
  8
chars
 62
7
100
AcDbPolyline
 90
6
 70
1
 10
296.938110
 20
228.632320
 30
0.0
 10
305.326490
 20
228.632320
 30
0.0
 10
305.326490
 20
230.580340
 30
0.0
 10
299.224040
 20
230.580340
 30
0.0
 10
299.224040
 20
241.632320
 30
0.0
 10
296.938110
 20
241.632320
 30
0.0
  0
LWPOLYLINE
  5
146
100
AcDbEntity
  8
chars
 62
7
100
AcDbPolyline
 90
6
 70
1
 10
134.938110
 20
228.632320
 30
0.0
 10
143.326490
 20
228.632320
 30
0.0
 10
143.326490
 20
230.580340
 30
0.0
 10
137.224040
 20
230.580340
 30
0.0
 10
137.224040
 20
241.632320
 30
0.0
 10
134.938110
 20
241.632320
 30
0.0
  0
LWPOLYLINE
  5
147
100
AcDbEntity
  8
chars
 62
7
100
AcDbPolyline
 90
6
 70
1
 10
350.938106
 20
288.632340
 30
0.0
 10
359.326486
 20
288.632340
 30
0.0
 10
359.326486
 20
290.580352
 30
0.0
 10
353.224036
 20
290.580352
 30
0.0
 10
353.224036
 20
301.632340
 30
0.0
 10
350.938106
 20
301.632340
 30
0.0
  0
LWPOLYLINE
  5
148
100
AcDbEntity
  8
chars
 62
7
100
AcDbPolyline
 90
12
 70
1
 10
323.838720
 20
318.632350
 30
0.0
 10
332.425880
 20
318.632350
 30
0.0
 10
332.425880
 20
320.580363
 30
0.0
 10
329.285200
 20
320.580363
 30
0.0
 10
329.285200
 20
329.684338
 30
0.0
 10
332.425880
 20
329.684338
 30
0.0
 10
332.425880
 20
331.632350
 30
0.0
 10
323.838720
 20
331.632350
 30
0.0
 10
323.838720
 20
329.684338
 30
0.0
 10
326.979390
 20
329.684338
 30
0.0
 10
326.979390
 20
320.580363
 30
0.0
 10
323.838720
 20
320.580363
 30
0.0
  0
LWPOLYLINE
  5
149
100
AcDbEntity
  8
chars
 62
7
100
AcDbPolyline
 90
10
 70
1
 10
80.977861
 20
288.632340
 30
0.0
 10
83.283672
 20
288.632340
 30
0.0
 10
83.283672
 20
294.058945
 30
0.0
 10
88.392235
 20
294.058945
 30
0.0
 10
88.392235
 20
296.006958
 30
0.0
 10
83.283672
 20
296.006958
 30
0.0
 10
83.283672
 20
299.684328
 30
0.0
 10
89.286730
 20
299.684328
 30
0.0
 10
89.286730
 20
301.632340
 30
0.0
 10
80.977861
 20
301.632340
 30
0.0
  0
LWPOLYLINE
  5
14a
100
AcDbEntity
  8
chars
 62
7
100
AcDbPolyline
 90
10
 70
1
 10
161.977870
 20
288.632340
 30
0.0
 10
164.283680
 20
288.632340
 30
0.0
 10
164.283680
 20
294.058945
 30
0.0
 10
169.392240
 20
294.058945
 30
0.0
 10
169.392240
 20
296.006958
 30
0.0
 10
164.283680
 20
296.006958
 30
0.0
 10
164.283680
 20
299.684328
 30
0.0
 10
170.286730
 20
299.684328
 30
0.0
 10
170.286730
 20
301.632340
 30
0.0
 10
161.977870
 20
301.632340
 30
0.0
  0
LWPOLYLINE
  5
14b
100
AcDbEntity
  8
chars
 62
7
100
AcDbPolyline
 90
10
 70
1
 10
80.341776
 20
318.632350
 30
0.0
 10
89.922816
 20
318.632350
 30
0.0
 10
89.922816
 20
320.580363
 30
0.0
 10
83.164406
 20
320.580363
 30
0.0
 10
89.843305
 20
330.240913
 30
0.0
 10
89.843305
 20
331.632350
 30
0.0
 10
80.938106
 20
331.632350
 30
0.0
 10
80.938106
 20
329.704216
 30
0.0
 10
87.000798
 20
329.704216
 30
0.0
 10
80.341776
 20
320.023788
 30
0.0
  0
LWPOLYLINE
  5
14c
100
AcDbEntity
  8
chars
 62
7
100
AcDbPolyline
 90
12
 70
1
 10
134.600190
 20
318.632350
 30
0.0
 10
136.906000
 20
318.632350
 30
0.0
 10
136.906000
 20
324.396876
 30
0.0
 10
141.358600
 20
324.396876
 30
0.0
 10
141.358600
 20
318.632350
 30
0.0
 10
143.664410
 20
318.632350
 30
0.0
 10
143.664410
 20
331.632350
 30
0.0
 10
141.358600
 20
331.632350
 30
0.0
 10
141.358600
 20
326.404522
 30
0.0
 10
136.906000
 20
326.404522
 30
0.0
 10
136.906000
 20
331.632350
 30
0.0
 10
134.600190
 20
331.632350
 30
0.0
  0
LWPOLYLINE
  5
14d
100
AcDbEntity
  8
chars
 62
7
100
AcDbPolyline
 90
12
 70
1
 10
215.600190
 20
258.632330
 30
0.0
 10
217.906000
 20
258.632330
 30
0.0
 10
217.906000
 20
264.396860
 30
0.0
 10
222.358600
 20
264.396860
 30
0.0
 10
222.358600
 20
258.632330
 30
0.0
 10
224.664410
 20
258.632330
 30
0.0
 10
224.664410
 20
271.632330
 30
0.0
 10
222.358600
 20
271.632330
 30
0.0
 10
222.358600
 20
266.404500
 30
0.0
 10
217.906000
 20
266.404500
 30
0.0
 10
217.906000
 20
271.632330
 30
0.0
 10
215.600190
 20
271.632330
 30
0.0
  0
LWPOLYLINE
  5
14e
100
AcDbEntity
  8
chars
 62
7
100
AcDbPolyline
 90
10
 70
1
 10
188.341780
 20
318.632350
 30
0.0
 10
197.922820
 20
318.632350
 30
0.0
 10
197.922820
 20
320.580363
 30
0.0
 10
191.164410
 20
320.580363
 30
0.0
 10
197.843300
 20
330.240913
 30
0.0
 10
197.843300
 20
331.632350
 30
0.0
 10
188.938110
 20
331.632350
 30
0.0
 10
188.938110
 20
329.704216
 30
0.0
 10
195.000800
 20
329.704216
 30
0.0
 10
188.341780
 20
320.023788
 30
0.0
  0
SPLINE
  5
14f
100
AcDbEntity
  8
chars
 62
7
100
AcDbSpline
 70
8
 71
3
 72
8
 73
4
 74
0
 40
0
 40
0
 40
0
 40
0
 40
1
 40
1
 40
1
 40
1
 10
163.846380
 20
324.317366
 30
0.0
 10
163.846380
 20
325.768436
 30
0.0
 10
163.627730
 20
327.318895
 30
0.0
 10
163.528340
 20
328.710332
 30
0.0
  0
LWPOLYLINE
  5
150
100
AcDbEntity
  8
chars
 62
7
100
AcDbPolyline
 90
3
 70
0
 10
161.639960
 20
318.632350
 30
0.0
 10
163.846380
 20
318.632350
 30
0.0
 10
163.846380
 20
324.317366
 30
0.0
  0
SPLINE
  5
151
100
AcDbEntity
  8
chars
 62
7
100
AcDbSpline
 70
8
 71
3
 72
8
 73
4
 74
0
 40
0
 40
0
 40
0
 40
0
 40
1
 40
1
 40
1
 40
1
 10
168.418220
 20
325.987090
 30
0.0
 10
168.418220
 20
324.536020
 30
0.0
 10
168.636870
 20
322.886173
 30
0.0
 10
168.736260
 20
321.554369
 30
0.0
  0
LWPOLYLINE
  5
152
100
AcDbEntity
  8
chars
 62
7
100
AcDbPolyline
 90
8
 70
0
 10
163.528340
 20
328.710332
 30
0.0
 10
163.587940
 20
328.710332
 30
0.0
 10
164.760720
 20
325.947335
 30
0.0
 10
168.199560
 20
318.632350
 30
0.0
 10
170.624640
 20
318.632350
 30
0.0
 10
170.624640
 20
331.632350
 30
0.0
 10
168.418220
 20
331.632350
 30
0.0
 10
168.418220
 20
325.987090
 30
0.0
  0
LWPOLYLINE
  5
153
100
AcDbEntity
  8
chars
 62
7
100
AcDbPolyline
 90
6
 70
0
 10
168.736260
 20
321.554369
 30
0.0
 10
168.676660
 20
321.554369
 30
0.0
 10
167.503870
 20
324.337243
 30
0.0
 10
164.065040
 20
331.632350
 30
0.0
 10
161.639960
 20
331.632350
 30
0.0
 10
161.639960
 20
318.632350
 30
0.0
  0
SPLINE
  5
154
100
AcDbEntity
  8
chars
 62
7
100
AcDbSpline
 70
8
 71
3
 72
8
 73
4
 74
0
 40
0
 40
0
 40
0
 40
0
 40
1
 40
1
 40
1
 40
1
 10
271.846400
 20
324.317366
 30
0.0
 10
271.846400
 20
325.768436
 30
0.0
 10
271.627740
 20
327.318895
 30
0.0
 10
271.528350
 20
328.710332
 30
0.0
  0
LWPOLYLINE
  5
155
100
AcDbEntity
  8
chars
 62
7
100
AcDbPolyline
 90
3
 70
0
 10
269.639970
 20
318.632350
 30
0.0
 10
271.846400
 20
318.632350
 30
0.0
 10
271.846400
 20
324.317366
 30
0.0
  0
SPLINE
  5
156
100
AcDbEntity
  8
chars
 62
7
100
AcDbSpline
 70
8
 71
3
 72
8
 73
4
 74
0
 40
0
 40
0
 40
0
 40
0
 40
1
 40
1
 40
1
 40
1
 10
276.418220
 20
325.987090
 30
0.0
 10
276.418220
 20
324.536020
 30
0.0
 10
276.636880
 20
322.886173
 30
0.0
 10
276.736260
 20
321.554369
 30
0.0
  0
LWPOLYLINE
  5
157
100
AcDbEntity
  8
chars
 62
7
100
AcDbPolyline
 90
8
 70
0
 10
271.528350
 20
328.710332
 30
0.0
 10
271.587950
 20
328.710332
 30
0.0
 10
272.760730
 20
325.947335
 30
0.0
 10
276.199570
 20
318.632350
 30
0.0
 10
278.624640
 20
318.632350
 30
0.0
 10
278.624640
 20
331.632350
 30
0.0
 10
276.418220
 20
331.632350
 30
0.0
 10
276.418220
 20
325.987090
 30
0.0
  0
LWPOLYLINE
  5
158
100
AcDbEntity
  8
chars
 62
7
100
AcDbPolyline
 90
6
 70
0
 10
276.736260
 20
321.554369
 30
0.0
 10
276.676660
 20
321.554369
 30
0.0
 10
275.503880
 20
324.337243
 30
0.0
 10
272.065040
 20
331.632350
 30
0.0
 10
269.639960
 20
331.632350
 30
0.0
 10
269.639970
 20
318.632350
 30
0.0
  0
SPLINE
  5
159
100
AcDbEntity
  8
chars
 62
7
100
AcDbSpline
 70
8
 71
3
 72
8
 73
4
 74
0
 40
0
 40
0
 40
0
 40
0
 40
1
 40
1
 40
1
 40
1
 10
136.846380
 20
294.317355
 30
0.0
 10
136.846380
 20
295.768425
 30
0.0
 10
136.627730
 20
297.318884
 30
0.0
 10
136.528340
 20
298.710321
 30
0.0
  0
LWPOLYLINE
  5
15a
100
AcDbEntity
  8
chars
 62
7
100
AcDbPolyline
 90
3
 70
0
 10
134.639960
 20
288.632340
 30
0.0
 10
136.846380
 20
288.632340
 30
0.0
 10
136.846380
 20
294.317355
 30
0.0
  0
SPLINE
  5
15b
100
AcDbEntity
  8
chars
 62
7
100
AcDbSpline
 70
8
 71
3
 72
8
 73
4
 74
0
 40
0
 40
0
 40
0
 40
0
 40
1
 40
1
 40
1
 40
1
 10
141.418220
 20
295.987080
 30
0.0
 10
141.418220
 20
294.536009
 30
0.0
 10
141.636870
 20
292.886162
 30
0.0
 10
141.736260
 20
291.554358
 30
0.0
  0
LWPOLYLINE
  5
15c
100
AcDbEntity
  8
chars
 62
7
100
AcDbPolyline
 90
8
 70
0
 10
136.528340
 20
298.710321
 30
0.0
 10
136.587940
 20
298.710321
 30
0.0
 10
137.760720
 20
295.947324
 30
0.0
 10
141.199560
 20
288.632340
 30
0.0
 10
143.624640
 20
288.632340
 30
0.0
 10
143.624640
 20
301.632340
 30
0.0
 10
141.418220
 20
301.632340
 30
0.0
 10
141.418220
 20
295.987080
 30
0.0
  0
LWPOLYLINE
  5
15d
100
AcDbEntity
  8
chars
 62
7
100
AcDbPolyline
 90
6
 70
0
 10
141.736260
 20
291.554358
 30
0.0
 10
141.676660
 20
291.554358
 30
0.0
 10
140.503870
 20
294.337233
 30
0.0
 10
137.065040
 20
301.632340
 30
0.0
 10
134.639960
 20
301.632340
 30
0.0
 10
134.639960
 20
288.632340
 30
0.0
  0
LWPOLYLINE
  5
15e
100
AcDbEntity
  8
chars
 62
7
100
AcDbPolyline
 90
10
 70
1
 10
296.341780
 20
318.632350
 30
0.0
 10
305.922820
 20
318.632350
 30
0.0
 10
305.922820
 20
320.580363
 30
0.0
 10
299.164410
 20
320.580363
 30
0.0
 10
305.843310
 20
330.240913
 30
0.0
 10
305.843310
 20
331.632350
 30
0.0
 10
296.938110
 20
331.632350
 30
0.0
 10
296.938110
 20
329.704216
 30
0.0
 10
303.000800
 20
329.704216
 30
0.0
 10
296.341780
 20
320.023788
 30
0.0
  0
SPLINE
  5
15f
100
AcDbEntity
  8
chars
 62
7
100
AcDbSpline
 70
8
 71
3
 72
8
 73
4
 74
0
 40
0
 40
0
 40
0
 40
0
 40
1
 40
1
 40
1
 40
1
 10
136.846380
 20
264.317350
 30
0.0
 10
136.846380
 20
265.768420
 30
0.0
 10
136.627730
 20
267.318880
 30
0.0
 10
136.528340
 20
268.710310
 30
0.0
  0
LWPOLYLINE
  5
160
100
AcDbEntity
  8
chars
 62
7
100
AcDbPolyline
 90
3
 70
0
 10
134.639960
 20
258.632330
 30
0.0
 10
136.846380
 20
258.632330
 30
0.0
 10
136.846380
 20
264.317350
 30
0.0
  0
SPLINE
  5
161
100
AcDbEntity
  8
chars
 62
7
100
AcDbSpline
 70
8
 71
3
 72
8
 73
4
 74
0
 40
0
 40
0
 40
0
 40
0
 40
1
 40
1
 40
1
 40
1
 10
141.418220
 20
265.987070
 30
0.0
 10
141.418220
 20
264.536000
 30
0.0
 10
141.636870
 20
262.886150
 30
0.0
 10
141.736260
 20
261.554350
 30
0.0
  0
LWPOLYLINE
  5
162
100
AcDbEntity
  8
chars
 62
7
100
AcDbPolyline
 90
8
 70
0
 10
136.528340
 20
268.710310
 30
0.0
 10
136.587940
 20
268.710310
 30
0.0
 10
137.760720
 20
265.947320
 30
0.0
 10
141.199560
 20
258.632330
 30
0.0
 10
143.624640
 20
258.632330
 30
0.0
 10
143.624640
 20
271.632330
 30
0.0
 10
141.418220
 20
271.632330
 30
0.0
 10
141.418220
 20
265.987070
 30
0.0
  0
LWPOLYLINE
  5
163
100
AcDbEntity
  8
chars
 62
7
100
AcDbPolyline
 90
6
 70
0
 10
141.736260
 20
261.554350
 30
0.0
 10
141.676660
 20
261.554350
 30
0.0
 10
140.503870
 20
264.337220
 30
0.0
 10
137.065040
 20
271.632330
 30
0.0
 10
134.639960
 20
271.632330
 30
0.0
 10
134.639960
 20
258.632330
 30
0.0
  0
SPLINE
  5
164
100
AcDbEntity
  8
chars
 62
7
100
AcDbSpline
 70
8
 71
3
 72
8
 73
4
 74
0
 40
0
 40
0
 40
0
 40
0
 40
1
 40
1
 40
1
 40
1
 10
219.714875
 20
323.243971
 30
0.0
 10
219.893775
 20
324.058956
 30
0.0
 10
219.993165
 20
324.873941
 30
0.0
 10
220.112425
 20
325.669048
 30
0.0
  0
LWPOLYLINE
  5
165
100
AcDbEntity
  8
chars
 62
7
100
AcDbPolyline
 90
3
 70
0
 10
216.156765
 20
318.632350
 30
0.0
 10
218.720985
 20
318.632350
 30
0.0
 10
219.714875
 20
323.243971
 30
0.0
  0
SPLINE
  5
166
100
AcDbEntity
  8
chars
 62
7
100
AcDbSpline
 70
8
 71
3
 72
8
 73
4
 74
0
 40
0
 40
0
 40
0
 40
0
 40
1
 40
1
 40
1
 40
1
 10
220.172025
 20
325.669048
 30
0.0
 10
220.251525
 20
324.873941
 30
0.0
 10
220.410565
 20
324.058956
 30
0.0
 10
220.589465
 20
323.243971
 30
0.0
  0
LWPOLYLINE
  5
167
100
AcDbEntity
  8
chars
 62
7
100
AcDbPolyline
 90
2
 70
0
 10
220.112425
 20
325.669048
 30
0.0
 10
220.172025
 20
325.669048
 30
0.0
  0
SPLINE
  5
168
100
AcDbEntity
  8
chars
 62
7
100
AcDbSpline
 70
8
 71
3
 72
8
 73
4
 74
0
 40
0
 40
0
 40
0
 40
0
 40
1
 40
1
 40
1
 40
1
 10
222.994655
 20
324.098711
 30
0.0
 10
222.915155
 20
323.025317
 30
0.0
 10
222.895255
 20
322.210332
 30
0.0
 10
222.835635
 20
320.977916
 30
0.0
  0
LWPOLYLINE
  5
169
100
AcDbEntity
  8
chars
 62
7
100
AcDbPolyline
 90
6
 70
0
 10
220.589465
 20
323.243971
 30
0.0
 10
221.603225
 20
318.632350
 30
0.0
 10
224.207195
 20
318.632350
 30
0.0
 10
225.956435
 20
331.632350
 30
0.0
 10
223.630745
 20
331.632350
 30
0.0
 10
222.994655
 20
324.098711
 30
0.0
  0
SPLINE
  5
16a
100
AcDbEntity
  8
chars
 62
7
100
AcDbSpline
 70
8
 71
3
 72
8
 73
4
 74
0
 40
0
 40
0
 40
0
 40
0
 40
1
 40
1
 40
1
 40
1
 10
222.756135
 20
320.977916
 30
0.0
 10
222.557365
 20
322.210332
 30
0.0
 10
222.378465
 20
323.025317
 30
0.0
 10
222.120055
 20
324.098711
 30
0.0
  0
LWPOLYLINE
  5
16b
100
AcDbEntity
  8
chars
 62
7
100
AcDbPolyline
 90
2
 70
0
 10
222.835635
 20
320.977916
 30
0.0
 10
222.756135
 20
320.977916
 30
0.0
  0
SPLINE
  5
16c
100
AcDbEntity
  8
chars
 62
7
100
AcDbSpline
 70
8
 71
3
 72
8
 73
4
 74
0
 40
0
 40
0
 40
0
 40
0
 40
1
 40
1
 40
1
 40
1
 10
218.303535
 20
324.098711
 30
0.0
 10
218.065005
 20
323.005439
 30
0.0
 10
217.886105
 20
322.190454
 30
0.0
 10
217.667455
 20
320.977916
 30
0.0
  0
LWPOLYLINE
  5
16d
100
AcDbEntity
  8
chars
 62
7
100
AcDbPolyline
 90
4
 70
0
 10
222.120055
 20
324.098711
 30
0.0
 10
221.106295
 20
328.312779
 30
0.0
 10
219.376935
 20
328.312779
 30
0.0
 10
218.303535
 20
324.098711
 30
0.0
  0
SPLINE
  5
16e
100
AcDbEntity
  8
chars
 62
7
100
AcDbSpline
 70
8
 71
3
 72
8
 73
4
 74
0
 40
0
 40
0
 40
0
 40
0
 40
1
 40
1
 40
1
 40
1
 10
217.607855
 20
320.977916
 30
0.0
 10
217.568155
 20
322.190454
 30
0.0
 10
217.508455
 20
323.005439
 30
0.0
 10
217.428965
 20
324.098711
 30
0.0
  0
LWPOLYLINE
  5
16f
100
AcDbEntity
  8
chars
 62
7
100
AcDbPolyline
 90
2
 70
0
 10
217.667455
 20
320.977916
 30
0.0
 10
217.607855
 20
320.977916
 30
0.0
  0
SPLINE
  5
170
100
AcDbEntity
  8
chars
 62
7
100
AcDbSpline
 70
8
 71
3
 72
8
 73
4
 74
0
 40
0
 40
0
 40
0
 40
0
 40
1
 40
1
 40
1
 40
1
 10
356.014301
 20
318.632350
 30
0.0
 10
357.624921
 20
318.632350
 30
0.0
 10
359.043801
 20
319.322616
 30
0.0
 10
359.849111
 20
320.127925
 30
0.0
  0
LWPOLYLINE
  5
171
100
AcDbEntity
  8
chars
 62
7
100
AcDbPolyline
 90
4
 70
0
 10
217.428965
 20
324.098711
 30
0.0
 10
216.772995
 20
331.632350
 30
0.0
 10
214.308165
 20
331.632350
 30
0.0
 10
216.156765
 20
318.632350
 30
0.0
  0
SPLINE
  5
172
100
AcDbEntity
  8
chars
 62
7
100
AcDbSpline
 70
8
 71
3
 72
8
 73
4
 74
0
 40
0
 40
0
 40
0
 40
0
 40
1
 40
1
 40
1
 40
1
 10
357.835841
 20
321.124976
 30
0.0
 10
357.471531
 20
320.760669
 30
0.0
 10
356.819611
 20
320.568928
 30
0.0
 10
356.148521
 20
320.568928
 30
0.0
  0
SPLINE
  5
173
100
AcDbEntity
  8
chars
 62
7
100
AcDbSpline
 70
8
 71
3
 72
8
 73
4
 74
0
 40
0
 40
0
 40
0
 40
0
 40
1
 40
1
 40
1
 40
1
 10
356.148521
 20
320.568928
 30
0.0
 10
353.924331
 20
320.568928
 30
0.0
 10
352.716371
 20
322.294592
 30
0.0
 10
352.716371
 20
325.151524
 30
0.0
  0
SPLINE
  5
174
100
AcDbEntity
  8
chars
 62
7
100
AcDbSpline
 70
8
 71
3
 72
8
 73
4
 74
0
 40
0
 40
0
 40
0
 40
0
 40
1
 40
1
 40
1
 40
1
 10
352.716371
 20
325.151524
 30
0.0
 10
352.716371
 20
327.970108
 30
0.0
 10
354.116071
 20
329.695772
 30
0.0
 10
356.110171
 20
329.695772
 30
0.0
  0
SPLINE
  5
175
100
AcDbEntity
  8
chars
 62
7
100
AcDbSpline
 70
8
 71
3
 72
8
 73
4
 74
0
 40
0
 40
0
 40
0
 40
0
 40
1
 40
1
 40
1
 40
1
 10
356.110171
 20
329.695772
 30
0.0
 10
357.203091
 20
329.695772
 30
0.0
 10
357.855011
 20
329.273943
 30
0.0
 10
358.430231
 20
328.679548
 30
0.0
  0
LWPOLYLINE
  5
176
100
AcDbEntity
  8
chars
 62
7
100
AcDbPolyline
 90
6
 70
0
 10
359.849111
 20
320.127925
 30
0.0
 10
359.849111
 20
325.650049
 30
0.0
 10
355.669171
 20
325.650049
 30
0.0
 10
355.669171
 20
323.828515
 30
0.0
 10
357.835841
 20
323.828515
 30
0.0
 10
357.835841
 20
321.124976
 30
0.0
  0
SPLINE
  5
177
100
AcDbEntity
  8
chars
 62
7
100
AcDbSpline
 70
8
 71
3
 72
8
 73
4
 74
0
 40
0
 40
0
 40
0
 40
0
 40
1
 40
1
 40
1
 40
1
 10
359.657371
 20
330.060079
 30
0.0
 10
358.909581
 20
330.846215
 30
0.0
 10
357.778311
 20
331.632350
 30
0.0
 10
356.110171
 20
331.632350
 30
0.0
  0
SPLINE
  5
178
100
AcDbEntity
  8
chars
 62
7
100
AcDbSpline
 70
8
 71
3
 72
8
 73
4
 74
0
 40
0
 40
0
 40
0
 40
0
 40
1
 40
1
 40
1
 40
1
 10
356.110171
 20
331.632350
 30
0.0
 10
352.850591
 20
331.632350
 30
0.0
 10
350.415481
 20
329.216421
 30
0.0
 10
350.415481
 20
325.094002
 30
0.0
  0
SPLINE
  5
179
100
AcDbEntity
  8
chars
 62
7
100
AcDbSpline
 70
8
 71
3
 72
8
 73
4
 74
0
 40
0
 40
0
 40
0
 40
0
 40
1
 40
1
 40
1
 40
1
 10
350.415481
 20
325.094002
 30
0.0
 10
350.415481
 20
320.933235
 30
0.0
 10
352.831411
 20
318.632350
 30
0.0
 10
356.014301
 20
318.632350
 30
0.0
  0
LWPOLYLINE
  5
17a
100
AcDbEntity
  8
chars
 62
7
100
AcDbPolyline
 90
2
 70
0
 10
358.430231
 20
328.679548
 30
0.0
 10
359.657371
 20
330.060079
 30
0.0
  0
SPLINE
  5
17b
100
AcDbEntity
  8
chars
 62
7
100
AcDbSpline
 70
8
 71
3
 72
8
 73
4
 74
0
 40
0
 40
0
 40
0
 40
0
 40
1
 40
1
 40
1
 40
1
 10
112.151810
 20
288.632340
 30
0.0
 10
114.962620
 20
288.632340
 30
0.0
 10
116.582740
 20
290.252460
 30
0.0
 10
116.582740
 20
293.746454
 30
0.0
  0
LWPOLYLINE
  5
17c
100
AcDbEntity
  8
chars
 62
7
100
AcDbPolyline
 90
1
 70
1
 10
356.014301
 20
318.632350
 30
0.0
  0
SPLINE
  5
17d
100
AcDbEntity
  8
chars
 62
7
100
AcDbSpline
 70
8
 71
3
 72
8
 73
4
 74
0
 40
0
 40
0
 40
0
 40
0
 40
1
 40
1
 40
1
 40
1
 10
114.416080
 20
293.570778
 30
0.0
 10
114.416080
 20
291.482189
 30
0.0
 10
113.537700
 20
290.603811
 30
0.0
 10
112.151810
 20
290.603811
 30
0.0
  0
SPLINE
  5
17e
100
AcDbEntity
  8
chars
 62
7
100
AcDbSpline
 70
8
 71
3
 72
8
 73
4
 74
0
 40
0
 40
0
 40
0
 40
0
 40
1
 40
1
 40
1
 40
1
 10
112.151810
 20
290.603811
 30
0.0
 10
110.785450
 20
290.603811
 30
0.0
 10
109.946110
 20
291.482189
 30
0.0
 10
109.946110
 20
293.570778
 30
0.0
  0
LWPOLYLINE
  5
17f
100
AcDbEntity
  8
chars
 62
7
100
AcDbPolyline
 90
4
 70
0
 10
116.582740
 20
293.746454
 30
0.0
 10
116.582740
 20
301.632340
 30
0.0
 10
114.416080
 20
301.632340
 30
0.0
 10
114.416080
 20
293.570778
 30
0.0
  0
SPLINE
  5
180
100
AcDbEntity
  8
chars
 62
7
100
AcDbSpline
 70
8
 71
3
 72
8
 73
4
 74
0
 40
0
 40
0
 40
0
 40
0
 40
1
 40
1
 40
1
 40
1
 10
107.681840
 20
293.746454
 30
0.0
 10
107.681840
 20
290.252460
 30
0.0
 10
109.360520
 20
288.632340
 30
0.0
 10
112.151810
 20
288.632340
 30
0.0
  0
LWPOLYLINE
  5
181
100
AcDbEntity
  8
chars
 62
7
100
AcDbPolyline
 90
4
 70
0
 10
109.946110
 20
293.570778
 30
0.0
 10
109.946110
 20
301.632340
 30
0.0
 10
107.681840
 20
301.632340
 30
0.0
 10
107.681840
 20
293.746454
 30
0.0
  0
LWPOLYLINE
  5
182
100
AcDbEntity
  8
chars
 62
7
100
AcDbPolyline
 90
1
 70
1
 10
112.151810
 20
288.632340
 30
0.0
  0
SPLINE
  5
183
100
AcDbEntity
  8
chars
 62
7
100
AcDbSpline
 70
8
 71
3
 72
8
 73
4
 74
0
 40
0
 40
0
 40
0
 40
0
 40
1
 40
1
 40
1
 40
1
 10
194.364715
 20
295.092584
 30
0.0
 10
193.967155
 20
293.621636
 30
0.0
 10
193.668995
 20
292.349465
 30
0.0
 10
193.231685
 20
290.858639
 30
0.0
  0
LWPOLYLINE
  5
184
100
AcDbEntity
  8
chars
 62
7
100
AcDbPolyline
 90
5
 70
0
 10
191.780615
 20
288.632340
 30
0.0
 10
194.503855
 20
288.632340
 30
0.0
 10
198.539025
 20
301.632340
 30
0.0
 10
196.173575
 20
301.632340
 30
0.0
 10
194.364715
 20
295.092584
 30
0.0
  0
SPLINE
  5
185
100
AcDbEntity
  8
chars
 62
7
100
AcDbSpline
 70
8
 71
3
 72
8
 73
4
 74
0
 40
0
 40
0
 40
0
 40
0
 40
1
 40
1
 40
1
 40
1
 10
193.152185
 20
290.858639
 30
0.0
 10
192.714875
 20
292.349465
 30
0.0
 10
192.416705
 20
293.621636
 30
0.0
 10
191.999275
 20
295.092584
 30
0.0
  0
LWPOLYLINE
  5
186
100
AcDbEntity
  8
chars
 62
7
100
AcDbPolyline
 90
2
 70
0
 10
193.231685
 20
290.858639
 30
0.0
 10
193.152185
 20
290.858639
 30
0.0
  0
SPLINE
  5
187
100
AcDbEntity
  8
chars
 62
7
100
AcDbSpline
 70
8
 71
3
 72
8
 73
4
 74
0
 40
0
 40
0
 40
0
 40
0
 40
1
 40
1
 40
1
 40
1
 10
113.014295
 20
258.632330
 30
0.0
 10
114.624915
 20
258.632330
 30
0.0
 10
116.043795
 20
259.322600
 30
0.0
 10
116.849105
 20
260.127900
 30
0.0
  0
LWPOLYLINE
  5
188
100
AcDbEntity
  8
chars
 62
7
100
AcDbPolyline
 90
4
 70
0
 10
191.999275
 20
295.092584
 30
0.0
 10
190.170535
 20
301.632340
 30
0.0
 10
187.725575
 20
301.632340
 30
0.0
 10
191.780615
 20
288.632340
 30
0.0
  0
SPLINE
  5
189
100
AcDbEntity
  8
chars
 62
7
100
AcDbSpline
 70
8
 71
3
 72
8
 73
4
 74
0
 40
0
 40
0
 40
0
 40
0
 40
1
 40
1
 40
1
 40
1
 10
114.835825
 20
261.124960
 30
0.0
 10
114.471515
 20
260.760650
 30
0.0
 10
113.819605
 20
260.568910
 30
0.0
 10
113.148515
 20
260.568910
 30
0.0
  0
SPLINE
  5
18a
100
AcDbEntity
  8
chars
 62
7
100
AcDbSpline
 70
8
 71
3
 72
8
 73
4
 74
0
 40
0
 40
0
 40
0
 40
0
 40
1
 40
1
 40
1
 40
1
 10
113.148515
 20
260.568910
 30
0.0
 10
110.924325
 20
260.568910
 30
0.0
 10
109.716355
 20
262.294570
 30
0.0
 10
109.716355
 20
265.151500
 30
0.0
  0
SPLINE
  5
18b
100
AcDbEntity
  8
chars
 62
7
100
AcDbSpline
 70
8
 71
3
 72
8
 73
4
 74
0
 40
0
 40
0
 40
0
 40
0
 40
1
 40
1
 40
1
 40
1
 10
109.716355
 20
265.151500
 30
0.0
 10
109.716355
 20
267.970090
 30
0.0
 10
111.116065
 20
269.695750
 30
0.0
 10
113.110165
 20
269.695750
 30
0.0
  0
SPLINE
  5
18c
100
AcDbEntity
  8
chars
 62
7
100
AcDbSpline
 70
8
 71
3
 72
8
 73
4
 74
0
 40
0
 40
0
 40
0
 40
0
 40
1
 40
1
 40
1
 40
1
 10
113.110165
 20
269.695750
 30
0.0
 10
114.203085
 20
269.695750
 30
0.0
 10
114.855005
 20
269.273920
 30
0.0
 10
115.430225
 20
268.679530
 30
0.0
  0
LWPOLYLINE
  5
18d
100
AcDbEntity
  8
chars
 62
7
100
AcDbPolyline
 90
6
 70
0
 10
116.849105
 20
260.127900
 30
0.0
 10
116.849105
 20
265.650030
 30
0.0
 10
112.669155
 20
265.650030
 30
0.0
 10
112.669155
 20
263.828490
 30
0.0
 10
114.835825
 20
263.828490
 30
0.0
 10
114.835825
 20
261.124960
 30
0.0
  0
SPLINE
  5
18e
100
AcDbEntity
  8
chars
 62
7
100
AcDbSpline
 70
8
 71
3
 72
8
 73
4
 74
0
 40
0
 40
0
 40
0
 40
0
 40
1
 40
1
 40
1
 40
1
 10
116.657365
 20
270.060060
 30
0.0
 10
115.909575
 20
270.846190
 30
0.0
 10
114.778305
 20
271.632330
 30
0.0
 10
113.110165
 20
271.632330
 30
0.0
  0
SPLINE
  5
18f
100
AcDbEntity
  8
chars
 62
7
100
AcDbSpline
 70
8
 71
3
 72
8
 73
4
 74
0
 40
0
 40
0
 40
0
 40
0
 40
1
 40
1
 40
1
 40
1
 10
113.110165
 20
271.632330
 30
0.0
 10
109.850575
 20
271.632330
 30
0.0
 10
107.415475
 20
269.216400
 30
0.0
 10
107.415475
 20
265.093980
 30
0.0
  0
SPLINE
  5
190
100
AcDbEntity
  8
chars
 62
7
100
AcDbSpline
 70
8
 71
3
 72
8
 73
4
 74
0
 40
0
 40
0
 40
0
 40
0
 40
1
 40
1
 40
1
 40
1
 10
107.415475
 20
265.093980
 30
0.0
 10
107.415475
 20
260.933210
 30
0.0
 10
109.831405
 20
258.632330
 30
0.0
 10
113.014295
 20
258.632330
 30
0.0
  0
LWPOLYLINE
  5
191
100
AcDbEntity
  8
chars
 62
7
100
AcDbPolyline
 90
2
 70
0
 10
115.430225
 20
268.679530
 30
0.0
 10
116.657365
 20
270.060060
 30
0.0
  0
LWPOLYLINE
  5
192
100
AcDbEntity
  8
chars
 62
7
100
AcDbPolyline
 90
1
 70
1
 10
113.014295
 20
258.632330
 30
0.0
  0
SPLINE
  5
193
100
AcDbEntity
  8
chars
 62
7
100
AcDbSpline
 70
8
 71
3
 72
8
 73
4
 74
0
 40
0
 40
0
 40
0
 40
0
 40
1
 40
1
 40
1
 40
1
 10
193.956785
 20
258.632330
 30
0.0
 10
195.624925
 20
258.632330
 30
0.0
 10
196.947935
 20
259.284250
 30
0.0
 10
197.944985
 20
260.453860
 30
0.0
  0
LWPOLYLINE
  5
194
100
AcDbEntity
  8
chars
 62
7
100
AcDbPolyline
 90
12
 70
1
 10
80.600185
 20
228.632320
 30
0.0
 10
82.905996
 20
228.632320
 30
0.0
 10
82.905996
 20
234.396850
 30
0.0
 10
87.358595
 20
234.396850
 30
0.0
 10
87.358595
 20
228.632320
 30
0.0
 10
89.664406
 20
228.632320
 30
0.0
 10
89.664406
 20
241.632320
 30
0.0
 10
87.358595
 20
241.632320
 30
0.0
 10
87.358595
 20
236.404500
 30
0.0
 10
82.905996
 20
236.404500
 30
0.0
 10
82.905996
 20
241.632320
 30
0.0
 10
80.600185
 20
241.632320
 30
0.0
  0
SPLINE
  5
195
100
AcDbEntity
  8
chars
 62
7
100
AcDbSpline
 70
8
 71
3
 72
8
 73
4
 74
0
 40
0
 40
0
 40
0
 40
0
 40
1
 40
1
 40
1
 40
1
 10
196.717845
 20
261.815220
 30
0.0
 10
196.008405
 20
261.029080
 30
0.0
 10
195.183925
 20
260.568910
 30
0.0
 10
194.167695
 20
260.568910
 30
0.0
  0
SPLINE
  5
196
100
AcDbEntity
  8
chars
 62
7
100
AcDbSpline
 70
8
 71
3
 72
8
 73
4
 74
0
 40
0
 40
0
 40
0
 40
0
 40
1
 40
1
 40
1
 40
1
 10
194.167695
 20
260.568910
 30
0.0
 10
192.020205
 20
260.568910
 30
0.0
 10
190.601325
 20
262.294570
 30
0.0
 10
190.601325
 20
265.151500
 30
0.0
  0
SPLINE
  5
197
100
AcDbEntity
  8
chars
 62
7
100
AcDbSpline
 70
8
 71
3
 72
8
 73
4
 74
0
 40
0
 40
0
 40
0
 40
0
 40
1
 40
1
 40
1
 40
1
 10
190.601325
 20
265.151500
 30
0.0
 10
190.601325
 20
267.970090
 30
0.0
 10
192.020205
 20
269.695750
 30
0.0
 10
194.110175
 20
269.695750
 30
0.0
  0
SPLINE
  5
198
100
AcDbEntity
  8
chars
 62
7
100
AcDbSpline
 70
8
 71
3
 72
8
 73
4
 74
0
 40
0
 40
0
 40
0
 40
0
 40
1
 40
1
 40
1
 40
1
 10
194.110175
 20
269.695750
 30
0.0
 10
195.088055
 20
269.695750
 30
0.0
 10
195.835845
 20
269.293100
 30
0.0
 10
196.468585
 20
268.679530
 30
0.0
  0
LWPOLYLINE
  5
199
100
AcDbEntity
  8
chars
 62
7
100
AcDbPolyline
 90
2
 70
0
 10
197.944985
 20
260.453860
 30
0.0
 10
196.717845
 20
261.815220
 30
0.0
  0
SPLINE
  5
19a
100
AcDbEntity
  8
chars
 62
7
100
AcDbSpline
 70
8
 71
3
 72
8
 73
4
 74
0
 40
0
 40
0
 40
0
 40
0
 40
1
 40
1
 40
1
 40
1
 10
197.695725
 20
270.060060
 30
0.0
 10
196.909585
 20
270.884540
 30
0.0
 10
195.663275
 20
271.632330
 30
0.0
 10
194.110175
 20
271.632330
 30
0.0
  0
SPLINE
  5
19b
100
AcDbEntity
  8
chars
 62
7
100
AcDbSpline
 70
8
 71
3
 72
8
 73
4
 74
0
 40
0
 40
0
 40
0
 40
0
 40
1
 40
1
 40
1
 40
1
 10
194.110175
 20
271.632330
 30
0.0
 10
190.793065
 20
271.632330
 30
0.0
 10
188.319615
 20
269.197230
 30
0.0
 10
188.319615
 20
265.093980
 30
0.0
  0
SPLINE
  5
19c
100
AcDbEntity
  8
chars
 62
7
100
AcDbSpline
 70
8
 71
3
 72
8
 73
4
 74
0
 40
0
 40
0
 40
0
 40
0
 40
1
 40
1
 40
1
 40
1
 10
188.319615
 20
265.093980
 30
0.0
 10
188.319615
 20
260.933210
 30
0.0
 10
190.850595
 20
258.632330
 30
0.0
 10
193.956785
 20
258.632330
 30
0.0
  0
LWPOLYLINE
  5
19d
100
AcDbEntity
  8
chars
 62
7
100
AcDbPolyline
 90
2
 70
0
 10
196.468585
 20
268.679530
 30
0.0
 10
197.695725
 20
270.060060
 30
0.0
  0
LWPOLYLINE
  5
19e
100
AcDbEntity
  8
chars
 62
7
100
AcDbPolyline
 90
1
 70
1
 10
193.956785
 20
258.632330
 30
0.0
  0
SPLINE
  5
19f
100
AcDbEntity
  8
chars
 62
7
100
AcDbSpline
 70
8
 71
3
 72
8
 73
4
 74
0
 40
0
 40
0
 40
0
 40
0
 40
1
 40
1
 40
1
 40
1
 10
248.364715
 20
265.092580
 30
0.0
 10
247.967155
 20
263.621630
 30
0.0
 10
247.668995
 20
262.349460
 30
0.0
 10
247.231685
 20
260.858630
 30
0.0
  0
LWPOLYLINE
  5
1a0
100
AcDbEntity
  8
chars
 62
7
100
AcDbPolyline
 90
5
 70
0
 10
245.780615
 20
258.632330
 30
0.0
 10
248.503855
 20
258.632330
 30
0.0
 10
252.539025
 20
271.632330
 30
0.0
 10
250.173575
 20
271.632330
 30
0.0
 10
248.364715
 20
265.092580
 30
0.0
  0
SPLINE
  5
1a1
100
AcDbEntity
  8
chars
 62
7
100
AcDbSpline
 70
8
 71
3
 72
8
 73
4
 74
0
 40
0
 40
0
 40
0
 40
0
 40
1
 40
1
 40
1
 40
1
 10
247.152185
 20
260.858630
 30
0.0
 10
246.714875
 20
262.349460
 30
0.0
 10
246.416705
 20
263.621630
 30
0.0
 10
245.999275
 20
265.092580
 30
0.0
  0
LWPOLYLINE
  5
1a2
100
AcDbEntity
  8
chars
 62
7
100
AcDbPolyline
 90
2
 70
0
 10
247.231685
 20
260.858630
 30
0.0
 10
247.152185
 20
260.858630
 30
0.0
  0
SPLINE
  5
1a3
100
AcDbEntity
  8
chars
 62
7
100
AcDbSpline
 70
8
 71
3
 72
8
 73
4
 74
0
 40
0
 40
0
 40
0
 40
0
 40
1
 40
1
 40
1
 40
1
 10
327.868795
 20
258.632330
 30
0.0
 10
331.226145
 20
258.632330
 30
0.0
 10
332.377795
 20
260.642840
 30
0.0
 10
332.377795
 20
263.082780
 30
0.0
  0
LWPOLYLINE
  5
1a4
100
AcDbEntity
  8
chars
 62
7
100
AcDbPolyline
 90
4
 70
0
 10
245.999275
 20
265.092580
 30
0.0
 10
244.170535
 20
271.632330
 30
0.0
 10
241.725575
 20
271.632330
 30
0.0
 10
245.780615
 20
258.632330
 30
0.0
  0
SPLINE
  5
1a5
100
AcDbEntity
  8
chars
 62
7
100
AcDbSpline
 70
8
 71
3
 72
8
 73
4
 74
0
 40
0
 40
0
 40
0
 40
0
 40
1
 40
1
 40
1
 40
1
 10
330.113535
 20
263.277970
 30
0.0
 10
330.113535
 20
261.345540
 30
0.0
 10
329.371795
 20
260.603800
 30
0.0
 10
327.810235
 20
260.603800
 30
0.0
  0
SPLINE
  5
1a6
100
AcDbEntity
  8
chars
 62
7
100
AcDbSpline
 70
8
 71
3
 72
8
 73
4
 74
0
 40
0
 40
0
 40
0
 40
0
 40
1
 40
1
 40
1
 40
1
 10
327.810235
 20
260.603800
 30
0.0
 10
326.892815
 20
260.603800
 30
0.0
 10
325.955875
 20
261.111310
 30
0.0
 10
325.214135
 20
262.145840
 30
0.0
  0
LWPOLYLINE
  5
1a7
100
AcDbEntity
  8
chars
 62
7
100
AcDbPolyline
 90
6
 70
0
 10
332.377795
 20
263.082780
 30
0.0
 10
332.377795
 20
271.632330
 30
0.0
 10
324.940865
 20
271.632330
 30
0.0
 10
324.940865
 20
269.738930
 30
0.0
 10
330.113535
 20
269.738930
 30
0.0
 10
330.113535
 20
263.277970
 30
0.0
  0
SPLINE
  5
1a8
100
AcDbEntity
  8
chars
 62
7
100
AcDbSpline
 70
8
 71
3
 72
8
 73
4
 74
0
 40
0
 40
0
 40
0
 40
0
 40
1
 40
1
 40
1
 40
1
 10
323.886805
 20
260.740430
 30
0.0
 10
324.882305
 20
259.237430
 30
0.0
 10
326.463385
 20
258.632330
 30
0.0
 10
327.868795
 20
258.632330
 30
0.0
  0
LWPOLYLINE
  5
1a9
100
AcDbEntity
  8
chars
 62
7
100
AcDbPolyline
 90
2
 70
0
 10
325.214135
 20
262.145840
 30
0.0
 10
323.886805
 20
260.740430
 30
0.0
  0
LWPOLYLINE
  5
1aa
100
AcDbEntity
  8
chars
 62
7
100
AcDbPolyline
 90
1
 70
1
 10
327.868795
 20
258.632330
 30
0.0
  0
LWPOLYLINE
  5
1ab
100
AcDbEntity
  8
chars
 62
7
100
AcDbPolyline
 90
10
 70
1
 10
215.341780
 20
228.632320
 30
0.0
 10
224.922820
 20
228.632320
 30
0.0
 10
224.922820
 20
230.580340
 30
0.0
 10
218.164410
 20
230.580340
 30
0.0
 10
224.843300
 20
240.240890
 30
0.0
 10
224.843300
 20
241.632320
 30
0.0
 10
215.938110
 20
241.632320
 30
0.0
 10
215.938110
 20
239.704190
 30
0.0
 10
222.000800
 20
239.704190
 30
0.0
 10
215.341780
 20
230.023760
 30
0.0
  0
SPLINE
  5
1ac
100
AcDbEntity
  8
chars
 62
7
100
AcDbSpline
 70
8
 71
3
 72
8
 73
4
 74
0
 40
0
 40
0
 40
0
 40
0
 40
1
 40
1
 40
1
 40
1
 10
246.714875
 20
233.243940
 30
0.0
 10
246.893775
 20
234.058930
 30
0.0
 10
246.993165
 20
234.873910
 30
0.0
 10
247.112425
 20
235.669020
 30
0.0
  0
LWPOLYLINE
  5
1ad
100
AcDbEntity
  8
chars
 62
7
100
AcDbPolyline
 90
3
 70
0
 10
243.156765
 20
228.632320
 30
0.0
 10
245.720985
 20
228.632320
 30
0.0
 10
246.714875
 20
233.243940
 30
0.0
  0
SPLINE
  5
1ae
100
AcDbEntity
  8
chars
 62
7
100
AcDbSpline
 70
8
 71
3
 72
8
 73
4
 74
0
 40
0
 40
0
 40
0
 40
0
 40
1
 40
1
 40
1
 40
1
 10
247.172025
 20
235.669020
 30
0.0
 10
247.251525
 20
234.873910
 30
0.0
 10
247.410565
 20
234.058930
 30
0.0
 10
247.589465
 20
233.243940
 30
0.0
  0
LWPOLYLINE
  5
1af
100
AcDbEntity
  8
chars
 62
7
100
AcDbPolyline
 90
2
 70
0
 10
247.112425
 20
235.669020
 30
0.0
 10
247.172025
 20
235.669020
 30
0.0
  0
SPLINE
  5
1b0
100
AcDbEntity
  8
chars
 62
7
100
AcDbSpline
 70
8
 71
3
 72
8
 73
4
 74
0
 40
0
 40
0
 40
0
 40
0
 40
1
 40
1
 40
1
 40
1
 10
249.994655
 20
234.098680
 30
0.0
 10
249.915155
 20
233.025290
 30
0.0
 10
249.895255
 20
232.210310
 30
0.0
 10
249.835635
 20
230.977890
 30
0.0
  0
LWPOLYLINE
  5
1b1
100
AcDbEntity
  8
chars
 62
7
100
AcDbPolyline
 90
6
 70
0
 10
247.589465
 20
233.243940
 30
0.0
 10
248.603225
 20
228.632320
 30
0.0
 10
251.207195
 20
228.632320
 30
0.0
 10
252.956435
 20
241.632320
 30
0.0
 10
250.630745
 20
241.632320
 30
0.0
 10
249.994655
 20
234.098680
 30
0.0
  0
SPLINE
  5
1b2
100
AcDbEntity
  8
chars
 62
7
100
AcDbSpline
 70
8
 71
3
 72
8
 73
4
 74
0
 40
0
 40
0
 40
0
 40
0
 40
1
 40
1
 40
1
 40
1
 10
249.756135
 20
230.977890
 30
0.0
 10
249.557365
 20
232.210310
 30
0.0
 10
249.378465
 20
233.025290
 30
0.0
 10
249.120055
 20
234.098680
 30
0.0
  0
LWPOLYLINE
  5
1b3
100
AcDbEntity
  8
chars
 62
7
100
AcDbPolyline
 90
2
 70
0
 10
249.835635
 20
230.977890
 30
0.0
 10
249.756135
 20
230.977890
 30
0.0
  0
SPLINE
  5
1b4
100
AcDbEntity
  8
chars
 62
7
100
AcDbSpline
 70
8
 71
3
 72
8
 73
4
 74
0
 40
0
 40
0
 40
0
 40
0
 40
1
 40
1
 40
1
 40
1
 10
245.303535
 20
234.098680
 30
0.0
 10
245.065005
 20
233.005410
 30
0.0
 10
244.886105
 20
232.190430
 30
0.0
 10
244.667455
 20
230.977890
 30
0.0
  0
LWPOLYLINE
  5
1b5
100
AcDbEntity
  8
chars
 62
7
100
AcDbPolyline
 90
4
 70
0
 10
249.120055
 20
234.098680
 30
0.0
 10
248.106295
 20
238.312750
 30
0.0
 10
246.376935
 20
238.312750
 30
0.0
 10
245.303535
 20
234.098680
 30
0.0
  0
SPLINE
  5
1b6
100
AcDbEntity
  8
chars
 62
7
100
AcDbSpline
 70
8
 71
3
 72
8
 73
4
 74
0
 40
0
 40
0
 40
0
 40
0
 40
1
 40
1
 40
1
 40
1
 10
244.607855
 20
230.977890
 30
0.0
 10
244.568155
 20
232.190430
 30
0.0
 10
244.508455
 20
233.005410
 30
0.0
 10
244.428965
 20
234.098680
 30
0.0
  0
LWPOLYLINE
  5
1b7
100
AcDbEntity
  8
chars
 62
7
100
AcDbPolyline
 90
2
 70
0
 10
244.667455
 20
230.977890
 30
0.0
 10
244.607855
 20
230.977890
 30
0.0
  0
LWPOLYLINE
  5
1b8
100
AcDbEntity
  8
chars
 62
7
100
AcDbPolyline
 90
4
 70
0
 10
244.428965
 20
234.098680
 30
0.0
 10
243.772995
 20
241.632320
 30
0.0
 10
241.308165
 20
241.632320
 30
0.0
 10
243.156765
 20
228.632320
 30
0.0
  0
LWPOLYLINE
  5
1b9
100
AcDbEntity
  8
chars
 62
7
100
AcDbPolyline
 90
10
 70
1
 10
323.977865
 20
228.632320
 30
0.0
 10
326.283675
 20
228.632320
 30
0.0
 10
326.283675
 20
234.058930
 30
0.0
 10
331.392235
 20
234.058930
 30
0.0
 10
331.392235
 20
236.006940
 30
0.0
 10
326.283675
 20
236.006940
 30
0.0
 10
326.283675
 20
239.684310
 30
0.0
 10
332.286735
 20
239.684310
 30
0.0
 10
332.286735
 20
241.632320
 30
0.0
 10
323.977865
 20
241.632320
 30
0.0
  0
SPLINE
  5
1ba
100
AcDbEntity
  8
chars
 62
7
100
AcDbSpline
 70
8
 71
3
 72
8
 73
4
 74
0
 40
0
 40
0
 40
0
 40
0
 40
1
 40
1
 40
1
 40
1
 10
352.846396
 20
204.317330
 30
0.0
 10
352.846396
 20
205.768400
 30
0.0
 10
352.627736
 20
207.318860
 30
0.0
 10
352.528346
 20
208.710300
 30
0.0
  0
LWPOLYLINE
  5
1bb
100
AcDbEntity
  8
chars
 62
7
100
AcDbPolyline
 90
3
 70
0
 10
350.639966
 20
198.632310
 30
0.0
 10
352.846396
 20
198.632310
 30
0.0
 10
352.846396
 20
204.317330
 30
0.0
  0
SPLINE
  5
1bc
100
AcDbEntity
  8
chars
 62
7
100
AcDbSpline
 70
8
 71
3
 72
8
 73
4
 74
0
 40
0
 40
0
 40
0
 40
0
 40
1
 40
1
 40
1
 40
1
 10
357.418216
 20
205.987050
 30
0.0
 10
357.418216
 20
204.535980
 30
0.0
 10
357.636876
 20
202.886140
 30
0.0
 10
357.736256
 20
201.554330
 30
0.0
  0
LWPOLYLINE
  5
1bd
100
AcDbEntity
  8
chars
 62
7
100
AcDbPolyline
 90
8
 70
0
 10
352.528346
 20
208.710300
 30
0.0
 10
352.587946
 20
208.710300
 30
0.0
 10
353.760726
 20
205.947300
 30
0.0
 10
357.199566
 20
198.632310
 30
0.0
 10
359.624636
 20
198.632310
 30
0.0
 10
359.624636
 20
211.632310
 30
0.0
 10
357.418216
 20
211.632310
 30
0.0
 10
357.418216
 20
205.987050
 30
0.0
  0
LWPOLYLINE
  5
1be
100
AcDbEntity
  8
chars
 62
7
100
AcDbPolyline
 90
6
 70
0
 10
357.736256
 20
201.554330
 30
0.0
 10
357.676656
 20
201.554330
 30
0.0
 10
356.503876
 20
204.337210
 30
0.0
 10
353.065036
 20
211.632310
 30
0.0
 10
350.639956
 20
211.632310
 30
0.0
 10
350.639966
 20
198.632310
 30
0.0
  0
LWPOLYLINE
  5
1bf
100
AcDbEntity
  8
chars
 62
7
100
AcDbPolyline
 90
12
 70
1
 10
323.868540
 20
198.632310
 30
0.0
 10
332.396060
 20
198.632310
 30
0.0
 10
332.396060
 20
200.580330
 30
0.0
 10
326.174350
 20
200.580330
 30
0.0
 10
326.174350
 20
204.416720
 30
0.0
 10
331.282910
 20
204.416720
 30
0.0
 10
331.282910
 20
206.364730
 30
0.0
 10
326.174350
 20
206.364730
 30
0.0
 10
326.174350
 20
209.684300
 30
0.0
 10
332.197280
 20
209.684300
 30
0.0
 10
332.197280
 20
211.632310
 30
0.0
 10
323.868540
 20
211.632310
 30
0.0
  0
LWPOLYLINE
  5
1c0
100
AcDbEntity
  8
chars
 62
7
100
AcDbPolyline
 90
12
 70
1
 10
269.868540
 20
198.632310
 30
0.0
 10
278.396060
 20
198.632310
 30
0.0
 10
278.396060
 20
200.580330
 30
0.0
 10
272.174350
 20
200.580330
 30
0.0
 10
272.174350
 20
204.416720
 30
0.0
 10
277.282910
 20
204.416720
 30
0.0
 10
277.282910
 20
206.364730
 30
0.0
 10
272.174350
 20
206.364730
 30
0.0
 10
272.174350
 20
209.684300
 30
0.0
 10
278.197280
 20
209.684300
 30
0.0
 10
278.197280
 20
211.632310
 30
0.0
 10
269.868540
 20
211.632310
 30
0.0
  0
SPLINE
  5
1c1
100
AcDbEntity
  8
chars
 62
7
100
AcDbSpline
 70
8
 71
3
 72
8
 73
4
 74
0
 40
0
 40
0
 40
0
 40
0
 40
1
 40
1
 40
1
 40
1
 10
220.151480
 20
198.632310
 30
0.0
 10
223.065930
 20
198.632310
 30
0.0
 10
224.791590
 20
200.319630
 30
0.0
 10
224.791590
 20
202.352080
 30
0.0
  0
SPLINE
  5
1c2
100
AcDbEntity
  8
chars
 62
7
100
AcDbSpline
 70
8
 71
3
 72
8
 73
4
 74
0
 40
0
 40
0
 40
0
 40
0
 40
1
 40
1
 40
1
 40
1
 10
224.791590
 20
202.352080
 30
0.0
 10
224.791590
 20
204.173610
 30
0.0
 10
223.660330
 20
205.113140
 30
0.0
 10
222.068880
 20
205.745880
 30
0.0
  0
LWPOLYLINE
  5
1c3
100
AcDbEntity
  8
chars
 62
7
100
AcDbPolyline
 90
12
 70
1
 10
242.838720
 20
198.632310
 30
0.0
 10
251.425880
 20
198.632310
 30
0.0
 10
251.425880
 20
200.580330
 30
0.0
 10
248.285200
 20
200.580330
 30
0.0
 10
248.285200
 20
209.684300
 30
0.0
 10
251.425880
 20
209.684300
 30
0.0
 10
251.425880
 20
211.632310
 30
0.0
 10
242.838720
 20
211.632310
 30
0.0
 10
242.838720
 20
209.684300
 30
0.0
 10
245.979390
 20
209.684300
 30
0.0
 10
245.979390
 20
200.580330
 30
0.0
 10
242.838720
 20
200.580330
 30
0.0
  0
SPLINE
  5
1c4
100
AcDbEntity
  8
chars
 62
7
100
AcDbSpline
 70
8
 71
3
 72
8
 73
4
 74
0
 40
0
 40
0
 40
0
 40
0
 40
1
 40
1
 40
1
 40
1
 10
220.419910
 20
206.455320
 30
0.0
 10
219.288640
 20
206.896320
 30
0.0
 10
218.272420
 20
207.260630
 30
0.0
 10
218.272420
 20
208.219330
 30
0.0
  0
SPLINE
  5
1c5
100
AcDbEntity
  8
chars
 62
7
100
AcDbSpline
 70
8
 71
3
 72
8
 73
4
 74
0
 40
0
 40
0
 40
0
 40
0
 40
1
 40
1
 40
1
 40
1
 10
218.272420
 20
208.219330
 30
0.0
 10
218.272420
 20
209.158860
 30
0.0
 10
219.077730
 20
209.695730
 30
0.0
 10
220.266520
 20
209.695730
 30
0.0
  0
SPLINE
  5
1c6
100
AcDbEntity
  8
chars
 62
7
100
AcDbSpline
 70
8
 71
3
 72
8
 73
4
 74
0
 40
0
 40
0
 40
0
 40
0
 40
1
 40
1
 40
1
 40
1
 10
220.266520
 20
209.695730
 30
0.0
 10
221.532010
 20
209.695730
 30
0.0
 10
222.414010
 20
209.293080
 30
0.0
 10
223.257670
 20
208.621990
 30
0.0
  0
LWPOLYLINE
  5
1c7
100
AcDbEntity
  8
chars
 62
7
100
AcDbPolyline
 90
2
 70
0
 10
222.068880
 20
205.745880
 30
0.0
 10
220.419910
 20
206.455320
 30
0.0
  0
SPLINE
  5
1c8
100
AcDbEntity
  8
chars
 62
7
100
AcDbSpline
 70
8
 71
3
 72
8
 73
4
 74
0
 40
0
 40
0
 40
0
 40
0
 40
1
 40
1
 40
1
 40
1
 10
224.408110
 20
210.040870
 30
0.0
 10
223.372720
 20
211.018740
 30
0.0
 10
221.915490
 20
211.632310
 30
0.0
 10
220.381570
 20
211.632310
 30
0.0
  0
SPLINE
  5
1c9
100
AcDbEntity
  8
chars
 62
7
100
AcDbSpline
 70
8
 71
3
 72
8
 73
4
 74
0
 40
0
 40
0
 40
0
 40
0
 40
1
 40
1
 40
1
 40
1
 10
220.381570
 20
211.632310
 30
0.0
 10
217.831420
 20
211.632310
 30
0.0
 10
216.029060
 20
210.098390
 30
0.0
 10
216.029060
 20
208.104290
 30
0.0
  0
SPLINE
  5
1ca
100
AcDbEntity
  8
chars
 62
7
100
AcDbSpline
 70
8
 71
3
 72
8
 73
4
 74
0
 40
0
 40
0
 40
0
 40
0
 40
1
 40
1
 40
1
 40
1
 10
216.029060
 20
208.104290
 30
0.0
 10
216.029060
 20
206.263580
 30
0.0
 10
217.390410
 20
205.285700
 30
0.0
 10
218.713420
 20
204.768010
 30
0.0
  0
LWPOLYLINE
  5
1cb
100
AcDbEntity
  8
chars
 62
7
100
AcDbPolyline
 90
2
 70
0
 10
223.257670
 20
208.621990
 30
0.0
 10
224.408110
 20
210.040870
 30
0.0
  0
SPLINE
  5
1cc
100
AcDbEntity
  8
chars
 62
7
100
AcDbSpline
 70
8
 71
3
 72
8
 73
4
 74
0
 40
0
 40
0
 40
0
 40
0
 40
1
 40
1
 40
1
 40
1
 10
220.419910
 20
204.020220
 30
0.0
 10
221.666230
 20
203.502520
 30
0.0
 10
222.529060
 20
203.195730
 30
0.0
 10
222.529060
 20
202.083640
 30
0.0
  0
SPLINE
  5
1cd
100
AcDbEntity
  8
chars
 62
7
100
AcDbSpline
 70
8
 71
3
 72
8
 73
4
 74
0
 40
0
 40
0
 40
0
 40
0
 40
1
 40
1
 40
1
 40
1
 10
222.529060
 20
202.083640
 30
0.0
 10
222.529060
 20
201.201630
 30
0.0
 10
221.742920
 20
200.568890
 30
0.0
 10
220.285700
 20
200.568890
 30
0.0
  0
SPLINE
  5
1ce
100
AcDbEntity
  8
chars
 62
7
100
AcDbSpline
 70
8
 71
3
 72
8
 73
4
 74
0
 40
0
 40
0
 40
0
 40
0
 40
1
 40
1
 40
1
 40
1
 10
220.285700
 20
200.568890
 30
0.0
 10
218.962690
 20
200.568890
 30
0.0
 10
217.716370
 20
201.144110
 30
0.0
 10
216.776850
 20
201.987770
 30
0.0
  0
LWPOLYLINE
  5
1cf
100
AcDbEntity
  8
chars
 62
7
100
AcDbPolyline
 90
2
 70
0
 10
218.713420
 20
204.768010
 30
0.0
 10
220.419910
 20
204.020220
 30
0.0
  0
SPLINE
  5
1d0
100
AcDbEntity
  8
chars
 62
7
100
AcDbSpline
 70
8
 71
3
 72
8
 73
4
 74
0
 40
0
 40
0
 40
0
 40
0
 40
1
 40
1
 40
1
 40
1
 10
215.473010
 20
200.473020
 30
0.0
 10
216.719320
 20
199.303400
 30
0.0
 10
218.387460
 20
198.632310
 30
0.0
 10
220.151480
 20
198.632310
 30
0.0
  0
LWPOLYLINE
  5
1d1
100
AcDbEntity
  8
chars
 62
7
100
AcDbPolyline
 90
2
 70
0
 10
216.776850
 20
201.987770
 30
0.0
 10
215.473010
 20
200.473020
 30
0.0
  0
LWPOLYLINE
  5
1d2
100
AcDbEntity
  8
chars
 62
7
100
AcDbPolyline
 90
1
 70
1
 10
220.151480
 20
198.632310
 30
0.0
  0
SPLINE
  5
1d3
100
AcDbEntity
  8
chars
 62
7
100
AcDbSpline
 70
8
 71
3
 72
8
 73
4
 74
0
 40
0
 40
0
 40
0
 40
0
 40
1
 40
1
 40
1
 40
1
 10
190.846400
 20
204.317330
 30
0.0
 10
190.846400
 20
205.768400
 30
0.0
 10
190.627740
 20
207.318860
 30
0.0
 10
190.528350
 20
208.710300
 30
0.0
  0
LWPOLYLINE
  5
1d4
100
AcDbEntity
  8
chars
 62
7
100
AcDbPolyline
 90
3
 70
0
 10
188.639970
 20
198.632310
 30
0.0
 10
190.846400
 20
198.632310
 30
0.0
 10
190.846400
 20
204.317330
 30
0.0
  0
SPLINE
  5
1d5
100
AcDbEntity
  8
chars
 62
7
100
AcDbSpline
 70
8
 71
3
 72
8
 73
4
 74
0
 40
0
 40
0
 40
0
 40
0
 40
1
 40
1
 40
1
 40
1
 10
195.418220
 20
205.987050
 30
0.0
 10
195.418220
 20
204.535980
 30
0.0
 10
195.636880
 20
202.886140
 30
0.0
 10
195.736260
 20
201.554330
 30
0.0
  0
LWPOLYLINE
  5
1d6
100
AcDbEntity
  8
chars
 62
7
100
AcDbPolyline
 90
8
 70
0
 10
190.528350
 20
208.710300
 30
0.0
 10
190.587950
 20
208.710300
 30
0.0
 10
191.760730
 20
205.947300
 30
0.0
 10
195.199570
 20
198.632310
 30
0.0
 10
197.624640
 20
198.632310
 30
0.0
 10
197.624640
 20
211.632310
 30
0.0
 10
195.418220
 20
211.632310
 30
0.0
 10
195.418220
 20
205.987050
 30
0.0
  0
LWPOLYLINE
  5
1d7
100
AcDbEntity
  8
chars
 62
7
100
AcDbPolyline
 90
6
 70
0
 10
195.736260
 20
201.554330
 30
0.0
 10
195.676660
 20
201.554330
 30
0.0
 10
194.503880
 20
204.337210
 30
0.0
 10
191.065040
 20
211.632310
 30
0.0
 10
188.639960
 20
211.632310
 30
0.0
 10
188.639970
 20
198.632310
 30
0.0
  0
LWPOLYLINE
  5
1d8
100
AcDbEntity
  8
chars
 62
7
100
AcDbPolyline
 90
12
 70
1
 10
161.838725
 20
198.632310
 30
0.0
 10
170.425875
 20
198.632310
 30
0.0
 10
170.425875
 20
200.580330
 30
0.0
 10
167.285205
 20
200.580330
 30
0.0
 10
167.285205
 20
209.684300
 30
0.0
 10
170.425875
 20
209.684300
 30
0.0
 10
170.425875
 20
211.632310
 30
0.0
 10
161.838725
 20
211.632310
 30
0.0
 10
161.838725
 20
209.684300
 30
0.0
 10
164.979395
 20
209.684300
 30
0.0
 10
164.979395
 20
200.580330
 30
0.0
 10
161.838725
 20
200.580330
 30
0.0
  0
LWPOLYLINE
  5
1d9
100
AcDbEntity
  8
chars
 62
7
100
AcDbPolyline
 90
12
 70
1
 10
134.868535
 20
198.632310
 30
0.0
 10
143.396065
 20
198.632310
 30
0.0
 10
143.396065
 20
200.580330
 30
0.0
 10
137.174345
 20
200.580330
 30
0.0
 10
137.174345
 20
204.416720
 30
0.0
 10
142.282915
 20
204.416720
 30
0.0
 10
142.282915
 20
206.364730
 30
0.0
 10
137.174345
 20
206.364730
 30
0.0
 10
137.174345
 20
209.684300
 30
0.0
 10
143.197285
 20
209.684300
 30
0.0
 10
143.197285
 20
211.632310
 30
0.0
 10
134.868535
 20
211.632310
 30
0.0
  0
SPLINE
  5
1da
100
AcDbEntity
  8
chars
 62
7
100
AcDbSpline
 70
8
 71
3
 72
8
 73
4
 74
0
 40
0
 40
0
 40
0
 40
0
 40
1
 40
1
 40
1
 40
1
 10
111.714865
 20
203.243930
 30
0.0
 10
111.893765
 20
204.058920
 30
0.0
 10
111.993155
 20
204.873900
 30
0.0
 10
112.112415
 20
205.669010
 30
0.0
  0
LWPOLYLINE
  5
1db
100
AcDbEntity
  8
chars
 62
7
100
AcDbPolyline
 90
3
 70
0
 10
108.156755
 20
198.632310
 30
0.0
 10
110.720975
 20
198.632310
 30
0.0
 10
111.714865
 20
203.243930
 30
0.0
  0
SPLINE
  5
1dc
100
AcDbEntity
  8
chars
 62
7
100
AcDbSpline
 70
8
 71
3
 72
8
 73
4
 74
0
 40
0
 40
0
 40
0
 40
0
 40
1
 40
1
 40
1
 40
1
 10
112.172015
 20
205.669010
 30
0.0
 10
112.251515
 20
204.873900
 30
0.0
 10
112.410555
 20
204.058920
 30
0.0
 10
112.589455
 20
203.243930
 30
0.0
  0
LWPOLYLINE
  5
1dd
100
AcDbEntity
  8
chars
 62
7
100
AcDbPolyline
 90
2
 70
0
 10
112.112415
 20
205.669010
 30
0.0
 10
112.172015
 20
205.669010
 30
0.0
  0
SPLINE
  5
1de
100
AcDbEntity
  8
chars
 62
7
100
AcDbSpline
 70
8
 71
3
 72
8
 73
4
 74
0
 40
0
 40
0
 40
0
 40
0
 40
1
 40
1
 40
1
 40
1
 10
114.994645
 20
204.098670
 30
0.0
 10
114.915145
 20
203.025280
 30
0.0
 10
114.895245
 20
202.210300
 30
0.0
 10
114.835625
 20
200.977880
 30
0.0
  0
LWPOLYLINE
  5
1df
100
AcDbEntity
  8
chars
 62
7
100
AcDbPolyline
 90
6
 70
0
 10
112.589455
 20
203.243930
 30
0.0
 10
113.603215
 20
198.632310
 30
0.0
 10
116.207185
 20
198.632310
 30
0.0
 10
117.956425
 20
211.632310
 30
0.0
 10
115.630735
 20
211.632310
 30
0.0
 10
114.994645
 20
204.098670
 30
0.0
  0
SPLINE
  5
1e0
100
AcDbEntity
  8
chars
 62
7
100
AcDbSpline
 70
8
 71
3
 72
8
 73
4
 74
0
 40
0
 40
0
 40
0
 40
0
 40
1
 40
1
 40
1
 40
1
 10
114.756125
 20
200.977880
 30
0.0
 10
114.557355
 20
202.210300
 30
0.0
 10
114.378455
 20
203.025280
 30
0.0
 10
114.120045
 20
204.098670
 30
0.0
  0
LWPOLYLINE
  5
1e1
100
AcDbEntity
  8
chars
 62
7
100
AcDbPolyline
 90
2
 70
0
 10
114.835625
 20
200.977880
 30
0.0
 10
114.756125
 20
200.977880
 30
0.0
  0
SPLINE
  5
1e2
100
AcDbEntity
  8
chars
 62
7
100
AcDbSpline
 70
8
 71
3
 72
8
 73
4
 74
0
 40
0
 40
0
 40
0
 40
0
 40
1
 40
1
 40
1
 40
1
 10
110.303525
 20
204.098670
 30
0.0
 10
110.064995
 20
203.005400
 30
0.0
 10
109.886095
 20
202.190420
 30
0.0
 10
109.667445
 20
200.977880
 30
0.0
  0
LWPOLYLINE
  5
1e3
100
AcDbEntity
  8
chars
 62
7
100
AcDbPolyline
 90
4
 70
0
 10
114.120045
 20
204.098670
 30
0.0
 10
113.106285
 20
208.312740
 30
0.0
 10
111.376925
 20
208.312740
 30
0.0
 10
110.303525
 20
204.098670
 30
0.0
  0
SPLINE
  5
1e4
100
AcDbEntity
  8
chars
 62
7
100
AcDbSpline
 70
8
 71
3
 72
8
 73
4
 74
0
 40
0
 40
0
 40
0
 40
0
 40
1
 40
1
 40
1
 40
1
 10
109.607845
 20
200.977880
 30
0.0
 10
109.568145
 20
202.190420
 30
0.0
 10
109.508445
 20
203.005400
 30
0.0
 10
109.428955
 20
204.098670
 30
0.0
  0
LWPOLYLINE
  5
1e5
100
AcDbEntity
  8
chars
 62
7
100
AcDbPolyline
 90
2
 70
0
 10
109.667445
 20
200.977880
 30
0.0
 10
109.607845
 20
200.977880
 30
0.0
  0
LWPOLYLINE
  5
1e6
100
AcDbEntity
  8
chars
 62
7
100
AcDbPolyline
 90
4
 70
0
 10
109.428955
 20
204.098670
 30
0.0
 10
108.772985
 20
211.632310
 30
0.0
 10
106.308155
 20
211.632310
 30
0.0
 10
108.156755
 20
198.632310
 30
0.0
  0
LWPOLYLINE
  5
1e7
100
AcDbEntity
  8
chars
 62
7
100
AcDbPolyline
 90
10
 70
1
 10
80.341776
 20
198.632290
 30
0.0
 10
89.922816
 20
198.632290
 30
0.0
 10
89.922816
 20
200.580310
 30
0.0
 10
83.164406
 20
200.580310
 30
0.0
 10
89.843305
 20
210.240860
 30
0.0
 10
89.843305
 20
211.632290
 30
0.0
 10
80.938106
 20
211.632290
 30
0.0
 10
80.938106
 20
209.704160
 30
0.0
 10
87.000798
 20
209.704160
 30
0.0
 10
80.341776
 20
200.023730
 30
0.0
  0
LWPOLYLINE
  5
1e8
100
AcDbEntity
  8
chars
 62
7
100
AcDbPolyline
 90
13
 70
1
 10
80.113183
 20
168.632300
 30
0.0
 10
82.458748
 20
168.632300
 30
0.0
 10
82.458748
 20
172.468690
 30
0.0
 10
84.307372
 20
174.814260
 30
0.0
 10
87.587189
 20
168.632300
 30
0.0
 10
90.151409
 20
168.632300
 30
0.0
 10
85.718687
 20
176.583370
 30
0.0
 10
89.733978
 20
181.632300
 30
0.0
 10
87.149880
 20
181.632300
 30
0.0
 10
82.518381
 20
175.728630
 30
0.0
 10
82.458751
 20
175.728630
 30
0.0
 10
82.458751
 20
181.632300
 30
0.0
 10
80.113186
 20
181.632300
 30
0.0
  0
LWPOLYLINE
  5
1e9
100
AcDbEntity
  8
chars
 62
7
100
AcDbPolyline
 90
12
 70
1
 10
161.868535
 20
168.632300
 30
0.0
 10
170.396065
 20
168.632300
 30
0.0
 10
170.396065
 20
170.580310
 30
0.0
 10
164.174345
 20
170.580310
 30
0.0
 10
164.174345
 20
174.416700
 30
0.0
 10
169.282915
 20
174.416700
 30
0.0
 10
169.282915
 20
176.364710
 30
0.0
 10
164.174345
 20
176.364710
 30
0.0
 10
164.174345
 20
179.684290
 30
0.0
 10
170.197285
 20
179.684290
 30
0.0
 10
170.197285
 20
181.632300
 30
0.0
 10
161.868535
 20
181.632300
 30
0.0
  0
SPLINE
  5
1ea
100
AcDbEntity
  8
chars
 62
7
100
AcDbSpline
 70
8
 71
3
 72
8
 73
4
 74
0
 40
0
 40
0
 40
0
 40
0
 40
1
 40
1
 40
1
 40
1
 10
219.868795
 20
168.632300
 30
0.0
 10
223.226145
 20
168.632300
 30
0.0
 10
224.377795
 20
170.642810
 30
0.0
 10
224.377795
 20
173.082750
 30
0.0
  0
LWPOLYLINE
  5
1eb
100
AcDbEntity
  8
chars
 62
7
100
AcDbPolyline
 90
12
 70
1
 10
188.838720
 20
168.632300
 30
0.0
 10
197.425880
 20
168.632300
 30
0.0
 10
197.425880
 20
170.580310
 30
0.0
 10
194.285200
 20
170.580310
 30
0.0
 10
194.285200
 20
179.684290
 30
0.0
 10
197.425880
 20
179.684290
 30
0.0
 10
197.425880
 20
181.632300
 30
0.0
 10
188.838720
 20
181.632300
 30
0.0
 10
188.838720
 20
179.684290
 30
0.0
 10
191.979390
 20
179.684290
 30
0.0
 10
191.979390
 20
170.580310
 30
0.0
 10
188.838720
 20
170.580310
 30
0.0
  0
SPLINE
  5
1ec
100
AcDbEntity
  8
chars
 62
7
100
AcDbSpline
 70
8
 71
3
 72
8
 73
4
 74
0
 40
0
 40
0
 40
0
 40
0
 40
1
 40
1
 40
1
 40
1
 10
222.113535
 20
173.277950
 30
0.0
 10
222.113535
 20
171.345520
 30
0.0
 10
221.371795
 20
170.603770
 30
0.0
 10
219.810235
 20
170.603770
 30
0.0
  0
SPLINE
  5
1ed
100
AcDbEntity
  8
chars
 62
7
100
AcDbSpline
 70
8
 71
3
 72
8
 73
4
 74
0
 40
0
 40
0
 40
0
 40
0
 40
1
 40
1
 40
1
 40
1
 10
219.810235
 20
170.603770
 30
0.0
 10
218.892815
 20
170.603770
 30
0.0
 10
217.955875
 20
171.111280
 30
0.0
 10
217.214135
 20
172.145820
 30
0.0
  0
LWPOLYLINE
  5
1ee
100
AcDbEntity
  8
chars
 62
7
100
AcDbPolyline
 90
6
 70
0
 10
224.377795
 20
173.082750
 30
0.0
 10
224.377795
 20
181.632300
 30
0.0
 10
216.940865
 20
181.632300
 30
0.0
 10
216.940865
 20
179.738910
 30
0.0
 10
222.113535
 20
179.738910
 30
0.0
 10
222.113535
 20
173.277950
 30
0.0
  0
SPLINE
  5
1ef
100
AcDbEntity
  8
chars
 62
7
100
AcDbSpline
 70
8
 71
3
 72
8
 73
4
 74
0
 40
0
 40
0
 40
0
 40
0
 40
1
 40
1
 40
1
 40
1
 10
215.886805
 20
170.740410
 30
0.0
 10
216.882305
 20
169.237410
 30
0.0
 10
218.463385
 20
168.632300
 30
0.0
 10
219.868795
 20
168.632300
 30
0.0
  0
LWPOLYLINE
  5
1f0
100
AcDbEntity
  8
chars
 62
7
100
AcDbPolyline
 90
2
 70
0
 10
217.214135
 20
172.145820
 30
0.0
 10
215.886805
 20
170.740410
 30
0.0
  0
LWPOLYLINE
  5
1f1
100
AcDbEntity
  8
chars
 62
7
100
AcDbPolyline
 90
1
 70
1
 10
219.868795
 20
168.632300
 30
0.0
  0
LWPOLYLINE
  5
1f2
100
AcDbEntity
  8
chars
 62
7
100
AcDbPolyline
 90
6
 70
1
 10
242.938110
 20
168.632300
 30
0.0
 10
251.326490
 20
168.632300
 30
0.0
 10
251.326490
 20
170.580310
 30
0.0
 10
245.224040
 20
170.580310
 30
0.0
 10
245.224040
 20
181.632300
 30
0.0
 10
242.938110
 20
181.632300
 30
0.0
  0
SPLINE
  5
1f3
100
AcDbEntity
  8
chars
 62
7
100
AcDbSpline
 70
8
 71
3
 72
8
 73
4
 74
0
 40
0
 40
0
 40
0
 40
0
 40
1
 40
1
 40
1
 40
1
 10
301.151815
 20
168.632300
 30
0.0
 10
303.962635
 20
168.632300
 30
0.0
 10
305.582755
 20
170.252420
 30
0.0
 10
305.582755
 20
173.746420
 30
0.0
  0
LWPOLYLINE
  5
1f4
100
AcDbEntity
  8
chars
 62
7
100
AcDbPolyline
 90
10
 70
1
 10
269.977865
 20
168.632300
 30
0.0
 10
272.283675
 20
168.632300
 30
0.0
 10
272.283675
 20
174.058900
 30
0.0
 10
277.392235
 20
174.058900
 30
0.0
 10
277.392235
 20
176.006920
 30
0.0
 10
272.283675
 20
176.006920
 30
0.0
 10
272.283675
 20
179.684290
 30
0.0
 10
278.286735
 20
179.684290
 30
0.0
 10
278.286735
 20
181.632300
 30
0.0
 10
269.977865
 20
181.632300
 30
0.0
  0
SPLINE
  5
1f5
100
AcDbEntity
  8
chars
 62
7
100
AcDbSpline
 70
8
 71
3
 72
8
 73
4
 74
0
 40
0
 40
0
 40
0
 40
0
 40
1
 40
1
 40
1
 40
1
 10
303.416085
 20
173.570740
 30
0.0
 10
303.416085
 20
171.482150
 30
0.0
 10
302.537705
 20
170.603770
 30
0.0
 10
301.151815
 20
170.603770
 30
0.0
  0
SPLINE
  5
1f6
100
AcDbEntity
  8
chars
 62
7
100
AcDbSpline
 70
8
 71
3
 72
8
 73
4
 74
0
 40
0
 40
0
 40
0
 40
0
 40
1
 40
1
 40
1
 40
1
 10
301.151815
 20
170.603770
 30
0.0
 10
299.785455
 20
170.603770
 30
0.0
 10
298.946115
 20
171.482150
 30
0.0
 10
298.946115
 20
173.570740
 30
0.0
  0
LWPOLYLINE
  5
1f7
100
AcDbEntity
  8
chars
 62
7
100
AcDbPolyline
 90
4
 70
0
 10
305.582755
 20
173.746420
 30
0.0
 10
305.582755
 20
181.632300
 30
0.0
 10
303.416085
 20
181.632300
 30
0.0
 10
303.416085
 20
173.570740
 30
0.0
  0
SPLINE
  5
1f8
100
AcDbEntity
  8
chars
 62
7
100
AcDbSpline
 70
8
 71
3
 72
8
 73
4
 74
0
 40
0
 40
0
 40
0
 40
0
 40
1
 40
1
 40
1
 40
1
 10
296.681845
 20
173.746420
 30
0.0
 10
296.681845
 20
170.252420
 30
0.0
 10
298.360525
 20
168.632300
 30
0.0
 10
301.151815
 20
168.632300
 30
0.0
  0
LWPOLYLINE
  5
1f9
100
AcDbEntity
  8
chars
 62
7
100
AcDbPolyline
 90
4
 70
0
 10
298.946115
 20
173.570740
 30
0.0
 10
298.946115
 20
181.632300
 30
0.0
 10
296.681845
 20
181.632300
 30
0.0
 10
296.681845
 20
173.746420
 30
0.0
  0
LWPOLYLINE
  5
1fa
100
AcDbEntity
  8
chars
 62
7
100
AcDbPolyline
 90
1
 70
1
 10
301.151815
 20
168.632300
 30
0.0
  0
SPLINE
  5
1fb
100
AcDbEntity
  8
chars
 62
7
100
AcDbSpline
 70
8
 71
3
 72
8
 73
4
 74
0
 40
0
 40
0
 40
0
 40
0
 40
1
 40
1
 40
1
 40
1
 10
325.846400
 20
174.317310
 30
0.0
 10
325.846400
 20
175.768380
 30
0.0
 10
325.627740
 20
177.318840
 30
0.0
 10
325.528350
 20
178.710280
 30
0.0
  0
LWPOLYLINE
  5
1fc
100
AcDbEntity
  8
chars
 62
7
100
AcDbPolyline
 90
3
 70
0
 10
323.639970
 20
168.632300
 30
0.0
 10
325.846400
 20
168.632300
 30
0.0
 10
325.846400
 20
174.317310
 30
0.0
  0
SPLINE
  5
1fd
100
AcDbEntity
  8
chars
 62
7
100
AcDbSpline
 70
8
 71
3
 72
8
 73
4
 74
0
 40
0
 40
0
 40
0
 40
0
 40
1
 40
1
 40
1
 40
1
 10
330.418220
 20
175.987040
 30
0.0
 10
330.418220
 20
174.535970
 30
0.0
 10
330.636880
 20
172.886120
 30
0.0
 10
330.736260
 20
171.554320
 30
0.0
  0
LWPOLYLINE
  5
1fe
100
AcDbEntity
  8
chars
 62
7
100
AcDbPolyline
 90
8
 70
0
 10
325.528350
 20
178.710280
 30
0.0
 10
325.587950
 20
178.710280
 30
0.0
 10
326.760730
 20
175.947280
 30
0.0
 10
330.199570
 20
168.632300
 30
0.0
 10
332.624640
 20
168.632300
 30
0.0
 10
332.624640
 20
181.632300
 30
0.0
 10
330.418220
 20
181.632300
 30
0.0
 10
330.418220
 20
175.987040
 30
0.0
  0
LWPOLYLINE
  5
1ff
100
AcDbEntity
  8
chars
 62
7
100
AcDbPolyline
 90
6
 70
0
 10
330.736260
 20
171.554320
 30
0.0
 10
330.676660
 20
171.554320
 30
0.0
 10
329.503880
 20
174.337190
 30
0.0
 10
326.065040
 20
181.632300
 30
0.0
 10
323.639960
 20
181.632300
 30
0.0
 10
323.639970
 20
168.632300
 30
0.0
  0
LWPOLYLINE
  5
200
100
AcDbEntity
  8
chars
 62
7
100
AcDbPolyline
 90
10
 70
1
 10
350.977861
 20
168.632300
 30
0.0
 10
353.283671
 20
168.632300
 30
0.0
 10
353.283671
 20
174.058900
 30
0.0
 10
358.392231
 20
174.058900
 30
0.0
 10
358.392231
 20
176.006920
 30
0.0
 10
353.283671
 20
176.006920
 30
0.0
 10
353.283671
 20
179.684290
 30
0.0
 10
359.286731
 20
179.684290
 30
0.0
 10
359.286731
 20
181.632300
 30
0.0
 10
350.977861
 20
181.632300
 30
0.0
  0
LWPOLYLINE
  5
201
100
AcDbEntity
  8
chars
 62
7
100
AcDbPolyline
 90
12
 70
1
 10
323.868540
 20
138.632290
 30
0.0
 10
332.396060
 20
138.632290
 30
0.0
 10
332.396060
 20
140.580310
 30
0.0
 10
326.174350
 20
140.580310
 30
0.0
 10
326.174350
 20
144.416700
 30
0.0
 10
331.282910
 20
144.416700
 30
0.0
 10
331.282910
 20
146.364710
 30
0.0
 10
326.174350
 20
146.364710
 30
0.0
 10
326.174350
 20
149.684280
 30
0.0
 10
332.197280
 20
149.684280
 30
0.0
 10
332.197280
 20
151.632290
 30
0.0
 10
323.868540
 20
151.632290
 30
0.0
  0
LWPOLYLINE
  5
202
100
AcDbEntity
  8
chars
 62
7
100
AcDbPolyline
 90
12
 70
1
 10
296.838720
 20
138.632290
 30
0.0
 10
305.425880
 20
138.632290
 30
0.0
 10
305.425880
 20
140.580310
 30
0.0
 10
302.285200
 20
140.580310
 30
0.0
 10
302.285200
 20
149.684280
 30
0.0
 10
305.425880
 20
149.684280
 30
0.0
 10
305.425880
 20
151.632290
 30
0.0
 10
296.838720
 20
151.632290
 30
0.0
 10
296.838720
 20
149.684280
 30
0.0
 10
299.979390
 20
149.684280
 30
0.0
 10
299.979390
 20
140.580310
 30
0.0
 10
296.838720
 20
140.580310
 30
0.0
  0
SPLINE
  5
203
100
AcDbEntity
  8
chars
 62
7
100
AcDbSpline
 70
8
 71
3
 72
8
 73
4
 74
0
 40
0
 40
0
 40
0
 40
0
 40
1
 40
1
 40
1
 40
1
 10
275.364715
 20
145.092540
 30
0.0
 10
274.967155
 20
143.621590
 30
0.0
 10
274.668995
 20
142.349420
 30
0.0
 10
274.231685
 20
140.858590
 30
0.0
  0
LWPOLYLINE
  5
204
100
AcDbEntity
  8
chars
 62
7
100
AcDbPolyline
 90
5
 70
0
 10
272.780615
 20
138.632290
 30
0.0
 10
275.503855
 20
138.632290
 30
0.0
 10
279.539025
 20
151.632290
 30
0.0
 10
277.173575
 20
151.632290
 30
0.0
 10
275.364715
 20
145.092540
 30
0.0
  0
SPLINE
  5
205
100
AcDbEntity
  8
chars
 62
7
100
AcDbSpline
 70
8
 71
3
 72
8
 73
4
 74
0
 40
0
 40
0
 40
0
 40
0
 40
1
 40
1
 40
1
 40
1
 10
274.152185
 20
140.858590
 30
0.0
 10
273.714875
 20
142.349420
 30
0.0
 10
273.416705
 20
143.621590
 30
0.0
 10
272.999275
 20
145.092540
 30
0.0
  0
LWPOLYLINE
  5
206
100
AcDbEntity
  8
chars
 62
7
100
AcDbPolyline
 90
2
 70
0
 10
274.231685
 20
140.858590
 30
0.0
 10
274.152185
 20
140.858590
 30
0.0
  0
LWPOLYLINE
  5
207
100
AcDbEntity
  8
chars
 62
7
100
AcDbPolyline
 90
4
 70
0
 10
272.999275
 20
145.092540
 30
0.0
 10
271.170535
 20
151.632290
 30
0.0
 10
268.725575
 20
151.632290
 30
0.0
 10
272.780615
 20
138.632290
 30
0.0
  0
SPLINE
  5
208
100
AcDbEntity
  8
chars
 62
7
100
AcDbSpline
 70
8
 71
3
 72
8
 73
4
 74
0
 40
0
 40
0
 40
0
 40
0
 40
1
 40
1
 40
1
 40
1
 10
244.846400
 20
144.317310
 30
0.0
 10
244.846400
 20
145.768380
 30
0.0
 10
244.627740
 20
147.318840
 30
0.0
 10
244.528350
 20
148.710280
 30
0.0
  0
LWPOLYLINE
  5
209
100
AcDbEntity
  8
chars
 62
7
100
AcDbPolyline
 90
3
 70
0
 10
242.639970
 20
138.632290
 30
0.0
 10
244.846400
 20
138.632290
 30
0.0
 10
244.846400
 20
144.317310
 30
0.0
  0
SPLINE
  5
20a
100
AcDbEntity
  8
chars
 62
7
100
AcDbSpline
 70
8
 71
3
 72
8
 73
4
 74
0
 40
0
 40
0
 40
0
 40
0
 40
1
 40
1
 40
1
 40
1
 10
249.418220
 20
145.987030
 30
0.0
 10
249.418220
 20
144.535960
 30
0.0
 10
249.636880
 20
142.886120
 30
0.0
 10
249.736260
 20
141.554310
 30
0.0
  0
LWPOLYLINE
  5
20b
100
AcDbEntity
  8
chars
 62
7
100
AcDbPolyline
 90
8
 70
0
 10
244.528350
 20
148.710280
 30
0.0
 10
244.587950
 20
148.710280
 30
0.0
 10
245.760730
 20
145.947280
 30
0.0
 10
249.199570
 20
138.632290
 30
0.0
 10
251.624640
 20
138.632290
 30
0.0
 10
251.624640
 20
151.632290
 30
0.0
 10
249.418220
 20
151.632290
 30
0.0
 10
249.418220
 20
145.987030
 30
0.0
  0
SPLINE
  5
20c
100
AcDbEntity
  8
chars
 62
7
100
AcDbSpline
 70
8
 71
3
 72
8
 73
4
 74
0
 40
0
 40
0
 40
0
 40
0
 40
1
 40
1
 40
1
 40
1
 10
220.151815
 20
138.632290
 30
0.0
 10
222.962635
 20
138.632290
 30
0.0
 10
224.582755
 20
140.252410
 30
0.0
 10
224.582755
 20
143.746400
 30
0.0
  0
LWPOLYLINE
  5
20d
100
AcDbEntity
  8
chars
 62
7
100
AcDbPolyline
 90
6
 70
0
 10
249.736260
 20
141.554310
 30
0.0
 10
249.676660
 20
141.554310
 30
0.0
 10
248.503880
 20
144.337190
 30
0.0
 10
245.065040
 20
151.632290
 30
0.0
 10
242.639960
 20
151.632290
 30
0.0
 10
242.639970
 20
138.632290
 30
0.0
  0
SPLINE
  5
20e
100
AcDbEntity
  8
chars
 62
7
100
AcDbSpline
 70
8
 71
3
 72
8
 73
4
 74
0
 40
0
 40
0
 40
0
 40
0
 40
1
 40
1
 40
1
 40
1
 10
222.416085
 20
143.570730
 30
0.0
 10
222.416085
 20
141.482140
 30
0.0
 10
221.537705
 20
140.603760
 30
0.0
 10
220.151815
 20
140.603760
 30
0.0
  0
SPLINE
  5
20f
100
AcDbEntity
  8
chars
 62
7
100
AcDbSpline
 70
8
 71
3
 72
8
 73
4
 74
0
 40
0
 40
0
 40
0
 40
0
 40
1
 40
1
 40
1
 40
1
 10
220.151815
 20
140.603760
 30
0.0
 10
218.785455
 20
140.603760
 30
0.0
 10
217.946115
 20
141.482140
 30
0.0
 10
217.946115
 20
143.570730
 30
0.0
  0
LWPOLYLINE
  5
210
100
AcDbEntity
  8
chars
 62
7
100
AcDbPolyline
 90
4
 70
0
 10
224.582755
 20
143.746400
 30
0.0
 10
224.582755
 20
151.632290
 30
0.0
 10
222.416085
 20
151.632290
 30
0.0
 10
222.416085
 20
143.570730
 30
0.0
  0
SPLINE
  5
211
100
AcDbEntity
  8
chars
 62
7
100
AcDbSpline
 70
8
 71
3
 72
8
 73
4
 74
0
 40
0
 40
0
 40
0
 40
0
 40
1
 40
1
 40
1
 40
1
 10
215.681845
 20
143.746400
 30
0.0
 10
215.681845
 20
140.252410
 30
0.0
 10
217.360525
 20
138.632290
 30
0.0
 10
220.151815
 20
138.632290
 30
0.0
  0
LWPOLYLINE
  5
212
100
AcDbEntity
  8
chars
 62
7
100
AcDbPolyline
 90
4
 70
0
 10
217.946115
 20
143.570730
 30
0.0
 10
217.946115
 20
151.632290
 30
0.0
 10
215.681845
 20
151.632290
 30
0.0
 10
215.681845
 20
143.746400
 30
0.0
  0
LWPOLYLINE
  5
213
100
AcDbEntity
  8
chars
 62
7
100
AcDbPolyline
 90
1
 70
1
 10
220.151815
 20
138.632290
 30
0.0
  0
LWPOLYLINE
  5
214
100
AcDbEntity
  8
chars
 62
7
100
AcDbPolyline
 90
12
 70
1
 10
188.868535
 20
138.632290
 30
0.0
 10
197.396065
 20
138.632290
 30
0.0
 10
197.396065
 20
140.580310
 30
0.0
 10
191.174345
 20
140.580310
 30
0.0
 10
191.174345
 20
144.416700
 30
0.0
 10
196.282915
 20
144.416700
 30
0.0
 10
196.282915
 20
146.364710
 30
0.0
 10
191.174345
 20
146.364710
 30
0.0
 10
191.174345
 20
149.684280
 30
0.0
 10
197.197285
 20
149.684280
 30
0.0
 10
197.197285
 20
151.632290
 30
0.0
 10
188.868535
 20
151.632290
 30
0.0
  0
SPLINE
  5
215
100
AcDbEntity
  8
chars
 62
7
100
AcDbSpline
 70
8
 71
3
 72
8
 73
4
 74
0
 40
0
 40
0
 40
0
 40
0
 40
1
 40
1
 40
1
 40
1
 10
163.846380
 20
144.317310
 30
0.0
 10
163.846380
 20
145.768380
 30
0.0
 10
163.627730
 20
147.318840
 30
0.0
 10
163.528340
 20
148.710280
 30
0.0
  0
LWPOLYLINE
  5
216
100
AcDbEntity
  8
chars
 62
7
100
AcDbPolyline
 90
3
 70
0
 10
161.639960
 20
138.632290
 30
0.0
 10
163.846380
 20
138.632290
 30
0.0
 10
163.846380
 20
144.317310
 30
0.0
  0
SPLINE
  5
217
100
AcDbEntity
  8
chars
 62
7
100
AcDbSpline
 70
8
 71
3
 72
8
 73
4
 74
0
 40
0
 40
0
 40
0
 40
0
 40
1
 40
1
 40
1
 40
1
 10
168.418220
 20
145.987030
 30
0.0
 10
168.418220
 20
144.535960
 30
0.0
 10
168.636870
 20
142.886120
 30
0.0
 10
168.736260
 20
141.554310
 30
0.0
  0
LWPOLYLINE
  5
218
100
AcDbEntity
  8
chars
 62
7
100
AcDbPolyline
 90
8
 70
0
 10
163.528340
 20
148.710280
 30
0.0
 10
163.587940
 20
148.710280
 30
0.0
 10
164.760720
 20
145.947280
 30
0.0
 10
168.199560
 20
138.632290
 30
0.0
 10
170.624640
 20
138.632290
 30
0.0
 10
170.624640
 20
151.632290
 30
0.0
 10
168.418220
 20
151.632290
 30
0.0
 10
168.418220
 20
145.987030
 30
0.0
  0
LWPOLYLINE
  5
219
100
AcDbEntity
  8
chars
 62
7
100
AcDbPolyline
 90
6
 70
0
 10
168.736260
 20
141.554310
 30
0.0
 10
168.676660
 20
141.554310
 30
0.0
 10
167.503870
 20
144.337190
 30
0.0
 10
164.065040
 20
151.632290
 30
0.0
 10
161.639960
 20
151.632290
 30
0.0
 10
161.639960
 20
138.632290
 30
0.0
  0
LWPOLYLINE
  5
21a
100
AcDbEntity
  8
chars
 62
7
100
AcDbPolyline
 90
10
 70
1
 10
134.977870
 20
138.632290
 30
0.0
 10
137.283680
 20
138.632290
 30
0.0
 10
137.283680
 20
144.058900
 30
0.0
 10
142.392240
 20
144.058900
 30
0.0
 10
142.392240
 20
146.006910
 30
0.0
 10
137.283680
 20
146.006910
 30
0.0
 10
137.283680
 20
149.684280
 30
0.0
 10
143.286730
 20
149.684280
 30
0.0
 10
143.286730
 20
151.632290
 30
0.0
 10
134.977870
 20
151.632290
 30
0.0
  0
LWPOLYLINE
  5
21b
100
AcDbEntity
  8
chars
 62
7
100
AcDbPolyline
 90
6
 70
1
 10
107.938100
 20
138.632290
 30
0.0
 10
116.326480
 20
138.632290
 30
0.0
 10
116.326480
 20
140.580310
 30
0.0
 10
110.224030
 20
140.580310
 30
0.0
 10
110.224030
 20
151.632290
 30
0.0
 10
107.938100
 20
151.632290
 30
0.0
  0
LWPOLYLINE
  5
21c
100
AcDbEntity
  8
chars
 62
7
100
AcDbPolyline
 90
12
 70
1
 10
80.868534
 20
138.632290
 30
0.0
 10
89.396057
 20
138.632290
 30
0.0
 10
89.396057
 20
140.580310
 30
0.0
 10
83.174344
 20
140.580310
 30
0.0
 10
83.174344
 20
144.416700
 30
0.0
 10
88.282907
 20
144.416700
 30
0.0
 10
88.282907
 20
146.364710
 30
0.0
 10
83.174344
 20
146.364710
 30
0.0
 10
83.174344
 20
149.684280
 30
0.0
 10
89.197280
 20
149.684280
 30
0.0
 10
89.197280
 20
151.632290
 30
0.0
 10
80.868534
 20
151.632290
 30
0.0
  0
SPLINE
  5
21d
100
AcDbEntity
  8
chars
 62
7
100
AcDbSpline
 70
8
 71
3
 72
8
 73
4
 74
0
 40
0
 40
0
 40
0
 40
0
 40
1
 40
1
 40
1
 40
1
 10
84.714866
 20
113.243910
 30
0.0
 10
84.893765
 20
114.058900
 30
0.0
 10
84.993154
 20
114.873880
 30
0.0
 10
85.112420
 20
115.668990
 30
0.0
  0
LWPOLYLINE
  5
21e
100
AcDbEntity
  8
chars
 62
7
100
AcDbPolyline
 90
3
 70
0
 10
81.156762
 20
108.632290
 30
0.0
 10
83.720982
 20
108.632290
 30
0.0
 10
84.714866
 20
113.243910
 30
0.0
  0
SPLINE
  5
21f
100
AcDbEntity
  8
chars
 62
7
100
AcDbSpline
 70
8
 71
3
 72
8
 73
4
 74
0
 40
0
 40
0
 40
0
 40
0
 40
1
 40
1
 40
1
 40
1
 10
85.172050
 20
115.668990
 30
0.0
 10
85.251560
 20
114.873880
 30
0.0
 10
85.410582
 20
114.058900
 30
0.0
 10
85.589481
 20
113.243910
 30
0.0
  0
LWPOLYLINE
  5
220
100
AcDbEntity
  8
chars
 62
7
100
AcDbPolyline
 90
2
 70
0
 10
85.112420
 20
115.668990
 30
0.0
 10
85.172050
 20
115.668990
 30
0.0
  0
SPLINE
  5
221
100
AcDbEntity
  8
chars
 62
7
100
AcDbSpline
 70
8
 71
3
 72
8
 73
4
 74
0
 40
0
 40
0
 40
0
 40
0
 40
1
 40
1
 40
1
 40
1
 10
87.994680
 20
114.098650
 30
0.0
 10
87.915170
 20
113.025260
 30
0.0
 10
87.895290
 20
112.210280
 30
0.0
 10
87.835658
 20
110.977860
 30
0.0
  0
LWPOLYLINE
  5
222
100
AcDbEntity
  8
chars
 62
7
100
AcDbPolyline
 90
6
 70
0
 10
85.589481
 20
113.243910
 30
0.0
 10
86.603242
 20
108.632290
 30
0.0
 10
89.207218
 20
108.632290
 30
0.0
 10
90.956453
 20
121.632290
 30
0.0
 10
88.630765
 20
121.632290
 30
0.0
 10
87.994680
 20
114.098650
 30
0.0
  0
SPLINE
  5
223
100
AcDbEntity
  8
chars
 62
7
100
AcDbSpline
 70
8
 71
3
 72
8
 73
4
 74
0
 40
0
 40
0
 40
0
 40
0
 40
1
 40
1
 40
1
 40
1
 10
87.756148
 20
110.977860
 30
0.0
 10
87.557371
 20
112.210280
 30
0.0
 10
87.378472
 20
113.025260
 30
0.0
 10
87.120062
 20
114.098650
 30
0.0
  0
LWPOLYLINE
  5
224
100
AcDbEntity
  8
chars
 62
7
100
AcDbPolyline
 90
2
 70
0
 10
87.835658
 20
110.977860
 30
0.0
 10
87.756148
 20
110.977860
 30
0.0
  0
SPLINE
  5
225
100
AcDbEntity
  8
chars
 62
7
100
AcDbSpline
 70
8
 71
3
 72
8
 73
4
 74
0
 40
0
 40
0
 40
0
 40
0
 40
1
 40
1
 40
1
 40
1
 10
83.303548
 20
114.098650
 30
0.0
 10
83.065016
 20
113.005380
 30
0.0
 10
82.886117
 20
112.190400
 30
0.0
 10
82.667463
 20
110.977860
 30
0.0
  0
LWPOLYLINE
  5
226
100
AcDbEntity
  8
chars
 62
7
100
AcDbPolyline
 90
4
 70
0
 10
87.120062
 20
114.098650
 30
0.0
 10
86.106301
 20
118.312720
 30
0.0
 10
84.376943
 20
118.312720
 30
0.0
 10
83.303548
 20
114.098650
 30
0.0
  0
SPLINE
  5
227
100
AcDbEntity
  8
chars
 62
7
100
AcDbSpline
 70
8
 71
3
 72
8
 73
4
 74
0
 40
0
 40
0
 40
0
 40
0
 40
1
 40
1
 40
1
 40
1
 10
82.607833
 20
110.977860
 30
0.0
 10
82.568073
 20
112.190400
 30
0.0
 10
82.508443
 20
113.005380
 30
0.0
 10
82.428933
 20
114.098650
 30
0.0
  0
LWPOLYLINE
  5
228
100
AcDbEntity
  8
chars
 62
7
100
AcDbPolyline
 90
2
 70
0
 10
82.667463
 20
110.977860
 30
0.0
 10
82.607833
 20
110.977860
 30
0.0
  0
SPLINE
  5
229
100
AcDbEntity
  8
chars
 62
7
100
AcDbSpline
 70
8
 71
3
 72
8
 73
4
 74
0
 40
0
 40
0
 40
0
 40
0
 40
1
 40
1
 40
1
 40
1
 10
139.956785
 20
108.632290
 30
0.0
 10
141.624925
 20
108.632290
 30
0.0
 10
142.947935
 20
109.284200
 30
0.0
 10
143.944985
 20
110.453820
 30
0.0
  0
LWPOLYLINE
  5
22a
100
AcDbEntity
  8
chars
 62
7
100
AcDbPolyline
 90
4
 70
0
 10
82.428933
 20
114.098650
 30
0.0
 10
81.772970
 20
121.632290
 30
0.0
 10
79.308138
 20
121.632290
 30
0.0
 10
81.156762
 20
108.632290
 30
0.0
  0
SPLINE
  5
22b
100
AcDbEntity
  8
chars
 62
7
100
AcDbSpline
 70
8
 71
3
 72
8
 73
4
 74
0
 40
0
 40
0
 40
0
 40
0
 40
1
 40
1
 40
1
 40
1
 10
142.717845
 20
111.815180
 30
0.0
 10
142.008405
 20
111.029040
 30
0.0
 10
141.183925
 20
110.568870
 30
0.0
 10
140.167695
 20
110.568870
 30
0.0
  0
SPLINE
  5
22c
100
AcDbEntity
  8
chars
 62
7
100
AcDbSpline
 70
8
 71
3
 72
8
 73
4
 74
0
 40
0
 40
0
 40
0
 40
0
 40
1
 40
1
 40
1
 40
1
 10
140.167695
 20
110.568870
 30
0.0
 10
138.020205
 20
110.568870
 30
0.0
 10
136.601325
 20
112.294530
 30
0.0
 10
136.601325
 20
115.151460
 30
0.0
  0
SPLINE
  5
22d
100
AcDbEntity
  8
chars
 62
7
100
AcDbSpline
 70
8
 71
3
 72
8
 73
4
 74
0
 40
0
 40
0
 40
0
 40
0
 40
1
 40
1
 40
1
 40
1
 10
136.601325
 20
115.151460
 30
0.0
 10
136.601325
 20
117.970050
 30
0.0
 10
138.020205
 20
119.695710
 30
0.0
 10
140.110175
 20
119.695710
 30
0.0
  0
SPLINE
  5
22e
100
AcDbEntity
  8
chars
 62
7
100
AcDbSpline
 70
8
 71
3
 72
8
 73
4
 74
0
 40
0
 40
0
 40
0
 40
0
 40
1
 40
1
 40
1
 40
1
 10
140.110175
 20
119.695710
 30
0.0
 10
141.088055
 20
119.695710
 30
0.0
 10
141.835845
 20
119.293050
 30
0.0
 10
142.468585
 20
118.679490
 30
0.0
  0
LWPOLYLINE
  5
22f
100
AcDbEntity
  8
chars
 62
7
100
AcDbPolyline
 90
2
 70
0
 10
143.944985
 20
110.453820
 30
0.0
 10
142.717845
 20
111.815180
 30
0.0
  0
SPLINE
  5
230
100
AcDbEntity
  8
chars
 62
7
100
AcDbSpline
 70
8
 71
3
 72
8
 73
4
 74
0
 40
0
 40
0
 40
0
 40
0
 40
1
 40
1
 40
1
 40
1
 10
143.695725
 20
120.060020
 30
0.0
 10
142.909585
 20
120.884500
 30
0.0
 10
141.663275
 20
121.632290
 30
0.0
 10
140.110175
 20
121.632290
 30
0.0
  0
SPLINE
  5
231
100
AcDbEntity
  8
chars
 62
7
100
AcDbSpline
 70
8
 71
3
 72
8
 73
4
 74
0
 40
0
 40
0
 40
0
 40
0
 40
1
 40
1
 40
1
 40
1
 10
140.110175
 20
121.632290
 30
0.0
 10
136.793065
 20
121.632290
 30
0.0
 10
134.319615
 20
119.197180
 30
0.0
 10
134.319615
 20
115.093940
 30
0.0
  0
SPLINE
  5
232
100
AcDbEntity
  8
chars
 62
7
100
AcDbSpline
 70
8
 71
3
 72
8
 73
4
 74
0
 40
0
 40
0
 40
0
 40
0
 40
1
 40
1
 40
1
 40
1
 10
134.319615
 20
115.093940
 30
0.0
 10
134.319615
 20
110.933170
 30
0.0
 10
136.850595
 20
108.632290
 30
0.0
 10
139.956785
 20
108.632290
 30
0.0
  0
LWPOLYLINE
  5
233
100
AcDbEntity
  8
chars
 62
7
100
AcDbPolyline
 90
2
 70
0
 10
142.468585
 20
118.679490
 30
0.0
 10
143.695725
 20
120.060020
 30
0.0
  0
LWPOLYLINE
  5
234
100
AcDbEntity
  8
chars
 62
7
100
AcDbPolyline
 90
1
 70
1
 10
139.956785
 20
108.632290
 30
0.0
  0
LWPOLYLINE
  5
235
100
AcDbEntity
  8
chars
 62
7
100
AcDbPolyline
 90
12
 70
1
 10
161.600190
 20
108.632290
 30
0.0
 10
163.906000
 20
108.632290
 30
0.0
 10
163.906000
 20
114.396820
 30
0.0
 10
168.358600
 20
114.396820
 30
0.0
 10
168.358600
 20
108.632290
 30
0.0
 10
170.664410
 20
108.632290
 30
0.0
 10
170.664410
 20
121.632290
 30
0.0
 10
168.358600
 20
121.632290
 30
0.0
 10
168.358600
 20
116.404470
 30
0.0
 10
163.906000
 20
116.404470
 30
0.0
 10
163.906000
 20
121.632290
 30
0.0
 10
161.600190
 20
121.632290
 30
0.0
  0
LWPOLYLINE
  5
236
100
AcDbEntity
  8
chars
 62
7
100
AcDbPolyline
 90
8
 70
1
 10
191.979390
 20
108.632290
 30
0.0
 10
194.285200
 20
108.632290
 30
0.0
 10
194.285200
 20
119.684280
 30
0.0
 10
198.380010
 20
119.684280
 30
0.0
 10
198.380010
 20
121.632290
 30
0.0
 10
187.884590
 20
121.632290
 30
0.0
 10
187.884590
 20
119.684280
 30
0.0
 10
191.979390
 20
119.684280
 30
0.0
  0
LWPOLYLINE
  5
237
100
AcDbEntity
  8
chars
 62
7
100
AcDbPolyline
 90
10
 70
1
 10
215.341780
 20
108.632290
 30
0.0
 10
224.922820
 20
108.632290
 30
0.0
 10
224.922820
 20
110.580310
 30
0.0
 10
218.164410
 20
110.580310
 30
0.0
 10
224.843300
 20
120.240860
 30
0.0
 10
224.843300
 20
121.632290
 30
0.0
 10
215.938110
 20
121.632290
 30
0.0
 10
215.938110
 20
119.704160
 30
0.0
 10
222.000800
 20
119.704160
 30
0.0
 10
215.341780
 20
110.023730
 30
0.0
  0
LWPOLYLINE
  5
238
100
AcDbEntity
  8
chars
 62
7
100
AcDbPolyline
 90
12
 70
1
 10
242.868535
 20
108.632290
 30
0.0
 10
251.396065
 20
108.632290
 30
0.0
 10
251.396065
 20
110.580310
 30
0.0
 10
245.174345
 20
110.580310
 30
0.0
 10
245.174345
 20
114.416700
 30
0.0
 10
250.282915
 20
114.416700
 30
0.0
 10
250.282915
 20
116.364710
 30
0.0
 10
245.174345
 20
116.364710
 30
0.0
 10
245.174345
 20
119.684280
 30
0.0
 10
251.197285
 20
119.684280
 30
0.0
 10
251.197285
 20
121.632290
 30
0.0
 10
242.868535
 20
121.632290
 30
0.0
  0
LWPOLYLINE
  5
239
100
AcDbEntity
  8
chars
 62
7
100
AcDbPolyline
 90
12
 70
1
 10
269.600190
 20
108.632290
 30
0.0
 10
271.906000
 20
108.632290
 30
0.0
 10
271.906000
 20
114.396820
 30
0.0
 10
276.358600
 20
114.396820
 30
0.0
 10
276.358600
 20
108.632290
 30
0.0
 10
278.664410
 20
108.632290
 30
0.0
 10
278.664410
 20
121.632290
 30
0.0
 10
276.358600
 20
121.632290
 30
0.0
 10
276.358600
 20
116.404470
 30
0.0
 10
271.906000
 20
116.404470
 30
0.0
 10
271.906000
 20
121.632290
 30
0.0
 10
269.600190
 20
121.632290
 30
0.0
  0
SPLINE
  5
23a
100
AcDbEntity
  8
chars
 62
7
100
AcDbSpline
 70
8
 71
3
 72
8
 73
4
 74
0
 40
0
 40
0
 40
0
 40
0
 40
1
 40
1
 40
1
 40
1
 10
298.846400
 20
114.317310
 30
0.0
 10
298.846400
 20
115.768380
 30
0.0
 10
298.627740
 20
117.318840
 30
0.0
 10
298.528350
 20
118.710280
 30
0.0
  0
LWPOLYLINE
  5
23b
100
AcDbEntity
  8
chars
 62
7
100
AcDbPolyline
 90
3
 70
0
 10
296.639970
 20
108.632290
 30
0.0
 10
298.846400
 20
108.632290
 30
0.0
 10
298.846400
 20
114.317310
 30
0.0
  0
SPLINE
  5
23c
100
AcDbEntity
  8
chars
 62
7
100
AcDbSpline
 70
8
 71
3
 72
8
 73
4
 74
0
 40
0
 40
0
 40
0
 40
0
 40
1
 40
1
 40
1
 40
1
 10
303.418220
 20
115.987030
 30
0.0
 10
303.418220
 20
114.535960
 30
0.0
 10
303.636880
 20
112.886120
 30
0.0
 10
303.736260
 20
111.554310
 30
0.0
  0
LWPOLYLINE
  5
23d
100
AcDbEntity
  8
chars
 62
7
100
AcDbPolyline
 90
8
 70
0
 10
298.528350
 20
118.710280
 30
0.0
 10
298.587950
 20
118.710280
 30
0.0
 10
299.760730
 20
115.947280
 30
0.0
 10
303.199570
 20
108.632290
 30
0.0
 10
305.624640
 20
108.632290
 30
0.0
 10
305.624640
 20
121.632290
 30
0.0
 10
303.418220
 20
121.632290
 30
0.0
 10
303.418220
 20
115.987030
 30
0.0
  0
SPLINE
  5
23e
100
AcDbEntity
  8
chars
 62
7
100
AcDbSpline
 70
8
 71
3
 72
8
 73
4
 74
0
 40
0
 40
0
 40
0
 40
0
 40
1
 40
1
 40
1
 40
1
 10
355.151466
 20
108.632290
 30
0.0
 10
358.065926
 20
108.632290
 30
0.0
 10
359.791586
 20
110.319600
 30
0.0
 10
359.791586
 20
112.352050
 30
0.0
  0
SPLINE
  5
23f
100
AcDbEntity
  8
chars
 62
7
100
AcDbSpline
 70
8
 71
3
 72
8
 73
4
 74
0
 40
0
 40
0
 40
0
 40
0
 40
1
 40
1
 40
1
 40
1
 10
359.791586
 20
112.352050
 30
0.0
 10
359.791586
 20
114.173590
 30
0.0
 10
358.660316
 20
115.113110
 30
0.0
 10
357.068876
 20
115.745860
 30
0.0
  0
LWPOLYLINE
  5
240
100
AcDbEntity
  8
chars
 62
7
100
AcDbPolyline
 90
6
 70
0
 10
303.736260
 20
111.554310
 30
0.0
 10
303.676660
 20
111.554310
 30
0.0
 10
302.503880
 20
114.337190
 30
0.0
 10
299.065040
 20
121.632290
 30
0.0
 10
296.639960
 20
121.632290
 30
0.0
 10
296.639970
 20
108.632290
 30
0.0
  0
SPLINE
  5
241
100
AcDbEntity
  8
chars
 62
7
100
AcDbSpline
 70
8
 71
3
 72
8
 73
4
 74
0
 40
0
 40
0
 40
0
 40
0
 40
1
 40
1
 40
1
 40
1
 10
355.419906
 20
116.455300
 30
0.0
 10
354.288636
 20
116.896300
 30
0.0
 10
353.272416
 20
117.260610
 30
0.0
 10
353.272416
 20
118.219310
 30
0.0
  0
SPLINE
  5
242
100
AcDbEntity
  8
chars
 62
7
100
AcDbSpline
 70
8
 71
3
 72
8
 73
4
 74
0
 40
0
 40
0
 40
0
 40
0
 40
1
 40
1
 40
1
 40
1
 10
353.272416
 20
118.219310
 30
0.0
 10
353.272416
 20
119.158840
 30
0.0
 10
354.077726
 20
119.695710
 30
0.0
 10
355.266516
 20
119.695710
 30
0.0
  0
SPLINE
  5
243
100
AcDbEntity
  8
chars
 62
7
100
AcDbSpline
 70
8
 71
3
 72
8
 73
4
 74
0
 40
0
 40
0
 40
0
 40
0
 40
1
 40
1
 40
1
 40
1
 10
355.266516
 20
119.695710
 30
0.0
 10
356.531996
 20
119.695710
 30
0.0
 10
357.414006
 20
119.293050
 30
0.0
 10
358.257666
 20
118.621960
 30
0.0
  0
LWPOLYLINE
  5
244
100
AcDbEntity
  8
chars
 62
7
100
AcDbPolyline
 90
2
 70
0
 10
357.068876
 20
115.745860
 30
0.0
 10
355.419906
 20
116.455300
 30
0.0
  0
SPLINE
  5
245
100
AcDbEntity
  8
chars
 62
7
100
AcDbSpline
 70
8
 71
3
 72
8
 73
4
 74
0
 40
0
 40
0
 40
0
 40
0
 40
1
 40
1
 40
1
 40
1
 10
359.408106
 20
120.040840
 30
0.0
 10
358.372706
 20
121.018720
 30
0.0
 10
356.915476
 20
121.632290
 30
0.0
 10
355.381556
 20
121.632290
 30
0.0
  0
SPLINE
  5
246
100
AcDbEntity
  8
chars
 62
7
100
AcDbSpline
 70
8
 71
3
 72
8
 73
4
 74
0
 40
0
 40
0
 40
0
 40
0
 40
1
 40
1
 40
1
 40
1
 10
355.381556
 20
121.632290
 30
0.0
 10
352.831406
 20
121.632290
 30
0.0
 10
351.029046
 20
120.098360
 30
0.0
 10
351.029046
 20
118.104260
 30
0.0
  0
SPLINE
  5
247
100
AcDbEntity
  8
chars
 62
7
100
AcDbSpline
 70
8
 71
3
 72
8
 73
4
 74
0
 40
0
 40
0
 40
0
 40
0
 40
1
 40
1
 40
1
 40
1
 10
351.029046
 20
118.104260
 30
0.0
 10
351.029046
 20
116.263560
 30
0.0
 10
352.390406
 20
115.285680
 30
0.0
 10
353.713416
 20
114.767980
 30
0.0
  0
LWPOLYLINE
  5
248
100
AcDbEntity
  8
chars
 62
7
100
AcDbPolyline
 90
2
 70
0
 10
358.257666
 20
118.621960
 30
0.0
 10
359.408106
 20
120.040840
 30
0.0
  0
SPLINE
  5
249
100
AcDbEntity
  8
chars
 62
7
100
AcDbSpline
 70
8
 71
3
 72
8
 73
4
 74
0
 40
0
 40
0
 40
0
 40
0
 40
1
 40
1
 40
1
 40
1
 10
355.419906
 20
114.020190
 30
0.0
 10
356.666216
 20
113.502490
 30
0.0
 10
357.529046
 20
113.195710
 30
0.0
 10
357.529046
 20
112.083610
 30
0.0
  0
SPLINE
  5
24a
100
AcDbEntity
  8
chars
 62
7
100
AcDbSpline
 70
8
 71
3
 72
8
 73
4
 74
0
 40
0
 40
0
 40
0
 40
0
 40
1
 40
1
 40
1
 40
1
 10
357.529046
 20
112.083610
 30
0.0
 10
357.529046
 20
111.201610
 30
0.0
 10
356.742916
 20
110.568870
 30
0.0
 10
355.285686
 20
110.568870
 30
0.0
  0
SPLINE
  5
24b
100
AcDbEntity
  8
chars
 62
7
100
AcDbSpline
 70
8
 71
3
 72
8
 73
4
 74
0
 40
0
 40
0
 40
0
 40
0
 40
1
 40
1
 40
1
 40
1
 10
355.285686
 20
110.568870
 30
0.0
 10
353.962676
 20
110.568870
 30
0.0
 10
352.716366
 20
111.144090
 30
0.0
 10
351.776836
 20
111.987740
 30
0.0
  0
LWPOLYLINE
  5
24c
100
AcDbEntity
  8
chars
 62
7
100
AcDbPolyline
 90
2
 70
0
 10
353.713416
 20
114.767980
 30
0.0
 10
355.419906
 20
114.020190
 30
0.0
  0
SPLINE
  5
24d
100
AcDbEntity
  8
chars
 62
7
100
AcDbSpline
 70
8
 71
3
 72
8
 73
4
 74
0
 40
0
 40
0
 40
0
 40
0
 40
1
 40
1
 40
1
 40
1
 10
350.473006
 20
110.473000
 30
0.0
 10
351.719316
 20
109.303380
 30
0.0
 10
353.387456
 20
108.632290
 30
0.0
 10
355.151466
 20
108.632290
 30
0.0
  0
LWPOLYLINE
  5
24e
100
AcDbEntity
  8
chars
 62
7
100
AcDbPolyline
 90
2
 70
0
 10
351.776836
 20
111.987740
 30
0.0
 10
350.473006
 20
110.473000
 30
0.0
  0
LWPOLYLINE
  5
24f
100
AcDbEntity
  8
chars
 62
7
100
AcDbPolyline
 90
1
 70
1
 10
355.151466
 20
108.632290
 30
0.0
  0
SPLINE
  5
250
100
AcDbEntity
  8
chars
 62
7
100
AcDbSpline
 70
8
 71
3
 72
8
 73
4
 74
0
 40
0
 40
0
 40
0
 40
0
 40
1
 40
1
 40
1
 40
1
 10
301.151815
 20
78.632287
 30
0.0
 10
303.962635
 20
78.632287
 30
0.0
 10
305.582755
 20
80.252407
 30
0.0
 10
305.582755
 20
83.746407
 30
0.0
  0
LWPOLYLINE
  5
251
100
AcDbEntity
  8
chars
 62
7
100
AcDbPolyline
 90
12
 70
1
 10
323.600190
 20
78.632287
 30
0.0
 10
325.906000
 20
78.632287
 30
0.0
 10
325.906000
 20
84.396817
 30
0.0
 10
330.358600
 20
84.396817
 30
0.0
 10
330.358600
 20
78.632287
 30
0.0
 10
332.664410
 20
78.632287
 30
0.0
 10
332.664410
 20
91.632287
 30
0.0
 10
330.358600
 20
91.632287
 30
0.0
 10
330.358600
 20
86.404467
 30
0.0
 10
325.906000
 20
86.404467
 30
0.0
 10
325.906000
 20
91.632287
 30
0.0
 10
323.600190
 20
91.632287
 30
0.0
  0
SPLINE
  5
252
100
AcDbEntity
  8
chars
 62
7
100
AcDbSpline
 70
8
 71
3
 72
8
 73
4
 74
0
 40
0
 40
0
 40
0
 40
0
 40
1
 40
1
 40
1
 40
1
 10
303.416085
 20
83.570727
 30
0.0
 10
303.416085
 20
81.482137
 30
0.0
 10
302.537705
 20
80.603757
 30
0.0
 10
301.151815
 20
80.603757
 30
0.0
  0
SPLINE
  5
253
100
AcDbEntity
  8
chars
 62
7
100
AcDbSpline
 70
8
 71
3
 72
8
 73
4
 74
0
 40
0
 40
0
 40
0
 40
0
 40
1
 40
1
 40
1
 40
1
 10
301.151815
 20
80.603757
 30
0.0
 10
299.785455
 20
80.603757
 30
0.0
 10
298.946115
 20
81.482137
 30
0.0
 10
298.946115
 20
83.570727
 30
0.0
  0
LWPOLYLINE
  5
254
100
AcDbEntity
  8
chars
 62
7
100
AcDbPolyline
 90
4
 70
0
 10
305.582755
 20
83.746407
 30
0.0
 10
305.582755
 20
91.632287
 30
0.0
 10
303.416085
 20
91.632287
 30
0.0
 10
303.416085
 20
83.570727
 30
0.0
  0
SPLINE
  5
255
100
AcDbEntity
  8
chars
 62
7
100
AcDbSpline
 70
8
 71
3
 72
8
 73
4
 74
0
 40
0
 40
0
 40
0
 40
0
 40
1
 40
1
 40
1
 40
1
 10
296.681845
 20
83.746407
 30
0.0
 10
296.681845
 20
80.252407
 30
0.0
 10
298.360525
 20
78.632287
 30
0.0
 10
301.151815
 20
78.632287
 30
0.0
  0
LWPOLYLINE
  5
256
100
AcDbEntity
  8
chars
 62
7
100
AcDbPolyline
 90
4
 70
0
 10
298.946115
 20
83.570727
 30
0.0
 10
298.946115
 20
91.632287
 30
0.0
 10
296.681845
 20
91.632287
 30
0.0
 10
296.681845
 20
83.746407
 30
0.0
  0
LWPOLYLINE
  5
257
100
AcDbEntity
  8
chars
 62
7
100
AcDbPolyline
 90
1
 70
1
 10
301.151815
 20
78.632287
 30
0.0
  0
SPLINE
  5
258
100
AcDbEntity
  8
chars
 62
7
100
AcDbSpline
 70
8
 71
3
 72
8
 73
4
 74
0
 40
0
 40
0
 40
0
 40
0
 40
1
 40
1
 40
1
 40
1
 10
271.448875
 20
83.879997
 30
0.0
 10
271.448875
 20
85.251557
 30
0.0
 10
271.250105
 20
87.935047
 30
0.0
 10
271.110955
 20
89.207217
 30
0.0
  0
LWPOLYLINE
  5
259
100
AcDbEntity
  8
chars
 62
7
100
AcDbPolyline
 90
3
 70
0
 10
269.461115
 20
78.632287
 30
0.0
 10
271.448875
 20
78.632287
 30
0.0
 10
271.448875
 20
83.879997
 30
0.0
  0
SPLINE
  5
25a
100
AcDbEntity
  8
chars
 62
7
100
AcDbSpline
 70
8
 71
3
 72
8
 73
4
 74
0
 40
0
 40
0
 40
0
 40
0
 40
1
 40
1
 40
1
 40
1
 10
277.113945
 20
89.207217
 30
0.0
 10
276.994675
 20
87.935047
 30
0.0
 10
276.776025
 20
85.251557
 30
0.0
 10
276.776025
 20
83.879997
 30
0.0
  0
LWPOLYLINE
  5
25b
100
AcDbEntity
  8
chars
 62
7
100
AcDbPolyline
 90
8
 70
0
 10
271.110955
 20
89.207217
 30
0.0
 10
271.170555
 20
89.207217
 30
0.0
 10
272.025295
 20
86.185807
 30
0.0
 10
273.436605
 20
82.071127
 30
0.0
 10
274.748535
 20
82.071127
 30
0.0
 10
276.179725
 20
86.185807
 30
0.0
 10
277.054345
 20
89.207217
 30
0.0
 10
277.113945
 20
89.207217
 30
0.0
  0
SPLINE
  5
25c
100
AcDbEntity
  8
chars
 62
7
100
AcDbSpline
 70
8
 71
3
 72
8
 73
4
 74
0
 40
0
 40
0
 40
0
 40
0
 40
1
 40
1
 40
1
 40
1
 10
247.956785
 20
78.632287
 30
0.0
 10
249.624925
 20
78.632287
 30
0.0
 10
250.947935
 20
79.284197
 30
0.0
 10
251.944985
 20
80.453817
 30
0.0
  0
LWPOLYLINE
  5
25d
100
AcDbEntity
  8
chars
 62
7
100
AcDbPolyline
 90
12
 70
0
 10
276.776025
 20
83.879997
 30
0.0
 10
276.776025
 20
78.632287
 30
0.0
 10
278.803545
 20
78.632287
 30
0.0
 10
278.803545
 20
91.632287
 30
0.0
 10
276.259205
 20
91.632287
 30
0.0
 10
274.688865
 20
86.563487
 30
0.0
 10
274.172045
 20
84.615467
 30
0.0
 10
274.092545
 20
84.615467
 30
0.0
 10
273.555855
 20
86.563487
 30
0.0
 10
272.005395
 20
91.632287
 30
0.0
 10
269.461055
 20
91.632287
 30
0.0
 10
269.461115
 20
78.632287
 30
0.0
  0
SPLINE
  5
25e
100
AcDbEntity
  8
chars
 62
7
100
AcDbSpline
 70
8
 71
3
 72
8
 73
4
 74
0
 40
0
 40
0
 40
0
 40
0
 40
1
 40
1
 40
1
 40
1
 10
250.717845
 20
81.815177
 30
0.0
 10
250.008405
 20
81.029037
 30
0.0
 10
249.183925
 20
80.568867
 30
0.0
 10
248.167695
 20
80.568867
 30
0.0
  0
SPLINE
  5
25f
100
AcDbEntity
  8
chars
 62
7
100
AcDbSpline
 70
8
 71
3
 72
8
 73
4
 74
0
 40
0
 40
0
 40
0
 40
0
 40
1
 40
1
 40
1
 40
1
 10
248.167695
 20
80.568867
 30
0.0
 10
246.020205
 20
80.568867
 30
0.0
 10
244.601325
 20
82.294527
 30
0.0
 10
244.601325
 20
85.151457
 30
0.0
  0
SPLINE
  5
260
100
AcDbEntity
  8
chars
 62
7
100
AcDbSpline
 70
8
 71
3
 72
8
 73
4
 74
0
 40
0
 40
0
 40
0
 40
0
 40
1
 40
1
 40
1
 40
1
 10
244.601325
 20
85.151457
 30
0.0
 10
244.601325
 20
87.970047
 30
0.0
 10
246.020205
 20
89.695707
 30
0.0
 10
248.110175
 20
89.695707
 30
0.0
  0
SPLINE
  5
261
100
AcDbEntity
  8
chars
 62
7
100
AcDbSpline
 70
8
 71
3
 72
8
 73
4
 74
0
 40
0
 40
0
 40
0
 40
0
 40
1
 40
1
 40
1
 40
1
 10
248.110175
 20
89.695707
 30
0.0
 10
249.088055
 20
89.695707
 30
0.0
 10
249.835845
 20
89.293047
 30
0.0
 10
250.468585
 20
88.679487
 30
0.0
  0
LWPOLYLINE
  5
262
100
AcDbEntity
  8
chars
 62
7
100
AcDbPolyline
 90
2
 70
0
 10
251.944985
 20
80.453817
 30
0.0
 10
250.717845
 20
81.815177
 30
0.0
  0
SPLINE
  5
263
100
AcDbEntity
  8
chars
 62
7
100
AcDbSpline
 70
8
 71
3
 72
8
 73
4
 74
0
 40
0
 40
0
 40
0
 40
0
 40
1
 40
1
 40
1
 40
1
 10
251.695725
 20
90.060017
 30
0.0
 10
250.909585
 20
90.884497
 30
0.0
 10
249.663275
 20
91.632287
 30
0.0
 10
248.110175
 20
91.632287
 30
0.0
  0
SPLINE
  5
264
100
AcDbEntity
  8
chars
 62
7
100
AcDbSpline
 70
8
 71
3
 72
8
 73
4
 74
0
 40
0
 40
0
 40
0
 40
0
 40
1
 40
1
 40
1
 40
1
 10
248.110175
 20
91.632287
 30
0.0
 10
244.793065
 20
91.632287
 30
0.0
 10
242.319615
 20
89.197177
 30
0.0
 10
242.319615
 20
85.093937
 30
0.0
  0
SPLINE
  5
265
100
AcDbEntity
  8
chars
 62
7
100
AcDbSpline
 70
8
 71
3
 72
8
 73
4
 74
0
 40
0
 40
0
 40
0
 40
0
 40
1
 40
1
 40
1
 40
1
 10
242.319615
 20
85.093937
 30
0.0
 10
242.319615
 20
80.933167
 30
0.0
 10
244.850595
 20
78.632287
 30
0.0
 10
247.956785
 20
78.632287
 30
0.0
  0
LWPOLYLINE
  5
266
100
AcDbEntity
  8
chars
 62
7
100
AcDbPolyline
 90
2
 70
0
 10
250.468585
 20
88.679487
 30
0.0
 10
251.695725
 20
90.060017
 30
0.0
  0
SPLINE
  5
267
100
AcDbEntity
  8
chars
 62
7
100
AcDbSpline
 70
8
 71
3
 72
8
 73
4
 74
0
 40
0
 40
0
 40
0
 40
0
 40
1
 40
1
 40
1
 40
1
 10
220.151480
 20
78.632287
 30
0.0
 10
223.065930
 20
78.632287
 30
0.0
 10
224.791590
 20
80.319597
 30
0.0
 10
224.791590
 20
82.352047
 30
0.0
  0
SPLINE
  5
268
100
AcDbEntity
  8
chars
 62
7
100
AcDbSpline
 70
8
 71
3
 72
8
 73
4
 74
0
 40
0
 40
0
 40
0
 40
0
 40
1
 40
1
 40
1
 40
1
 10
224.791590
 20
82.352047
 30
0.0
 10
224.791590
 20
84.173587
 30
0.0
 10
223.660330
 20
85.113107
 30
0.0
 10
222.068880
 20
85.745857
 30
0.0
  0
LWPOLYLINE
  5
269
100
AcDbEntity
  8
chars
 62
7
100
AcDbPolyline
 90
1
 70
1
 10
247.956785
 20
78.632287
 30
0.0
  0
SPLINE
  5
26a
100
AcDbEntity
  8
chars
 62
7
100
AcDbSpline
 70
8
 71
3
 72
8
 73
4
 74
0
 40
0
 40
0
 40
0
 40
0
 40
1
 40
1
 40
1
 40
1
 10
220.419910
 20
86.455297
 30
0.0
 10
219.288640
 20
86.896297
 30
0.0
 10
218.272420
 20
87.260607
 30
0.0
 10
218.272420
 20
88.219307
 30
0.0
  0
SPLINE
  5
26b
100
AcDbEntity
  8
chars
 62
7
100
AcDbSpline
 70
8
 71
3
 72
8
 73
4
 74
0
 40
0
 40
0
 40
0
 40
0
 40
1
 40
1
 40
1
 40
1
 10
218.272420
 20
88.219307
 30
0.0
 10
218.272420
 20
89.158837
 30
0.0
 10
219.077730
 20
89.695707
 30
0.0
 10
220.266520
 20
89.695707
 30
0.0
  0
SPLINE
  5
26c
100
AcDbEntity
  8
chars
 62
7
100
AcDbSpline
 70
8
 71
3
 72
8
 73
4
 74
0
 40
0
 40
0
 40
0
 40
0
 40
1
 40
1
 40
1
 40
1
 10
220.266520
 20
89.695707
 30
0.0
 10
221.532010
 20
89.695707
 30
0.0
 10
222.414010
 20
89.293047
 30
0.0
 10
223.257670
 20
88.621957
 30
0.0
  0
LWPOLYLINE
  5
26d
100
AcDbEntity
  8
chars
 62
7
100
AcDbPolyline
 90
2
 70
0
 10
222.068880
 20
85.745857
 30
0.0
 10
220.419910
 20
86.455297
 30
0.0
  0
SPLINE
  5
26e
100
AcDbEntity
  8
chars
 62
7
100
AcDbSpline
 70
8
 71
3
 72
8
 73
4
 74
0
 40
0
 40
0
 40
0
 40
0
 40
1
 40
1
 40
1
 40
1
 10
224.408110
 20
90.040837
 30
0.0
 10
223.372720
 20
91.018717
 30
0.0
 10
221.915490
 20
91.632287
 30
0.0
 10
220.381570
 20
91.632287
 30
0.0
  0
SPLINE
  5
26f
100
AcDbEntity
  8
chars
 62
7
100
AcDbSpline
 70
8
 71
3
 72
8
 73
4
 74
0
 40
0
 40
0
 40
0
 40
0
 40
1
 40
1
 40
1
 40
1
 10
220.381570
 20
91.632287
 30
0.0
 10
217.831420
 20
91.632287
 30
0.0
 10
216.029060
 20
90.098357
 30
0.0
 10
216.029060
 20
88.104257
 30
0.0
  0
SPLINE
  5
270
100
AcDbEntity
  8
chars
 62
7
100
AcDbSpline
 70
8
 71
3
 72
8
 73
4
 74
0
 40
0
 40
0
 40
0
 40
0
 40
1
 40
1
 40
1
 40
1
 10
216.029060
 20
88.104257
 30
0.0
 10
216.029060
 20
86.263557
 30
0.0
 10
217.390410
 20
85.285677
 30
0.0
 10
218.713420
 20
84.767977
 30
0.0
  0
LWPOLYLINE
  5
271
100
AcDbEntity
  8
chars
 62
7
100
AcDbPolyline
 90
2
 70
0
 10
223.257670
 20
88.621957
 30
0.0
 10
224.408110
 20
90.040837
 30
0.0
  0
SPLINE
  5
272
100
AcDbEntity
  8
chars
 62
7
100
AcDbSpline
 70
8
 71
3
 72
8
 73
4
 74
0
 40
0
 40
0
 40
0
 40
0
 40
1
 40
1
 40
1
 40
1
 10
220.419910
 20
84.020187
 30
0.0
 10
221.666230
 20
83.502487
 30
0.0
 10
222.529060
 20
83.195707
 30
0.0
 10
222.529060
 20
82.083607
 30
0.0
  0
SPLINE
  5
273
100
AcDbEntity
  8
chars
 62
7
100
AcDbSpline
 70
8
 71
3
 72
8
 73
4
 74
0
 40
0
 40
0
 40
0
 40
0
 40
1
 40
1
 40
1
 40
1
 10
222.529060
 20
82.083607
 30
0.0
 10
222.529060
 20
81.201607
 30
0.0
 10
221.742920
 20
80.568867
 30
0.0
 10
220.285700
 20
80.568867
 30
0.0
  0
SPLINE
  5
274
100
AcDbEntity
  8
chars
 62
7
100
AcDbSpline
 70
8
 71
3
 72
8
 73
4
 74
0
 40
0
 40
0
 40
0
 40
0
 40
1
 40
1
 40
1
 40
1
 10
220.285700
 20
80.568867
 30
0.0
 10
218.962690
 20
80.568867
 30
0.0
 10
217.716370
 20
81.144087
 30
0.0
 10
216.776850
 20
81.987737
 30
0.0
  0
LWPOLYLINE
  5
275
100
AcDbEntity
  8
chars
 62
7
100
AcDbPolyline
 90
2
 70
0
 10
218.713420
 20
84.767977
 30
0.0
 10
220.419910
 20
84.020187
 30
0.0
  0
SPLINE
  5
276
100
AcDbEntity
  8
chars
 62
7
100
AcDbSpline
 70
8
 71
3
 72
8
 73
4
 74
0
 40
0
 40
0
 40
0
 40
0
 40
1
 40
1
 40
1
 40
1
 10
215.473010
 20
80.472997
 30
0.0
 10
216.719320
 20
79.303377
 30
0.0
 10
218.387460
 20
78.632287
 30
0.0
 10
220.151480
 20
78.632287
 30
0.0
  0
LWPOLYLINE
  5
277
100
AcDbEntity
  8
chars
 62
7
100
AcDbPolyline
 90
2
 70
0
 10
216.776850
 20
81.987737
 30
0.0
 10
215.473010
 20
80.472997
 30
0.0
  0
LWPOLYLINE
  5
278
100
AcDbEntity
  8
chars
 62
7
100
AcDbPolyline
 90
1
 70
1
 10
220.151480
 20
78.632287
 30
0.0
  0
SPLINE
  5
279
100
AcDbEntity
  8
chars
 62
7
100
AcDbSpline
 70
8
 71
3
 72
8
 73
4
 74
0
 40
0
 40
0
 40
0
 40
0
 40
1
 40
1
 40
1
 40
1
 10
166.956785
 20
78.632287
 30
0.0
 10
168.624925
 20
78.632287
 30
0.0
 10
169.947935
 20
79.284197
 30
0.0
 10
170.944985
 20
80.453817
 30
0.0
  0
LWPOLYLINE
  5
27a
100
AcDbEntity
  8
chars
 62
7
100
AcDbPolyline
 90
12
 70
1
 10
188.600190
 20
78.632287
 30
0.0
 10
190.906000
 20
78.632287
 30
0.0
 10
190.906000
 20
84.396817
 30
0.0
 10
195.358600
 20
84.396817
 30
0.0
 10
195.358600
 20
78.632287
 30
0.0
 10
197.664410
 20
78.632287
 30
0.0
 10
197.664410
 20
91.632287
 30
0.0
 10
195.358600
 20
91.632287
 30
0.0
 10
195.358600
 20
86.404467
 30
0.0
 10
190.906000
 20
86.404467
 30
0.0
 10
190.906000
 20
91.632287
 30
0.0
 10
188.600190
 20
91.632287
 30
0.0
  0
SPLINE
  5
27b
100
AcDbEntity
  8
chars
 62
7
100
AcDbSpline
 70
8
 71
3
 72
8
 73
4
 74
0
 40
0
 40
0
 40
0
 40
0
 40
1
 40
1
 40
1
 40
1
 10
169.717845
 20
81.815177
 30
0.0
 10
169.008405
 20
81.029037
 30
0.0
 10
168.183925
 20
80.568867
 30
0.0
 10
167.167695
 20
80.568867
 30
0.0
  0
SPLINE
  5
27c
100
AcDbEntity
  8
chars
 62
7
100
AcDbSpline
 70
8
 71
3
 72
8
 73
4
 74
0
 40
0
 40
0
 40
0
 40
0
 40
1
 40
1
 40
1
 40
1
 10
167.167695
 20
80.568867
 30
0.0
 10
165.020205
 20
80.568867
 30
0.0
 10
163.601325
 20
82.294527
 30
0.0
 10
163.601325
 20
85.151457
 30
0.0
  0
SPLINE
  5
27d
100
AcDbEntity
  8
chars
 62
7
100
AcDbSpline
 70
8
 71
3
 72
8
 73
4
 74
0
 40
0
 40
0
 40
0
 40
0
 40
1
 40
1
 40
1
 40
1
 10
163.601325
 20
85.151457
 30
0.0
 10
163.601325
 20
87.970047
 30
0.0
 10
165.020205
 20
89.695707
 30
0.0
 10
167.110175
 20
89.695707
 30
0.0
  0
SPLINE
  5
27e
100
AcDbEntity
  8
chars
 62
7
100
AcDbSpline
 70
8
 71
3
 72
8
 73
4
 74
0
 40
0
 40
0
 40
0
 40
0
 40
1
 40
1
 40
1
 40
1
 10
167.110175
 20
89.695707
 30
0.0
 10
168.088055
 20
89.695707
 30
0.0
 10
168.835845
 20
89.293047
 30
0.0
 10
169.468585
 20
88.679487
 30
0.0
  0
LWPOLYLINE
  5
27f
100
AcDbEntity
  8
chars
 62
7
100
AcDbPolyline
 90
2
 70
0
 10
170.944985
 20
80.453817
 30
0.0
 10
169.717845
 20
81.815177
 30
0.0
  0
SPLINE
  5
280
100
AcDbEntity
  8
chars
 62
7
100
AcDbSpline
 70
8
 71
3
 72
8
 73
4
 74
0
 40
0
 40
0
 40
0
 40
0
 40
1
 40
1
 40
1
 40
1
 10
170.695725
 20
90.060017
 30
0.0
 10
169.909585
 20
90.884497
 30
0.0
 10
168.663275
 20
91.632287
 30
0.0
 10
167.110175
 20
91.632287
 30
0.0
  0
SPLINE
  5
281
100
AcDbEntity
  8
chars
 62
7
100
AcDbSpline
 70
8
 71
3
 72
8
 73
4
 74
0
 40
0
 40
0
 40
0
 40
0
 40
1
 40
1
 40
1
 40
1
 10
167.110175
 20
91.632287
 30
0.0
 10
163.793065
 20
91.632287
 30
0.0
 10
161.319615
 20
89.197177
 30
0.0
 10
161.319615
 20
85.093937
 30
0.0
  0
SPLINE
  5
282
100
AcDbEntity
  8
chars
 62
7
100
AcDbSpline
 70
8
 71
3
 72
8
 73
4
 74
0
 40
0
 40
0
 40
0
 40
0
 40
1
 40
1
 40
1
 40
1
 10
161.319615
 20
85.093937
 30
0.0
 10
161.319615
 20
80.933167
 30
0.0
 10
163.850595
 20
78.632287
 30
0.0
 10
166.956785
 20
78.632287
 30
0.0
  0
LWPOLYLINE
  5
283
100
AcDbEntity
  8
chars
 62
7
100
AcDbPolyline
 90
2
 70
0
 10
169.468585
 20
88.679487
 30
0.0
 10
170.695725
 20
90.060017
 30
0.0
  0
LWPOLYLINE
  5
284
100
AcDbEntity
  8
chars
 62
7
100
AcDbPolyline
 90
1
 70
1
 10
166.956785
 20
78.632287
 30
0.0
  0
SPLINE
  5
285
100
AcDbEntity
  8
chars
 62
7
100
AcDbSpline
 70
8
 71
3
 72
8
 73
4
 74
0
 40
0
 40
0
 40
0
 40
0
 40
1
 40
1
 40
1
 40
1
 10
112.151460
 20
78.632287
 30
0.0
 10
115.065920
 20
78.632287
 30
0.0
 10
116.791580
 20
80.319597
 30
0.0
 10
116.791580
 20
82.352047
 30
0.0
  0
SPLINE
  5
286
100
AcDbEntity
  8
chars
 62
7
100
AcDbSpline
 70
8
 71
3
 72
8
 73
4
 74
0
 40
0
 40
0
 40
0
 40
0
 40
1
 40
1
 40
1
 40
1
 10
116.791580
 20
82.352047
 30
0.0
 10
116.791580
 20
84.173587
 30
0.0
 10
115.660310
 20
85.113107
 30
0.0
 10
114.068870
 20
85.745857
 30
0.0
  0
LWPOLYLINE
  5
287
100
AcDbEntity
  8
chars
 62
7
100
AcDbPolyline
 90
12
 70
1
 10
134.868535
 20
78.632287
 30
0.0
 10
143.396065
 20
78.632287
 30
0.0
 10
143.396065
 20
80.580307
 30
0.0
 10
137.174345
 20
80.580307
 30
0.0
 10
137.174345
 20
84.416697
 30
0.0
 10
142.282915
 20
84.416697
 30
0.0
 10
142.282915
 20
86.364707
 30
0.0
 10
137.174345
 20
86.364707
 30
0.0
 10
137.174345
 20
89.684277
 30
0.0
 10
143.197285
 20
89.684277
 30
0.0
 10
143.197285
 20
91.632287
 30
0.0
 10
134.868535
 20
91.632287
 30
0.0
  0
SPLINE
  5
288
100
AcDbEntity
  8
chars
 62
7
100
AcDbSpline
 70
8
 71
3
 72
8
 73
4
 74
0
 40
0
 40
0
 40
0
 40
0
 40
1
 40
1
 40
1
 40
1
 10
112.419900
 20
86.455297
 30
0.0
 10
111.288630
 20
86.896297
 30
0.0
 10
110.272410
 20
87.260607
 30
0.0
 10
110.272410
 20
88.219307
 30
0.0
  0
SPLINE
  5
289
100
AcDbEntity
  8
chars
 62
7
100
AcDbSpline
 70
8
 71
3
 72
8
 73
4
 74
0
 40
0
 40
0
 40
0
 40
0
 40
1
 40
1
 40
1
 40
1
 10
110.272410
 20
88.219307
 30
0.0
 10
110.272410
 20
89.158837
 30
0.0
 10
111.077720
 20
89.695707
 30
0.0
 10
112.266510
 20
89.695707
 30
0.0
  0
SPLINE
  5
28a
100
AcDbEntity
  8
chars
 62
7
100
AcDbSpline
 70
8
 71
3
 72
8
 73
4
 74
0
 40
0
 40
0
 40
0
 40
0
 40
1
 40
1
 40
1
 40
1
 10
112.266510
 20
89.695707
 30
0.0
 10
113.531990
 20
89.695707
 30
0.0
 10
114.414000
 20
89.293047
 30
0.0
 10
115.257660
 20
88.621957
 30
0.0
  0
LWPOLYLINE
  5
28b
100
AcDbEntity
  8
chars
 62
7
100
AcDbPolyline
 90
2
 70
0
 10
114.068870
 20
85.745857
 30
0.0
 10
112.419900
 20
86.455297
 30
0.0
  0
SPLINE
  5
28c
100
AcDbEntity
  8
chars
 62
7
100
AcDbSpline
 70
8
 71
3
 72
8
 73
4
 74
0
 40
0
 40
0
 40
0
 40
0
 40
1
 40
1
 40
1
 40
1
 10
116.408100
 20
90.040837
 30
0.0
 10
115.372700
 20
91.018717
 30
0.0
 10
113.915470
 20
91.632287
 30
0.0
 10
112.381550
 20
91.632287
 30
0.0
  0
SPLINE
  5
28d
100
AcDbEntity
  8
chars
 62
7
100
AcDbSpline
 70
8
 71
3
 72
8
 73
4
 74
0
 40
0
 40
0
 40
0
 40
0
 40
1
 40
1
 40
1
 40
1
 10
112.381550
 20
91.632287
 30
0.0
 10
109.831400
 20
91.632287
 30
0.0
 10
108.029040
 20
90.098357
 30
0.0
 10
108.029040
 20
88.104257
 30
0.0
  0
SPLINE
  5
28e
100
AcDbEntity
  8
chars
 62
7
100
AcDbSpline
 70
8
 71
3
 72
8
 73
4
 74
0
 40
0
 40
0
 40
0
 40
0
 40
1
 40
1
 40
1
 40
1
 10
108.029040
 20
88.104257
 30
0.0
 10
108.029040
 20
86.263557
 30
0.0
 10
109.390400
 20
85.285677
 30
0.0
 10
110.713410
 20
84.767977
 30
0.0
  0
LWPOLYLINE
  5
28f
100
AcDbEntity
  8
chars
 62
7
100
AcDbPolyline
 90
2
 70
0
 10
115.257660
 20
88.621957
 30
0.0
 10
116.408100
 20
90.040837
 30
0.0
  0
SPLINE
  5
290
100
AcDbEntity
  8
chars
 62
7
100
AcDbSpline
 70
8
 71
3
 72
8
 73
4
 74
0
 40
0
 40
0
 40
0
 40
0
 40
1
 40
1
 40
1
 40
1
 10
112.419900
 20
84.020187
 30
0.0
 10
113.666210
 20
83.502487
 30
0.0
 10
114.529040
 20
83.195707
 30
0.0
 10
114.529040
 20
82.083607
 30
0.0
  0
SPLINE
  5
291
100
AcDbEntity
  8
chars
 62
7
100
AcDbSpline
 70
8
 71
3
 72
8
 73
4
 74
0
 40
0
 40
0
 40
0
 40
0
 40
1
 40
1
 40
1
 40
1
 10
114.529040
 20
82.083607
 30
0.0
 10
114.529040
 20
81.201607
 30
0.0
 10
113.742910
 20
80.568867
 30
0.0
 10
112.285680
 20
80.568867
 30
0.0
  0
SPLINE
  5
292
100
AcDbEntity
  8
chars
 62
7
100
AcDbSpline
 70
8
 71
3
 72
8
 73
4
 74
0
 40
0
 40
0
 40
0
 40
0
 40
1
 40
1
 40
1
 40
1
 10
112.285680
 20
80.568867
 30
0.0
 10
110.962670
 20
80.568867
 30
0.0
 10
109.716360
 20
81.144087
 30
0.0
 10
108.776830
 20
81.987737
 30
0.0
  0
LWPOLYLINE
  5
293
100
AcDbEntity
  8
chars
 62
7
100
AcDbPolyline
 90
2
 70
0
 10
110.713410
 20
84.767977
 30
0.0
 10
112.419900
 20
84.020187
 30
0.0
  0
SPLINE
  5
294
100
AcDbEntity
  8
chars
 62
7
100
AcDbSpline
 70
8
 71
3
 72
8
 73
4
 74
0
 40
0
 40
0
 40
0
 40
0
 40
1
 40
1
 40
1
 40
1
 10
107.473000
 20
80.472997
 30
0.0
 10
108.719310
 20
79.303377
 30
0.0
 10
110.387450
 20
78.632287
 30
0.0
 10
112.151460
 20
78.632287
 30
0.0
  0
LWPOLYLINE
  5
295
100
AcDbEntity
  8
chars
 62
7
100
AcDbPolyline
 90
2
 70
0
 10
108.776830
 20
81.987737
 30
0.0
 10
107.473000
 20
80.472997
 30
0.0
  0
LWPOLYLINE
  5
296
100
AcDbEntity
  8
chars
 62
7
100
AcDbPolyline
 90
1
 70
1
 10
112.151460
 20
78.632287
 30
0.0
  0
SPLINE
  5
297
100
AcDbEntity
  8
chars
 62
7
100
AcDbSpline
 70
8
 71
3
 72
8
 73
4
 74
0
 40
0
 40
0
 40
0
 40
0
 40
1
 40
1
 40
1
 40
1
 10
82.846365
 20
84.317307
 30
0.0
 10
82.846365
 20
85.768377
 30
0.0
 10
82.627710
 20
87.318837
 30
0.0
 10
82.528322
 20
88.710277
 30
0.0
  0
LWPOLYLINE
  5
298
100
AcDbEntity
  8
chars
 62
7
100
AcDbPolyline
 90
3
 70
0
 10
80.639943
 20
78.632287
 30
0.0
 10
82.846365
 20
78.632287
 30
0.0
 10
82.846365
 20
84.317307
 30
0.0
  0
SPLINE
  5
299
100
AcDbEntity
  8
chars
 62
7
100
AcDbSpline
 70
8
 71
3
 72
8
 73
4
 74
0
 40
0
 40
0
 40
0
 40
0
 40
1
 40
1
 40
1
 40
1
 10
87.418227
 20
85.987027
 30
0.0
 10
87.418227
 20
84.535957
 30
0.0
 10
87.636882
 20
82.886117
 30
0.0
 10
87.736270
 20
81.554307
 30
0.0
  0
LWPOLYLINE
  5
29a
100
AcDbEntity
  8
chars
 62
7
100
AcDbPolyline
 90
8
 70
0
 10
82.528322
 20
88.710277
 30
0.0
 10
82.587952
 20
88.710277
 30
0.0
 10
83.760735
 20
85.947277
 30
0.0
 10
87.199573
 20
78.632287
 30
0.0
 10
89.624649
 20
78.632287
 30
0.0
 10
89.624649
 20
91.632287
 30
0.0
 10
87.418227
 20
91.632287
 30
0.0
 10
87.418227
 20
85.987027
 30
0.0
  0
SPLINE
  5
29b
100
AcDbEntity
  8
chars
 62
7
100
AcDbSpline
 70
8
 71
3
 72
8
 73
4
 74
0
 40
0
 40
0
 40
0
 40
0
 40
1
 40
1
 40
1
 40
1
 10
113.383243
 20
303.598958
 30
0.0
 10
113.383242
 20
304.151235
 30
0.0
 10
113.830945
 20
304.598947
 30
0.0
 10
114.383223
 20
304.598958
 30
0.0
  0
SPLINE
  5
29c
100
AcDbEntity
  8
chars
 62
7
100
AcDbSpline
 70
8
 71
3
 72
8
 73
4
 74
0
 40
0
 40
0
 40
0
 40
0
 40
1
 40
1
 40
1
 40
1
 10
114.383223
 20
304.598958
 30
0.0
 10
114.648439
 20
304.598958
 30
0.0
 10
114.902793
 20
304.493601
 30
0.0
 10
115.090329
 20
304.306065
 30
0.0
  0
SPLINE
  5
29d
100
AcDbEntity
  8
chars
 62
7
100
AcDbSpline
 70
8
 71
3
 72
8
 73
4
 74
0
 40
0
 40
0
 40
0
 40
0
 40
1
 40
1
 40
1
 40
1
 10
115.090329
 20
304.306065
 30
0.0
 10
115.277866
 20
304.118528
 30
0.0
 10
115.383223
 20
303.864174
 30
0.0
 10
115.383223
 20
303.598958
 30
0.0
  0
SPLINE
  5
29e
100
AcDbEntity
  8
chars
 62
7
100
AcDbSpline
 70
8
 71
3
 72
8
 73
4
 74
0
 40
0
 40
0
 40
0
 40
0
 40
1
 40
1
 40
1
 40
1
 10
115.383223
 20
303.598958
 30
0.0
 10
115.383223
 20
303.333741
 30
0.0
 10
115.277866
 20
303.079387
 30
0.0
 10
115.090329
 20
302.891851
 30
0.0
  0
SPLINE
  5
29f
100
AcDbEntity
  8
chars
 62
7
100
AcDbSpline
 70
8
 71
3
 72
8
 73
4
 74
0
 40
0
 40
0
 40
0
 40
0
 40
1
 40
1
 40
1
 40
1
 10
115.090329
 20
302.891851
 30
0.0
 10
114.902793
 20
302.704314
 30
0.0
 10
114.648439
 20
302.598958
 30
0.0
 10
114.383223
 20
302.598958
 30
0.0
  0
SPLINE
  5
2a0
100
AcDbEntity
  8
chars
 62
7
100
AcDbSpline
 70
8
 71
3
 72
8
 73
4
 74
0
 40
0
 40
0
 40
0
 40
0
 40
1
 40
1
 40
1
 40
1
 10
114.383223
 20
302.598958
 30
0.0
 10
113.830945
 20
302.598969
 30
0.0
 10
113.383242
 20
303.046681
 30
0.0
 10
113.383243
 20
303.598958
 30
0.0
  0
LWPOLYLINE
  5
2a1
100
AcDbEntity
  8
chars
 62
7
100
AcDbPolyline
 90
6
 70
0
 10
87.736270
 20
81.554307
 30
0.0
 10
87.676640
 20
81.554307
 30
0.0
 10
86.503857
 20
84.337187
 30
0.0
 10
83.065019
 20
91.632287
 30
0.0
 10
80.639943
 20
91.632287
 30
0.0
 10
80.639943
 20
78.632287
 30
0.0
  0
SPLINE
  5
2a2
100
AcDbEntity
  8
chars
 62
7
100
AcDbSpline
 70
8
 71
3
 72
8
 73
4
 74
0
 40
0
 40
0
 40
0
 40
0
 40
1
 40
1
 40
1
 40
1
 10
108.881358
 20
303.598958
 30
0.0
 10
108.881357
 20
303.864175
 30
0.0
 10
108.986715
 20
304.118530
 30
0.0
 10
109.174252
 20
304.306066
 30
0.0
  0
SPLINE
  5
2a3
100
AcDbEntity
  8
chars
 62
7
100
AcDbSpline
 70
8
 71
3
 72
8
 73
4
 74
0
 40
0
 40
0
 40
0
 40
0
 40
1
 40
1
 40
1
 40
1
 10
109.174252
 20
304.306066
 30
0.0
 10
109.361790
 20
304.493603
 30
0.0
 10
109.616145
 20
304.598959
 30
0.0
 10
109.881363
 20
304.598958
 30
0.0
  0
SPLINE
  5
2a4
100
AcDbEntity
  8
chars
 62
7
100
AcDbSpline
 70
8
 71
3
 72
8
 73
4
 74
0
 40
0
 40
0
 40
0
 40
0
 40
1
 40
1
 40
1
 40
1
 10
109.881363
 20
304.598958
 30
0.0
 10
110.146581
 20
304.598960
 30
0.0
 10
110.400937
 20
304.493605
 30
0.0
 10
110.588476
 20
304.306068
 30
0.0
  0
SPLINE
  5
2a5
100
AcDbEntity
  8
chars
 62
7
100
AcDbSpline
 70
8
 71
3
 72
8
 73
4
 74
0
 40
0
 40
0
 40
0
 40
0
 40
1
 40
1
 40
1
 40
1
 10
110.588476
 20
304.306068
 30
0.0
 10
110.776014
 20
304.118531
 30
0.0
 10
110.881373
 20
303.864176
 30
0.0
 10
110.881373
 20
303.598958
 30
0.0
  0
SPLINE
  5
2a6
100
AcDbEntity
  8
chars
 62
7
100
AcDbSpline
 70
8
 71
3
 72
8
 73
4
 74
0
 40
0
 40
0
 40
0
 40
0
 40
1
 40
1
 40
1
 40
1
 10
110.881373
 20
303.598958
 30
0.0
 10
110.881373
 20
303.333739
 30
0.0
 10
110.776014
 20
303.079384
 30
0.0
 10
110.588476
 20
302.891847
 30
0.0
  0
SPLINE
  5
2a7
100
AcDbEntity
  8
chars
 62
7
100
AcDbSpline
 70
8
 71
3
 72
8
 73
4
 74
0
 40
0
 40
0
 40
0
 40
0
 40
1
 40
1
 40
1
 40
1
 10
110.588476
 20
302.891847
 30
0.0
 10
110.400937
 20
302.704311
 30
0.0
 10
110.146581
 20
302.598955
 30
0.0
 10
109.881363
 20
302.598958
 30
0.0
  0
SPLINE
  5
2a8
100
AcDbEntity
  8
chars
 62
7
100
AcDbSpline
 70
8
 71
3
 72
8
 73
4
 74
0
 40
0
 40
0
 40
0
 40
0
 40
1
 40
1
 40
1
 40
1
 10
109.881363
 20
302.598958
 30
0.0
 10
109.616145
 20
302.598956
 30
0.0
 10
109.361790
 20
302.704312
 30
0.0
 10
109.174252
 20
302.891849
 30
0.0
  0
SPLINE
  5
2a9
100
AcDbEntity
  8
chars
 62
7
100
AcDbSpline
 70
8
 71
3
 72
8
 73
4
 74
0
 40
0
 40
0
 40
0
 40
0
 40
1
 40
1
 40
1
 40
1
 10
109.174252
 20
302.891849
 30
0.0
 10
108.986715
 20
303.079386
 30
0.0
 10
108.881357
 20
303.333740
 30
0.0
 10
108.881358
 20
303.598958
 30
0.0
  0
LWPOLYLINE
  5
2aa
100
AcDbEntity
  8
chars
 62
7
100
AcDbPolyline
 90
1
 70
1
 10
113.383243
 20
303.598958
 30
0.0
  0
SPLINE
  5
2ab
100
AcDbEntity
  8
chars
 62
7
100
AcDbSpline
 70
8
 71
3
 72
8
 73
4
 74
0
 40
0
 40
0
 40
0
 40
0
 40
1
 40
1
 40
1
 40
1
 10
275.383250
 20
243.598962
 30
0.0
 10
275.383250
 20
244.151239
 30
0.0
 10
275.830953
 20
244.598951
 30
0.0
 10
276.383230
 20
244.598962
 30
0.0
  0
SPLINE
  5
2ac
100
AcDbEntity
  8
chars
 62
7
100
AcDbSpline
 70
8
 71
3
 72
8
 73
4
 74
0
 40
0
 40
0
 40
0
 40
0
 40
1
 40
1
 40
1
 40
1
 10
276.383230
 20
244.598962
 30
0.0
 10
276.648447
 20
244.598962
 30
0.0
 10
276.902801
 20
244.493605
 30
0.0
 10
277.090337
 20
244.306069
 30
0.0
  0
SPLINE
  5
2ad
100
AcDbEntity
  8
chars
 62
7
100
AcDbSpline
 70
8
 71
3
 72
8
 73
4
 74
0
 40
0
 40
0
 40
0
 40
0
 40
1
 40
1
 40
1
 40
1
 10
277.090337
 20
244.306069
 30
0.0
 10
277.277873
 20
244.118532
 30
0.0
 10
277.383230
 20
243.864178
 30
0.0
 10
277.383230
 20
243.598962
 30
0.0
  0
SPLINE
  5
2ae
100
AcDbEntity
  8
chars
 62
7
100
AcDbSpline
 70
8
 71
3
 72
8
 73
4
 74
0
 40
0
 40
0
 40
0
 40
0
 40
1
 40
1
 40
1
 40
1
 10
277.383230
 20
243.598962
 30
0.0
 10
277.383230
 20
243.333745
 30
0.0
 10
277.277873
 20
243.079391
 30
0.0
 10
277.090337
 20
242.891855
 30
0.0
  0
SPLINE
  5
2af
100
AcDbEntity
  8
chars
 62
7
100
AcDbSpline
 70
8
 71
3
 72
8
 73
4
 74
0
 40
0
 40
0
 40
0
 40
0
 40
1
 40
1
 40
1
 40
1
 10
277.090337
 20
242.891855
 30
0.0
 10
276.902801
 20
242.704318
 30
0.0
 10
276.648447
 20
242.598962
 30
0.0
 10
276.383230
 20
242.598962
 30
0.0
  0
SPLINE
  5
2b0
100
AcDbEntity
  8
chars
 62
7
100
AcDbSpline
 70
8
 71
3
 72
8
 73
4
 74
0
 40
0
 40
0
 40
0
 40
0
 40
1
 40
1
 40
1
 40
1
 10
276.383230
 20
242.598962
 30
0.0
 10
275.830953
 20
242.598973
 30
0.0
 10
275.383250
 20
243.046685
 30
0.0
 10
275.383250
 20
243.598962
 30
0.0
  0
LWPOLYLINE
  5
2b1
100
AcDbEntity
  8
chars
 62
7
100
AcDbPolyline
 90
1
 70
1
 10
108.881358
 20
303.598958
 30
0.0
  0
SPLINE
  5
2b2
100
AcDbEntity
  8
chars
 62
7
100
AcDbSpline
 70
8
 71
3
 72
8
 73
4
 74
0
 40
0
 40
0
 40
0
 40
0
 40
1
 40
1
 40
1
 40
1
 10
270.881365
 20
243.598962
 30
0.0
 10
270.881365
 20
243.864179
 30
0.0
 10
270.986722
 20
244.118534
 30
0.0
 10
271.174260
 20
244.306070
 30
0.0
  0
SPLINE
  5
2b3
100
AcDbEntity
  8
chars
 62
7
100
AcDbSpline
 70
8
 71
3
 72
8
 73
4
 74
0
 40
0
 40
0
 40
0
 40
0
 40
1
 40
1
 40
1
 40
1
 10
271.174260
 20
244.306070
 30
0.0
 10
271.361797
 20
244.493607
 30
0.0
 10
271.616153
 20
244.598963
 30
0.0
 10
271.881370
 20
244.598962
 30
0.0
  0
SPLINE
  5
2b4
100
AcDbEntity
  8
chars
 62
7
100
AcDbSpline
 70
8
 71
3
 72
8
 73
4
 74
0
 40
0
 40
0
 40
0
 40
0
 40
1
 40
1
 40
1
 40
1
 10
271.881370
 20
244.598962
 30
0.0
 10
272.146588
 20
244.598964
 30
0.0
 10
272.400945
 20
244.493609
 30
0.0
 10
272.588483
 20
244.306072
 30
0.0
  0
SPLINE
  5
2b5
100
AcDbEntity
  8
chars
 62
7
100
AcDbSpline
 70
8
 71
3
 72
8
 73
4
 74
0
 40
0
 40
0
 40
0
 40
0
 40
1
 40
1
 40
1
 40
1
 10
272.588483
 20
244.306072
 30
0.0
 10
272.776022
 20
244.118535
 30
0.0
 10
272.881380
 20
243.864180
 30
0.0
 10
272.881380
 20
243.598962
 30
0.0
  0
SPLINE
  5
2b6
100
AcDbEntity
  8
chars
 62
7
100
AcDbSpline
 70
8
 71
3
 72
8
 73
4
 74
0
 40
0
 40
0
 40
0
 40
0
 40
1
 40
1
 40
1
 40
1
 10
272.881380
 20
243.598962
 30
0.0
 10
272.881380
 20
243.333743
 30
0.0
 10
272.776022
 20
243.079388
 30
0.0
 10
272.588483
 20
242.891851
 30
0.0
  0
SPLINE
  5
2b7
100
AcDbEntity
  8
chars
 62
7
100
AcDbSpline
 70
8
 71
3
 72
8
 73
4
 74
0
 40
0
 40
0
 40
0
 40
0
 40
1
 40
1
 40
1
 40
1
 10
272.588483
 20
242.891851
 30
0.0
 10
272.400945
 20
242.704315
 30
0.0
 10
272.146588
 20
242.598959
 30
0.0
 10
271.881370
 20
242.598962
 30
0.0
  0
SPLINE
  5
2b8
100
AcDbEntity
  8
chars
 62
7
100
AcDbSpline
 70
8
 71
3
 72
8
 73
4
 74
0
 40
0
 40
0
 40
0
 40
0
 40
1
 40
1
 40
1
 40
1
 10
271.881370
 20
242.598962
 30
0.0
 10
271.616153
 20
242.598960
 30
0.0
 10
271.361797
 20
242.704316
 30
0.0
 10
271.174260
 20
242.891853
 30
0.0
  0
SPLINE
  5
2b9
100
AcDbEntity
  8
chars
 62
7
100
AcDbSpline
 70
8
 71
3
 72
8
 73
4
 74
0
 40
0
 40
0
 40
0
 40
0
 40
1
 40
1
 40
1
 40
1
 10
271.174260
 20
242.891853
 30
0.0
 10
270.986722
 20
243.079390
 30
0.0
 10
270.881365
 20
243.333744
 30
0.0
 10
270.881365
 20
243.598962
 30
0.0
  0
LWPOLYLINE
  5
2ba
100
AcDbEntity
  8
chars
 62
7
100
AcDbPolyline
 90
1
 70
1
 10
275.383250
 20
243.598962
 30
0.0
  0
SPLINE
  5
2bb
100
AcDbEntity
  8
chars
 62
7
100
AcDbSpline
 70
8
 71
3
 72
8
 73
4
 74
0
 40
0
 40
0
 40
0
 40
0
 40
1
 40
1
 40
1
 40
1
 10
302.383250
 20
183.598996
 30
0.0
 10
302.383250
 20
184.151273
 30
0.0
 10
302.830953
 20
184.598985
 30
0.0
 10
303.383230
 20
184.598996
 30
0.0
  0
SPLINE
  5
2bc
100
AcDbEntity
  8
chars
 62
7
100
AcDbSpline
 70
8
 71
3
 72
8
 73
4
 74
0
 40
0
 40
0
 40
0
 40
0
 40
1
 40
1
 40
1
 40
1
 10
303.383230
 20
184.598996
 30
0.0
 10
303.648447
 20
184.598996
 30
0.0
 10
303.902801
 20
184.493639
 30
0.0
 10
304.090337
 20
184.306103
 30
0.0
  0
SPLINE
  5
2bd
100
AcDbEntity
  8
chars
 62
7
100
AcDbSpline
 70
8
 71
3
 72
8
 73
4
 74
0
 40
0
 40
0
 40
0
 40
0
 40
1
 40
1
 40
1
 40
1
 10
304.090337
 20
184.306103
 30
0.0
 10
304.277873
 20
184.118566
 30
0.0
 10
304.383230
 20
183.864212
 30
0.0
 10
304.383230
 20
183.598996
 30
0.0
  0
SPLINE
  5
2be
100
AcDbEntity
  8
chars
 62
7
100
AcDbSpline
 70
8
 71
3
 72
8
 73
4
 74
0
 40
0
 40
0
 40
0
 40
0
 40
1
 40
1
 40
1
 40
1
 10
304.383230
 20
183.598996
 30
0.0
 10
304.383230
 20
183.333779
 30
0.0
 10
304.277873
 20
183.079425
 30
0.0
 10
304.090337
 20
182.891889
 30
0.0
  0
SPLINE
  5
2bf
100
AcDbEntity
  8
chars
 62
7
100
AcDbSpline
 70
8
 71
3
 72
8
 73
4
 74
0
 40
0
 40
0
 40
0
 40
0
 40
1
 40
1
 40
1
 40
1
 10
304.090337
 20
182.891889
 30
0.0
 10
303.902801
 20
182.704352
 30
0.0
 10
303.648447
 20
182.598996
 30
0.0
 10
303.383230
 20
182.598996
 30
0.0
  0
SPLINE
  5
2c0
100
AcDbEntity
  8
chars
 62
7
100
AcDbSpline
 70
8
 71
3
 72
8
 73
4
 74
0
 40
0
 40
0
 40
0
 40
0
 40
1
 40
1
 40
1
 40
1
 10
303.383230
 20
182.598996
 30
0.0
 10
302.830953
 20
182.599007
 30
0.0
 10
302.383250
 20
183.046719
 30
0.0
 10
302.383250
 20
183.598996
 30
0.0
  0
LWPOLYLINE
  5
2c1
100
AcDbEntity
  8
chars
 62
7
100
AcDbPolyline
 90
1
 70
1
 10
270.881365
 20
243.598962
 30
0.0
  0
SPLINE
  5
2c2
100
AcDbEntity
  8
chars
 62
7
100
AcDbSpline
 70
8
 71
3
 72
8
 73
4
 74
0
 40
0
 40
0
 40
0
 40
0
 40
1
 40
1
 40
1
 40
1
 10
297.881365
 20
183.598996
 30
0.0
 10
297.881365
 20
183.864213
 30
0.0
 10
297.986722
 20
184.118568
 30
0.0
 10
298.174260
 20
184.306104
 30
0.0
  0
SPLINE
  5
2c3
100
AcDbEntity
  8
chars
 62
7
100
AcDbSpline
 70
8
 71
3
 72
8
 73
4
 74
0
 40
0
 40
0
 40
0
 40
0
 40
1
 40
1
 40
1
 40
1
 10
298.174260
 20
184.306104
 30
0.0
 10
298.361797
 20
184.493641
 30
0.0
 10
298.616153
 20
184.598997
 30
0.0
 10
298.881370
 20
184.598996
 30
0.0
  0
SPLINE
  5
2c4
100
AcDbEntity
  8
chars
 62
7
100
AcDbSpline
 70
8
 71
3
 72
8
 73
4
 74
0
 40
0
 40
0
 40
0
 40
0
 40
1
 40
1
 40
1
 40
1
 10
298.881370
 20
184.598996
 30
0.0
 10
299.146588
 20
184.598998
 30
0.0
 10
299.400945
 20
184.493643
 30
0.0
 10
299.588483
 20
184.306106
 30
0.0
  0
SPLINE
  5
2c5
100
AcDbEntity
  8
chars
 62
7
100
AcDbSpline
 70
8
 71
3
 72
8
 73
4
 74
0
 40
0
 40
0
 40
0
 40
0
 40
1
 40
1
 40
1
 40
1
 10
299.588483
 20
184.306106
 30
0.0
 10
299.776022
 20
184.118569
 30
0.0
 10
299.881380
 20
183.864214
 30
0.0
 10
299.881380
 20
183.598996
 30
0.0
  0
SPLINE
  5
2c6
100
AcDbEntity
  8
chars
 62
7
100
AcDbSpline
 70
8
 71
3
 72
8
 73
4
 74
0
 40
0
 40
0
 40
0
 40
0
 40
1
 40
1
 40
1
 40
1
 10
299.881380
 20
183.598996
 30
0.0
 10
299.881380
 20
183.333777
 30
0.0
 10
299.776022
 20
183.079422
 30
0.0
 10
299.588483
 20
182.891885
 30
0.0
  0
SPLINE
  5
2c7
100
AcDbEntity
  8
chars
 62
7
100
AcDbSpline
 70
8
 71
3
 72
8
 73
4
 74
0
 40
0
 40
0
 40
0
 40
0
 40
1
 40
1
 40
1
 40
1
 10
299.588483
 20
182.891885
 30
0.0
 10
299.400945
 20
182.704349
 30
0.0
 10
299.146588
 20
182.598993
 30
0.0
 10
298.881370
 20
182.598996
 30
0.0
  0
SPLINE
  5
2c8
100
AcDbEntity
  8
chars
 62
7
100
AcDbSpline
 70
8
 71
3
 72
8
 73
4
 74
0
 40
0
 40
0
 40
0
 40
0
 40
1
 40
1
 40
1
 40
1
 10
298.881370
 20
182.598996
 30
0.0
 10
298.616153
 20
182.598994
 30
0.0
 10
298.361797
 20
182.704350
 30
0.0
 10
298.174260
 20
182.891887
 30
0.0
  0
SPLINE
  5
2c9
100
AcDbEntity
  8
chars
 62
7
100
AcDbSpline
 70
8
 71
3
 72
8
 73
4
 74
0
 40
0
 40
0
 40
0
 40
0
 40
1
 40
1
 40
1
 40
1
 10
298.174260
 20
182.891887
 30
0.0
 10
297.986722
 20
183.079424
 30
0.0
 10
297.881365
 20
183.333778
 30
0.0
 10
297.881365
 20
183.598996
 30
0.0
  0
LWPOLYLINE
  5
2ca
100
AcDbEntity
  8
chars
 62
7
100
AcDbPolyline
 90
1
 70
1
 10
302.383250
 20
183.598996
 30
0.0
  0
LWPOLYLINE
  5
2cb
100
AcDbEntity
  8
chars
 62
7
100
AcDbPolyline
 90
1
 70
1
 10
297.881365
 20
183.598996
 30
0.0
  0
SPLINE
  5
2cc
100
AcDbEntity
  8
chars
 62
7
100
AcDbSpline
 70
8
 71
3
 72
8
 73
4
 74
0
 40
0
 40
0
 40
0
 40
0
 40
1
 40
1
 40
1
 40
1
 10
272.900060
 20
355.549871
 30
0.0
 10
273.297620
 20
356.921431
 30
0.0
 10
273.695160
 20
358.392081
 30
0.0
 10
274.052960
 20
359.843151
 30
0.0
  0
LWPOLYLINE
  5
2cd
100
AcDbEntity
  8
chars
 62
7
100
AcDbPolyline
 90
4
 70
0
 10
272.780720
 20
361.632221
 30
0.0
 10
270.779810
 20
355.459471
 30
0.0
 10
272.874260
 20
355.459471
 30
0.0
 10
272.900060
 20
355.549871
 30
0.0
  0
SPLINE
  5
2ce
100
AcDbEntity
  8
chars
 62
7
100
AcDbSpline
 70
8
 71
3
 72
8
 73
4
 74
0
 40
0
 40
0
 40
0
 40
0
 40
1
 40
1
 40
1
 40
1
 10
274.132560
 20
359.843151
 30
0.0
 10
274.490360
 20
358.392081
 30
0.0
 10
274.907790
 20
356.921431
 30
0.0
 10
275.285460
 20
355.549871
 30
0.0
  0
LWPOLYLINE
  5
2cf
100
AcDbEntity
  8
chars
 62
7
100
AcDbPolyline
 90
2
 70
0
 10
274.052960
 20
359.843151
 30
0.0
 10
274.132560
 20
359.843151
 30
0.0
  0
LWPOLYLINE
  5
2d0
100
AcDbEntity
  8
chars
 62
7
100
AcDbPolyline
 90
13
 70
0
 10
275.285460
 20
355.549871
 30
0.0
 10
275.742800
 20
353.959791
 30
0.0
 10
273.864880
 20
353.959791
 30
0.0
 10
272.442740
 20
353.959791
 30
0.0
 10
270.293520
 20
353.959791
 30
0.0
 10
268.566490
 20
348.632501
 30
0.0
 10
270.912090
 20
348.632501
 30
0.0
 10
271.925980
 20
352.150631
 30
0.0
 10
276.259560
 20
352.150631
 30
0.0
 10
277.253300
 20
348.632501
 30
0.0
 10
279.698110
 20
348.632501
 30
0.0
 10
275.484420
 20
361.632221
 30
0.0
 10
272.780720
 20
361.632221
 30
0.0
  0
SPLINE
  5
2d1
100
AcDbEntity
  8
chars
 62
7
100
AcDbSpline
 70
8
 71
3
 72
8
 73
4
 74
0
 40
0
 40
0
 40
0
 40
0
 40
1
 40
1
 40
1
 40
1
 10
327.615530
 20
359.783501
 30
0.0
 10
329.503910
 20
359.783501
 30
0.0
 10
330.477890
 20
359.246671
 30
0.0
 10
330.477890
 20
357.616701
 30
0.0
  0
SPLINE
  5
2d2
100
AcDbEntity
  8
chars
 62
7
100
AcDbSpline
 70
8
 71
3
 72
8
 73
4
 74
0
 40
0
 40
0
 40
0
 40
0
 40
1
 40
1
 40
1
 40
1
 10
330.477890
 20
357.616701
 30
0.0
 10
330.477890
 20
356.026481
 30
0.0
 10
329.543670
 20
355.251471
 30
0.0
 10
327.615530
 20
355.251471
 30
0.0
  0
LWPOLYLINE
  5
2d3
100
AcDbEntity
  8
chars
 62
7
100
AcDbPolyline
 90
5
 70
0
 10
323.520690
 20
361.632481
 30
0.0
 10
323.520690
 20
356.751641
 30
0.0
 10
325.826490
 20
356.751641
 30
0.0
 10
325.826490
 20
359.783501
 30
0.0
 10
327.615530
 20
359.783501
 30
0.0
  0
SPLINE
  5
2d4
100
AcDbEntity
  8
chars
 62
7
100
AcDbSpline
 70
8
 71
3
 72
8
 73
4
 74
0
 40
0
 40
0
 40
0
 40
0
 40
1
 40
1
 40
1
 40
1
 10
327.794330
 20
353.403011
 30
0.0
 10
330.597080
 20
353.403011
 30
0.0
 10
332.743900
 20
354.734441
 30
0.0
 10
332.743900
 20
357.616701
 30
0.0
  0
SPLINE
  5
2d5
100
AcDbEntity
  8
chars
 62
7
100
AcDbSpline
 70
8
 71
3
 72
8
 73
4
 74
0
 40
0
 40
0
 40
0
 40
0
 40
1
 40
1
 40
1
 40
1
 10
332.743900
 20
357.616701
 30
0.0
 10
332.743900
 20
360.638101
 30
0.0
 10
330.636840
 20
361.632481
 30
0.0
 10
327.794330
 20
361.632481
 30
0.0
  0
LWPOLYLINE
  5
2d6
100
AcDbEntity
  8
chars
 62
7
100
AcDbPolyline
 90
7
 70
0
 10
327.615530
 20
355.251471
 30
0.0
 10
325.826490
 20
355.251471
 30
0.0
 10
323.520690
 20
355.251471
 30
0.0
 10
323.520690
 20
348.632241
 30
0.0
 10
325.826490
 20
348.632241
 30
0.0
 10
325.826490
 20
353.403011
 30
0.0
 10
327.794330
 20
353.403011
 30
0.0
  0
LWPOLYLINE
  5
2d7
100
AcDbEntity
  8
chars
 62
7
100
AcDbPolyline
 90
2
 70
0
 10
327.794330
 20
361.632481
 30
0.0
 10
323.520690
 20
361.632481
 30
0.0
  0
SPLINE
  5
2d8
100
AcDbEntity
  8
chars
 62
7
100
AcDbSpline
 70
8
 71
3
 72
8
 73
4
 74
0
 40
0
 40
0
 40
0
 40
0
 40
1
 40
1
 40
1
 40
1
 10
245.900060
 20
325.549860
 30
0.0
 10
246.297620
 20
326.921420
 30
0.0
 10
246.695160
 20
328.392070
 30
0.0
 10
247.052960
 20
329.843140
 30
0.0
  0
LWPOLYLINE
  5
2d9
100
AcDbEntity
  8
chars
 62
7
100
AcDbPolyline
 90
4
 70
0
 10
245.780720
 20
331.632210
 30
0.0
 10
243.779810
 20
325.459460
 30
0.0
 10
245.874260
 20
325.459460
 30
0.0
 10
245.900060
 20
325.549860
 30
0.0
  0
SPLINE
  5
2da
100
AcDbEntity
  8
chars
 62
7
100
AcDbSpline
 70
8
 71
3
 72
8
 73
4
 74
0
 40
0
 40
0
 40
0
 40
0
 40
1
 40
1
 40
1
 40
1
 10
247.132560
 20
329.843140
 30
0.0
 10
247.490360
 20
328.392070
 30
0.0
 10
247.907790
 20
326.921420
 30
0.0
 10
248.285460
 20
325.549860
 30
0.0
  0
LWPOLYLINE
  5
2db
100
AcDbEntity
  8
chars
 62
7
100
AcDbPolyline
 90
2
 70
0
 10
247.052960
 20
329.843140
 30
0.0
 10
247.132560
 20
329.843140
 30
0.0
  0
LWPOLYLINE
  5
2dc
100
AcDbEntity
  8
chars
 62
7
100
AcDbPolyline
 90
13
 70
0
 10
248.285460
 20
325.549860
 30
0.0
 10
248.742800
 20
323.959780
 30
0.0
 10
246.864880
 20
323.959780
 30
0.0
 10
245.442740
 20
323.959780
 30
0.0
 10
243.293520
 20
323.959780
 30
0.0
 10
241.566490
 20
318.632490
 30
0.0
 10
243.912090
 20
318.632490
 30
0.0
 10
244.925980
 20
322.150620
 30
0.0
 10
249.259560
 20
322.150620
 30
0.0
 10
250.253300
 20
318.632490
 30
0.0
 10
252.698110
 20
318.632490
 30
0.0
 10
248.484420
 20
331.632210
 30
0.0
 10
245.780720
 20
331.632210
 30
0.0
  0
SPLINE
  5
2dd
100
AcDbEntity
  8
chars
 62
7
100
AcDbSpline
 70
8
 71
3
 72
8
 73
4
 74
0
 40
0
 40
0
 40
0
 40
0
 40
1
 40
1
 40
1
 40
1
 10
273.406760
 20
299.783730
 30
0.0
 10
275.195740
 20
299.783730
 30
0.0
 10
276.169910
 20
299.266930
 30
0.0
 10
276.169910
 20
297.776100
 30
0.0
  0
SPLINE
  5
2de
100
AcDbEntity
  8
chars
 62
7
100
AcDbSpline
 70
8
 71
3
 72
8
 73
4
 74
0
 40
0
 40
0
 40
0
 40
0
 40
1
 40
1
 40
1
 40
1
 10
276.169910
 20
297.776100
 30
0.0
 10
276.169910
 20
296.305150
 30
0.0
 10
275.195740
 20
295.549880
 30
0.0
 10
273.406760
 20
295.549880
 30
0.0
  0
LWPOLYLINE
  5
2df
100
AcDbEntity
  8
chars
 62
7
100
AcDbPolyline
 90
5
 70
0
 10
269.311910
 20
301.632200
 30
0.0
 10
269.311910
 20
297.049530
 30
0.0
 10
271.617730
 20
297.049530
 30
0.0
 10
271.617730
 20
299.783730
 30
0.0
 10
273.406760
 20
299.783730
 30
0.0
  0
SPLINE
  5
2e0
100
AcDbEntity
  8
chars
 62
7
100
AcDbSpline
 70
8
 71
3
 72
8
 73
4
 74
0
 40
0
 40
0
 40
0
 40
0
 40
1
 40
1
 40
1
 40
1
 10
275.851560
 20
294.059020
 30
0.0
 10
277.402050
 20
294.595710
 30
0.0
 10
278.435910
 20
295.808220
 30
0.0
 10
278.435910
 20
297.776100
 30
0.0
  0
SPLINE
  5
2e1
100
AcDbEntity
  8
chars
 62
7
100
AcDbSpline
 70
8
 71
3
 72
8
 73
4
 74
0
 40
0
 40
0
 40
0
 40
0
 40
1
 40
1
 40
1
 40
1
 10
278.435910
 20
297.776100
 30
0.0
 10
278.435910
 20
300.678240
 30
0.0
 10
276.348870
 20
301.632200
 30
0.0
 10
273.645520
 20
301.632200
 30
0.0
  0
LWPOLYLINE
  5
2e2
100
AcDbEntity
  8
chars
 62
7
100
AcDbPolyline
 90
10
 70
0
 10
273.406760
 20
295.549880
 30
0.0
 10
271.617730
 20
295.549880
 30
0.0
 10
269.311910
 20
295.549880
 30
0.0
 10
269.311910
 20
288.632480
 30
0.0
 10
271.617730
 20
288.632480
 30
0.0
 10
271.617730
 20
293.721060
 30
0.0
 10
273.565930
 20
293.721060
 30
0.0
 10
276.348710
 20
288.632480
 30
0.0
 10
278.952690
 20
288.632480
 30
0.0
 10
275.851560
 20
294.059020
 30
0.0
  0
LWPOLYLINE
  5
2e3
100
AcDbEntity
  8
chars
 62
7
100
AcDbPolyline
 90
2
 70
0
 10
273.645520
 20
301.632200
 30
0.0
 10
269.311910
 20
301.632200
 30
0.0
  0
SPLINE
  5
2e4
100
AcDbEntity
  8
chars
 62
7
100
AcDbSpline
 70
8
 71
3
 72
8
 73
4
 74
0
 40
0
 40
0
 40
0
 40
0
 40
1
 40
1
 40
1
 40
1
 10
300.406760
 20
269.783720
 30
0.0
 10
302.195740
 20
269.783720
 30
0.0
 10
303.169910
 20
269.266920
 30
0.0
 10
303.169910
 20
267.776090
 30
0.0
  0
SPLINE
  5
2e5
100
AcDbEntity
  8
chars
 62
7
100
AcDbSpline
 70
8
 71
3
 72
8
 73
4
 74
0
 40
0
 40
0
 40
0
 40
0
 40
1
 40
1
 40
1
 40
1
 10
303.169910
 20
267.776090
 30
0.0
 10
303.169910
 20
266.305140
 30
0.0
 10
302.195740
 20
265.549870
 30
0.0
 10
300.406760
 20
265.549870
 30
0.0
  0
LWPOLYLINE
  5
2e6
100
AcDbEntity
  8
chars
 62
7
100
AcDbPolyline
 90
5
 70
0
 10
296.311910
 20
271.632190
 30
0.0
 10
296.311910
 20
267.049520
 30
0.0
 10
298.617720
 20
267.049520
 30
0.0
 10
298.617720
 20
269.783720
 30
0.0
 10
300.406760
 20
269.783720
 30
0.0
  0
SPLINE
  5
2e7
100
AcDbEntity
  8
chars
 62
7
100
AcDbSpline
 70
8
 71
3
 72
8
 73
4
 74
0
 40
0
 40
0
 40
0
 40
0
 40
1
 40
1
 40
1
 40
1
 10
302.851560
 20
264.059010
 30
0.0
 10
304.402040
 20
264.595700
 30
0.0
 10
305.435900
 20
265.808210
 30
0.0
 10
305.435900
 20
267.776090
 30
0.0
  0
SPLINE
  5
2e8
100
AcDbEntity
  8
chars
 62
7
100
AcDbSpline
 70
8
 71
3
 72
8
 73
4
 74
0
 40
0
 40
0
 40
0
 40
0
 40
1
 40
1
 40
1
 40
1
 10
305.435900
 20
267.776090
 30
0.0
 10
305.435900
 20
270.678230
 30
0.0
 10
303.348870
 20
271.632190
 30
0.0
 10
300.645520
 20
271.632190
 30
0.0
  0
LWPOLYLINE
  5
2e9
100
AcDbEntity
  8
chars
 62
7
100
AcDbPolyline
 90
10
 70
0
 10
300.406760
 20
265.549870
 30
0.0
 10
298.617720
 20
265.549870
 30
0.0
 10
296.311910
 20
265.549870
 30
0.0
 10
296.311910
 20
258.632470
 30
0.0
 10
298.617720
 20
258.632470
 30
0.0
 10
298.617720
 20
263.721050
 30
0.0
 10
300.565930
 20
263.721050
 30
0.0
 10
303.348710
 20
258.632470
 30
0.0
 10
305.952690
 20
258.632470
 30
0.0
 10
302.851560
 20
264.059010
 30
0.0
  0
LWPOLYLINE
  5
2ea
100
AcDbEntity
  8
chars
 62
7
100
AcDbPolyline
 90
2
 70
0
 10
300.645520
 20
271.632190
 30
0.0
 10
296.311910
 20
271.632190
 30
0.0
  0
SPLINE
  5
2eb
100
AcDbEntity
  8
chars
 62
7
100
AcDbSpline
 70
8
 71
3
 72
8
 73
4
 74
0
 40
0
 40
0
 40
0
 40
0
 40
1
 40
1
 40
1
 40
1
 10
164.900060
 20
265.549840
 30
0.0
 10
165.297620
 20
266.921400
 30
0.0
 10
165.695160
 20
268.392050
 30
0.0
 10
166.052960
 20
269.843120
 30
0.0
  0
LWPOLYLINE
  5
2ec
100
AcDbEntity
  8
chars
 62
7
100
AcDbPolyline
 90
4
 70
0
 10
164.780730
 20
271.632190
 30
0.0
 10
162.779820
 20
265.459440
 30
0.0
 10
164.874260
 20
265.459440
 30
0.0
 10
164.900060
 20
265.549840
 30
0.0
  0
SPLINE
  5
2ed
100
AcDbEntity
  8
chars
 62
7
100
AcDbSpline
 70
8
 71
3
 72
8
 73
4
 74
0
 40
0
 40
0
 40
0
 40
0
 40
1
 40
1
 40
1
 40
1
 10
166.132560
 20
269.843120
 30
0.0
 10
166.490360
 20
268.392050
 30
0.0
 10
166.907790
 20
266.921400
 30
0.0
 10
167.285460
 20
265.549840
 30
0.0
  0
LWPOLYLINE
  5
2ee
100
AcDbEntity
  8
chars
 62
7
100
AcDbPolyline
 90
2
 70
0
 10
166.052960
 20
269.843120
 30
0.0
 10
166.132560
 20
269.843120
 30
0.0
  0
LWPOLYLINE
  5
2ef
100
AcDbEntity
  8
chars
 62
7
100
AcDbPolyline
 90
13
 70
0
 10
167.285460
 20
265.549840
 30
0.0
 10
167.742800
 20
263.959760
 30
0.0
 10
165.864880
 20
263.959760
 30
0.0
 10
164.442740
 20
263.959760
 30
0.0
 10
162.293520
 20
263.959760
 30
0.0
 10
160.566490
 20
258.632470
 30
0.0
 10
162.912090
 20
258.632470
 30
0.0
 10
163.925980
 20
262.150600
 30
0.0
 10
168.259570
 20
262.150600
 30
0.0
 10
169.253300
 20
258.632470
 30
0.0
 10
171.698110
 20
258.632470
 30
0.0
 10
167.484420
 20
271.632190
 30
0.0
 10
164.780730
 20
271.632190
 30
0.0
  0
SPLINE
  5
2f0
100
AcDbEntity
  8
chars
 62
7
100
AcDbSpline
 70
8
 71
3
 72
8
 73
4
 74
0
 40
0
 40
0
 40
0
 40
0
 40
1
 40
1
 40
1
 40
1
 10
110.900050
 20
235.549830
 30
0.0
 10
111.297610
 20
236.921390
 30
0.0
 10
111.695150
 20
238.392040
 30
0.0
 10
112.052950
 20
239.843110
 30
0.0
  0
LWPOLYLINE
  5
2f1
100
AcDbEntity
  8
chars
 62
7
100
AcDbPolyline
 90
4
 70
0
 10
110.780720
 20
241.632180
 30
0.0
 10
108.779800
 20
235.459430
 30
0.0
 10
110.874250
 20
235.459430
 30
0.0
 10
110.900050
 20
235.549830
 30
0.0
  0
SPLINE
  5
2f2
100
AcDbEntity
  8
chars
 62
7
100
AcDbSpline
 70
8
 71
3
 72
8
 73
4
 74
0
 40
0
 40
0
 40
0
 40
0
 40
1
 40
1
 40
1
 40
1
 10
112.132550
 20
239.843110
 30
0.0
 10
112.490350
 20
238.392040
 30
0.0
 10
112.907780
 20
236.921390
 30
0.0
 10
113.285450
 20
235.549830
 30
0.0
  0
LWPOLYLINE
  5
2f3
100
AcDbEntity
  8
chars
 62
7
100
AcDbPolyline
 90
2
 70
0
 10
112.052950
 20
239.843110
 30
0.0
 10
112.132550
 20
239.843110
 30
0.0
  0
LWPOLYLINE
  5
2f4
100
AcDbEntity
  8
chars
 62
7
100
AcDbPolyline
 90
13
 70
0
 10
113.285450
 20
235.549830
 30
0.0
 10
113.742790
 20
233.959750
 30
0.0
 10
111.864870
 20
233.959750
 30
0.0
 10
110.442730
 20
233.959750
 30
0.0
 10
108.293510
 20
233.959750
 30
0.0
 10
106.566480
 20
228.632460
 30
0.0
 10
108.912080
 20
228.632460
 30
0.0
 10
109.925970
 20
232.150590
 30
0.0
 10
114.259550
 20
232.150590
 30
0.0
 10
115.253290
 20
228.632460
 30
0.0
 10
117.698100
 20
228.632460
 30
0.0
 10
113.484410
 20
241.632180
 30
0.0
 10
110.780720
 20
241.632180
 30
0.0
  0
SPLINE
  5
2f5
100
AcDbEntity
  8
chars
 62
7
100
AcDbSpline
 70
8
 71
3
 72
8
 73
4
 74
0
 40
0
 40
0
 40
0
 40
0
 40
1
 40
1
 40
1
 40
1
 10
165.347080
 20
239.783450
 30
0.0
 10
167.036680
 20
239.783450
 30
0.0
 10
167.851830
 20
239.346230
 30
0.0
 10
167.851830
 20
238.153570
 30
0.0
  0
SPLINE
  5
2f6
100
AcDbEntity
  8
chars
 62
7
100
AcDbSpline
 70
8
 71
3
 72
8
 73
4
 74
0
 40
0
 40
0
 40
0
 40
0
 40
1
 40
1
 40
1
 40
1
 10
167.851830
 20
238.153570
 30
0.0
 10
167.851830
 20
236.941030
 30
0.0
 10
167.116150
 20
236.284950
 30
0.0
 10
165.307290
 20
236.284950
 30
0.0
  0
LWPOLYLINE
  5
2f7
100
AcDbEntity
  8
chars
 62
7
100
AcDbPolyline
 90
5
 70
0
 10
161.470830
 20
241.632430
 30
0.0
 10
161.470830
 20
237.785120
 30
0.0
 10
163.776630
 20
237.785120
 30
0.0
 10
163.776630
 20
239.783450
 30
0.0
 10
165.347080
 20
239.783450
 30
0.0
  0
SPLINE
  5
2f8
100
AcDbEntity
  8
chars
 62
7
100
AcDbSpline
 70
8
 71
3
 72
8
 73
4
 74
0
 40
0
 40
0
 40
0
 40
0
 40
1
 40
1
 40
1
 40
1
 10
165.605460
 20
234.535710
 30
0.0
 10
167.553470
 20
234.535710
 30
0.0
 10
168.527240
 20
233.979220
 30
0.0
 10
168.527240
 20
232.607660
 30
0.0
  0
SPLINE
  5
2f9
100
AcDbEntity
  8
chars
 62
7
100
AcDbSpline
 70
8
 71
3
 72
8
 73
4
 74
0
 40
0
 40
0
 40
0
 40
0
 40
1
 40
1
 40
1
 40
1
 10
168.527240
 20
232.607660
 30
0.0
 10
168.527240
 20
231.136710
 30
0.0
 10
167.513710
 20
230.480660
 30
0.0
 10
165.605460
 20
230.480660
 30
0.0
  0
LWPOLYLINE
  5
2fa
100
AcDbEntity
  8
chars
 62
7
100
AcDbPolyline
 90
7
 70
0
 10
165.307290
 20
236.284950
 30
0.0
 10
163.776630
 20
236.284950
 30
0.0
 10
161.470830
 20
236.284950
 30
0.0
 10
161.470830
 20
231.980820
 30
0.0
 10
163.776630
 20
231.980820
 30
0.0
 10
163.776630
 20
234.535710
 30
0.0
 10
165.605460
 20
234.535710
 30
0.0
  0
SPLINE
  5
2fb
100
AcDbEntity
  8
chars
 62
7
100
AcDbSpline
 70
8
 71
3
 72
8
 73
4
 74
0
 40
0
 40
0
 40
0
 40
0
 40
1
 40
1
 40
1
 40
1
 10
165.844200
 20
228.632190
 30
0.0
 10
168.706580
 20
228.632190
 30
0.0
 10
170.793780
 20
229.845030
 30
0.0
 10
170.793770
 20
232.449010
 30
0.0
  0
SPLINE
  5
2fc
100
AcDbEntity
  8
chars
 62
7
100
AcDbSpline
 70
8
 71
3
 72
8
 73
4
 74
0
 40
0
 40
0
 40
0
 40
0
 40
1
 40
1
 40
1
 40
1
 10
170.793770
 20
232.449010
 30
0.0
 10
170.793770
 20
234.218120
 30
0.0
 10
169.739970
 20
235.211910
 30
0.0
 10
167.871470
 20
235.529960
 30
0.0
  0
LWPOLYLINE
  5
2fd
100
AcDbEntity
  8
chars
 62
7
100
AcDbPolyline
 90
5
 70
0
 10
165.605460
 20
230.480660
 30
0.0
 10
163.776630
 20
230.480660
 30
0.0
 10
161.470830
 20
230.480660
 30
0.0
 10
161.470830
 20
228.632190
 30
0.0
 10
165.844200
 20
228.632190
 30
0.0
  0
SPLINE
  5
2fe
100
AcDbEntity
  8
chars
 62
7
100
AcDbSpline
 70
8
 71
3
 72
8
 73
4
 74
0
 40
0
 40
0
 40
0
 40
0
 40
1
 40
1
 40
1
 40
1
 10
167.871470
 20
235.609560
 30
0.0
 10
169.402050
 20
236.007110
 30
0.0
 10
170.117840
 20
237.199710
 30
0.0
 10
170.117840
 20
238.432130
 30
0.0
  0
SPLINE
  5
2ff
100
AcDbEntity
  8
chars
 62
7
100
AcDbSpline
 70
8
 71
3
 72
8
 73
4
 74
0
 40
0
 40
0
 40
0
 40
0
 40
1
 40
1
 40
1
 40
1
 10
170.117840
 20
238.432130
 30
0.0
 10
170.117840
 20
240.817450
 30
0.0
 10
168.189730
 20
241.632450
 30
0.0
 10
165.506240
 20
241.632450
 30
0.0
  0
LWPOLYLINE
  5
300
100
AcDbEntity
  8
chars
 62
7
100
AcDbPolyline
 90
2
 70
0
 10
167.871470
 20
235.529960
 30
0.0
 10
167.871470
 20
235.609560
 30
0.0
  0
LWPOLYLINE
  5
301
100
AcDbEntity
  8
chars
 62
7
100
AcDbPolyline
 90
2
 70
0
 10
165.506240
 20
241.632450
 30
0.0
 10
161.470830
 20
241.632430
 30
0.0
  0
SPLINE
  5
302
100
AcDbEntity
  8
chars
 62
7
100
AcDbSpline
 70
8
 71
3
 72
8
 73
4
 74
0
 40
0
 40
0
 40
0
 40
0
 40
1
 40
1
 40
1
 40
1
 10
300.347080
 20
209.783440
 30
0.0
 10
302.036680
 20
209.783440
 30
0.0
 10
302.851830
 20
209.346220
 30
0.0
 10
302.851830
 20
208.153560
 30
0.0
  0
SPLINE
  5
303
100
AcDbEntity
  8
chars
 62
7
100
AcDbSpline
 70
8
 71
3
 72
8
 73
4
 74
0
 40
0
 40
0
 40
0
 40
0
 40
1
 40
1
 40
1
 40
1
 10
302.851830
 20
208.153560
 30
0.0
 10
302.851830
 20
206.941020
 30
0.0
 10
302.116150
 20
206.284940
 30
0.0
 10
300.307290
 20
206.284940
 30
0.0
  0
LWPOLYLINE
  5
304
100
AcDbEntity
  8
chars
 62
7
100
AcDbPolyline
 90
5
 70
0
 10
296.470830
 20
211.632420
 30
0.0
 10
296.470830
 20
207.785110
 30
0.0
 10
298.776630
 20
207.785110
 30
0.0
 10
298.776630
 20
209.783440
 30
0.0
 10
300.347080
 20
209.783440
 30
0.0
  0
SPLINE
  5
305
100
AcDbEntity
  8
chars
 62
7
100
AcDbSpline
 70
8
 71
3
 72
8
 73
4
 74
0
 40
0
 40
0
 40
0
 40
0
 40
1
 40
1
 40
1
 40
1
 10
300.605460
 20
204.535700
 30
0.0
 10
302.553470
 20
204.535700
 30
0.0
 10
303.527240
 20
203.979210
 30
0.0
 10
303.527240
 20
202.607650
 30
0.0
  0
SPLINE
  5
306
100
AcDbEntity
  8
chars
 62
7
100
AcDbSpline
 70
8
 71
3
 72
8
 73
4
 74
0
 40
0
 40
0
 40
0
 40
0
 40
1
 40
1
 40
1
 40
1
 10
303.527240
 20
202.607650
 30
0.0
 10
303.527240
 20
201.136700
 30
0.0
 10
302.513710
 20
200.480650
 30
0.0
 10
300.605460
 20
200.480650
 30
0.0
  0
LWPOLYLINE
  5
307
100
AcDbEntity
  8
chars
 62
7
100
AcDbPolyline
 90
7
 70
0
 10
300.307290
 20
206.284940
 30
0.0
 10
298.776630
 20
206.284940
 30
0.0
 10
296.470830
 20
206.284940
 30
0.0
 10
296.470830
 20
201.980810
 30
0.0
 10
298.776630
 20
201.980810
 30
0.0
 10
298.776630
 20
204.535700
 30
0.0
 10
300.605460
 20
204.535700
 30
0.0
  0
SPLINE
  5
308
100
AcDbEntity
  8
chars
 62
7
100
AcDbSpline
 70
8
 71
3
 72
8
 73
4
 74
0
 40
0
 40
0
 40
0
 40
0
 40
1
 40
1
 40
1
 40
1
 10
300.844200
 20
198.632180
 30
0.0
 10
303.706580
 20
198.632180
 30
0.0
 10
305.793780
 20
199.845020
 30
0.0
 10
305.793770
 20
202.449000
 30
0.0
  0
SPLINE
  5
309
100
AcDbEntity
  8
chars
 62
7
100
AcDbSpline
 70
8
 71
3
 72
8
 73
4
 74
0
 40
0
 40
0
 40
0
 40
0
 40
1
 40
1
 40
1
 40
1
 10
305.793770
 20
202.449000
 30
0.0
 10
305.793770
 20
204.218110
 30
0.0
 10
304.739970
 20
205.211900
 30
0.0
 10
302.871470
 20
205.529950
 30
0.0
  0
LWPOLYLINE
  5
30a
100
AcDbEntity
  8
chars
 62
7
100
AcDbPolyline
 90
5
 70
0
 10
300.605460
 20
200.480650
 30
0.0
 10
298.776630
 20
200.480650
 30
0.0
 10
296.470830
 20
200.480650
 30
0.0
 10
296.470830
 20
198.632180
 30
0.0
 10
300.844200
 20
198.632180
 30
0.0
  0
SPLINE
  5
30b
100
AcDbEntity
  8
chars
 62
7
100
AcDbSpline
 70
8
 71
3
 72
8
 73
4
 74
0
 40
0
 40
0
 40
0
 40
0
 40
1
 40
1
 40
1
 40
1
 10
302.871470
 20
205.609550
 30
0.0
 10
304.402050
 20
206.007100
 30
0.0
 10
305.117840
 20
207.199700
 30
0.0
 10
305.117840
 20
208.432120
 30
0.0
  0
SPLINE
  5
30c
100
AcDbEntity
  8
chars
 62
7
100
AcDbSpline
 70
8
 71
3
 72
8
 73
4
 74
0
 40
0
 40
0
 40
0
 40
0
 40
1
 40
1
 40
1
 40
1
 10
305.117840
 20
208.432120
 30
0.0
 10
305.117840
 20
210.817440
 30
0.0
 10
303.189730
 20
211.632440
 30
0.0
 10
300.506240
 20
211.632440
 30
0.0
  0
LWPOLYLINE
  5
30d
100
AcDbEntity
  8
chars
 62
7
100
AcDbPolyline
 90
2
 70
0
 10
302.871470
 20
205.529950
 30
0.0
 10
302.871470
 20
205.609550
 30
0.0
  0
LWPOLYLINE
  5
30e
100
AcDbEntity
  8
chars
 62
7
100
AcDbPolyline
 90
2
 70
0
 10
300.506240
 20
211.632440
 30
0.0
 10
296.470830
 20
211.632420
 30
0.0
  0
SPLINE
  5
30f
100
AcDbEntity
  8
chars
 62
7
100
AcDbSpline
 70
8
 71
3
 72
8
 73
4
 74
0
 40
0
 40
0
 40
0
 40
0
 40
1
 40
1
 40
1
 40
1
 10
110.641160
 20
179.763800
 30
0.0
 10
113.125870
 20
179.763800
 30
0.0
 10
114.537570
 20
178.372410
 30
0.0
 10
114.537570
 20
175.191990
 30
0.0
  0
SPLINE
  5
310
100
AcDbEntity
  8
chars
 62
7
100
AcDbSpline
 70
8
 71
3
 72
8
 73
4
 74
0
 40
0
 40
0
 40
0
 40
0
 40
1
 40
1
 40
1
 40
1
 10
114.537570
 20
175.191990
 30
0.0
 10
114.537570
 20
171.991680
 30
0.0
 10
113.125870
 20
170.500800
 30
0.0
 10
110.641160
 20
170.500800
 30
0.0
  0
LWPOLYLINE
  5
311
100
AcDbEntity
  8
chars
 62
7
100
AcDbPolyline
 90
5
 70
0
 10
107.361780
 20
181.632420
 30
0.0
 10
107.361780
 20
172.000970
 30
0.0
 10
109.667580
 20
172.000970
 30
0.0
 10
109.667580
 20
179.763800
 30
0.0
 10
110.641160
 20
179.763800
 30
0.0
  0
SPLINE
  5
312
100
AcDbEntity
  8
chars
 62
7
100
AcDbSpline
 70
8
 71
3
 72
8
 73
4
 74
0
 40
0
 40
0
 40
0
 40
0
 40
1
 40
1
 40
1
 40
1
 10
110.900060
 20
168.632180
 30
0.0
 10
114.617180
 20
168.632180
 30
0.0
 10
116.902800
 20
170.878530
 30
0.0
 10
116.902800
 20
175.191990
 30
0.0
  0
SPLINE
  5
313
100
AcDbEntity
  8
chars
 62
7
100
AcDbSpline
 70
8
 71
3
 72
8
 73
4
 74
0
 40
0
 40
0
 40
0
 40
0
 40
1
 40
1
 40
1
 40
1
 10
116.902800
 20
175.191990
 30
0.0
 10
116.902800
 20
179.485560
 30
0.0
 10
114.617080
 20
181.632420
 30
0.0
 10
110.780690
 20
181.632420
 30
0.0
  0
LWPOLYLINE
  5
314
100
AcDbEntity
  8
chars
 62
7
100
AcDbPolyline
 90
5
 70
0
 10
110.641160
 20
170.500800
 30
0.0
 10
109.667580
 20
170.500800
 30
0.0
 10
107.361780
 20
170.500800
 30
0.0
 10
107.361780
 20
168.632180
 30
0.0
 10
110.900060
 20
168.632180
 30
0.0
  0
LWPOLYLINE
  5
315
100
AcDbEntity
  8
chars
 62
7
100
AcDbPolyline
 90
2
 70
0
 10
110.780690
 20
181.632420
 30
0.0
 10
107.361780
 20
181.632420
 30
0.0
  0
SPLINE
  5
316
100
AcDbEntity
  8
chars
 62
7
100
AcDbSpline
 70
8
 71
3
 72
8
 73
4
 74
0
 40
0
 40
0
 40
0
 40
0
 40
1
 40
1
 40
1
 40
1
 10
138.406760
 20
179.783690
 30
0.0
 10
140.195740
 20
179.783690
 30
0.0
 10
141.169910
 20
179.266890
 30
0.0
 10
141.169910
 20
177.776060
 30
0.0
  0
SPLINE
  5
317
100
AcDbEntity
  8
chars
 62
7
100
AcDbSpline
 70
8
 71
3
 72
8
 73
4
 74
0
 40
0
 40
0
 40
0
 40
0
 40
1
 40
1
 40
1
 40
1
 10
141.169910
 20
177.776060
 30
0.0
 10
141.169910
 20
176.305110
 30
0.0
 10
140.195740
 20
175.549840
 30
0.0
 10
138.406760
 20
175.549840
 30
0.0
  0
LWPOLYLINE
  5
318
100
AcDbEntity
  8
chars
 62
7
100
AcDbPolyline
 90
5
 70
0
 10
134.311910
 20
181.632160
 30
0.0
 10
134.311910
 20
177.049490
 30
0.0
 10
136.617730
 20
177.049490
 30
0.0
 10
136.617730
 20
179.783690
 30
0.0
 10
138.406760
 20
179.783690
 30
0.0
  0
SPLINE
  5
319
100
AcDbEntity
  8
chars
 62
7
100
AcDbSpline
 70
8
 71
3
 72
8
 73
4
 74
0
 40
0
 40
0
 40
0
 40
0
 40
1
 40
1
 40
1
 40
1
 10
140.851570
 20
174.058980
 30
0.0
 10
142.402050
 20
174.595670
 30
0.0
 10
143.435910
 20
175.808180
 30
0.0
 10
143.435910
 20
177.776060
 30
0.0
  0
SPLINE
  5
31a
100
AcDbEntity
  8
chars
 62
7
100
AcDbSpline
 70
8
 71
3
 72
8
 73
4
 74
0
 40
0
 40
0
 40
0
 40
0
 40
1
 40
1
 40
1
 40
1
 10
143.435910
 20
177.776060
 30
0.0
 10
143.435910
 20
180.678200
 30
0.0
 10
141.348880
 20
181.632160
 30
0.0
 10
138.645520
 20
181.632160
 30
0.0
  0
LWPOLYLINE
  5
31b
100
AcDbEntity
  8
chars
 62
7
100
AcDbPolyline
 90
10
 70
0
 10
138.406760
 20
175.549840
 30
0.0
 10
136.617730
 20
175.549840
 30
0.0
 10
134.311910
 20
175.549840
 30
0.0
 10
134.311910
 20
168.632440
 30
0.0
 10
136.617730
 20
168.632440
 30
0.0
 10
136.617730
 20
173.721020
 30
0.0
 10
138.565940
 20
173.721020
 30
0.0
 10
141.348720
 20
168.632440
 30
0.0
 10
143.952690
 20
168.632440
 30
0.0
 10
140.851570
 20
174.058980
 30
0.0
  0
LWPOLYLINE
  5
31c
100
AcDbEntity
  8
chars
 62
7
100
AcDbPolyline
 90
2
 70
0
 10
138.645520
 20
181.632160
 30
0.0
 10
134.311910
 20
181.632160
 30
0.0
  0
SPLINE
  5
31d
100
AcDbEntity
  8
chars
 62
7
100
AcDbSpline
 70
8
 71
3
 72
8
 73
4
 74
0
 40
0
 40
0
 40
0
 40
0
 40
1
 40
1
 40
1
 40
1
 10
354.406760
 20
149.783680
 30
0.0
 10
356.195740
 20
149.783680
 30
0.0
 10
357.169910
 20
149.266880
 30
0.0
 10
357.169910
 20
147.776050
 30
0.0
  0
SPLINE
  5
31e
100
AcDbEntity
  8
chars
 62
7
100
AcDbSpline
 70
8
 71
3
 72
8
 73
4
 74
0
 40
0
 40
0
 40
0
 40
0
 40
1
 40
1
 40
1
 40
1
 10
357.169910
 20
147.776050
 30
0.0
 10
357.169910
 20
146.305100
 30
0.0
 10
356.195740
 20
145.549830
 30
0.0
 10
354.406760
 20
145.549830
 30
0.0
  0
LWPOLYLINE
  5
31f
100
AcDbEntity
  8
chars
 62
7
100
AcDbPolyline
 90
5
 70
0
 10
350.311910
 20
151.632150
 30
0.0
 10
350.311910
 20
147.049480
 30
0.0
 10
352.617720
 20
147.049480
 30
0.0
 10
352.617720
 20
149.783680
 30
0.0
 10
354.406760
 20
149.783680
 30
0.0
  0
SPLINE
  5
320
100
AcDbEntity
  8
chars
 62
7
100
AcDbSpline
 70
8
 71
3
 72
8
 73
4
 74
0
 40
0
 40
0
 40
0
 40
0
 40
1
 40
1
 40
1
 40
1
 10
356.851560
 20
144.058970
 30
0.0
 10
358.402050
 20
144.595660
 30
0.0
 10
359.435900
 20
145.808170
 30
0.0
 10
359.435900
 20
147.776050
 30
0.0
  0
SPLINE
  5
321
100
AcDbEntity
  8
chars
 62
7
100
AcDbSpline
 70
8
 71
3
 72
8
 73
4
 74
0
 40
0
 40
0
 40
0
 40
0
 40
1
 40
1
 40
1
 40
1
 10
359.435900
 20
147.776050
 30
0.0
 10
359.435900
 20
150.678190
 30
0.0
 10
357.348870
 20
151.632150
 30
0.0
 10
354.645520
 20
151.632150
 30
0.0
  0
LWPOLYLINE
  5
322
100
AcDbEntity
  8
chars
 62
7
100
AcDbPolyline
 90
10
 70
0
 10
354.406760
 20
145.549830
 30
0.0
 10
352.617720
 20
145.549830
 30
0.0
 10
350.311910
 20
145.549830
 30
0.0
 10
350.311910
 20
138.632430
 30
0.0
 10
352.617720
 20
138.632430
 30
0.0
 10
352.617720
 20
143.721010
 30
0.0
 10
354.565930
 20
143.721010
 30
0.0
 10
357.348710
 20
138.632430
 30
0.0
 10
359.952690
 20
138.632430
 30
0.0
 10
356.851560
 20
144.058970
 30
0.0
  0
LWPOLYLINE
  5
323
100
AcDbEntity
  8
chars
 62
7
100
AcDbPolyline
 90
2
 70
0
 10
354.645520
 20
151.632150
 30
0.0
 10
350.311910
 20
151.632150
 30
0.0
  0
SPLINE
  5
324
100
AcDbEntity
  8
chars
 62
7
100
AcDbSpline
 70
8
 71
3
 72
8
 73
4
 74
0
 40
0
 40
0
 40
0
 40
0
 40
1
 40
1
 40
1
 40
1
 10
110.900050
 20
115.549800
 30
0.0
 10
111.297610
 20
116.921360
 30
0.0
 10
111.695150
 20
118.392010
 30
0.0
 10
112.052950
 20
119.843080
 30
0.0
  0
LWPOLYLINE
  5
325
100
AcDbEntity
  8
chars
 62
7
100
AcDbPolyline
 90
4
 70
0
 10
110.780720
 20
121.632150
 30
0.0
 10
108.779800
 20
115.459400
 30
0.0
 10
110.874250
 20
115.459400
 30
0.0
 10
110.900050
 20
115.549800
 30
0.0
  0
SPLINE
  5
326
100
AcDbEntity
  8
chars
 62
7
100
AcDbSpline
 70
8
 71
3
 72
8
 73
4
 74
0
 40
0
 40
0
 40
0
 40
0
 40
1
 40
1
 40
1
 40
1
 10
112.132550
 20
119.843080
 30
0.0
 10
112.490350
 20
118.392010
 30
0.0
 10
112.907780
 20
116.921360
 30
0.0
 10
113.285450
 20
115.549800
 30
0.0
  0
LWPOLYLINE
  5
327
100
AcDbEntity
  8
chars
 62
7
100
AcDbPolyline
 90
2
 70
0
 10
112.052950
 20
119.843080
 30
0.0
 10
112.132550
 20
119.843080
 30
0.0
  0
LWPOLYLINE
  5
328
100
AcDbEntity
  8
chars
 62
7
100
AcDbPolyline
 90
13
 70
0
 10
113.285450
 20
115.549800
 30
0.0
 10
113.742790
 20
113.959720
 30
0.0
 10
111.864870
 20
113.959720
 30
0.0
 10
110.442730
 20
113.959720
 30
0.0
 10
108.293510
 20
113.959720
 30
0.0
 10
106.566480
 20
108.632430
 30
0.0
 10
108.912080
 20
108.632430
 30
0.0
 10
109.925970
 20
112.150560
 30
0.0
 10
114.259550
 20
112.150560
 30
0.0
 10
115.253290
 20
108.632430
 30
0.0
 10
117.698100
 20
108.632430
 30
0.0
 10
113.484410
 20
121.632150
 30
0.0
 10
110.780720
 20
121.632150
 30
0.0
  0
SPLINE
  5
329
100
AcDbEntity
  8
chars
 62
7
100
AcDbSpline
 70
8
 71
3
 72
8
 73
4
 74
0
 40
0
 40
0
 40
0
 40
0
 40
1
 40
1
 40
1
 40
1
 10
354.406760
 20
89.783680
 30
0.0
 10
356.195740
 20
89.783680
 30
0.0
 10
357.169910
 20
89.266880
 30
0.0
 10
357.169910
 20
87.776050
 30
0.0
  0
SPLINE
  5
32a
100
AcDbEntity
  8
chars
 62
7
100
AcDbSpline
 70
8
 71
3
 72
8
 73
4
 74
0
 40
0
 40
0
 40
0
 40
0
 40
1
 40
1
 40
1
 40
1
 10
357.169910
 20
87.776050
 30
0.0
 10
357.169910
 20
86.305100
 30
0.0
 10
356.195740
 20
85.549830
 30
0.0
 10
354.406760
 20
85.549830
 30
0.0
  0
LWPOLYLINE
  5
32b
100
AcDbEntity
  8
chars
 62
7
100
AcDbPolyline
 90
5
 70
0
 10
350.311910
 20
91.632150
 30
0.0
 10
350.311910
 20
87.049480
 30
0.0
 10
352.617720
 20
87.049480
 30
0.0
 10
352.617720
 20
89.783680
 30
0.0
 10
354.406760
 20
89.783680
 30
0.0
  0
SPLINE
  5
32c
100
AcDbEntity
  8
chars
 62
7
100
AcDbSpline
 70
8
 71
3
 72
8
 73
4
 74
0
 40
0
 40
0
 40
0
 40
0
 40
1
 40
1
 40
1
 40
1
 10
356.851560
 20
84.058970
 30
0.0
 10
358.402050
 20
84.595660
 30
0.0
 10
359.435900
 20
85.808170
 30
0.0
 10
359.435900
 20
87.776050
 30
0.0
  0
SPLINE
  5
32d
100
AcDbEntity
  8
chars
 62
7
100
AcDbSpline
 70
8
 71
3
 72
8
 73
4
 74
0
 40
0
 40
0
 40
0
 40
0
 40
1
 40
1
 40
1
 40
1
 10
359.435900
 20
87.776050
 30
0.0
 10
359.435900
 20
90.678190
 30
0.0
 10
357.348870
 20
91.632150
 30
0.0
 10
354.645520
 20
91.632150
 30
0.0
  0
LWPOLYLINE
  5
32e
100
AcDbEntity
  8
chars
 62
7
100
AcDbPolyline
 90
10
 70
0
 10
354.406760
 20
85.549830
 30
0.0
 10
352.617720
 20
85.549830
 30
0.0
 10
350.311910
 20
85.549830
 30
0.0
 10
350.311910
 20
78.632430
 30
0.0
 10
352.617720
 20
78.632430
 30
0.0
 10
352.617720
 20
83.721010
 30
0.0
 10
354.565930
 20
83.721010
 30
0.0
 10
357.348710
 20
78.632430
 30
0.0
 10
359.952690
 20
78.632430
 30
0.0
 10
356.851560
 20
84.058970
 30
0.0
  0
SPLINE
  5
32f
100
AcDbEntity
  8
chars
 62
7
100
AcDbSpline
 70
8
 71
3
 72
8
 73
4
 74
0
 40
0
 40
0
 40
0
 40
0
 40
1
 40
1
 40
1
 40
1
 10
274.132050
 20
271.632193
 30
0.0
 10
271.217590
 20
271.632193
 30
0.0
 10
269.204690
 20
269.312110
 30
0.0
 10
269.204690
 20
265.189693
 30
0.0
  0
SPLINE
  5
330
100
AcDbEntity
  8
chars
 62
7
100
AcDbSpline
 70
8
 71
3
 72
8
 73
4
 74
0
 40
0
 40
0
 40
0
 40
0
 40
1
 40
1
 40
1
 40
1
 10
269.204690
 20
265.189693
 30
0.0
 10
269.204690
 20
263.881847
 30
0.0
 10
269.400110
 20
262.752891
 30
0.0
 10
269.757110
 20
261.817806
 30
0.0
  0
LWPOLYLINE
  5
331
100
AcDbEntity
  8
chars
 62
7
100
AcDbPolyline
 90
2
 70
0
 10
354.645520
 20
91.632150
 30
0.0
 10
350.311910
 20
91.632150
 30
0.0
  0
SPLINE
  5
332
100
AcDbEntity
  8
chars
 62
7
100
AcDbSpline
 70
8
 71
3
 72
8
 73
4
 74
0
 40
0
 40
0
 40
0
 40
0
 40
1
 40
1
 40
1
 40
1
 10
271.594220
 20
263.654903
 30
0.0
 10
271.523220
 20
264.118937
 30
0.0
 10
271.486220
 20
264.631117
 30
0.0
 10
271.486220
 20
265.189693
 30
0.0
  0
SPLINE
  5
333
100
AcDbEntity
  8
chars
 62
7
100
AcDbSpline
 70
8
 71
3
 72
8
 73
4
 74
0
 40
0
 40
0
 40
0
 40
0
 40
1
 40
1
 40
1
 40
1
 10
271.486220
 20
265.189693
 30
0.0
 10
271.486220
 20
268.065798
 30
0.0
 10
272.521430
 20
269.695877
 30
0.0
 10
274.132050
 20
269.695877
 30
0.0
  0
SPLINE
  5
334
100
AcDbEntity
  8
chars
 62
7
100
AcDbSpline
 70
8
 71
3
 72
8
 73
4
 74
0
 40
0
 40
0
 40
0
 40
0
 40
1
 40
1
 40
1
 40
1
 10
274.132050
 20
269.695877
 30
0.0
 10
275.023800
 20
269.695877
 30
0.0
 10
275.738120
 20
269.193936
 30
0.0
 10
276.199110
 20
268.259788
 30
0.0
  0
LWPOLYLINE
  5
335
100
AcDbEntity
  8
chars
 62
7
100
AcDbPolyline
 90
2
 70
0
 10
269.757110
 20
261.817806
 30
0.0
 10
271.594220
 20
263.654903
 30
0.0
  0
SPLINE
  5
336
100
AcDbEntity
  8
chars
 62
7
100
AcDbSpline
 70
8
 71
3
 72
8
 73
4
 74
0
 40
0
 40
0
 40
0
 40
0
 40
1
 40
1
 40
1
 40
1
 10
277.777820
 20
269.838504
 30
0.0
 10
276.906390
 20
271.009412
 30
0.0
 10
275.640280
 20
271.632193
 30
0.0
 10
274.132050
 20
271.632193
 30
0.0
  0
LWPOLYLINE
  5
337
100
AcDbEntity
  8
chars
 62
7
100
AcDbPolyline
 90
2
 70
0
 10
276.199110
 20
268.259788
 30
0.0
 10
277.777820
 20
269.838504
 30
0.0
  0
LWPOLYLINE
  5
338
100
AcDbEntity
  8
chars
 62
7
100
AcDbPolyline
 90
1
 70
1
 10
274.132050
 20
271.632193
 30
0.0
  0
SPLINE
  5
339
100
AcDbEntity
  8
chars
 62
7
100
AcDbSpline
 70
8
 71
3
 72
8
 73
4
 74
0
 40
0
 40
0
 40
0
 40
0
 40
1
 40
1
 40
1
 40
1
 10
276.679170
 20
266.618546
 30
0.0
 10
276.743670
 20
266.183616
 30
0.0
 10
276.778370
 20
265.707731
 30
0.0
 10
276.778370
 20
265.189693
 30
0.0
  0
SPLINE
  5
33a
100
AcDbEntity
  8
chars
 62
7
100
AcDbSpline
 70
8
 71
3
 72
8
 73
4
 74
0
 40
0
 40
0
 40
0
 40
0
 40
1
 40
1
 40
1
 40
1
 10
276.778370
 20
265.189693
 30
0.0
 10
276.778370
 20
262.236890
 30
0.0
 10
275.742660
 20
260.568784
 30
0.0
 10
274.132030
 20
260.568784
 30
0.0
  0
SPLINE
  5
33b
100
AcDbEntity
  8
chars
 62
7
100
AcDbSpline
 70
8
 71
3
 72
8
 73
4
 74
0
 40
0
 40
0
 40
0
 40
0
 40
1
 40
1
 40
1
 40
1
 10
274.132030
 20
260.568784
 30
0.0
 10
273.247740
 20
260.568784
 30
0.0
 10
272.538710
 20
261.074522
 30
0.0
 10
272.077360
 20
262.016759
 30
0.0
  0
LWPOLYLINE
  5
33c
100
AcDbEntity
  8
chars
 62
7
100
AcDbPolyline
 90
2
 70
0
 10
278.520930
 20
268.460294
 30
0.0
 10
276.679170
 20
266.618546
 30
0.0
  0
SPLINE
  5
33d
100
AcDbEntity
  8
chars
 62
7
100
AcDbSpline
 70
8
 71
3
 72
8
 73
4
 74
0
 40
0
 40
0
 40
0
 40
0
 40
1
 40
1
 40
1
 40
1
 10
270.499700
 20
260.439078
 30
0.0
 10
271.370680
 20
259.258978
 30
0.0
 10
272.631210
 20
258.632468
 30
0.0
 10
274.132030
 20
258.632468
 30
0.0
  0
SPLINE
  5
33e
100
AcDbEntity
  8
chars
 62
7
100
AcDbSpline
 70
8
 71
3
 72
8
 73
4
 74
0
 40
0
 40
0
 40
0
 40
0
 40
1
 40
1
 40
1
 40
1
 10
274.132030
 20
258.632468
 30
0.0
 10
277.046470
 20
258.632468
 30
0.0
 10
279.059900
 20
260.990578
 30
0.0
 10
279.059900
 20
265.189693
 30
0.0
  0
SPLINE
  5
33f
100
AcDbEntity
  8
chars
 62
7
100
AcDbSpline
 70
8
 71
3
 72
8
 73
4
 74
0
 40
0
 40
0
 40
0
 40
0
 40
1
 40
1
 40
1
 40
1
 10
279.059900
 20
265.189693
 30
0.0
 10
279.059900
 20
266.455478
 30
0.0
 10
278.868340
 20
267.549345
 30
0.0
 10
278.520910
 20
268.460294
 30
0.0
  0
LWPOLYLINE
  5
340
100
AcDbEntity
  8
chars
 62
7
100
AcDbPolyline
 90
2
 70
0
 10
272.077360
 20
262.016759
 30
0.0
 10
270.499700
 20
260.439078
 30
0.0
  0
SPLINE
  5
341
100
AcDbEntity
  8
chars
 62
7
100
AcDbSpline
 70
8
 71
3
 72
8
 73
4
 74
0
 40
0
 40
0
 40
0
 40
0
 40
1
 40
1
 40
1
 40
1
 10
274.132050
 20
241.632185
 30
0.0
 10
271.217590
 20
241.632185
 30
0.0
 10
269.204690
 20
239.312105
 30
0.0
 10
269.204690
 20
235.189685
 30
0.0
  0
SPLINE
  5
342
100
AcDbEntity
  8
chars
 62
7
100
AcDbSpline
 70
8
 71
3
 72
8
 73
4
 74
0
 40
0
 40
0
 40
0
 40
0
 40
1
 40
1
 40
1
 40
1
 10
269.204690
 20
235.189685
 30
0.0
 10
269.204690
 20
233.881835
 30
0.0
 10
269.400110
 20
232.752885
 30
0.0
 10
269.757110
 20
231.817795
 30
0.0
  0
LWPOLYLINE
  5
343
100
AcDbEntity
  8
chars
 62
7
100
AcDbPolyline
 90
1
 70
1
 10
278.520910
 20
268.460294
 30
0.0
  0
SPLINE
  5
344
100
AcDbEntity
  8
chars
 62
7
100
AcDbSpline
 70
8
 71
3
 72
8
 73
4
 74
0
 40
0
 40
0
 40
0
 40
0
 40
1
 40
1
 40
1
 40
1
 10
271.594220
 20
233.654895
 30
0.0
 10
271.523220
 20
234.118925
 30
0.0
 10
271.486220
 20
234.631105
 30
0.0
 10
271.486220
 20
235.189685
 30
0.0
  0
SPLINE
  5
345
100
AcDbEntity
  8
chars
 62
7
100
AcDbSpline
 70
8
 71
3
 72
8
 73
4
 74
0
 40
0
 40
0
 40
0
 40
0
 40
1
 40
1
 40
1
 40
1
 10
271.486220
 20
235.189685
 30
0.0
 10
271.486220
 20
238.065795
 30
0.0
 10
272.521430
 20
239.695865
 30
0.0
 10
274.132050
 20
239.695865
 30
0.0
  0
SPLINE
  5
346
100
AcDbEntity
  8
chars
 62
7
100
AcDbSpline
 70
8
 71
3
 72
8
 73
4
 74
0
 40
0
 40
0
 40
0
 40
0
 40
1
 40
1
 40
1
 40
1
 10
274.132050
 20
239.695865
 30
0.0
 10
275.023800
 20
239.695865
 30
0.0
 10
275.738120
 20
239.193925
 30
0.0
 10
276.199110
 20
238.259775
 30
0.0
  0
LWPOLYLINE
  5
347
100
AcDbEntity
  8
chars
 62
7
100
AcDbPolyline
 90
2
 70
0
 10
269.757110
 20
231.817795
 30
0.0
 10
271.594220
 20
233.654895
 30
0.0
  0
SPLINE
  5
348
100
AcDbEntity
  8
chars
 62
7
100
AcDbSpline
 70
8
 71
3
 72
8
 73
4
 74
0
 40
0
 40
0
 40
0
 40
0
 40
1
 40
1
 40
1
 40
1
 10
277.777820
 20
239.838495
 30
0.0
 10
276.906390
 20
241.009405
 30
0.0
 10
275.640280
 20
241.632185
 30
0.0
 10
274.132050
 20
241.632185
 30
0.0
  0
LWPOLYLINE
  5
349
100
AcDbEntity
  8
chars
 62
7
100
AcDbPolyline
 90
2
 70
0
 10
276.199110
 20
238.259775
 30
0.0
 10
277.777820
 20
239.838495
 30
0.0
  0
LWPOLYLINE
  5
34a
100
AcDbEntity
  8
chars
 62
7
100
AcDbPolyline
 90
1
 70
1
 10
274.132050
 20
241.632185
 30
0.0
  0
SPLINE
  5
34b
100
AcDbEntity
  8
chars
 62
7
100
AcDbSpline
 70
8
 71
3
 72
8
 73
4
 74
0
 40
0
 40
0
 40
0
 40
0
 40
1
 40
1
 40
1
 40
1
 10
276.679170
 20
236.618535
 30
0.0
 10
276.743670
 20
236.183605
 30
0.0
 10
276.778370
 20
235.707725
 30
0.0
 10
276.778370
 20
235.189685
 30
0.0
  0
SPLINE
  5
34c
100
AcDbEntity
  8
chars
 62
7
100
AcDbSpline
 70
8
 71
3
 72
8
 73
4
 74
0
 40
0
 40
0
 40
0
 40
0
 40
1
 40
1
 40
1
 40
1
 10
276.778370
 20
235.189685
 30
0.0
 10
276.778370
 20
232.236885
 30
0.0
 10
275.742660
 20
230.568775
 30
0.0
 10
274.132030
 20
230.568775
 30
0.0
  0
SPLINE
  5
34d
100
AcDbEntity
  8
chars
 62
7
100
AcDbSpline
 70
8
 71
3
 72
8
 73
4
 74
0
 40
0
 40
0
 40
0
 40
0
 40
1
 40
1
 40
1
 40
1
 10
274.132030
 20
230.568775
 30
0.0
 10
273.247740
 20
230.568775
 30
0.0
 10
272.538710
 20
231.074515
 30
0.0
 10
272.077360
 20
232.016755
 30
0.0
  0
LWPOLYLINE
  5
34e
100
AcDbEntity
  8
chars
 62
7
100
AcDbPolyline
 90
2
 70
0
 10
278.520930
 20
238.460285
 30
0.0
 10
276.679170
 20
236.618535
 30
0.0
  0
SPLINE
  5
34f
100
AcDbEntity
  8
chars
 62
7
100
AcDbSpline
 70
8
 71
3
 72
8
 73
4
 74
0
 40
0
 40
0
 40
0
 40
0
 40
1
 40
1
 40
1
 40
1
 10
270.499700
 20
230.439065
 30
0.0
 10
271.370680
 20
229.258965
 30
0.0
 10
272.631210
 20
228.632455
 30
0.0
 10
274.132030
 20
228.632455
 30
0.0
  0
SPLINE
  5
350
100
AcDbEntity
  8
chars
 62
7
100
AcDbSpline
 70
8
 71
3
 72
8
 73
4
 74
0
 40
0
 40
0
 40
0
 40
0
 40
1
 40
1
 40
1
 40
1
 10
274.132030
 20
228.632455
 30
0.0
 10
277.046470
 20
228.632455
 30
0.0
 10
279.059900
 20
230.990565
 30
0.0
 10
279.059900
 20
235.189685
 30
0.0
  0
SPLINE
  5
351
100
AcDbEntity
  8
chars
 62
7
100
AcDbSpline
 70
8
 71
3
 72
8
 73
4
 74
0
 40
0
 40
0
 40
0
 40
0
 40
1
 40
1
 40
1
 40
1
 10
279.059900
 20
235.189685
 30
0.0
 10
279.059900
 20
236.455475
 30
0.0
 10
278.868340
 20
237.549335
 30
0.0
 10
278.520910
 20
238.460285
 30
0.0
  0
LWPOLYLINE
  5
352
100
AcDbEntity
  8
chars
 62
7
100
AcDbPolyline
 90
2
 70
0
 10
272.077360
 20
232.016755
 30
0.0
 10
270.499700
 20
230.439065
 30
0.0
  0
LWPOLYLINE
  5
353
100
AcDbEntity
  8
chars
 62
7
100
AcDbPolyline
 90
1
 70
1
 10
278.520910
 20
238.460285
 30
0.0
  0
SPLINE
  5
354
100
AcDbEntity
  8
chars
 62
7
100
AcDbSpline
 70
8
 71
3
 72
8
 73
4
 74
0
 40
0
 40
0
 40
0
 40
0
 40
1
 40
1
 40
1
 40
1
 10
355.151480
 20
228.632320
 30
0.0
 10
358.065930
 20
228.632320
 30
0.0
 10
359.791590
 20
230.319635
 30
0.0
 10
359.791590
 20
232.352084
 30
0.0
  0
SPLINE
  5
355
100
AcDbEntity
  8
chars
 62
7
100
AcDbSpline
 70
8
 71
3
 72
8
 73
4
 74
0
 40
0
 40
0
 40
0
 40
0
 40
1
 40
1
 40
1
 40
1
 10
359.791590
 20
232.352084
 30
0.0
 10
359.791590
 20
234.173618
 30
0.0
 10
358.660330
 20
235.113146
 30
0.0
 10
357.068880
 20
235.745889
 30
0.0
  0
LWPOLYLINE
  5
356
100
AcDbEntity
  8
chars
 62
7
100
AcDbPolyline
 90
8
 70
1
 10
191.979390
 20
228.632320
 30
0.0
 10
194.285200
 20
228.632320
 30
0.0
 10
194.285200
 20
239.684308
 30
0.0
 10
198.380010
 20
239.684308
 30
0.0
 10
198.380010
 20
241.632320
 30
0.0
 10
187.884590
 20
241.632320
 30
0.0
 10
187.884590
 20
239.684308
 30
0.0
 10
191.979390
 20
239.684308
 30
0.0
  0
SPLINE
  5
357
100
AcDbEntity
  8
chars
 62
7
100
AcDbSpline
 70
8
 71
3
 72
8
 73
4
 74
0
 40
0
 40
0
 40
0
 40
0
 40
1
 40
1
 40
1
 40
1
 10
355.419910
 20
236.455329
 30
0.0
 10
354.288640
 20
236.896332
 30
0.0
 10
353.272420
 20
237.260638
 30
0.0
 10
353.272420
 20
238.219341
 30
0.0
  0
SPLINE
  5
358
100
AcDbEntity
  8
chars
 62
7
100
AcDbSpline
 70
8
 71
3
 72
8
 73
4
 74
0
 40
0
 40
0
 40
0
 40
0
 40
1
 40
1
 40
1
 40
1
 10
353.272420
 20
238.219341
 30
0.0
 10
353.272420
 20
239.158869
 30
0.0
 10
354.077730
 20
239.695742
 30
0.0
 10
355.266520
 20
239.695742
 30
0.0
  0
SPLINE
  5
359
100
AcDbEntity
  8
chars
 62
7
100
AcDbSpline
 70
8
 71
3
 72
8
 73
4
 74
0
 40
0
 40
0
 40
0
 40
0
 40
1
 40
1
 40
1
 40
1
 10
355.266520
 20
239.695742
 30
0.0
 10
356.532010
 20
239.695742
 30
0.0
 10
357.414010
 20
239.293087
 30
0.0
 10
358.257670
 20
238.621995
 30
0.0
  0
LWPOLYLINE
  5
35a
100
AcDbEntity
  8
chars
 62
7
100
AcDbPolyline
 90
2
 70
0
 10
357.068880
 20
235.745889
 30
0.0
 10
355.419910
 20
236.455329
 30
0.0
  0
SPLINE
  5
35b
100
AcDbEntity
  8
chars
 62
7
100
AcDbSpline
 70
8
 71
3
 72
8
 73
4
 74
0
 40
0
 40
0
 40
0
 40
0
 40
1
 40
1
 40
1
 40
1
 10
359.408110
 20
240.040875
 30
0.0
 10
358.372720
 20
241.018751
 30
0.0
 10
356.915490
 20
241.632320
 30
0.0
 10
355.381570
 20
241.632320
 30
0.0
  0
SPLINE
  5
35c
100
AcDbEntity
  8
chars
 62
7
100
AcDbSpline
 70
8
 71
3
 72
8
 73
4
 74
0
 40
0
 40
0
 40
0
 40
0
 40
1
 40
1
 40
1
 40
1
 10
355.381570
 20
241.632320
 30
0.0
 10
352.831420
 20
241.632320
 30
0.0
 10
351.029060
 20
240.098397
 30
0.0
 10
351.029060
 20
238.104296
 30
0.0
  0
SPLINE
  5
35d
100
AcDbEntity
  8
chars
 62
7
100
AcDbSpline
 70
8
 71
3
 72
8
 73
4
 74
0
 40
0
 40
0
 40
0
 40
0
 40
1
 40
1
 40
1
 40
1
 10
351.029060
 20
238.104296
 30
0.0
 10
351.029060
 20
236.263588
 30
0.0
 10
352.390410
 20
235.285712
 30
0.0
 10
353.713420
 20
234.768013
 30
0.0
  0
LWPOLYLINE
  5
35e
100
AcDbEntity
  8
chars
 62
7
100
AcDbPolyline
 90
2
 70
0
 10
358.257670
 20
238.621995
 30
0.0
 10
359.408110
 20
240.040875
 30
0.0
  0
SPLINE
  5
35f
100
AcDbEntity
  8
chars
 62
7
100
AcDbSpline
 70
8
 71
3
 72
8
 73
4
 74
0
 40
0
 40
0
 40
0
 40
0
 40
1
 40
1
 40
1
 40
1
 10
355.419910
 20
234.020225
 30
0.0
 10
356.666230
 20
233.502526
 30
0.0
 10
357.529060
 20
233.195742
 30
0.0
 10
357.529060
 20
232.083647
 30
0.0
  0
SPLINE
  5
360
100
AcDbEntity
  8
chars
 62
7
100
AcDbSpline
 70
8
 71
3
 72
8
 73
4
 74
0
 40
0
 40
0
 40
0
 40
0
 40
1
 40
1
 40
1
 40
1
 10
357.529060
 20
232.083647
 30
0.0
 10
357.529060
 20
231.201641
 30
0.0
 10
356.742920
 20
230.568898
 30
0.0
 10
355.285700
 20
230.568898
 30
0.0
  0
SPLINE
  5
361
100
AcDbEntity
  8
chars
 62
7
100
AcDbSpline
 70
8
 71
3
 72
8
 73
4
 74
0
 40
0
 40
0
 40
0
 40
0
 40
1
 40
1
 40
1
 40
1
 10
355.285700
 20
230.568898
 30
0.0
 10
353.962690
 20
230.568898
 30
0.0
 10
352.716370
 20
231.144119
 30
0.0
 10
351.776850
 20
231.987777
 30
0.0
  0
LWPOLYLINE
  5
362
100
AcDbEntity
  8
chars
 62
7
100
AcDbPolyline
 90
2
 70
0
 10
353.713420
 20
234.768013
 30
0.0
 10
355.419910
 20
234.020225
 30
0.0
  0
SPLINE
  5
363
100
AcDbEntity
  8
chars
 62
7
100
AcDbSpline
 70
8
 71
3
 72
8
 73
4
 74
0
 40
0
 40
0
 40
0
 40
0
 40
1
 40
1
 40
1
 40
1
 10
350.473010
 20
230.473028
 30
0.0
 10
351.719320
 20
229.303411
 30
0.0
 10
353.387460
 20
228.632320
 30
0.0
 10
355.151480
 20
228.632320
 30
0.0
  0
LWPOLYLINE
  5
364
100
AcDbEntity
  8
chars
 62
7
100
AcDbPolyline
 90
2
 70
0
 10
351.776850
 20
231.987777
 30
0.0
 10
350.473010
 20
230.473028
 30
0.0
  0
LWPOLYLINE
  5
365
100
AcDbEntity
  8
chars
 62
7
100
AcDbPolyline
 90
1
 70
1
 10
355.151480
 20
228.632320
 30
0.0
  0
LWPOLYLINE
  5
366
100
AcDbEntity
  8
chars
 62
7
100
AcDbPolyline
 90
12
 70
1
 10
323.838720
 20
108.632288
 30
0.0
 10
332.425870
 20
108.632288
 30
0.0
 10
332.425870
 20
110.580300
 30
0.0
 10
329.285200
 20
110.580300
 30
0.0
 10
329.285200
 20
119.684276
 30
0.0
 10
332.425870
 20
119.684276
 30
0.0
 10
332.425870
 20
121.632288
 30
0.0
 10
323.838720
 20
121.632288
 30
0.0
 10
323.838720
 20
119.684276
 30
0.0
 10
326.979390
 20
119.684276
 30
0.0
 10
326.979390
 20
110.580300
 30
0.0
 10
323.838720
 20
110.580300
 30
0.0
  0
SPLINE
  5
367
100
AcDbEntity
  8
dots_outline
 62
7
100
AcDbSpline
 70
8
 71
3
 72
8
 73
4
 74
0
 40
0
 40
0
 40
0
 40
0
 40
1
 40
1
 40
1
 40
1
 10
43.500000
 20
42.000000
 30
0.0
 10
43.500000
 20
41.602175
 30
0.0
 10
43.341965
 20
41.220644
 30
0.0
 10
43.060660
 20
40.939340
 30
0.0
  0
SPLINE
  5
368
100
AcDbEntity
  8
dots_outline
 62
7
100
AcDbSpline
 70
8
 71
3
 72
8
 73
4
 74
0
 40
0
 40
0
 40
0
 40
0
 40
1
 40
1
 40
1
 40
1
 10
43.060660
 20
40.939340
 30
0.0
 10
42.779356
 20
40.658035
 30
0.0
 10
42.397825
 20
40.500000
 30
0.0
 10
42.000000
 20
40.500000
 30
0.0
  0
SPLINE
  5
369
100
AcDbEntity
  8
dots_outline
 62
7
100
AcDbSpline
 70
8
 71
3
 72
8
 73
4
 74
0
 40
0
 40
0
 40
0
 40
0
 40
1
 40
1
 40
1
 40
1
 10
42.000000
 20
40.500000
 30
0.0
 10
41.602175
 20
40.500000
 30
0.0
 10
41.220644
 20
40.658035
 30
0.0
 10
40.939340
 20
40.939340
 30
0.0
  0
SPLINE
  5
36a
100
AcDbEntity
  8
dots_outline
 62
7
100
AcDbSpline
 70
8
 71
3
 72
8
 73
4
 74
0
 40
0
 40
0
 40
0
 40
0
 40
1
 40
1
 40
1
 40
1
 10
40.939340
 20
40.939340
 30
0.0
 10
40.658035
 20
41.220644
 30
0.0
 10
40.500000
 20
41.602175
 30
0.0
 10
40.500000
 20
42.000000
 30
0.0
  0
SPLINE
  5
36b
100
AcDbEntity
  8
dots_outline
 62
7
100
AcDbSpline
 70
8
 71
3
 72
8
 73
4
 74
0
 40
0
 40
0
 40
0
 40
0
 40
1
 40
1
 40
1
 40
1
 10
40.500000
 20
42.000000
 30
0.0
 10
40.500000
 20
42.397825
 30
0.0
 10
40.658035
 20
42.779356
 30
0.0
 10
40.939340
 20
43.060660
 30
0.0
  0
SPLINE
  5
36c
100
AcDbEntity
  8
dots_outline
 62
7
100
AcDbSpline
 70
8
 71
3
 72
8
 73
4
 74
0
 40
0
 40
0
 40
0
 40
0
 40
1
 40
1
 40
1
 40
1
 10
40.939340
 20
43.060660
 30
0.0
 10
41.220644
 20
43.341965
 30
0.0
 10
41.602175
 20
43.500000
 30
0.0
 10
42.000000
 20
43.500000
 30
0.0
  0
SPLINE
  5
36d
100
AcDbEntity
  8
dots_outline
 62
7
100
AcDbSpline
 70
8
 71
3
 72
8
 73
4
 74
0
 40
0
 40
0
 40
0
 40
0
 40
1
 40
1
 40
1
 40
1
 10
42.000000
 20
43.500000
 30
0.0
 10
42.397825
 20
43.500000
 30
0.0
 10
42.779356
 20
43.341965
 30
0.0
 10
43.060660
 20
43.060660
 30
0.0
  0
SPLINE
  5
36e
100
AcDbEntity
  8
dots_outline
 62
7
100
AcDbSpline
 70
8
 71
3
 72
8
 73
4
 74
0
 40
0
 40
0
 40
0
 40
0
 40
1
 40
1
 40
1
 40
1
 10
43.060660
 20
43.060660
 30
0.0
 10
43.341965
 20
42.779356
 30
0.0
 10
43.500000
 20
42.397825
 30
0.0
 10
43.500000
 20
42.000000
 30
0.0
  0
LWPOLYLINE
  5
36f
100
AcDbEntity
  8
border
 62
7
100
AcDbPolyline
 90
4
 70
1
 10
10.000000
 20
430.000000
 30
0.0
 10
430.000000
 20
430.000000
 30
0.0
 10
430.000000
 20
10.000000
 30
0.0
 10
10.000000
 20
10.000000
 30
0.0
  0
SPLINE
  5
370
100
AcDbEntity
  8
dots_outline
 62
7
100
AcDbSpline
 70
8
 71
3
 72
8
 73
4
 74
0
 40
0
 40
0
 40
0
 40
0
 40
1
 40
1
 40
1
 40
1
 10
399.500000
 20
42.000000
 30
0.0
 10
399.500000
 20
41.602175
 30
0.0
 10
399.341965
 20
41.220644
 30
0.0
 10
399.060660
 20
40.939340
 30
0.0
  0
SPLINE
  5
371
100
AcDbEntity
  8
dots_outline
 62
7
100
AcDbSpline
 70
8
 71
3
 72
8
 73
4
 74
0
 40
0
 40
0
 40
0
 40
0
 40
1
 40
1
 40
1
 40
1
 10
399.060660
 20
40.939340
 30
0.0
 10
398.779356
 20
40.658035
 30
0.0
 10
398.397825
 20
40.500000
 30
0.0
 10
398.000000
 20
40.500000
 30
0.0
  0
SPLINE
  5
372
100
AcDbEntity
  8
dots_outline
 62
7
100
AcDbSpline
 70
8
 71
3
 72
8
 73
4
 74
0
 40
0
 40
0
 40
0
 40
0
 40
1
 40
1
 40
1
 40
1
 10
398.000000
 20
40.500000
 30
0.0
 10
397.602175
 20
40.500000
 30
0.0
 10
397.220644
 20
40.658035
 30
0.0
 10
396.939340
 20
40.939340
 30
0.0
  0
SPLINE
  5
373
100
AcDbEntity
  8
dots_outline
 62
7
100
AcDbSpline
 70
8
 71
3
 72
8
 73
4
 74
0
 40
0
 40
0
 40
0
 40
0
 40
1
 40
1
 40
1
 40
1
 10
396.939340
 20
40.939340
 30
0.0
 10
396.658035
 20
41.220644
 30
0.0
 10
396.500000
 20
41.602175
 30
0.0
 10
396.500000
 20
42.000000
 30
0.0
  0
SPLINE
  5
374
100
AcDbEntity
  8
dots_outline
 62
7
100
AcDbSpline
 70
8
 71
3
 72
8
 73
4
 74
0
 40
0
 40
0
 40
0
 40
0
 40
1
 40
1
 40
1
 40
1
 10
396.500000
 20
42.000000
 30
0.0
 10
396.500000
 20
42.397825
 30
0.0
 10
396.658035
 20
42.779356
 30
0.0
 10
396.939340
 20
43.060660
 30
0.0
  0
SPLINE
  5
375
100
AcDbEntity
  8
dots_outline
 62
7
100
AcDbSpline
 70
8
 71
3
 72
8
 73
4
 74
0
 40
0
 40
0
 40
0
 40
0
 40
1
 40
1
 40
1
 40
1
 10
396.939340
 20
43.060660
 30
0.0
 10
397.220644
 20
43.341965
 30
0.0
 10
397.602175
 20
43.500000
 30
0.0
 10
398.000000
 20
43.500000
 30
0.0
  0
SPLINE
  5
376
100
AcDbEntity
  8
dots_outline
 62
7
100
AcDbSpline
 70
8
 71
3
 72
8
 73
4
 74
0
 40
0
 40
0
 40
0
 40
0
 40
1
 40
1
 40
1
 40
1
 10
398.000000
 20
43.500000
 30
0.0
 10
398.397825
 20
43.500000
 30
0.0
 10
398.779356
 20
43.341965
 30
0.0
 10
399.060660
 20
43.060660
 30
0.0
  0
SPLINE
  5
377
100
AcDbEntity
  8
dots_outline
 62
7
100
AcDbSpline
 70
8
 71
3
 72
8
 73
4
 74
0
 40
0
 40
0
 40
0
 40
0
 40
1
 40
1
 40
1
 40
1
 10
399.060660
 20
43.060660
 30
0.0
 10
399.341965
 20
42.779356
 30
0.0
 10
399.500000
 20
42.397825
 30
0.0
 10
399.500000
 20
42.000000
 30
0.0
  0
LWPOLYLINE
  5
378
100
AcDbEntity
  8
dots_outline
 62
7
100
AcDbPolyline
 90
1
 70
1
 10
43.500000
 20
42.000000
 30
0.0
  0
SPLINE
  5
379
100
AcDbEntity
  8
dots_outline
 62
7
100
AcDbSpline
 70
8
 71
3
 72
8
 73
4
 74
0
 40
0
 40
0
 40
0
 40
0
 40
1
 40
1
 40
1
 40
1
 10
399.500000
 20
398.000000
 30
0.0
 10
399.500000
 20
397.602175
 30
0.0
 10
399.341965
 20
397.220644
 30
0.0
 10
399.060660
 20
396.939340
 30
0.0
  0
SPLINE
  5
37a
100
AcDbEntity
  8
dots_outline
 62
7
100
AcDbSpline
 70
8
 71
3
 72
8
 73
4
 74
0
 40
0
 40
0
 40
0
 40
0
 40
1
 40
1
 40
1
 40
1
 10
399.060660
 20
396.939340
 30
0.0
 10
398.779356
 20
396.658035
 30
0.0
 10
398.397825
 20
396.500000
 30
0.0
 10
398.000000
 20
396.500000
 30
0.0
  0
SPLINE
  5
37b
100
AcDbEntity
  8
dots_outline
 62
7
100
AcDbSpline
 70
8
 71
3
 72
8
 73
4
 74
0
 40
0
 40
0
 40
0
 40
0
 40
1
 40
1
 40
1
 40
1
 10
398.000000
 20
396.500000
 30
0.0
 10
397.602175
 20
396.500000
 30
0.0
 10
397.220644
 20
396.658035
 30
0.0
 10
396.939340
 20
396.939340
 30
0.0
  0
SPLINE
  5
37c
100
AcDbEntity
  8
dots_outline
 62
7
100
AcDbSpline
 70
8
 71
3
 72
8
 73
4
 74
0
 40
0
 40
0
 40
0
 40
0
 40
1
 40
1
 40
1
 40
1
 10
396.939340
 20
396.939340
 30
0.0
 10
396.658035
 20
397.220644
 30
0.0
 10
396.500000
 20
397.602175
 30
0.0
 10
396.500000
 20
398.000000
 30
0.0
  0
SPLINE
  5
37d
100
AcDbEntity
  8
dots_outline
 62
7
100
AcDbSpline
 70
8
 71
3
 72
8
 73
4
 74
0
 40
0
 40
0
 40
0
 40
0
 40
1
 40
1
 40
1
 40
1
 10
396.500000
 20
398.000000
 30
0.0
 10
396.500000
 20
398.397825
 30
0.0
 10
396.658035
 20
398.779356
 30
0.0
 10
396.939340
 20
399.060660
 30
0.0
  0
SPLINE
  5
37e
100
AcDbEntity
  8
dots_outline
 62
7
100
AcDbSpline
 70
8
 71
3
 72
8
 73
4
 74
0
 40
0
 40
0
 40
0
 40
0
 40
1
 40
1
 40
1
 40
1
 10
396.939340
 20
399.060660
 30
0.0
 10
397.220644
 20
399.341965
 30
0.0
 10
397.602175
 20
399.500000
 30
0.0
 10
398.000000
 20
399.500000
 30
0.0
  0
SPLINE
  5
37f
100
AcDbEntity
  8
dots_outline
 62
7
100
AcDbSpline
 70
8
 71
3
 72
8
 73
4
 74
0
 40
0
 40
0
 40
0
 40
0
 40
1
 40
1
 40
1
 40
1
 10
398.000000
 20
399.500000
 30
0.0
 10
398.397825
 20
399.500000
 30
0.0
 10
398.779356
 20
399.341965
 30
0.0
 10
399.060660
 20
399.060660
 30
0.0
  0
SPLINE
  5
380
100
AcDbEntity
  8
dots_outline
 62
7
100
AcDbSpline
 70
8
 71
3
 72
8
 73
4
 74
0
 40
0
 40
0
 40
0
 40
0
 40
1
 40
1
 40
1
 40
1
 10
399.060660
 20
399.060660
 30
0.0
 10
399.341965
 20
398.779356
 30
0.0
 10
399.500000
 20
398.397825
 30
0.0
 10
399.500000
 20
398.000000
 30
0.0
  0
LWPOLYLINE
  5
381
100
AcDbEntity
  8
dots_outline
 62
7
100
AcDbPolyline
 90
1
 70
1
 10
399.500000
 20
42.000000
 30
0.0
  0
SPLINE
  5
382
100
AcDbEntity
  8
dots_outline
 62
7
100
AcDbSpline
 70
8
 71
3
 72
8
 73
4
 74
0
 40
0
 40
0
 40
0
 40
0
 40
1
 40
1
 40
1
 40
1
 10
43.500000
 20
398.000000
 30
0.0
 10
43.500000
 20
397.602175
 30
0.0
 10
43.341965
 20
397.220644
 30
0.0
 10
43.060660
 20
396.939340
 30
0.0
  0
SPLINE
  5
383
100
AcDbEntity
  8
dots_outline
 62
7
100
AcDbSpline
 70
8
 71
3
 72
8
 73
4
 74
0
 40
0
 40
0
 40
0
 40
0
 40
1
 40
1
 40
1
 40
1
 10
43.060660
 20
396.939340
 30
0.0
 10
42.779356
 20
396.658035
 30
0.0
 10
42.397825
 20
396.500000
 30
0.0
 10
42.000000
 20
396.500000
 30
0.0
  0
SPLINE
  5
384
100
AcDbEntity
  8
dots_outline
 62
7
100
AcDbSpline
 70
8
 71
3
 72
8
 73
4
 74
0
 40
0
 40
0
 40
0
 40
0
 40
1
 40
1
 40
1
 40
1
 10
42.000000
 20
396.500000
 30
0.0
 10
41.602175
 20
396.500000
 30
0.0
 10
41.220644
 20
396.658035
 30
0.0
 10
40.939340
 20
396.939340
 30
0.0
  0
SPLINE
  5
385
100
AcDbEntity
  8
dots_outline
 62
7
100
AcDbSpline
 70
8
 71
3
 72
8
 73
4
 74
0
 40
0
 40
0
 40
0
 40
0
 40
1
 40
1
 40
1
 40
1
 10
40.939340
 20
396.939340
 30
0.0
 10
40.658035
 20
397.220644
 30
0.0
 10
40.500000
 20
397.602175
 30
0.0
 10
40.500000
 20
398.000000
 30
0.0
  0
SPLINE
  5
386
100
AcDbEntity
  8
dots_outline
 62
7
100
AcDbSpline
 70
8
 71
3
 72
8
 73
4
 74
0
 40
0
 40
0
 40
0
 40
0
 40
1
 40
1
 40
1
 40
1
 10
40.500000
 20
398.000000
 30
0.0
 10
40.500000
 20
398.397825
 30
0.0
 10
40.658035
 20
398.779356
 30
0.0
 10
40.939340
 20
399.060660
 30
0.0
  0
SPLINE
  5
387
100
AcDbEntity
  8
dots_outline
 62
7
100
AcDbSpline
 70
8
 71
3
 72
8
 73
4
 74
0
 40
0
 40
0
 40
0
 40
0
 40
1
 40
1
 40
1
 40
1
 10
40.939340
 20
399.060660
 30
0.0
 10
41.220644
 20
399.341965
 30
0.0
 10
41.602175
 20
399.500000
 30
0.0
 10
42.000000
 20
399.500000
 30
0.0
  0
SPLINE
  5
388
100
AcDbEntity
  8
dots_outline
 62
7
100
AcDbSpline
 70
8
 71
3
 72
8
 73
4
 74
0
 40
0
 40
0
 40
0
 40
0
 40
1
 40
1
 40
1
 40
1
 10
42.000000
 20
399.500000
 30
0.0
 10
42.397825
 20
399.500000
 30
0.0
 10
42.779356
 20
399.341965
 30
0.0
 10
43.060660
 20
399.060660
 30
0.0
  0
SPLINE
  5
389
100
AcDbEntity
  8
dots_outline
 62
7
100
AcDbSpline
 70
8
 71
3
 72
8
 73
4
 74
0
 40
0
 40
0
 40
0
 40
0
 40
1
 40
1
 40
1
 40
1
 10
43.060660
 20
399.060660
 30
0.0
 10
43.341965
 20
398.779356
 30
0.0
 10
43.500000
 20
398.397825
 30
0.0
 10
43.500000
 20
398.000000
 30
0.0
  0
LWPOLYLINE
  5
38a
100
AcDbEntity
  8
dots_outline
 62
7
100
AcDbPolyline
 90
1
 70
1
 10
399.500000
 20
398.000000
 30
0.0
  0
LWPOLYLINE
  5
38b
100
AcDbEntity
  8
dots_outline
 62
7
100
AcDbPolyline
 90
1
 70
1
 10
43.500000
 20
398.000000
 30
0.0
  0
ENDSEC
  0
SECTION
  2
OBJECTS
  0
DICTIONARY
  5
C
330
0
100
AcDbDictionary
  3
ACAD_GROUP
350
D
  3
ACAD_MLINESTYLE
350
17
  0
DICTIONARY
  5
D
330
C
100
AcDbDictionary
  0
DICTIONARY
  5
1A
330
C
100
AcDbDictionary
  0
DICTIONARY
  5
17
330
C
100
AcDbDictionary
  3
STANDARD
350
18
  0
DICTIONARY
  5
19
330
C
100
AcDbDictionary
  0
ENDSEC
  0
EOF
