  0
SECTION
  2
HEADER
  9
$ACADVER
  1
AC1014
  9
$HANDSEED
  5
FFFF
  9
$MEASUREMENT
 70
     1
  0
ENDSEC
  0
SECTION
  2
TABLES
  0
TABLE
  2
VPORT
  5
8
330
0
100
AcDbSymbolTable
 70
     4
  0
VPORT
  5
2E
330
8
100
AcDbSymbolTableRecord
100
AcDbViewportTableRecord
  2
*ACTIVE
 70
     0
 10
0.0
 20
0.0
 11
1.0
 21
1.0
 12
210.0
 22
148.5
 13
0.0
 23
0.0
 14
10.0
 24
10.0
 15
10.0
 25
10.0
 16
0.0
 26
0.0
 36
1.0
 17
0.0
 27
0.0
 37
0.0
 40
341.0
 41
1.24
 42
50.0
 43
0.0
 44
0.0
 50
0.0
 51
0.0
 71
     0
 72
   100
 73
     1
 74
     3
 75
     0
 76
     0
 77
     0
 78
     0
  0
ENDTAB
  0
TABLE
  2
LTYPE
  5
5
330
0
100
AcDbSymbolTable
 70
     1
  0
LTYPE
  5
14
330
5
100
AcDbSymbolTableRecord
100
AcDbLinetypeTableRecord
  2
BYBLOCK
 70
     0
  3

 72
    65
 73
     0
 40
0.0
  0
LTYPE
  5
15
330
5
100
AcDbSymbolTableRecord
100
AcDbLinetypeTableRecord
  2
BYLAYER
 70
     0
  3

 72
    65
 73
     0
 40
0.0
  0
LTYPE
  5
16
330
5
100
AcDbSymbolTableRecord
100
AcDbLinetypeTableRecord
  2
CONTINUOUS
 70
     0
  3
Solid line
 72
    65
 73
     0
 40
0.0
  0
ENDTAB
  0
TABLE
  2
LAYER
  5
2
100
AcDbSymbolTable
 70
4
  0
LAYER
  5
50
100
AcDbSymbolTableRecord
100
AcDbLayerTableRecord
  2
0
 70
0
  6
CONTINUOUS
  0
LAYER
  5
51
100
AcDbSymbolTableRecord
100
AcDbLayerTableRecord
  2
chars
 70
0
  6
CONTINUOUS
  0
LAYER
  5
52
100
AcDbSymbolTableRecord
100
AcDbLayerTableRecord
  2
border
 70
0
  6
CONTINUOUS
  0
LAYER
  5
53
100
AcDbSymbolTableRecord
100
AcDbLayerTableRecord
  2
dots_outline
 70
0
  6
CONTINUOUS
  0
ENDTAB
  0
TABLE
  2
STYLE
  5
3
330
0
100
AcDbSymbolTable
 70
     1
  0
STYLE
  5
11
330
3
100
AcDbSymbolTableRecord
100
AcDbTextStyleTableRecord
  2
STANDARD
 70
     0
 40
0.0
 41
1.0
 50
0.0
 71
     0
 42
2.5
  3
txt
  4

  0
ENDTAB
  0
TABLE
  2
VIEW
  5
6
330
0
100
AcDbSymbolTable
 70
     0
  0
ENDTAB
  0
TABLE
  2
UCS
  5
7
330
0
100
AcDbSymbolTable
 70
     0
  0
ENDTAB
  0
TABLE
  2
APPID
  5
9
330
0
100
AcDbSymbolTable
 70
     2
  0
APPID
  5
12
330
9
100
AcDbSymbolTableRecord
100
AcDbRegAppTableRecord
  2
ACAD
 70
     0
  0
ENDTAB
  0
TABLE
  2
DIMSTYLE
  5
A
330
0
100
AcDbSymbolTable
 70
     1
  0
DIMSTYLE
105
27
330
A
100
AcDbSymbolTableRecord
100
AcDbDimStyleTableRecord
  2
ISO-25
 70
     0
  3

  4

  5

  6

  7

 40
1.0
 41
2.5
 42
0.625
 43
3.75
 44
1.25
 45
0.0
 46
0.0
 47
0.0
 48
0.0
140
2.5
141
2.5
142
0.0
143
0.03937007874016
144
1.0
145
0.0
146
1.0
147
0.625
 71
     0
 72
     0
 73
     0
 74
     0
 75
     0
 76
     0
 77
     1
 78
     8
170
     0
171
     3
172
     1
173
     0
174
     0
175
     0
176
     0
177
     0
178
     0
270
     2
271
     2
272
     2
273
     2
274
     3
340
11
275
     0
280
     0
281
     0
282
     0
283
     0
284
     8
285
     0
286
     0
287
     3
288
     0
  0
ENDTAB
  0
TABLE
  2
BLOCK_RECORD
  5
1
330
0
100
AcDbSymbolTable
 70
     1
  0
BLOCK_RECORD
  5
1F
330
1
100
AcDbSymbolTableRecord
100
AcDbBlockTableRecord
  2
*MODEL_SPACE
  0
BLOCK_RECORD
  5
1B
330
1
100
AcDbSymbolTableRecord
100
AcDbBlockTableRecord
  2
*PAPER_SPACE
  0
ENDTAB
  0
ENDSEC
  0
SECTION
  2
BLOCKS
  0
BLOCK
  5
20
330
1F
100
AcDbEntity
  8
0
100
AcDbBlockBegin
  2
*MODEL_SPACE
 70
     0
 10
0.0
 20
0.0
 30
0.0
  3
*MODEL_SPACE
  1

  0
ENDBLK
  5
21
330
1F
100
AcDbEntity
  8
0
100
AcDbBlockEnd
  0
BLOCK
  5
1C
330
1B
100
AcDbEntity
 67
     1
  8
0
100
AcDbBlockBegin
  2
*PAPER_SPACE
  1

  0
ENDBLK
  5
1D
330
1B
100
AcDbEntity
 67
     1
  8
0
100
AcDbBlockEnd
  0
ENDSEC
  0
SECTION
  2
ENTITIES
  0
LWPOLYLINE
  5
100
100
AcDbEntity
  8
chars
 62
7
100
AcDbPolyline
 90
12
 70
1
 10
107.868559
 20
348.632288
 30
0.0
 10
116.396082
 20
348.632288
 30
0.0
 10
116.396082
 20
350.580300
 30
0.0
 10
110.174369
 20
350.580300
 30
0.0
 10
110.174369
 20
354.416692
 30
0.0
 10
115.282932
 20
354.416692
 30
0.0
 10
115.282932
 20
356.364704
 30
0.0
 10
110.174369
 20
356.364704
 30
0.0
 10
110.174369
 20
359.684276
 30
0.0
 10
116.197305
 20
359.684276
 30
0.0
 10
116.197305
 20
361.632288
 30
0.0
 10
107.868559
 20
361.632288
 30
0.0
  0
LWPOLYLINE
  5
101
100
AcDbEntity
  8
chars
 62
7
100
AcDbPolyline
 90
13
 70
1
 10
161.113205
 20
348.632288
 30
0.0
 10
163.458775
 20
348.632288
 30
0.0
 10
163.458775
 20
352.468679
 30
0.0
 10
165.307395
 20
354.814245
 30
0.0
 10
168.587215
 20
348.632288
 30
0.0
 10
171.151435
 20
348.632288
 30
0.0
 10
166.718705
 20
356.583358
 30
0.0
 10
170.734005
 20
361.632288
 30
0.0
 10
168.149905
 20
361.632288
 30
0.0
 10
163.518405
 20
355.728618
 30
0.0
 10
163.458805
 20
355.728618
 30
0.0
 10
163.458805
 20
361.632288
 30
0.0
 10
161.113235
 20
361.632288
 30
0.0
  0
SPLINE
  5
102
100
AcDbEntity
  8
chars
 62
7
100
AcDbSpline
 70
8
 71
3
 72
8
 73
4
 74
0
 40
0
 40
0
 40
0
 40
0
 40
1
 40
1
 40
1
 40
1
 10
220.151490
 20
348.632288
 30
0.0
 10
223.065940
 20
348.632288
 30
0.0
 10
224.791600
 20
350.319603
 30
0.0
 10
224.791600
 20
352.352052
 30
0.0
  0
SPLINE
  5
103
100
AcDbEntity
  8
chars
 62
7
100
AcDbSpline
 70
8
 71
3
 72
8
 73
4
 74
0
 40
0
 40
0
 40
0
 40
0
 40
1
 40
1
 40
1
 40
1
 10
224.791600
 20
352.352052
 30
0.0
 10
224.791600
 20
354.173586
 30
0.0
 10
223.660340
 20
355.113114
 30
0.0
 10
222.068890
 20
355.745857
 30
0.0
  0
LWPOLYLINE
  5
104
100
AcDbEntity
  8
chars
 62
7
100
AcDbPolyline
 90
12
 70
1
 10
188.838735
 20
348.632288
 30
0.0
 10
197.425885
 20
348.632288
 30
0.0
 10
197.425885
 20
350.580300
 30
0.0
 10
194.285215
 20
350.580300
 30
0.0
 10
194.285215
 20
359.684276
 30
0.0
 10
197.425885
 20
359.684276
 30
0.0
 10
197.425885
 20
361.632288
 30
0.0
 10
188.838735
 20
361.632288
 30
0.0
 10
188.838735
 20
359.684276
 30
0.0
 10
191.979405
 20
359.684276
 30
0.0
 10
191.979405
 20
350.580300
 30
0.0
 10
188.838735
 20
350.580300
 30
0.0
  0
SPLINE
  5
105
100
AcDbEntity
  8
chars
 62
7
100
AcDbSpline
 70
8
 71
3
 72
8
 73
4
 74
0
 40
0
 40
0
 40
0
 40
0
 40
1
 40
1
 40
1
 40
1
 10
220.419920
 20
356.455297
 30
0.0
 10
219.288650
 20
356.896300
 30
0.0
 10
218.272430
 20
357.260606
 30
0.0
 10
218.272430
 20
358.219309
 30
0.0
  0
SPLINE
  5
106
100
AcDbEntity
  8
chars
 62
7
100
AcDbSpline
 70
8
 71
3
 72
8
 73
4
 74
0
 40
0
 40
0
 40
0
 40
0
 40
1
 40
1
 40
1
 40
1
 10
218.272430
 20
358.219309
 30
0.0
 10
218.272430
 20
359.158837
 30
0.0
 10
219.077740
 20
359.695710
 30
0.0
 10
220.266530
 20
359.695710
 30
0.0
  0
SPLINE
  5
107
100
AcDbEntity
  8
chars
 62
7
100
AcDbSpline
 70
8
 71
3
 72
8
 73
4
 74
0
 40
0
 40
0
 40
0
 40
0
 40
1
 40
1
 40
1
 40
1
 10
220.266530
 20
359.695710
 30
0.0
 10
221.532020
 20
359.695710
 30
0.0
 10
222.414020
 20
359.293055
 30
0.0
 10
223.257680
 20
358.621963
 30
0.0
  0
LWPOLYLINE
  5
108
100
AcDbEntity
  8
chars
 62
7
100
AcDbPolyline
 90
2
 70
0
 10
222.068890
 20
355.745857
 30
0.0
 10
220.419920
 20
356.455297
 30
0.0
  0
SPLINE
  5
109
100
AcDbEntity
  8
chars
 62
7
100
AcDbSpline
 70
8
 71
3
 72
8
 73
4
 74
0
 40
0
 40
0
 40
0
 40
0
 40
1
 40
1
 40
1
 40
1
 10
224.408120
 20
360.040843
 30
0.0
 10
223.372730
 20
361.018719
 30
0.0
 10
221.915500
 20
361.632288
 30
0.0
 10
220.381580
 20
361.632288
 30
0.0
  0
SPLINE
  5
10a
100
AcDbEntity
  8
chars
 62
7
100
AcDbSpline
 70
8
 71
3
 72
8
 73
4
 74
0
 40
0
 40
0
 40
0
 40
0
 40
1
 40
1
 40
1
 40
1
 10
220.381580
 20
361.632288
 30
0.0
 10
217.831430
 20
361.632288
 30
0.0
 10
216.029070
 20
360.098365
 30
0.0
 10
216.029070
 20
358.104264
 30
0.0
  0
SPLINE
  5
10b
100
AcDbEntity
  8
chars
 62
7
100
AcDbSpline
 70
8
 71
3
 72
8
 73
4
 74
0
 40
0
 40
0
 40
0
 40
0
 40
1
 40
1
 40
1
 40
1
 10
216.029070
 20
358.104264
 30
0.0
 10
216.029070
 20
356.263556
 30
0.0
 10
217.390420
 20
355.285680
 30
0.0
 10
218.713430
 20
354.767981
 30
0.0
  0
LWPOLYLINE
  5
10c
100
AcDbEntity
  8
chars
 62
7
100
AcDbPolyline
 90
2
 70
0
 10
223.257680
 20
358.621963
 30
0.0
 10
224.408120
 20
360.040843
 30
0.0
  0
SPLINE
  5
10d
100
AcDbEntity
  8
chars
 62
7
100
AcDbSpline
 70
8
 71
3
 72
8
 73
4
 74
0
 40
0
 40
0
 40
0
 40
0
 40
1
 40
1
 40
1
 40
1
 10
220.419920
 20
354.020193
 30
0.0
 10
221.666240
 20
353.502494
 30
0.0
 10
222.529070
 20
353.195710
 30
0.0
 10
222.529070
 20
352.083615
 30
0.0
  0
SPLINE
  5
10e
100
AcDbEntity
  8
chars
 62
7
100
AcDbSpline
 70
8
 71
3
 72
8
 73
4
 74
0
 40
0
 40
0
 40
0
 40
0
 40
1
 40
1
 40
1
 40
1
 10
222.529070
 20
352.083615
 30
0.0
 10
222.529070
 20
351.201609
 30
0.0
 10
221.742930
 20
350.568866
 30
0.0
 10
220.285710
 20
350.568866
 30
0.0
  0
SPLINE
  5
10f
100
AcDbEntity
  8
chars
 62
7
100
AcDbSpline
 70
8
 71
3
 72
8
 73
4
 74
0
 40
0
 40
0
 40
0
 40
0
 40
1
 40
1
 40
1
 40
1
 10
220.285710
 20
350.568866
 30
0.0
 10
218.962700
 20
350.568866
 30
0.0
 10
217.716380
 20
351.144087
 30
0.0
 10
216.776860
 20
351.987745
 30
0.0
  0
LWPOLYLINE
  5
110
100
AcDbEntity
  8
chars
 62
7
100
AcDbPolyline
 90
2
 70
0
 10
218.713430
 20
354.767981
 30
0.0
 10
220.419920
 20
354.020193
 30
0.0
  0
SPLINE
  5
111
100
AcDbEntity
  8
chars
 62
7
100
AcDbSpline
 70
8
 71
3
 72
8
 73
4
 74
0
 40
0
 40
0
 40
0
 40
0
 40
1
 40
1
 40
1
 40
1
 10
215.473020
 20
350.472996
 30
0.0
 10
216.719330
 20
349.303379
 30
0.0
 10
218.387470
 20
348.632288
 30
0.0
 10
220.151490
 20
348.632288
 30
0.0
  0
LWPOLYLINE
  5
112
100
AcDbEntity
  8
chars
 62
7
100
AcDbPolyline
 90
2
 70
0
 10
216.776860
 20
351.987745
 30
0.0
 10
215.473020
 20
350.472996
 30
0.0
  0
LWPOLYLINE
  5
113
100
AcDbEntity
  8
chars
 62
7
100
AcDbPolyline
 90
1
 70
1
 10
220.151490
 20
348.632288
 30
0.0
  0
LWPOLYLINE
  5
114
100
AcDbEntity
  8
chars
 62
7
100
AcDbPolyline
 90
8
 70
1
 10
137.979410
 20
348.632288
 30
0.0
 10
140.285220
 20
348.632288
 30
0.0
 10
140.285220
 20
359.684276
 30
0.0
 10
144.380030
 20
359.684276
 30
0.0
 10
144.380030
 20
361.632288
 30
0.0
 10
133.884610
 20
361.632288
 30
0.0
 10
133.884610
 20
359.684276
 30
0.0
 10
137.979410
 20
359.684276
 30
0.0
  0
SPLINE
  5
115
100
AcDbEntity
  8
chars
 62
7
100
AcDbSpline
 70
8
 71
3
 72
8
 73
4
 74
0
 40
0
 40
0
 40
0
 40
0
 40
1
 40
1
 40
1
 40
1
 10
190.448880
 20
293.879996
 30
0.0
 10
190.448880
 20
295.251556
 30
0.0
 10
190.250110
 20
297.935042
 30
0.0
 10
190.110960
 20
299.207214
 30
0.0
  0
LWPOLYLINE
  5
116
100
AcDbEntity
  8
chars
 62
7
100
AcDbPolyline
 90
3
 70
0
 10
188.461120
 20
288.632290
 30
0.0
 10
190.448880
 20
288.632290
 30
0.0
 10
190.448880
 20
293.879996
 30
0.0
  0
SPLINE
  5
117
100
AcDbEntity
  8
chars
 62
7
100
AcDbSpline
 70
8
 71
3
 72
8
 73
4
 74
0
 40
0
 40
0
 40
0
 40
0
 40
1
 40
1
 40
1
 40
1
 10
196.113950
 20
299.207214
 30
0.0
 10
195.994680
 20
297.935042
 30
0.0
 10
195.776030
 20
295.251556
 30
0.0
 10
195.776030
 20
293.879996
 30
0.0
  0
LWPOLYLINE
  5
118
100
AcDbEntity
  8
chars
 62
7
100
AcDbPolyline
 90
8
 70
0
 10
190.110960
 20
299.207214
 30
0.0
 10
190.170560
 20
299.207214
 30
0.0
 10
191.025300
 20
296.185807
 30
0.0
 10
192.436610
 20
292.071128
 30
0.0
 10
193.748540
 20
292.071128
 30
0.0
 10
195.179730
 20
296.185807
 30
0.0
 10
196.054350
 20
299.207214
 30
0.0
 10
196.113950
 20
299.207214
 30
0.0
  0
LWPOLYLINE
  5
119
100
AcDbEntity
  8
chars
 62
7
100
AcDbPolyline
 90
12
 70
0
 10
195.776030
 20
293.879996
 30
0.0
 10
195.776030
 20
288.632290
 30
0.0
 10
197.803550
 20
288.632290
 30
0.0
 10
197.803550
 20
301.632290
 30
0.0
 10
195.259210
 20
301.632290
 30
0.0
 10
193.688870
 20
296.563483
 30
0.0
 10
193.172050
 20
294.615470
 30
0.0
 10
193.092550
 20
294.615470
 30
0.0
 10
192.555860
 20
296.563483
 30
0.0
 10
191.005400
 20
301.632290
 30
0.0
 10
188.461060
 20
301.632290
 30
0.0
 10
188.461120
 20
288.632290
 30
0.0
  0
LWPOLYLINE
  5
11a
100
AcDbEntity
  8
chars
 62
7
100
AcDbPolyline
 90
12
 70
1
 10
134.868560
 20
318.632260
 30
0.0
 10
143.396080
 20
318.632260
 30
0.0
 10
143.396080
 20
320.580273
 30
0.0
 10
137.174370
 20
320.580273
 30
0.0
 10
137.174370
 20
324.416664
 30
0.0
 10
142.282930
 20
324.416664
 30
0.0
 10
142.282930
 20
326.364676
 30
0.0
 10
137.174370
 20
326.364676
 30
0.0
 10
137.174370
 20
329.684248
 30
0.0
 10
143.197310
 20
329.684248
 30
0.0
 10
143.197310
 20
331.632260
 30
0.0
 10
134.868560
 20
331.632260
 30
0.0
  0
LWPOLYLINE
  5
11b
100
AcDbEntity
  8
chars
 62
7
100
AcDbPolyline
 90
8
 70
1
 10
353.979410
 20
288.632290
 30
0.0
 10
356.285220
 20
288.632290
 30
0.0
 10
356.285220
 20
299.684278
 30
0.0
 10
360.380030
 20
299.684278
 30
0.0
 10
360.380030
 20
301.632290
 30
0.0
 10
349.884610
 20
301.632290
 30
0.0
 10
349.884610
 20
299.684278
 30
0.0
 10
353.979410
 20
299.684278
 30
0.0
  0
LWPOLYLINE
  5
11c
100
AcDbEntity
  8
chars
 62
7
100
AcDbPolyline
 90
12
 70
1
 10
134.868550
 20
288.632290
 30
0.0
 10
143.396080
 20
288.632290
 30
0.0
 10
143.396080
 20
290.580302
 30
0.0
 10
137.174360
 20
290.580302
 30
0.0
 10
137.174360
 20
294.416693
 30
0.0
 10
142.282930
 20
294.416693
 30
0.0
 10
142.282930
 20
296.364706
 30
0.0
 10
137.174360
 20
296.364706
 30
0.0
 10
137.174360
 20
299.684278
 30
0.0
 10
143.197300
 20
299.684278
 30
0.0
 10
143.197300
 20
301.632290
 30
0.0
 10
134.868550
 20
301.632290
 30
0.0
  0
LWPOLYLINE
  5
11d
100
AcDbEntity
  8
chars
 62
7
100
AcDbPolyline
 90
8
 70
1
 10
83.979415
 20
318.632260
 30
0.0
 10
86.285226
 20
318.632260
 30
0.0
 10
86.285226
 20
329.684250
 30
0.0
 10
90.380027
 20
329.684250
 30
0.0
 10
90.380027
 20
331.632260
 30
0.0
 10
79.884614
 20
331.632260
 30
0.0
 10
79.884614
 20
329.684250
 30
0.0
 10
83.979415
 20
329.684250
 30
0.0
  0
SPLINE
  5
11e
100
AcDbEntity
  8
chars
 62
7
100
AcDbSpline
 70
8
 71
3
 72
8
 73
4
 74
0
 40
0
 40
0
 40
0
 40
0
 40
1
 40
1
 40
1
 40
1
 10
244.448890
 20
263.879980
 30
0.0
 10
244.448890
 20
265.251540
 30
0.0
 10
244.250120
 20
267.935020
 30
0.0
 10
244.110970
 20
269.207190
 30
0.0
  0
LWPOLYLINE
  5
11f
100
AcDbEntity
  8
chars
 62
7
100
AcDbPolyline
 90
3
 70
0
 10
242.461130
 20
258.632270
 30
0.0
 10
244.448890
 20
258.632270
 30
0.0
 10
244.448890
 20
263.879980
 30
0.0
  0
SPLINE
  5
120
100
AcDbEntity
  8
chars
 62
7
100
AcDbSpline
 70
8
 71
3
 72
8
 73
4
 74
0
 40
0
 40
0
 40
0
 40
0
 40
1
 40
1
 40
1
 40
1
 10
250.113950
 20
269.207190
 30
0.0
 10
249.994680
 20
267.935020
 30
0.0
 10
249.776030
 20
265.251540
 30
0.0
 10
249.776030
 20
263.879980
 30
0.0
  0
LWPOLYLINE
  5
121
100
AcDbEntity
  8
chars
 62
7
100
AcDbPolyline
 90
8
 70
0
 10
244.110970
 20
269.207190
 30
0.0
 10
244.170570
 20
269.207190
 30
0.0
 10
245.025310
 20
266.185790
 30
0.0
 10
246.436620
 20
262.071110
 30
0.0
 10
247.748540
 20
262.071110
 30
0.0
 10
249.179730
 20
266.185790
 30
0.0
 10
250.054350
 20
269.207190
 30
0.0
 10
250.113950
 20
269.207190
 30
0.0
  0
LWPOLYLINE
  5
122
100
AcDbEntity
  8
chars
 62
7
100
AcDbPolyline
 90
12
 70
0
 10
249.776030
 20
263.879980
 30
0.0
 10
249.776030
 20
258.632270
 30
0.0
 10
251.803550
 20
258.632270
 30
0.0
 10
251.803550
 20
271.632270
 30
0.0
 10
249.259210
 20
271.632270
 30
0.0
 10
247.688870
 20
266.563460
 30
0.0
 10
247.172050
 20
264.615450
 30
0.0
 10
247.092550
 20
264.615450
 30
0.0
 10
246.555860
 20
266.563460
 30
0.0
 10
245.005410
 20
271.632270
 30
0.0
 10
242.461070
 20
271.632270
 30
0.0
 10
242.461130
 20
258.632270
 30
0.0
  0
LWPOLYLINE
  5
123
100
AcDbEntity
  8
chars
 62
7
100
AcDbPolyline
 90
6
 70
1
 10
134.938130
 20
228.632290
 30
0.0
 10
143.326510
 20
228.632290
 30
0.0
 10
143.326510
 20
230.580310
 30
0.0
 10
137.224060
 20
230.580310
 30
0.0
 10
137.224060
 20
241.632290
 30
0.0
 10
134.938130
 20
241.632290
 30
0.0
  0
LWPOLYLINE
  5
124
100
AcDbEntity
  8
chars
 62
7
100
AcDbPolyline
 90
12
 70
1
 10
296.838730
 20
348.632289
 30
0.0
 10
305.425890
 20
348.632289
 30
0.0
 10
305.425890
 20
350.580302
 30
0.0
 10
302.285210
 20
350.580302
 30
0.0
 10
302.285210
 20
359.684277
 30
0.0
 10
305.425890
 20
359.684277
 30
0.0
 10
305.425890
 20
361.632289
 30
0.0
 10
296.838730
 20
361.632289
 30
0.0
 10
296.838730
 20
359.684277
 30
0.0
 10
299.979400
 20
359.684277
 30
0.0
 10
299.979400
 20
350.580302
 30
0.0
 10
296.838730
 20
350.580302
 30
0.0
  0
LWPOLYLINE
  5
125
100
AcDbEntity
  8
chars
 62
7
100
AcDbPolyline
 90
10
 70
1
 10
350.977890
 20
108.632294
 30
0.0
 10
353.283700
 20
108.632294
 30
0.0
 10
353.283700
 20
114.058899
 30
0.0
 10
358.392260
 20
114.058899
 30
0.0
 10
358.392260
 20
116.006912
 30
0.0
 10
353.283700
 20
116.006912
 30
0.0
 10
353.283700
 20
119.684282
 30
0.0
 10
359.286750
 20
119.684282
 30
0.0
 10
359.286750
 20
121.632294
 30
0.0
 10
350.977890
 20
121.632294
 30
0.0
  0
LWPOLYLINE
  5
126
100
AcDbEntity
  8
chars
 62
7
100
AcDbPolyline
 90
12
 70
1
 10
80.600211
 20
348.632289
 30
0.0
 10
82.906021
 20
348.632289
 30
0.0
 10
82.906021
 20
354.396815
 30
0.0
 10
87.358621
 20
354.396815
 30
0.0
 10
87.358621
 20
348.632289
 30
0.0
 10
89.664431
 20
348.632289
 30
0.0
 10
89.664431
 20
361.632289
 30
0.0
 10
87.358621
 20
361.632289
 30
0.0
 10
87.358621
 20
356.404461
 30
0.0
 10
82.906021
 20
356.404461
 30
0.0
 10
82.906021
 20
361.632289
 30
0.0
 10
80.600211
 20
361.632289
 30
0.0
  0
SPLINE
  5
127
100
AcDbEntity
  8
chars
 62
7
100
AcDbSpline
 70
8
 71
3
 72
8
 73
4
 74
0
 40
0
 40
0
 40
0
 40
0
 40
1
 40
1
 40
1
 40
1
 10
163.846400
 20
324.317276
 30
0.0
 10
163.846400
 20
325.768346
 30
0.0
 10
163.627750
 20
327.318805
 30
0.0
 10
163.528360
 20
328.710242
 30
0.0
  0
LWPOLYLINE
  5
128
100
AcDbEntity
  8
chars
 62
7
100
AcDbPolyline
 90
3
 70
0
 10
161.639980
 20
318.632260
 30
0.0
 10
163.846400
 20
318.632260
 30
0.0
 10
163.846400
 20
324.317276
 30
0.0
  0
SPLINE
  5
129
100
AcDbEntity
  8
chars
 62
7
100
AcDbSpline
 70
8
 71
3
 72
8
 73
4
 74
0
 40
0
 40
0
 40
0
 40
0
 40
1
 40
1
 40
1
 40
1
 10
168.418240
 20
325.987000
 30
0.0
 10
168.418240
 20
324.535930
 30
0.0
 10
168.636890
 20
322.886083
 30
0.0
 10
168.736280
 20
321.554279
 30
0.0
  0
LWPOLYLINE
  5
12a
100
AcDbEntity
  8
chars
 62
7
100
AcDbPolyline
 90
8
 70
0
 10
163.528360
 20
328.710242
 30
0.0
 10
163.587960
 20
328.710242
 30
0.0
 10
164.760740
 20
325.947245
 30
0.0
 10
168.199580
 20
318.632260
 30
0.0
 10
170.624660
 20
318.632260
 30
0.0
 10
170.624660
 20
331.632260
 30
0.0
 10
168.418240
 20
331.632260
 30
0.0
 10
168.418240
 20
325.987000
 30
0.0
  0
SPLINE
  5
12b
100
AcDbEntity
  8
chars
 62
7
100
AcDbSpline
 70
8
 71
3
 72
8
 73
4
 74
0
 40
0
 40
0
 40
0
 40
0
 40
1
 40
1
 40
1
 40
1
 10
248.014310
 20
228.632290
 30
0.0
 10
249.624930
 20
228.632290
 30
0.0
 10
251.043810
 20
229.322560
 30
0.0
 10
251.849120
 20
230.127860
 30
0.0
  0
LWPOLYLINE
  5
12c
100
AcDbEntity
  8
chars
 62
7
100
AcDbPolyline
 90
6
 70
0
 10
168.736280
 20
321.554279
 30
0.0
 10
168.676680
 20
321.554279
 30
0.0
 10
167.503890
 20
324.337153
 30
0.0
 10
164.065060
 20
331.632260
 30
0.0
 10
161.639980
 20
331.632260
 30
0.0
 10
161.639980
 20
318.632260
 30
0.0
  0
SPLINE
  5
12d
100
AcDbEntity
  8
chars
 62
7
100
AcDbSpline
 70
8
 71
3
 72
8
 73
4
 74
0
 40
0
 40
0
 40
0
 40
0
 40
1
 40
1
 40
1
 40
1
 10
249.835840
 20
231.124920
 30
0.0
 10
249.471530
 20
230.760610
 30
0.0
 10
248.819620
 20
230.568870
 30
0.0
 10
248.148530
 20
230.568870
 30
0.0
  0
SPLINE
  5
12e
100
AcDbEntity
  8
chars
 62
7
100
AcDbSpline
 70
8
 71
3
 72
8
 73
4
 74
0
 40
0
 40
0
 40
0
 40
0
 40
1
 40
1
 40
1
 40
1
 10
248.148530
 20
230.568870
 30
0.0
 10
245.924340
 20
230.568870
 30
0.0
 10
244.716370
 20
232.294530
 30
0.0
 10
244.716370
 20
235.151460
 30
0.0
  0
SPLINE
  5
12f
100
AcDbEntity
  8
chars
 62
7
100
AcDbSpline
 70
8
 71
3
 72
8
 73
4
 74
0
 40
0
 40
0
 40
0
 40
0
 40
1
 40
1
 40
1
 40
1
 10
244.716370
 20
235.151460
 30
0.0
 10
244.716370
 20
237.970050
 30
0.0
 10
246.116080
 20
239.695710
 30
0.0
 10
248.110180
 20
239.695710
 30
0.0
  0
SPLINE
  5
130
100
AcDbEntity
  8
chars
 62
7
100
AcDbSpline
 70
8
 71
3
 72
8
 73
4
 74
0
 40
0
 40
0
 40
0
 40
0
 40
1
 40
1
 40
1
 40
1
 10
248.110180
 20
239.695710
 30
0.0
 10
249.203100
 20
239.695710
 30
0.0
 10
249.855020
 20
239.273880
 30
0.0
 10
250.430240
 20
238.679490
 30
0.0
  0
LWPOLYLINE
  5
131
100
AcDbEntity
  8
chars
 62
7
100
AcDbPolyline
 90
6
 70
0
 10
251.849120
 20
230.127860
 30
0.0
 10
251.849120
 20
235.649990
 30
0.0
 10
247.669170
 20
235.649990
 30
0.0
 10
247.669170
 20
233.828450
 30
0.0
 10
249.835840
 20
233.828450
 30
0.0
 10
249.835840
 20
231.124920
 30
0.0
  0
SPLINE
  5
132
100
AcDbEntity
  8
chars
 62
7
100
AcDbSpline
 70
8
 71
3
 72
8
 73
4
 74
0
 40
0
 40
0
 40
0
 40
0
 40
1
 40
1
 40
1
 40
1
 10
251.657380
 20
240.060020
 30
0.0
 10
250.909590
 20
240.846150
 30
0.0
 10
249.778320
 20
241.632290
 30
0.0
 10
248.110180
 20
241.632290
 30
0.0
  0
SPLINE
  5
133
100
AcDbEntity
  8
chars
 62
7
100
AcDbSpline
 70
8
 71
3
 72
8
 73
4
 74
0
 40
0
 40
0
 40
0
 40
0
 40
1
 40
1
 40
1
 40
1
 10
248.110180
 20
241.632290
 30
0.0
 10
244.850590
 20
241.632290
 30
0.0
 10
242.415490
 20
239.216360
 30
0.0
 10
242.415490
 20
235.093940
 30
0.0
  0
SPLINE
  5
134
100
AcDbEntity
  8
chars
 62
7
100
AcDbSpline
 70
8
 71
3
 72
8
 73
4
 74
0
 40
0
 40
0
 40
0
 40
0
 40
1
 40
1
 40
1
 40
1
 10
242.415490
 20
235.093940
 30
0.0
 10
242.415490
 20
230.933170
 30
0.0
 10
244.831420
 20
228.632290
 30
0.0
 10
248.014310
 20
228.632290
 30
0.0
  0
LWPOLYLINE
  5
135
100
AcDbEntity
  8
chars
 62
7
100
AcDbPolyline
 90
2
 70
0
 10
250.430240
 20
238.679490
 30
0.0
 10
251.657380
 20
240.060020
 30
0.0
  0
LWPOLYLINE
  5
136
100
AcDbEntity
  8
chars
 62
7
100
AcDbPolyline
 90
1
 70
1
 10
248.014310
 20
228.632290
 30
0.0
  0
LWPOLYLINE
  5
137
100
AcDbEntity
  8
chars
 62
7
100
AcDbPolyline
 90
12
 70
1
 10
80.600210
 20
228.632290
 30
0.0
 10
82.906021
 20
228.632290
 30
0.0
 10
82.906021
 20
234.396820
 30
0.0
 10
87.358620
 20
234.396820
 30
0.0
 10
87.358620
 20
228.632290
 30
0.0
 10
89.664431
 20
228.632290
 30
0.0
 10
89.664431
 20
241.632290
 30
0.0
 10
87.358620
 20
241.632290
 30
0.0
 10
87.358620
 20
236.404470
 30
0.0
 10
82.906021
 20
236.404470
 30
0.0
 10
82.906021
 20
241.632290
 30
0.0
 10
80.600210
 20
241.632290
 30
0.0
  0
SPLINE
  5
138
100
AcDbEntity
  8
chars
 62
7
100
AcDbSpline
 70
8
 71
3
 72
8
 73
4
 74
0
 40
0
 40
0
 40
0
 40
0
 40
1
 40
1
 40
1
 40
1
 10
113.364740
 20
295.092540
 30
0.0
 10
112.967180
 20
293.621590
 30
0.0
 10
112.669020
 20
292.349420
 30
0.0
 10
112.231710
 20
290.858590
 30
0.0
  0
LWPOLYLINE
  5
139
100
AcDbEntity
  8
chars
 62
7
100
AcDbPolyline
 90
5
 70
0
 10
110.780640
 20
288.632290
 30
0.0
 10
113.503880
 20
288.632290
 30
0.0
 10
117.539050
 20
301.632290
 30
0.0
 10
115.173600
 20
301.632290
 30
0.0
 10
113.364740
 20
295.092540
 30
0.0
  0
SPLINE
  5
13a
100
AcDbEntity
  8
chars
 62
7
100
AcDbSpline
 70
8
 71
3
 72
8
 73
4
 74
0
 40
0
 40
0
 40
0
 40
0
 40
1
 40
1
 40
1
 40
1
 10
112.152210
 20
290.858590
 30
0.0
 10
111.714900
 20
292.349420
 30
0.0
 10
111.416730
 20
293.621590
 30
0.0
 10
110.999300
 20
295.092540
 30
0.0
  0
LWPOLYLINE
  5
13b
100
AcDbEntity
  8
chars
 62
7
100
AcDbPolyline
 90
2
 70
0
 10
112.231710
 20
290.858590
 30
0.0
 10
112.152210
 20
290.858590
 30
0.0
  0
SPLINE
  5
13c
100
AcDbEntity
  8
chars
 62
7
100
AcDbSpline
 70
8
 71
3
 72
8
 73
4
 74
0
 40
0
 40
0
 40
0
 40
0
 40
1
 40
1
 40
1
 40
1
 10
193.151490
 20
258.632270
 30
0.0
 10
196.065940
 20
258.632270
 30
0.0
 10
197.791600
 20
260.319590
 30
0.0
 10
197.791600
 20
262.352040
 30
0.0
  0
SPLINE
  5
13d
100
AcDbEntity
  8
chars
 62
7
100
AcDbSpline
 70
8
 71
3
 72
8
 73
4
 74
0
 40
0
 40
0
 40
0
 40
0
 40
1
 40
1
 40
1
 40
1
 10
197.791600
 20
262.352040
 30
0.0
 10
197.791600
 20
264.173570
 30
0.0
 10
196.660340
 20
265.113100
 30
0.0
 10
195.068890
 20
265.745840
 30
0.0
  0
LWPOLYLINE
  5
13e
100
AcDbEntity
  8
chars
 62
7
100
AcDbPolyline
 90
4
 70
0
 10
110.999300
 20
295.092540
 30
0.0
 10
109.170560
 20
301.632290
 30
0.0
 10
106.725600
 20
301.632290
 30
0.0
 10
110.780640
 20
288.632290
 30
0.0
  0
SPLINE
  5
13f
100
AcDbEntity
  8
chars
 62
7
100
AcDbSpline
 70
8
 71
3
 72
8
 73
4
 74
0
 40
0
 40
0
 40
0
 40
0
 40
1
 40
1
 40
1
 40
1
 10
193.419920
 20
266.455280
 30
0.0
 10
192.288650
 20
266.896280
 30
0.0
 10
191.272430
 20
267.260590
 30
0.0
 10
191.272430
 20
268.219290
 30
0.0
  0
SPLINE
  5
140
100
AcDbEntity
  8
chars
 62
7
100
AcDbSpline
 70
8
 71
3
 72
8
 73
4
 74
0
 40
0
 40
0
 40
0
 40
0
 40
1
 40
1
 40
1
 40
1
 10
191.272430
 20
268.219290
 30
0.0
 10
191.272430
 20
269.158820
 30
0.0
 10
192.077740
 20
269.695690
 30
0.0
 10
193.266530
 20
269.695690
 30
0.0
  0
SPLINE
  5
141
100
AcDbEntity
  8
chars
 62
7
100
AcDbSpline
 70
8
 71
3
 72
8
 73
4
 74
0
 40
0
 40
0
 40
0
 40
0
 40
1
 40
1
 40
1
 40
1
 10
193.266530
 20
269.695690
 30
0.0
 10
194.532020
 20
269.695690
 30
0.0
 10
195.414020
 20
269.293040
 30
0.0
 10
196.257680
 20
268.621950
 30
0.0
  0
LWPOLYLINE
  5
142
100
AcDbEntity
  8
chars
 62
7
100
AcDbPolyline
 90
2
 70
0
 10
195.068890
 20
265.745840
 30
0.0
 10
193.419920
 20
266.455280
 30
0.0
  0
SPLINE
  5
143
100
AcDbEntity
  8
chars
 62
7
100
AcDbSpline
 70
8
 71
3
 72
8
 73
4
 74
0
 40
0
 40
0
 40
0
 40
0
 40
1
 40
1
 40
1
 40
1
 10
197.408120
 20
270.040830
 30
0.0
 10
196.372730
 20
271.018700
 30
0.0
 10
194.915500
 20
271.632270
 30
0.0
 10
193.381580
 20
271.632270
 30
0.0
  0
SPLINE
  5
144
100
AcDbEntity
  8
chars
 62
7
100
AcDbSpline
 70
8
 71
3
 72
8
 73
4
 74
0
 40
0
 40
0
 40
0
 40
0
 40
1
 40
1
 40
1
 40
1
 10
193.381580
 20
271.632270
 30
0.0
 10
190.831430
 20
271.632270
 30
0.0
 10
189.029070
 20
270.098350
 30
0.0
 10
189.029070
 20
268.104250
 30
0.0
  0
SPLINE
  5
145
100
AcDbEntity
  8
chars
 62
7
100
AcDbSpline
 70
8
 71
3
 72
8
 73
4
 74
0
 40
0
 40
0
 40
0
 40
0
 40
1
 40
1
 40
1
 40
1
 10
189.029070
 20
268.104250
 30
0.0
 10
189.029070
 20
266.263540
 30
0.0
 10
190.390420
 20
265.285660
 30
0.0
 10
191.713430
 20
264.767970
 30
0.0
  0
LWPOLYLINE
  5
146
100
AcDbEntity
  8
chars
 62
7
100
AcDbPolyline
 90
2
 70
0
 10
196.257680
 20
268.621950
 30
0.0
 10
197.408120
 20
270.040830
 30
0.0
  0
SPLINE
  5
147
100
AcDbEntity
  8
chars
 62
7
100
AcDbSpline
 70
8
 71
3
 72
8
 73
4
 74
0
 40
0
 40
0
 40
0
 40
0
 40
1
 40
1
 40
1
 40
1
 10
193.419920
 20
264.020180
 30
0.0
 10
194.666240
 20
263.502480
 30
0.0
 10
195.529070
 20
263.195690
 30
0.0
 10
195.529070
 20
262.083600
 30
0.0
  0
SPLINE
  5
148
100
AcDbEntity
  8
chars
 62
7
100
AcDbSpline
 70
8
 71
3
 72
8
 73
4
 74
0
 40
0
 40
0
 40
0
 40
0
 40
1
 40
1
 40
1
 40
1
 10
195.529070
 20
262.083600
 30
0.0
 10
195.529070
 20
261.201590
 30
0.0
 10
194.742930
 20
260.568850
 30
0.0
 10
193.285710
 20
260.568850
 30
0.0
  0
SPLINE
  5
149
100
AcDbEntity
  8
chars
 62
7
100
AcDbSpline
 70
8
 71
3
 72
8
 73
4
 74
0
 40
0
 40
0
 40
0
 40
0
 40
1
 40
1
 40
1
 40
1
 10
193.285710
 20
260.568850
 30
0.0
 10
191.962700
 20
260.568850
 30
0.0
 10
190.716380
 20
261.144070
 30
0.0
 10
189.776860
 20
261.987730
 30
0.0
  0
LWPOLYLINE
  5
14a
100
AcDbEntity
  8
chars
 62
7
100
AcDbPolyline
 90
2
 70
0
 10
191.713430
 20
264.767970
 30
0.0
 10
193.419920
 20
264.020180
 30
0.0
  0
SPLINE
  5
14b
100
AcDbEntity
  8
chars
 62
7
100
AcDbSpline
 70
8
 71
3
 72
8
 73
4
 74
0
 40
0
 40
0
 40
0
 40
0
 40
1
 40
1
 40
1
 40
1
 10
188.473020
 20
260.472980
 30
0.0
 10
189.719330
 20
259.303360
 30
0.0
 10
191.387470
 20
258.632270
 30
0.0
 10
193.151490
 20
258.632270
 30
0.0
  0
LWPOLYLINE
  5
14c
100
AcDbEntity
  8
chars
 62
7
100
AcDbPolyline
 90
2
 70
0
 10
189.776860
 20
261.987730
 30
0.0
 10
188.473020
 20
260.472980
 30
0.0
  0
LWPOLYLINE
  5
14d
100
AcDbEntity
  8
chars
 62
7
100
AcDbPolyline
 90
1
 70
1
 10
193.151490
 20
258.632270
 30
0.0
  0
LWPOLYLINE
  5
14e
100
AcDbEntity
  8
chars
 62
7
100
AcDbPolyline
 90
12
 70
1
 10
107.838745
 20
318.632260
 30
0.0
 10
116.425895
 20
318.632260
 30
0.0
 10
116.425895
 20
320.580280
 30
0.0
 10
113.285225
 20
320.580280
 30
0.0
 10
113.285225
 20
329.684250
 30
0.0
 10
116.425895
 20
329.684250
 30
0.0
 10
116.425895
 20
331.632260
 30
0.0
 10
107.838745
 20
331.632260
 30
0.0
 10
107.838745
 20
329.684250
 30
0.0
 10
110.979415
 20
329.684250
 30
0.0
 10
110.979415
 20
320.580280
 30
0.0
 10
107.838745
 20
320.580280
 30
0.0
  0
LWPOLYLINE
  5
14f
100
AcDbEntity
  8
chars
 62
7
100
AcDbPolyline
 90
12
 70
1
 10
215.868545
 20
288.632290
 30
0.0
 10
224.396075
 20
288.632290
 30
0.0
 10
224.396075
 20
290.580310
 30
0.0
 10
218.174355
 20
290.580310
 30
0.0
 10
218.174355
 20
294.416700
 30
0.0
 10
223.282925
 20
294.416700
 30
0.0
 10
223.282925
 20
296.364710
 30
0.0
 10
218.174355
 20
296.364710
 30
0.0
 10
218.174355
 20
299.684280
 30
0.0
 10
224.197295
 20
299.684280
 30
0.0
 10
224.197295
 20
301.632290
 30
0.0
 10
215.868545
 20
301.632290
 30
0.0
  0
LWPOLYLINE
  5
150
100
AcDbEntity
  8
chars
 62
7
100
AcDbPolyline
 90
10
 70
1
 10
296.341793
 20
168.632280
 30
0.0
 10
305.922833
 20
168.632280
 30
0.0
 10
305.922833
 20
170.580300
 30
0.0
 10
299.164423
 20
170.580300
 30
0.0
 10
305.843322
 20
180.240850
 30
0.0
 10
305.843322
 20
181.632280
 30
0.0
 10
296.938123
 20
181.632280
 30
0.0
 10
296.938123
 20
179.704150
 30
0.0
 10
303.000815
 20
179.704150
 30
0.0
 10
296.341793
 20
170.023720
 30
0.0
  0
SPLINE
  5
151
100
AcDbEntity
  8
chars
 62
7
100
AcDbSpline
 70
8
 71
3
 72
8
 73
4
 74
0
 40
0
 40
0
 40
0
 40
0
 40
1
 40
1
 40
1
 40
1
 10
327.868810
 20
348.632290
 30
0.0
 10
331.226160
 20
348.632290
 30
0.0
 10
332.377810
 20
350.642800
 30
0.0
 10
332.377810
 20
353.082740
 30
0.0
  0
LWPOLYLINE
  5
152
100
AcDbEntity
  8
chars
 62
7
100
AcDbPolyline
 90
13
 70
1
 10
242.113198
 20
288.632290
 30
0.0
 10
244.458763
 20
288.632290
 30
0.0
 10
244.458763
 20
292.468680
 30
0.0
 10
246.307387
 20
294.814250
 30
0.0
 10
249.587204
 20
288.632290
 30
0.0
 10
252.151424
 20
288.632290
 30
0.0
 10
247.718702
 20
296.583360
 30
0.0
 10
251.733993
 20
301.632290
 30
0.0
 10
249.149895
 20
301.632290
 30
0.0
 10
244.518396
 20
295.728620
 30
0.0
 10
244.458766
 20
295.728620
 30
0.0
 10
244.458766
 20
301.632290
 30
0.0
 10
242.113201
 20
301.632290
 30
0.0
  0
SPLINE
  5
153
100
AcDbEntity
  8
chars
 62
7
100
AcDbSpline
 70
8
 71
3
 72
8
 73
4
 74
0
 40
0
 40
0
 40
0
 40
0
 40
1
 40
1
 40
1
 40
1
 10
330.113550
 20
353.277940
 30
0.0
 10
330.113550
 20
351.345510
 30
0.0
 10
329.371810
 20
350.603760
 30
0.0
 10
327.810250
 20
350.603760
 30
0.0
  0
SPLINE
  5
154
100
AcDbEntity
  8
chars
 62
7
100
AcDbSpline
 70
8
 71
3
 72
8
 73
4
 74
0
 40
0
 40
0
 40
0
 40
0
 40
1
 40
1
 40
1
 40
1
 10
327.810250
 20
350.603760
 30
0.0
 10
326.892830
 20
350.603760
 30
0.0
 10
325.955890
 20
351.111270
 30
0.0
 10
325.214150
 20
352.145810
 30
0.0
  0
LWPOLYLINE
  5
155
100
AcDbEntity
  8
chars
 62
7
100
AcDbPolyline
 90
6
 70
0
 10
332.377810
 20
353.082740
 30
0.0
 10
332.377810
 20
361.632290
 30
0.0
 10
324.940880
 20
361.632290
 30
0.0
 10
324.940880
 20
359.738900
 30
0.0
 10
330.113550
 20
359.738900
 30
0.0
 10
330.113550
 20
353.277940
 30
0.0
  0
SPLINE
  5
156
100
AcDbEntity
  8
chars
 62
7
100
AcDbSpline
 70
8
 71
3
 72
8
 73
4
 74
0
 40
0
 40
0
 40
0
 40
0
 40
1
 40
1
 40
1
 40
1
 10
323.886820
 20
350.740400
 30
0.0
 10
324.882320
 20
349.237400
 30
0.0
 10
326.463400
 20
348.632290
 30
0.0
 10
327.868810
 20
348.632290
 30
0.0
  0
LWPOLYLINE
  5
157
100
AcDbEntity
  8
chars
 62
7
100
AcDbPolyline
 90
2
 70
0
 10
325.214150
 20
352.145810
 30
0.0
 10
323.886820
 20
350.740400
 30
0.0
  0
LWPOLYLINE
  5
158
100
AcDbEntity
  8
chars
 62
7
100
AcDbPolyline
 90
1
 70
1
 10
327.868810
 20
348.632290
 30
0.0
  0
LWPOLYLINE
  5
159
100
AcDbEntity
  8
chars
 62
7
100
AcDbPolyline
 90
10
 70
1
 10
161.977880
 20
228.632290
 30
0.0
 10
164.283690
 20
228.632290
 30
0.0
 10
164.283690
 20
234.058890
 30
0.0
 10
169.392250
 20
234.058890
 30
0.0
 10
169.392250
 20
236.006910
 30
0.0
 10
164.283690
 20
236.006910
 30
0.0
 10
164.283690
 20
239.684280
 30
0.0
 10
170.286750
 20
239.684280
 30
0.0
 10
170.286750
 20
241.632290
 30
0.0
 10
161.977880
 20
241.632290
 30
0.0
  0
LWPOLYLINE
  5
15a
100
AcDbEntity
  8
chars
 62
7
100
AcDbPolyline
 90
10
 70
1
 10
350.977890
 20
348.632290
 30
0.0
 10
353.283700
 20
348.632290
 30
0.0
 10
353.283700
 20
354.058900
 30
0.0
 10
358.392260
 20
354.058900
 30
0.0
 10
358.392260
 20
356.006910
 30
0.0
 10
353.283700
 20
356.006910
 30
0.0
 10
353.283700
 20
359.684280
 30
0.0
 10
359.286750
 20
359.684280
 30
0.0
 10
359.286750
 20
361.632290
 30
0.0
 10
350.977890
 20
361.632290
 30
0.0
  0
LWPOLYLINE
  5
15b
100
AcDbEntity
  8
chars
 62
7
100
AcDbPolyline
 90
6
 70
1
 10
323.938120
 20
108.632290
 30
0.0
 10
332.326500
 20
108.632290
 30
0.0
 10
332.326500
 20
110.580310
 30
0.0
 10
326.224050
 20
110.580310
 30
0.0
 10
326.224050
 20
121.632290
 30
0.0
 10
323.938120
 20
121.632290
 30
0.0
  0
SPLINE
  5
15c
100
AcDbEntity
  8
chars
 62
7
100
AcDbSpline
 70
8
 71
3
 72
8
 73
4
 74
0
 40
0
 40
0
 40
0
 40
0
 40
1
 40
1
 40
1
 40
1
 10
273.714883
 20
293.243910
 30
0.0
 10
273.893782
 20
294.058900
 30
0.0
 10
273.993171
 20
294.873880
 30
0.0
 10
274.112437
 20
295.668990
 30
0.0
  0
LWPOLYLINE
  5
15d
100
AcDbEntity
  8
chars
 62
7
100
AcDbPolyline
 90
3
 70
0
 10
270.156779
 20
288.632290
 30
0.0
 10
272.720999
 20
288.632290
 30
0.0
 10
273.714883
 20
293.243910
 30
0.0
  0
SPLINE
  5
15e
100
AcDbEntity
  8
chars
 62
7
100
AcDbSpline
 70
8
 71
3
 72
8
 73
4
 74
0
 40
0
 40
0
 40
0
 40
0
 40
1
 40
1
 40
1
 40
1
 10
274.172067
 20
295.668990
 30
0.0
 10
274.251577
 20
294.873880
 30
0.0
 10
274.410599
 20
294.058900
 30
0.0
 10
274.589498
 20
293.243910
 30
0.0
  0
LWPOLYLINE
  5
15f
100
AcDbEntity
  8
chars
 62
7
100
AcDbPolyline
 90
2
 70
0
 10
274.112437
 20
295.668990
 30
0.0
 10
274.172067
 20
295.668990
 30
0.0
  0
SPLINE
  5
160
100
AcDbEntity
  8
chars
 62
7
100
AcDbSpline
 70
8
 71
3
 72
8
 73
4
 74
0
 40
0
 40
0
 40
0
 40
0
 40
1
 40
1
 40
1
 40
1
 10
276.994697
 20
294.098650
 30
0.0
 10
276.915187
 20
293.025260
 30
0.0
 10
276.895307
 20
292.210280
 30
0.0
 10
276.835675
 20
290.977860
 30
0.0
  0
LWPOLYLINE
  5
161
100
AcDbEntity
  8
chars
 62
7
100
AcDbPolyline
 90
6
 70
0
 10
274.589498
 20
293.243910
 30
0.0
 10
275.603259
 20
288.632290
 30
0.0
 10
278.207235
 20
288.632290
 30
0.0
 10
279.956470
 20
301.632290
 30
0.0
 10
277.630782
 20
301.632290
 30
0.0
 10
276.994697
 20
294.098650
 30
0.0
  0
SPLINE
  5
162
100
AcDbEntity
  8
chars
 62
7
100
AcDbSpline
 70
8
 71
3
 72
8
 73
4
 74
0
 40
0
 40
0
 40
0
 40
0
 40
1
 40
1
 40
1
 40
1
 10
276.756165
 20
290.977860
 30
0.0
 10
276.557388
 20
292.210280
 30
0.0
 10
276.378489
 20
293.025260
 30
0.0
 10
276.120079
 20
294.098650
 30
0.0
  0
LWPOLYLINE
  5
163
100
AcDbEntity
  8
chars
 62
7
100
AcDbPolyline
 90
2
 70
0
 10
276.835675
 20
290.977860
 30
0.0
 10
276.756165
 20
290.977860
 30
0.0
  0
SPLINE
  5
164
100
AcDbEntity
  8
chars
 62
7
100
AcDbSpline
 70
8
 71
3
 72
8
 73
4
 74
0
 40
0
 40
0
 40
0
 40
0
 40
1
 40
1
 40
1
 40
1
 10
272.303565
 20
294.098650
 30
0.0
 10
272.065033
 20
293.005380
 30
0.0
 10
271.886134
 20
292.190400
 30
0.0
 10
271.667480
 20
290.977860
 30
0.0
  0
LWPOLYLINE
  5
165
100
AcDbEntity
  8
chars
 62
7
100
AcDbPolyline
 90
4
 70
0
 10
276.120079
 20
294.098650
 30
0.0
 10
275.106318
 20
298.312720
 30
0.0
 10
273.376960
 20
298.312720
 30
0.0
 10
272.303565
 20
294.098650
 30
0.0
  0
SPLINE
  5
166
100
AcDbEntity
  8
chars
 62
7
100
AcDbSpline
 70
8
 71
3
 72
8
 73
4
 74
0
 40
0
 40
0
 40
0
 40
0
 40
1
 40
1
 40
1
 40
1
 10
271.607850
 20
290.977860
 30
0.0
 10
271.568090
 20
292.190400
 30
0.0
 10
271.508460
 20
293.005380
 30
0.0
 10
271.428950
 20
294.098650
 30
0.0
  0
LWPOLYLINE
  5
167
100
AcDbEntity
  8
chars
 62
7
100
AcDbPolyline
 90
2
 70
0
 10
271.667480
 20
290.977860
 30
0.0
 10
271.607850
 20
290.977860
 30
0.0
  0
LWPOLYLINE
  5
168
100
AcDbEntity
  8
chars
 62
7
100
AcDbPolyline
 90
4
 70
0
 10
271.428950
 20
294.098650
 30
0.0
 10
270.772987
 20
301.632290
 30
0.0
 10
268.308155
 20
301.632290
 30
0.0
 10
270.156779
 20
288.632290
 30
0.0
  0
LWPOLYLINE
  5
169
100
AcDbEntity
  8
chars
 62
7
100
AcDbPolyline
 90
8
 70
1
 10
218.979400
 20
318.632260
 30
0.0
 10
221.285210
 20
318.632260
 30
0.0
 10
221.285210
 20
329.684250
 30
0.0
 10
225.380020
 20
329.684250
 30
0.0
 10
225.380020
 20
331.632260
 30
0.0
 10
214.884600
 20
331.632260
 30
0.0
 10
214.884600
 20
329.684250
 30
0.0
 10
218.979400
 20
329.684250
 30
0.0
  0
SPLINE
  5
16a
100
AcDbEntity
  8
chars
 62
7
100
AcDbSpline
 70
8
 71
3
 72
8
 73
4
 74
0
 40
0
 40
0
 40
0
 40
0
 40
1
 40
1
 40
1
 40
1
 10
247.956795
 20
198.632300
 30
0.0
 10
249.624935
 20
198.632300
 30
0.0
 10
250.947945
 20
199.284210
 30
0.0
 10
251.944995
 20
200.453830
 30
0.0
  0
LWPOLYLINE
  5
16b
100
AcDbEntity
  8
chars
 62
7
100
AcDbPolyline
 90
10
 70
1
 10
242.341790
 20
318.632260
 30
0.0
 10
251.922830
 20
318.632260
 30
0.0
 10
251.922830
 20
320.580280
 30
0.0
 10
245.164420
 20
320.580280
 30
0.0
 10
251.843310
 20
330.240830
 30
0.0
 10
251.843310
 20
331.632260
 30
0.0
 10
242.938120
 20
331.632260
 30
0.0
 10
242.938120
 20
329.704130
 30
0.0
 10
249.000810
 20
329.704130
 30
0.0
 10
242.341790
 20
320.023700
 30
0.0
  0
SPLINE
  5
16c
100
AcDbEntity
  8
chars
 62
7
100
AcDbSpline
 70
8
 71
3
 72
8
 73
4
 74
0
 40
0
 40
0
 40
0
 40
0
 40
1
 40
1
 40
1
 40
1
 10
250.717855
 20
201.815190
 30
0.0
 10
250.008415
 20
201.029050
 30
0.0
 10
249.183935
 20
200.568880
 30
0.0
 10
248.167705
 20
200.568880
 30
0.0
  0
SPLINE
  5
16d
100
AcDbEntity
  8
chars
 62
7
100
AcDbSpline
 70
8
 71
3
 72
8
 73
4
 74
0
 40
0
 40
0
 40
0
 40
0
 40
1
 40
1
 40
1
 40
1
 10
248.167705
 20
200.568880
 30
0.0
 10
246.020215
 20
200.568880
 30
0.0
 10
244.601335
 20
202.294540
 30
0.0
 10
244.601335
 20
205.151470
 30
0.0
  0
SPLINE
  5
16e
100
AcDbEntity
  8
chars
 62
7
100
AcDbSpline
 70
8
 71
3
 72
8
 73
4
 74
0
 40
0
 40
0
 40
0
 40
0
 40
1
 40
1
 40
1
 40
1
 10
244.601335
 20
205.151470
 30
0.0
 10
244.601335
 20
207.970060
 30
0.0
 10
246.020215
 20
209.695720
 30
0.0
 10
248.110185
 20
209.695720
 30
0.0
  0
SPLINE
  5
16f
100
AcDbEntity
  8
chars
 62
7
100
AcDbSpline
 70
8
 71
3
 72
8
 73
4
 74
0
 40
0
 40
0
 40
0
 40
0
 40
1
 40
1
 40
1
 40
1
 10
248.110185
 20
209.695720
 30
0.0
 10
249.088065
 20
209.695720
 30
0.0
 10
249.835855
 20
209.293060
 30
0.0
 10
250.468595
 20
208.679500
 30
0.0
  0
LWPOLYLINE
  5
170
100
AcDbEntity
  8
chars
 62
7
100
AcDbPolyline
 90
2
 70
0
 10
251.944995
 20
200.453830
 30
0.0
 10
250.717855
 20
201.815190
 30
0.0
  0
SPLINE
  5
171
100
AcDbEntity
  8
chars
 62
7
100
AcDbSpline
 70
8
 71
3
 72
8
 73
4
 74
0
 40
0
 40
0
 40
0
 40
0
 40
1
 40
1
 40
1
 40
1
 10
251.695735
 20
210.060030
 30
0.0
 10
250.909595
 20
210.884510
 30
0.0
 10
249.663285
 20
211.632300
 30
0.0
 10
248.110185
 20
211.632300
 30
0.0
  0
SPLINE
  5
172
100
AcDbEntity
  8
chars
 62
7
100
AcDbSpline
 70
8
 71
3
 72
8
 73
4
 74
0
 40
0
 40
0
 40
0
 40
0
 40
1
 40
1
 40
1
 40
1
 10
248.110185
 20
211.632300
 30
0.0
 10
244.793075
 20
211.632300
 30
0.0
 10
242.319625
 20
209.197190
 30
0.0
 10
242.319625
 20
205.093950
 30
0.0
  0
SPLINE
  5
173
100
AcDbEntity
  8
chars
 62
7
100
AcDbSpline
 70
8
 71
3
 72
8
 73
4
 74
0
 40
0
 40
0
 40
0
 40
0
 40
1
 40
1
 40
1
 40
1
 10
242.319625
 20
205.093950
 30
0.0
 10
242.319625
 20
200.933180
 30
0.0
 10
244.850605
 20
198.632300
 30
0.0
 10
247.956795
 20
198.632300
 30
0.0
  0
LWPOLYLINE
  5
174
100
AcDbEntity
  8
chars
 62
7
100
AcDbPolyline
 90
2
 70
0
 10
250.468595
 20
208.679500
 30
0.0
 10
251.695735
 20
210.060030
 30
0.0
  0
LWPOLYLINE
  5
175
100
AcDbEntity
  8
chars
 62
7
100
AcDbPolyline
 90
1
 70
1
 10
247.956795
 20
198.632300
 30
0.0
  0
LWPOLYLINE
  5
176
100
AcDbEntity
  8
chars
 62
7
100
AcDbPolyline
 90
12
 70
1
 10
323.868545
 20
258.632270
 30
0.0
 10
332.396075
 20
258.632270
 30
0.0
 10
332.396075
 20
260.580282
 30
0.0
 10
326.174355
 20
260.580282
 30
0.0
 10
326.174355
 20
264.416673
 30
0.0
 10
331.282925
 20
264.416673
 30
0.0
 10
331.282925
 20
266.364686
 30
0.0
 10
326.174355
 20
266.364686
 30
0.0
 10
326.174355
 20
269.684258
 30
0.0
 10
332.197295
 20
269.684258
 30
0.0
 10
332.197295
 20
271.632270
 30
0.0
 10
323.868545
 20
271.632270
 30
0.0
  0
SPLINE
  5
177
100
AcDbEntity
  8
chars
 62
7
100
AcDbSpline
 70
8
 71
3
 72
8
 73
4
 74
0
 40
0
 40
0
 40
0
 40
0
 40
1
 40
1
 40
1
 40
1
 10
302.364725
 20
265.092520
 30
0.0
 10
301.967165
 20
263.621570
 30
0.0
 10
301.669005
 20
262.349400
 30
0.0
 10
301.231695
 20
260.858570
 30
0.0
  0
LWPOLYLINE
  5
178
100
AcDbEntity
  8
chars
 62
7
100
AcDbPolyline
 90
5
 70
0
 10
299.780625
 20
258.632270
 30
0.0
 10
302.503865
 20
258.632270
 30
0.0
 10
306.539035
 20
271.632270
 30
0.0
 10
304.173585
 20
271.632270
 30
0.0
 10
302.364725
 20
265.092520
 30
0.0
  0
SPLINE
  5
179
100
AcDbEntity
  8
chars
 62
7
100
AcDbSpline
 70
8
 71
3
 72
8
 73
4
 74
0
 40
0
 40
0
 40
0
 40
0
 40
1
 40
1
 40
1
 40
1
 10
301.152195
 20
260.858570
 30
0.0
 10
300.714885
 20
262.349400
 30
0.0
 10
300.416715
 20
263.621570
 30
0.0
 10
299.999285
 20
265.092520
 30
0.0
  0
LWPOLYLINE
  5
17a
100
AcDbEntity
  8
chars
 62
7
100
AcDbPolyline
 90
2
 70
0
 10
301.231695
 20
260.858570
 30
0.0
 10
301.152195
 20
260.858570
 30
0.0
  0
LWPOLYLINE
  5
17b
100
AcDbEntity
  8
chars
 62
7
100
AcDbPolyline
 90
4
 70
0
 10
299.999285
 20
265.092520
 30
0.0
 10
298.170545
 20
271.632270
 30
0.0
 10
295.725585
 20
271.632270
 30
0.0
 10
299.780625
 20
258.632270
 30
0.0
  0
SPLINE
  5
17c
100
AcDbEntity
  8
chars
 62
7
100
AcDbSpline
 70
8
 71
3
 72
8
 73
4
 74
0
 40
0
 40
0
 40
0
 40
0
 40
1
 40
1
 40
1
 40
1
 10
86.364740
 20
265.092514
 30
0.0
 10
85.967180
 20
263.621566
 30
0.0
 10
85.669020
 20
262.349395
 30
0.0
 10
85.231710
 20
260.858569
 30
0.0
  0
LWPOLYLINE
  5
17d
100
AcDbEntity
  8
chars
 62
7
100
AcDbPolyline
 90
5
 70
0
 10
83.780640
 20
258.632270
 30
0.0
 10
86.503880
 20
258.632270
 30
0.0
 10
90.539050
 20
271.632270
 30
0.0
 10
88.173600
 20
271.632270
 30
0.0
 10
86.364740
 20
265.092514
 30
0.0
  0
SPLINE
  5
17e
100
AcDbEntity
  8
chars
 62
7
100
AcDbSpline
 70
8
 71
3
 72
8
 73
4
 74
0
 40
0
 40
0
 40
0
 40
0
 40
1
 40
1
 40
1
 40
1
 10
85.152210
 20
260.858569
 30
0.0
 10
84.714900
 20
262.349395
 30
0.0
 10
84.416730
 20
263.621566
 30
0.0
 10
83.999300
 20
265.092514
 30
0.0
  0
LWPOLYLINE
  5
17f
100
AcDbEntity
  8
chars
 62
7
100
AcDbPolyline
 90
2
 70
0
 10
85.231710
 20
260.858569
 30
0.0
 10
85.152210
 20
260.858569
 30
0.0
  0
LWPOLYLINE
  5
180
100
AcDbEntity
  8
chars
 62
7
100
AcDbPolyline
 90
4
 70
0
 10
83.999300
 20
265.092514
 30
0.0
 10
82.170560
 20
271.632270
 30
0.0
 10
79.725600
 20
271.632270
 30
0.0
 10
83.780640
 20
258.632270
 30
0.0
  0
LWPOLYLINE
  5
181
100
AcDbEntity
  8
chars
 62
7
100
AcDbPolyline
 90
8
 70
1
 10
191.979400
 20
228.632290
 30
0.0
 10
194.285210
 20
228.632290
 30
0.0
 10
194.285210
 20
239.684278
 30
0.0
 10
198.380020
 20
239.684278
 30
0.0
 10
198.380020
 20
241.632290
 30
0.0
 10
187.884600
 20
241.632290
 30
0.0
 10
187.884600
 20
239.684278
 30
0.0
 10
191.979400
 20
239.684278
 30
0.0
  0
LWPOLYLINE
  5
182
100
AcDbEntity
  8
chars
 62
7
100
AcDbPolyline
 90
12
 70
1
 10
215.600204
 20
228.632290
 30
0.0
 10
217.906015
 20
228.632290
 30
0.0
 10
217.906015
 20
234.396820
 30
0.0
 10
222.358614
 20
234.396820
 30
0.0
 10
222.358614
 20
228.632290
 30
0.0
 10
224.664425
 20
228.632290
 30
0.0
 10
224.664425
 20
241.632290
 30
0.0
 10
222.358614
 20
241.632290
 30
0.0
 10
222.358614
 20
236.404470
 30
0.0
 10
217.906015
 20
236.404470
 30
0.0
 10
217.906015
 20
241.632290
 30
0.0
 10
215.600204
 20
241.632290
 30
0.0
  0
LWPOLYLINE
  5
183
100
AcDbEntity
  8
chars
 62
7
100
AcDbPolyline
 90
12
 70
1
 10
269.868550
 20
228.632290
 30
0.0
 10
278.396073
 20
228.632290
 30
0.0
 10
278.396073
 20
230.580302
 30
0.0
 10
272.174360
 20
230.580302
 30
0.0
 10
272.174360
 20
234.416694
 30
0.0
 10
277.282923
 20
234.416694
 30
0.0
 10
277.282923
 20
236.364706
 30
0.0
 10
272.174360
 20
236.364706
 30
0.0
 10
272.174360
 20
239.684278
 30
0.0
 10
278.197296
 20
239.684278
 30
0.0
 10
278.197296
 20
241.632290
 30
0.0
 10
269.868550
 20
241.632290
 30
0.0
  0
LWPOLYLINE
  5
184
100
AcDbEntity
  8
chars
 62
7
100
AcDbPolyline
 90
12
 70
1
 10
296.868550
 20
228.632290
 30
0.0
 10
305.396073
 20
228.632290
 30
0.0
 10
305.396073
 20
230.580302
 30
0.0
 10
299.174360
 20
230.580302
 30
0.0
 10
299.174360
 20
234.416694
 30
0.0
 10
304.282923
 20
234.416694
 30
0.0
 10
304.282923
 20
236.364706
 30
0.0
 10
299.174360
 20
236.364706
 30
0.0
 10
299.174360
 20
239.684278
 30
0.0
 10
305.197296
 20
239.684278
 30
0.0
 10
305.197296
 20
241.632290
 30
0.0
 10
296.868550
 20
241.632290
 30
0.0
  0
SPLINE
  5
185
100
AcDbEntity
  8
chars
 62
7
100
AcDbSpline
 70
8
 71
3
 72
8
 73
4
 74
0
 40
0
 40
0
 40
0
 40
0
 40
1
 40
1
 40
1
 40
1
 10
325.846390
 20
234.317306
 30
0.0
 10
325.846390
 20
235.768376
 30
0.0
 10
325.627740
 20
237.318835
 30
0.0
 10
325.528350
 20
238.710272
 30
0.0
  0
LWPOLYLINE
  5
186
100
AcDbEntity
  8
chars
 62
7
100
AcDbPolyline
 90
3
 70
0
 10
323.639970
 20
228.632290
 30
0.0
 10
325.846390
 20
228.632290
 30
0.0
 10
325.846390
 20
234.317306
 30
0.0
  0
SPLINE
  5
187
100
AcDbEntity
  8
chars
 62
7
100
AcDbSpline
 70
8
 71
3
 72
8
 73
4
 74
0
 40
0
 40
0
 40
0
 40
0
 40
1
 40
1
 40
1
 40
1
 10
330.418230
 20
235.987030
 30
0.0
 10
330.418230
 20
234.535960
 30
0.0
 10
330.636880
 20
232.886113
 30
0.0
 10
330.736270
 20
231.554309
 30
0.0
  0
LWPOLYLINE
  5
188
100
AcDbEntity
  8
chars
 62
7
100
AcDbPolyline
 90
8
 70
0
 10
325.528350
 20
238.710272
 30
0.0
 10
325.587950
 20
238.710272
 30
0.0
 10
326.760730
 20
235.947275
 30
0.0
 10
330.199570
 20
228.632290
 30
0.0
 10
332.624650
 20
228.632290
 30
0.0
 10
332.624650
 20
241.632290
 30
0.0
 10
330.418230
 20
241.632290
 30
0.0
 10
330.418230
 20
235.987030
 30
0.0
  0
SPLINE
  5
189
100
AcDbEntity
  8
chars
 62
7
100
AcDbSpline
 70
8
 71
3
 72
8
 73
4
 74
0
 40
0
 40
0
 40
0
 40
0
 40
1
 40
1
 40
1
 40
1
 10
355.151500
 20
228.632290
 30
0.0
 10
358.065950
 20
228.632290
 30
0.0
 10
359.791610
 20
230.319610
 30
0.0
 10
359.791610
 20
232.352060
 30
0.0
  0
SPLINE
  5
18a
100
AcDbEntity
  8
chars
 62
7
100
AcDbSpline
 70
8
 71
3
 72
8
 73
4
 74
0
 40
0
 40
0
 40
0
 40
0
 40
1
 40
1
 40
1
 40
1
 10
359.791610
 20
232.352060
 30
0.0
 10
359.791610
 20
234.173590
 30
0.0
 10
358.660350
 20
235.113120
 30
0.0
 10
357.068900
 20
235.745860
 30
0.0
  0
LWPOLYLINE
  5
18b
100
AcDbEntity
  8
chars
 62
7
100
AcDbPolyline
 90
6
 70
0
 10
330.736270
 20
231.554309
 30
0.0
 10
330.676670
 20
231.554309
 30
0.0
 10
329.503880
 20
234.337183
 30
0.0
 10
326.065050
 20
241.632290
 30
0.0
 10
323.639970
 20
241.632290
 30
0.0
 10
323.639970
 20
228.632290
 30
0.0
  0
SPLINE
  5
18c
100
AcDbEntity
  8
chars
 62
7
100
AcDbSpline
 70
8
 71
3
 72
8
 73
4
 74
0
 40
0
 40
0
 40
0
 40
0
 40
1
 40
1
 40
1
 40
1
 10
355.419930
 20
236.455300
 30
0.0
 10
354.288660
 20
236.896300
 30
0.0
 10
353.272440
 20
237.260610
 30
0.0
 10
353.272440
 20
238.219310
 30
0.0
  0
SPLINE
  5
18d
100
AcDbEntity
  8
chars
 62
7
100
AcDbSpline
 70
8
 71
3
 72
8
 73
4
 74
0
 40
0
 40
0
 40
0
 40
0
 40
1
 40
1
 40
1
 40
1
 10
353.272440
 20
238.219310
 30
0.0
 10
353.272440
 20
239.158840
 30
0.0
 10
354.077750
 20
239.695710
 30
0.0
 10
355.266540
 20
239.695710
 30
0.0
  0
SPLINE
  5
18e
100
AcDbEntity
  8
chars
 62
7
100
AcDbSpline
 70
8
 71
3
 72
8
 73
4
 74
0
 40
0
 40
0
 40
0
 40
0
 40
1
 40
1
 40
1
 40
1
 10
355.266540
 20
239.695710
 30
0.0
 10
356.532030
 20
239.695710
 30
0.0
 10
357.414030
 20
239.293060
 30
0.0
 10
358.257690
 20
238.621970
 30
0.0
  0
LWPOLYLINE
  5
18f
100
AcDbEntity
  8
chars
 62
7
100
AcDbPolyline
 90
2
 70
0
 10
357.068900
 20
235.745860
 30
0.0
 10
355.419930
 20
236.455300
 30
0.0
  0
SPLINE
  5
190
100
AcDbEntity
  8
chars
 62
7
100
AcDbSpline
 70
8
 71
3
 72
8
 73
4
 74
0
 40
0
 40
0
 40
0
 40
0
 40
1
 40
1
 40
1
 40
1
 10
359.408130
 20
240.040850
 30
0.0
 10
358.372740
 20
241.018720
 30
0.0
 10
356.915510
 20
241.632290
 30
0.0
 10
355.381590
 20
241.632290
 30
0.0
  0
SPLINE
  5
191
100
AcDbEntity
  8
chars
 62
7
100
AcDbSpline
 70
8
 71
3
 72
8
 73
4
 74
0
 40
0
 40
0
 40
0
 40
0
 40
1
 40
1
 40
1
 40
1
 10
355.381590
 20
241.632290
 30
0.0
 10
352.831440
 20
241.632290
 30
0.0
 10
351.029080
 20
240.098370
 30
0.0
 10
351.029080
 20
238.104270
 30
0.0
  0
SPLINE
  5
192
100
AcDbEntity
  8
chars
 62
7
100
AcDbSpline
 70
8
 71
3
 72
8
 73
4
 74
0
 40
0
 40
0
 40
0
 40
0
 40
1
 40
1
 40
1
 40
1
 10
351.029080
 20
238.104270
 30
0.0
 10
351.029080
 20
236.263560
 30
0.0
 10
352.390430
 20
235.285680
 30
0.0
 10
353.713440
 20
234.767990
 30
0.0
  0
LWPOLYLINE
  5
193
100
AcDbEntity
  8
chars
 62
7
100
AcDbPolyline
 90
2
 70
0
 10
358.257690
 20
238.621970
 30
0.0
 10
359.408130
 20
240.040850
 30
0.0
  0
SPLINE
  5
194
100
AcDbEntity
  8
chars
 62
7
100
AcDbSpline
 70
8
 71
3
 72
8
 73
4
 74
0
 40
0
 40
0
 40
0
 40
0
 40
1
 40
1
 40
1
 40
1
 10
355.419930
 20
234.020200
 30
0.0
 10
356.666250
 20
233.502500
 30
0.0
 10
357.529080
 20
233.195710
 30
0.0
 10
357.529080
 20
232.083620
 30
0.0
  0
SPLINE
  5
195
100
AcDbEntity
  8
chars
 62
7
100
AcDbSpline
 70
8
 71
3
 72
8
 73
4
 74
0
 40
0
 40
0
 40
0
 40
0
 40
1
 40
1
 40
1
 40
1
 10
357.529080
 20
232.083620
 30
0.0
 10
357.529080
 20
231.201610
 30
0.0
 10
356.742940
 20
230.568870
 30
0.0
 10
355.285720
 20
230.568870
 30
0.0
  0
SPLINE
  5
196
100
AcDbEntity
  8
chars
 62
7
100
AcDbSpline
 70
8
 71
3
 72
8
 73
4
 74
0
 40
0
 40
0
 40
0
 40
0
 40
1
 40
1
 40
1
 40
1
 10
355.285720
 20
230.568870
 30
0.0
 10
353.962710
 20
230.568870
 30
0.0
 10
352.716390
 20
231.144090
 30
0.0
 10
351.776870
 20
231.987750
 30
0.0
  0
LWPOLYLINE
  5
197
100
AcDbEntity
  8
chars
 62
7
100
AcDbPolyline
 90
2
 70
0
 10
353.713440
 20
234.767990
 30
0.0
 10
355.419930
 20
234.020200
 30
0.0
  0
SPLINE
  5
198
100
AcDbEntity
  8
chars
 62
7
100
AcDbSpline
 70
8
 71
3
 72
8
 73
4
 74
0
 40
0
 40
0
 40
0
 40
0
 40
1
 40
1
 40
1
 40
1
 10
350.473030
 20
230.473000
 30
0.0
 10
351.719340
 20
229.303380
 30
0.0
 10
353.387480
 20
228.632290
 30
0.0
 10
355.151500
 20
228.632290
 30
0.0
  0
LWPOLYLINE
  5
199
100
AcDbEntity
  8
chars
 62
7
100
AcDbPolyline
 90
2
 70
0
 10
351.776870
 20
231.987750
 30
0.0
 10
350.473030
 20
230.473000
 30
0.0
  0
LWPOLYLINE
  5
19a
100
AcDbEntity
  8
chars
 62
7
100
AcDbPolyline
 90
1
 70
1
 10
355.151500
 20
228.632290
 30
0.0
  0
LWPOLYLINE
  5
19b
100
AcDbEntity
  8
chars
 62
7
100
AcDbPolyline
 90
8
 70
1
 10
83.979410
 20
198.632300
 30
0.0
 10
86.285220
 20
198.632300
 30
0.0
 10
86.285220
 20
209.684288
 30
0.0
 10
90.380030
 20
209.684288
 30
0.0
 10
90.380030
 20
211.632300
 30
0.0
 10
79.884610
 20
211.632300
 30
0.0
 10
79.884610
 20
209.684288
 30
0.0
 10
83.979410
 20
209.684288
 30
0.0
  0
SPLINE
  5
19c
100
AcDbEntity
  8
chars
 62
7
100
AcDbSpline
 70
8
 71
3
 72
8
 73
4
 74
0
 40
0
 40
0
 40
0
 40
0
 40
1
 40
1
 40
1
 40
1
 10
111.714891
 20
203.243920
 30
0.0
 10
111.893790
 20
204.058910
 30
0.0
 10
111.993179
 20
204.873890
 30
0.0
 10
112.112445
 20
205.669000
 30
0.0
  0
LWPOLYLINE
  5
19d
100
AcDbEntity
  8
chars
 62
7
100
AcDbPolyline
 90
3
 70
0
 10
108.156787
 20
198.632300
 30
0.0
 10
110.721007
 20
198.632300
 30
0.0
 10
111.714891
 20
203.243920
 30
0.0
  0
SPLINE
  5
19e
100
AcDbEntity
  8
chars
 62
7
100
AcDbSpline
 70
8
 71
3
 72
8
 73
4
 74
0
 40
0
 40
0
 40
0
 40
0
 40
1
 40
1
 40
1
 40
1
 10
112.172075
 20
205.669000
 30
0.0
 10
112.251585
 20
204.873890
 30
0.0
 10
112.410607
 20
204.058910
 30
0.0
 10
112.589506
 20
203.243920
 30
0.0
  0
LWPOLYLINE
  5
19f
100
AcDbEntity
  8
chars
 62
7
100
AcDbPolyline
 90
2
 70
0
 10
112.112445
 20
205.669000
 30
0.0
 10
112.172075
 20
205.669000
 30
0.0
  0
SPLINE
  5
1a0
100
AcDbEntity
  8
chars
 62
7
100
AcDbSpline
 70
8
 71
3
 72
8
 73
4
 74
0
 40
0
 40
0
 40
0
 40
0
 40
1
 40
1
 40
1
 40
1
 10
114.994705
 20
204.098660
 30
0.0
 10
114.915195
 20
203.025270
 30
0.0
 10
114.895315
 20
202.210290
 30
0.0
 10
114.835683
 20
200.977870
 30
0.0
  0
LWPOLYLINE
  5
1a1
100
AcDbEntity
  8
chars
 62
7
100
AcDbPolyline
 90
6
 70
0
 10
112.589506
 20
203.243920
 30
0.0
 10
113.603267
 20
198.632300
 30
0.0
 10
116.207243
 20
198.632300
 30
0.0
 10
117.956478
 20
211.632300
 30
0.0
 10
115.630790
 20
211.632300
 30
0.0
 10
114.994705
 20
204.098660
 30
0.0
  0
SPLINE
  5
1a2
100
AcDbEntity
  8
chars
 62
7
100
AcDbSpline
 70
8
 71
3
 72
8
 73
4
 74
0
 40
0
 40
0
 40
0
 40
0
 40
1
 40
1
 40
1
 40
1
 10
114.756173
 20
200.977870
 30
0.0
 10
114.557396
 20
202.210290
 30
0.0
 10
114.378497
 20
203.025270
 30
0.0
 10
114.120087
 20
204.098660
 30
0.0
  0
LWPOLYLINE
  5
1a3
100
AcDbEntity
  8
chars
 62
7
100
AcDbPolyline
 90
2
 70
0
 10
114.835683
 20
200.977870
 30
0.0
 10
114.756173
 20
200.977870
 30
0.0
  0
SPLINE
  5
1a4
100
AcDbEntity
  8
chars
 62
7
100
AcDbSpline
 70
8
 71
3
 72
8
 73
4
 74
0
 40
0
 40
0
 40
0
 40
0
 40
1
 40
1
 40
1
 40
1
 10
110.303573
 20
204.098660
 30
0.0
 10
110.065041
 20
203.005390
 30
0.0
 10
109.886142
 20
202.190410
 30
0.0
 10
109.667488
 20
200.977870
 30
0.0
  0
LWPOLYLINE
  5
1a5
100
AcDbEntity
  8
chars
 62
7
100
AcDbPolyline
 90
4
 70
0
 10
114.120087
 20
204.098660
 30
0.0
 10
113.106326
 20
208.312730
 30
0.0
 10
111.376968
 20
208.312730
 30
0.0
 10
110.303573
 20
204.098660
 30
0.0
  0
SPLINE
  5
1a6
100
AcDbEntity
  8
chars
 62
7
100
AcDbSpline
 70
8
 71
3
 72
8
 73
4
 74
0
 40
0
 40
0
 40
0
 40
0
 40
1
 40
1
 40
1
 40
1
 10
109.607858
 20
200.977870
 30
0.0
 10
109.568098
 20
202.190410
 30
0.0
 10
109.508468
 20
203.005390
 30
0.0
 10
109.428958
 20
204.098660
 30
0.0
  0
LWPOLYLINE
  5
1a7
100
AcDbEntity
  8
chars
 62
7
100
AcDbPolyline
 90
2
 70
0
 10
109.667488
 20
200.977870
 30
0.0
 10
109.607858
 20
200.977870
 30
0.0
  0
LWPOLYLINE
  5
1a8
100
AcDbEntity
  8
chars
 62
7
100
AcDbPolyline
 90
4
 70
0
 10
109.428958
 20
204.098660
 30
0.0
 10
108.772995
 20
211.632300
 30
0.0
 10
106.308163
 20
211.632300
 30
0.0
 10
108.156787
 20
198.632300
 30
0.0
  0
LWPOLYLINE
  5
1a9
100
AcDbEntity
  8
chars
 62
7
100
AcDbPolyline
 90
12
 70
1
 10
134.868550
 20
198.632300
 30
0.0
 10
143.396080
 20
198.632300
 30
0.0
 10
143.396080
 20
200.580312
 30
0.0
 10
137.174360
 20
200.580312
 30
0.0
 10
137.174360
 20
204.416703
 30
0.0
 10
142.282930
 20
204.416703
 30
0.0
 10
142.282930
 20
206.364716
 30
0.0
 10
137.174360
 20
206.364716
 30
0.0
 10
137.174360
 20
209.684288
 30
0.0
 10
143.197300
 20
209.684288
 30
0.0
 10
143.197300
 20
211.632300
 30
0.0
 10
134.868550
 20
211.632300
 30
0.0
  0
LWPOLYLINE
  5
1aa
100
AcDbEntity
  8
chars
 62
7
100
AcDbPolyline
 90
12
 70
1
 10
161.868555
 20
198.632300
 30
0.0
 10
170.396085
 20
198.632300
 30
0.0
 10
170.396085
 20
200.580312
 30
0.0
 10
164.174365
 20
200.580312
 30
0.0
 10
164.174365
 20
204.416703
 30
0.0
 10
169.282935
 20
204.416703
 30
0.0
 10
169.282935
 20
206.364716
 30
0.0
 10
164.174365
 20
206.364716
 30
0.0
 10
164.174365
 20
209.684288
 30
0.0
 10
170.197305
 20
209.684288
 30
0.0
 10
170.197305
 20
211.632300
 30
0.0
 10
161.868555
 20
211.632300
 30
0.0
  0
SPLINE
  5
1ab
100
AcDbEntity
  8
chars
 62
7
100
AcDbSpline
 70
8
 71
3
 72
8
 73
4
 74
0
 40
0
 40
0
 40
0
 40
0
 40
1
 40
1
 40
1
 40
1
 10
217.448890
 20
203.880010
 30
0.0
 10
217.448890
 20
205.251570
 30
0.0
 10
217.250120
 20
207.935050
 30
0.0
 10
217.110970
 20
209.207220
 30
0.0
  0
LWPOLYLINE
  5
1ac
100
AcDbEntity
  8
chars
 62
7
100
AcDbPolyline
 90
3
 70
0
 10
215.461130
 20
198.632300
 30
0.0
 10
217.448890
 20
198.632300
 30
0.0
 10
217.448890
 20
203.880010
 30
0.0
  0
SPLINE
  5
1ad
100
AcDbEntity
  8
chars
 62
7
100
AcDbSpline
 70
8
 71
3
 72
8
 73
4
 74
0
 40
0
 40
0
 40
0
 40
0
 40
1
 40
1
 40
1
 40
1
 10
223.113960
 20
209.207220
 30
0.0
 10
222.994690
 20
207.935050
 30
0.0
 10
222.776040
 20
205.251570
 30
0.0
 10
222.776040
 20
203.880010
 30
0.0
  0
LWPOLYLINE
  5
1ae
100
AcDbEntity
  8
chars
 62
7
100
AcDbPolyline
 90
8
 70
0
 10
217.110970
 20
209.207220
 30
0.0
 10
217.170570
 20
209.207220
 30
0.0
 10
218.025310
 20
206.185820
 30
0.0
 10
219.436620
 20
202.071140
 30
0.0
 10
220.748550
 20
202.071140
 30
0.0
 10
222.179740
 20
206.185820
 30
0.0
 10
223.054360
 20
209.207220
 30
0.0
 10
223.113960
 20
209.207220
 30
0.0
  0
LWPOLYLINE
  5
1af
100
AcDbEntity
  8
chars
 62
7
100
AcDbPolyline
 90
12
 70
0
 10
222.776040
 20
203.880010
 30
0.0
 10
222.776040
 20
198.632300
 30
0.0
 10
224.803560
 20
198.632300
 30
0.0
 10
224.803560
 20
211.632300
 30
0.0
 10
222.259220
 20
211.632300
 30
0.0
 10
220.688880
 20
206.563490
 30
0.0
 10
220.172060
 20
204.615480
 30
0.0
 10
220.092560
 20
204.615480
 30
0.0
 10
219.555870
 20
206.563490
 30
0.0
 10
218.005410
 20
211.632300
 30
0.0
 10
215.461070
 20
211.632300
 30
0.0
 10
215.461130
 20
198.632300
 30
0.0
  0
LWPOLYLINE
  5
1b0
100
AcDbEntity
  8
chars
 62
7
100
AcDbPolyline
 90
12
 70
1
 10
323.838740
 20
198.632300
 30
0.0
 10
332.425890
 20
198.632300
 30
0.0
 10
332.425890
 20
200.580312
 30
0.0
 10
329.285220
 20
200.580312
 30
0.0
 10
329.285220
 20
209.684288
 30
0.0
 10
332.425890
 20
209.684288
 30
0.0
 10
332.425890
 20
211.632300
 30
0.0
 10
323.838740
 20
211.632300
 30
0.0
 10
323.838740
 20
209.684288
 30
0.0
 10
326.979410
 20
209.684288
 30
0.0
 10
326.979410
 20
200.580312
 30
0.0
 10
323.838740
 20
200.580312
 30
0.0
  0
LWPOLYLINE
  5
1b1
100
AcDbEntity
  8
chars
 62
7
100
AcDbPolyline
 90
12
 70
1
 10
350.868560
 20
198.632300
 30
0.0
 10
359.396090
 20
198.632300
 30
0.0
 10
359.396090
 20
200.580312
 30
0.0
 10
353.174370
 20
200.580312
 30
0.0
 10
353.174370
 20
204.416703
 30
0.0
 10
358.282940
 20
204.416703
 30
0.0
 10
358.282940
 20
206.364716
 30
0.0
 10
353.174370
 20
206.364716
 30
0.0
 10
353.174370
 20
209.684288
 30
0.0
 10
359.197310
 20
209.684288
 30
0.0
 10
359.197310
 20
211.632300
 30
0.0
 10
350.868560
 20
211.632300
 30
0.0
  0
SPLINE
  5
1b2
100
AcDbEntity
  8
chars
 62
7
100
AcDbSpline
 70
8
 71
3
 72
8
 73
4
 74
0
 40
0
 40
0
 40
0
 40
0
 40
1
 40
1
 40
1
 40
1
 10
86.364740
 20
175.092530
 30
0.0
 10
85.967180
 20
173.621580
 30
0.0
 10
85.669020
 20
172.349410
 30
0.0
 10
85.231710
 20
170.858580
 30
0.0
  0
LWPOLYLINE
  5
1b3
100
AcDbEntity
  8
chars
 62
7
100
AcDbPolyline
 90
5
 70
0
 10
83.780640
 20
168.632280
 30
0.0
 10
86.503880
 20
168.632280
 30
0.0
 10
90.539050
 20
181.632280
 30
0.0
 10
88.173600
 20
181.632280
 30
0.0
 10
86.364740
 20
175.092530
 30
0.0
  0
SPLINE
  5
1b4
100
AcDbEntity
  8
chars
 62
7
100
AcDbSpline
 70
8
 71
3
 72
8
 73
4
 74
0
 40
0
 40
0
 40
0
 40
0
 40
1
 40
1
 40
1
 40
1
 10
85.152210
 20
170.858580
 30
0.0
 10
84.714900
 20
172.349410
 30
0.0
 10
84.416730
 20
173.621580
 30
0.0
 10
83.999300
 20
175.092530
 30
0.0
  0
LWPOLYLINE
  5
1b5
100
AcDbEntity
  8
chars
 62
7
100
AcDbPolyline
 90
2
 70
0
 10
85.231710
 20
170.858580
 30
0.0
 10
85.152210
 20
170.858580
 30
0.0
  0
LWPOLYLINE
  5
1b6
100
AcDbEntity
  8
chars
 62
7
100
AcDbPolyline
 90
4
 70
0
 10
83.999300
 20
175.092530
 30
0.0
 10
82.170560
 20
181.632280
 30
0.0
 10
79.725600
 20
181.632280
 30
0.0
 10
83.780640
 20
168.632280
 30
0.0
  0
LWPOLYLINE
  5
1b7
100
AcDbEntity
  8
chars
 62
7
100
AcDbPolyline
 90
12
 70
1
 10
107.838745
 20
168.632278
 30
0.0
 10
116.425895
 20
168.632278
 30
0.0
 10
116.425895
 20
170.580290
 30
0.0
 10
113.285225
 20
170.580290
 30
0.0
 10
113.285225
 20
179.684266
 30
0.0
 10
116.425895
 20
179.684266
 30
0.0
 10
116.425895
 20
181.632278
 30
0.0
 10
107.838745
 20
181.632278
 30
0.0
 10
107.838745
 20
179.684266
 30
0.0
 10
110.979415
 20
179.684266
 30
0.0
 10
110.979415
 20
170.580290
 30
0.0
 10
107.838745
 20
170.580290
 30
0.0
  0
LWPOLYLINE
  5
1b8
100
AcDbEntity
  8
chars
 62
7
100
AcDbPolyline
 90
12
 70
1
 10
134.868550
 20
168.632280
 30
0.0
 10
143.396080
 20
168.632280
 30
0.0
 10
143.396080
 20
170.580292
 30
0.0
 10
137.174360
 20
170.580292
 30
0.0
 10
137.174360
 20
174.416683
 30
0.0
 10
142.282930
 20
174.416683
 30
0.0
 10
142.282930
 20
176.364696
 30
0.0
 10
137.174360
 20
176.364696
 30
0.0
 10
137.174360
 20
179.684268
 30
0.0
 10
143.197300
 20
179.684268
 30
0.0
 10
143.197300
 20
181.632280
 30
0.0
 10
134.868550
 20
181.632280
 30
0.0
  0
SPLINE
  5
1b9
100
AcDbEntity
  8
chars
 62
7
100
AcDbSpline
 70
8
 71
3
 72
8
 73
4
 74
0
 40
0
 40
0
 40
0
 40
0
 40
1
 40
1
 40
1
 40
1
 10
194.364725
 20
175.092530
 30
0.0
 10
193.967165
 20
173.621580
 30
0.0
 10
193.669005
 20
172.349410
 30
0.0
 10
193.231695
 20
170.858580
 30
0.0
  0
LWPOLYLINE
  5
1ba
100
AcDbEntity
  8
chars
 62
7
100
AcDbPolyline
 90
5
 70
0
 10
191.780625
 20
168.632280
 30
0.0
 10
194.503865
 20
168.632280
 30
0.0
 10
198.539035
 20
181.632280
 30
0.0
 10
196.173585
 20
181.632280
 30
0.0
 10
194.364725
 20
175.092530
 30
0.0
  0
SPLINE
  5
1bb
100
AcDbEntity
  8
chars
 62
7
100
AcDbSpline
 70
8
 71
3
 72
8
 73
4
 74
0
 40
0
 40
0
 40
0
 40
0
 40
1
 40
1
 40
1
 40
1
 10
193.152195
 20
170.858580
 30
0.0
 10
192.714885
 20
172.349410
 30
0.0
 10
192.416715
 20
173.621580
 30
0.0
 10
191.999285
 20
175.092530
 30
0.0
  0
LWPOLYLINE
  5
1bc
100
AcDbEntity
  8
chars
 62
7
100
AcDbPolyline
 90
2
 70
0
 10
193.231695
 20
170.858580
 30
0.0
 10
193.152195
 20
170.858580
 30
0.0
  0
LWPOLYLINE
  5
1bd
100
AcDbEntity
  8
chars
 62
7
100
AcDbPolyline
 90
4
 70
0
 10
191.999285
 20
175.092530
 30
0.0
 10
190.170545
 20
181.632280
 30
0.0
 10
187.725585
 20
181.632280
 30
0.0
 10
191.780625
 20
168.632280
 30
0.0
  0
SPLINE
  5
1be
100
AcDbEntity
  8
chars
 62
7
100
AcDbSpline
 70
8
 71
3
 72
8
 73
4
 74
0
 40
0
 40
0
 40
0
 40
0
 40
1
 40
1
 40
1
 40
1
 10
246.868805
 20
168.632280
 30
0.0
 10
250.226155
 20
168.632280
 30
0.0
 10
251.377805
 20
170.642790
 30
0.0
 10
251.377805
 20
173.082730
 30
0.0
  0
LWPOLYLINE
  5
1bf
100
AcDbEntity
  8
chars
 62
7
100
AcDbPolyline
 90
12
 70
1
 10
215.838730
 20
168.632280
 30
0.0
 10
224.425890
 20
168.632280
 30
0.0
 10
224.425890
 20
170.580293
 30
0.0
 10
221.285210
 20
170.580293
 30
0.0
 10
221.285210
 20
179.684268
 30
0.0
 10
224.425890
 20
179.684268
 30
0.0
 10
224.425890
 20
181.632280
 30
0.0
 10
215.838730
 20
181.632280
 30
0.0
 10
215.838730
 20
179.684268
 30
0.0
 10
218.979400
 20
179.684268
 30
0.0
 10
218.979400
 20
170.580293
 30
0.0
 10
215.838730
 20
170.580293
 30
0.0
  0
SPLINE
  5
1c0
100
AcDbEntity
  8
chars
 62
7
100
AcDbSpline
 70
8
 71
3
 72
8
 73
4
 74
0
 40
0
 40
0
 40
0
 40
0
 40
1
 40
1
 40
1
 40
1
 10
249.113545
 20
173.277930
 30
0.0
 10
249.113545
 20
171.345500
 30
0.0
 10
248.371805
 20
170.603750
 30
0.0
 10
246.810245
 20
170.603750
 30
0.0
  0
SPLINE
  5
1c1
100
AcDbEntity
  8
chars
 62
7
100
AcDbSpline
 70
8
 71
3
 72
8
 73
4
 74
0
 40
0
 40
0
 40
0
 40
0
 40
1
 40
1
 40
1
 40
1
 10
246.810245
 20
170.603750
 30
0.0
 10
245.892825
 20
170.603750
 30
0.0
 10
244.955885
 20
171.111260
 30
0.0
 10
244.214145
 20
172.145800
 30
0.0
  0
LWPOLYLINE
  5
1c2
100
AcDbEntity
  8
chars
 62
7
100
AcDbPolyline
 90
6
 70
0
 10
251.377805
 20
173.082730
 30
0.0
 10
251.377805
 20
181.632280
 30
0.0
 10
243.940875
 20
181.632280
 30
0.0
 10
243.940875
 20
179.738890
 30
0.0
 10
249.113545
 20
179.738890
 30
0.0
 10
249.113545
 20
173.277930
 30
0.0
  0
SPLINE
  5
1c3
100
AcDbEntity
  8
chars
 62
7
100
AcDbSpline
 70
8
 71
3
 72
8
 73
4
 74
0
 40
0
 40
0
 40
0
 40
0
 40
1
 40
1
 40
1
 40
1
 10
242.886815
 20
170.740390
 30
0.0
 10
243.882315
 20
169.237390
 30
0.0
 10
245.463395
 20
168.632280
 30
0.0
 10
246.868805
 20
168.632280
 30
0.0
  0
LWPOLYLINE
  5
1c4
100
AcDbEntity
  8
chars
 62
7
100
AcDbPolyline
 90
2
 70
0
 10
244.214145
 20
172.145800
 30
0.0
 10
242.886815
 20
170.740390
 30
0.0
  0
LWPOLYLINE
  5
1c5
100
AcDbEntity
  8
chars
 62
7
100
AcDbPolyline
 90
1
 70
1
 10
246.868805
 20
168.632280
 30
0.0
  0
LWPOLYLINE
  5
1c6
100
AcDbEntity
  8
chars
 62
7
100
AcDbPolyline
 90
10
 70
1
 10
269.977880
 20
168.632280
 30
0.0
 10
272.283690
 20
168.632280
 30
0.0
 10
272.283690
 20
174.058890
 30
0.0
 10
277.392250
 20
174.058890
 30
0.0
 10
277.392250
 20
176.006900
 30
0.0
 10
272.283690
 20
176.006900
 30
0.0
 10
272.283690
 20
179.684270
 30
0.0
 10
278.286740
 20
179.684270
 30
0.0
 10
278.286740
 20
181.632280
 30
0.0
 10
269.977880
 20
181.632280
 30
0.0
  0
SPLINE
  5
1c7
100
AcDbEntity
  8
chars
 62
7
100
AcDbSpline
 70
8
 71
3
 72
8
 73
4
 74
0
 40
0
 40
0
 40
0
 40
0
 40
1
 40
1
 40
1
 40
1
 10
275.364725
 20
355.092540
 30
0.0
 10
274.967165
 20
353.621590
 30
0.0
 10
274.669005
 20
352.349420
 30
0.0
 10
274.231695
 20
350.858590
 30
0.0
  0
LWPOLYLINE
  5
1c8
100
AcDbEntity
  8
chars
 62
7
100
AcDbPolyline
 90
5
 70
0
 10
272.780625
 20
348.632290
 30
0.0
 10
275.503865
 20
348.632290
 30
0.0
 10
279.539035
 20
361.632290
 30
0.0
 10
277.173585
 20
361.632290
 30
0.0
 10
275.364725
 20
355.092540
 30
0.0
  0
SPLINE
  5
1c9
100
AcDbEntity
  8
chars
 62
7
100
AcDbSpline
 70
8
 71
3
 72
8
 73
4
 74
0
 40
0
 40
0
 40
0
 40
0
 40
1
 40
1
 40
1
 40
1
 10
274.152195
 20
350.858590
 30
0.0
 10
273.714885
 20
352.349420
 30
0.0
 10
273.416715
 20
353.621590
 30
0.0
 10
272.999285
 20
355.092540
 30
0.0
  0
LWPOLYLINE
  5
1ca
100
AcDbEntity
  8
chars
 62
7
100
AcDbPolyline
 90
2
 70
0
 10
274.231695
 20
350.858590
 30
0.0
 10
274.152195
 20
350.858590
 30
0.0
  0
LWPOLYLINE
  5
1cb
100
AcDbEntity
  8
chars
 62
7
100
AcDbPolyline
 90
4
 70
0
 10
272.999285
 20
355.092540
 30
0.0
 10
271.170545
 20
361.632290
 30
0.0
 10
268.725585
 20
361.632290
 30
0.0
 10
272.780625
 20
348.632290
 30
0.0
  0
SPLINE
  5
1cc
100
AcDbEntity
  8
chars
 62
7
100
AcDbSpline
 70
8
 71
3
 72
8
 73
4
 74
0
 40
0
 40
0
 40
0
 40
0
 40
1
 40
1
 40
1
 40
1
 10
355.151500
 20
168.632280
 30
0.0
 10
358.065950
 20
168.632280
 30
0.0
 10
359.791610
 20
170.319600
 30
0.0
 10
359.791610
 20
172.352050
 30
0.0
  0
SPLINE
  5
1cd
100
AcDbEntity
  8
chars
 62
7
100
AcDbSpline
 70
8
 71
3
 72
8
 73
4
 74
0
 40
0
 40
0
 40
0
 40
0
 40
1
 40
1
 40
1
 40
1
 10
359.791610
 20
172.352050
 30
0.0
 10
359.791610
 20
174.173580
 30
0.0
 10
358.660350
 20
175.113110
 30
0.0
 10
357.068900
 20
175.745850
 30
0.0
  0
LWPOLYLINE
  5
1ce
100
AcDbEntity
  8
chars
 62
7
100
AcDbPolyline
 90
12
 70
1
 10
323.868545
 20
168.632280
 30
0.0
 10
332.396075
 20
168.632280
 30
0.0
 10
332.396075
 20
170.580292
 30
0.0
 10
326.174355
 20
170.580292
 30
0.0
 10
326.174355
 20
174.416683
 30
0.0
 10
331.282925
 20
174.416683
 30
0.0
 10
331.282925
 20
176.364696
 30
0.0
 10
326.174355
 20
176.364696
 30
0.0
 10
326.174355
 20
179.684268
 30
0.0
 10
332.197295
 20
179.684268
 30
0.0
 10
332.197295
 20
181.632280
 30
0.0
 10
323.868545
 20
181.632280
 30
0.0
  0
SPLINE
  5
1cf
100
AcDbEntity
  8
chars
 62
7
100
AcDbSpline
 70
8
 71
3
 72
8
 73
4
 74
0
 40
0
 40
0
 40
0
 40
0
 40
1
 40
1
 40
1
 40
1
 10
355.419930
 20
176.455290
 30
0.0
 10
354.288660
 20
176.896290
 30
0.0
 10
353.272440
 20
177.260600
 30
0.0
 10
353.272440
 20
178.219300
 30
0.0
  0
SPLINE
  5
1d0
100
AcDbEntity
  8
chars
 62
7
100
AcDbSpline
 70
8
 71
3
 72
8
 73
4
 74
0
 40
0
 40
0
 40
0
 40
0
 40
1
 40
1
 40
1
 40
1
 10
353.272440
 20
178.219300
 30
0.0
 10
353.272440
 20
179.158830
 30
0.0
 10
354.077750
 20
179.695700
 30
0.0
 10
355.266540
 20
179.695700
 30
0.0
  0
SPLINE
  5
1d1
100
AcDbEntity
  8
chars
 62
7
100
AcDbSpline
 70
8
 71
3
 72
8
 73
4
 74
0
 40
0
 40
0
 40
0
 40
0
 40
1
 40
1
 40
1
 40
1
 10
355.266540
 20
179.695700
 30
0.0
 10
356.532030
 20
179.695700
 30
0.0
 10
357.414030
 20
179.293050
 30
0.0
 10
358.257690
 20
178.621960
 30
0.0
  0
LWPOLYLINE
  5
1d2
100
AcDbEntity
  8
chars
 62
7
100
AcDbPolyline
 90
2
 70
0
 10
357.068900
 20
175.745850
 30
0.0
 10
355.419930
 20
176.455290
 30
0.0
  0
SPLINE
  5
1d3
100
AcDbEntity
  8
chars
 62
7
100
AcDbSpline
 70
8
 71
3
 72
8
 73
4
 74
0
 40
0
 40
0
 40
0
 40
0
 40
1
 40
1
 40
1
 40
1
 10
359.408130
 20
180.040840
 30
0.0
 10
358.372740
 20
181.018710
 30
0.0
 10
356.915510
 20
181.632280
 30
0.0
 10
355.381590
 20
181.632280
 30
0.0
  0
SPLINE
  5
1d4
100
AcDbEntity
  8
chars
 62
7
100
AcDbSpline
 70
8
 71
3
 72
8
 73
4
 74
0
 40
0
 40
0
 40
0
 40
0
 40
1
 40
1
 40
1
 40
1
 10
355.381590
 20
181.632280
 30
0.0
 10
352.831440
 20
181.632280
 30
0.0
 10
351.029080
 20
180.098360
 30
0.0
 10
351.029080
 20
178.104260
 30
0.0
  0
SPLINE
  5
1d5
100
AcDbEntity
  8
chars
 62
7
100
AcDbSpline
 70
8
 71
3
 72
8
 73
4
 74
0
 40
0
 40
0
 40
0
 40
0
 40
1
 40
1
 40
1
 40
1
 10
351.029080
 20
178.104260
 30
0.0
 10
351.029080
 20
176.263550
 30
0.0
 10
352.390430
 20
175.285670
 30
0.0
 10
353.713440
 20
174.767980
 30
0.0
  0
LWPOLYLINE
  5
1d6
100
AcDbEntity
  8
chars
 62
7
100
AcDbPolyline
 90
2
 70
0
 10
358.257690
 20
178.621960
 30
0.0
 10
359.408130
 20
180.040840
 30
0.0
  0
SPLINE
  5
1d7
100
AcDbEntity
  8
chars
 62
7
100
AcDbSpline
 70
8
 71
3
 72
8
 73
4
 74
0
 40
0
 40
0
 40
0
 40
0
 40
1
 40
1
 40
1
 40
1
 10
355.419930
 20
174.020190
 30
0.0
 10
356.666250
 20
173.502490
 30
0.0
 10
357.529080
 20
173.195700
 30
0.0
 10
357.529080
 20
172.083610
 30
0.0
  0
SPLINE
  5
1d8
100
AcDbEntity
  8
chars
 62
7
100
AcDbSpline
 70
8
 71
3
 72
8
 73
4
 74
0
 40
0
 40
0
 40
0
 40
0
 40
1
 40
1
 40
1
 40
1
 10
357.529080
 20
172.083610
 30
0.0
 10
357.529080
 20
171.201600
 30
0.0
 10
356.742940
 20
170.568860
 30
0.0
 10
355.285720
 20
170.568860
 30
0.0
  0
SPLINE
  5
1d9
100
AcDbEntity
  8
chars
 62
7
100
AcDbSpline
 70
8
 71
3
 72
8
 73
4
 74
0
 40
0
 40
0
 40
0
 40
0
 40
1
 40
1
 40
1
 40
1
 10
355.285720
 20
170.568860
 30
0.0
 10
353.962710
 20
170.568860
 30
0.0
 10
352.716390
 20
171.144080
 30
0.0
 10
351.776870
 20
171.987740
 30
0.0
  0
LWPOLYLINE
  5
1da
100
AcDbEntity
  8
chars
 62
7
100
AcDbPolyline
 90
2
 70
0
 10
353.713440
 20
174.767980
 30
0.0
 10
355.419930
 20
174.020190
 30
0.0
  0
SPLINE
  5
1db
100
AcDbEntity
  8
chars
 62
7
100
AcDbSpline
 70
8
 71
3
 72
8
 73
4
 74
0
 40
0
 40
0
 40
0
 40
0
 40
1
 40
1
 40
1
 40
1
 10
350.473030
 20
170.472990
 30
0.0
 10
351.719340
 20
169.303370
 30
0.0
 10
353.387480
 20
168.632280
 30
0.0
 10
355.151500
 20
168.632280
 30
0.0
  0
LWPOLYLINE
  5
1dc
100
AcDbEntity
  8
chars
 62
7
100
AcDbPolyline
 90
2
 70
0
 10
351.776870
 20
171.987740
 30
0.0
 10
350.473030
 20
170.472990
 30
0.0
  0
LWPOLYLINE
  5
1dd
100
AcDbEntity
  8
chars
 62
7
100
AcDbPolyline
 90
1
 70
1
 10
355.151500
 20
168.632280
 30
0.0
  0
LWPOLYLINE
  5
1de
100
AcDbEntity
  8
chars
 62
7
100
AcDbPolyline
 90
10
 70
1
 10
80.341801
 20
138.632290
 30
0.0
 10
89.922841
 20
138.632290
 30
0.0
 10
89.922841
 20
140.580310
 30
0.0
 10
83.164431
 20
140.580310
 30
0.0
 10
89.843330
 20
150.240860
 30
0.0
 10
89.843330
 20
151.632290
 30
0.0
 10
80.938131
 20
151.632290
 30
0.0
 10
80.938131
 20
149.704160
 30
0.0
 10
87.000823
 20
149.704160
 30
0.0
 10
80.341801
 20
140.023730
 30
0.0
  0
LWPOLYLINE
  5
1df
100
AcDbEntity
  8
chars
 62
7
100
AcDbPolyline
 90
12
 70
1
 10
107.868550
 20
138.632290
 30
0.0
 10
116.396080
 20
138.632290
 30
0.0
 10
116.396080
 20
140.580302
 30
0.0
 10
110.174360
 20
140.580302
 30
0.0
 10
110.174360
 20
144.416693
 30
0.0
 10
115.282930
 20
144.416693
 30
0.0
 10
115.282930
 20
146.364706
 30
0.0
 10
110.174360
 20
146.364706
 30
0.0
 10
110.174360
 20
149.684278
 30
0.0
 10
116.197300
 20
149.684278
 30
0.0
 10
116.197300
 20
151.632290
 30
0.0
 10
107.868550
 20
151.632290
 30
0.0
  0
SPLINE
  5
1e0
100
AcDbEntity
  8
chars
 62
7
100
AcDbSpline
 70
8
 71
3
 72
8
 73
4
 74
0
 40
0
 40
0
 40
0
 40
0
 40
1
 40
1
 40
1
 40
1
 10
140.364730
 20
145.092540
 30
0.0
 10
139.967170
 20
143.621590
 30
0.0
 10
139.669010
 20
142.349420
 30
0.0
 10
139.231700
 20
140.858590
 30
0.0
  0
LWPOLYLINE
  5
1e1
100
AcDbEntity
  8
chars
 62
7
100
AcDbPolyline
 90
5
 70
0
 10
137.780630
 20
138.632290
 30
0.0
 10
140.503870
 20
138.632290
 30
0.0
 10
144.539040
 20
151.632290
 30
0.0
 10
142.173590
 20
151.632290
 30
0.0
 10
140.364730
 20
145.092540
 30
0.0
  0
SPLINE
  5
1e2
100
AcDbEntity
  8
chars
 62
7
100
AcDbSpline
 70
8
 71
3
 72
8
 73
4
 74
0
 40
0
 40
0
 40
0
 40
0
 40
1
 40
1
 40
1
 40
1
 10
139.152200
 20
140.858590
 30
0.0
 10
138.714890
 20
142.349420
 30
0.0
 10
138.416720
 20
143.621590
 30
0.0
 10
137.999290
 20
145.092540
 30
0.0
  0
LWPOLYLINE
  5
1e3
100
AcDbEntity
  8
chars
 62
7
100
AcDbPolyline
 90
2
 70
0
 10
139.231700
 20
140.858590
 30
0.0
 10
139.152200
 20
140.858590
 30
0.0
  0
LWPOLYLINE
  5
1e4
100
AcDbEntity
  8
chars
 62
7
100
AcDbPolyline
 90
4
 70
0
 10
137.999290
 20
145.092540
 30
0.0
 10
136.170550
 20
151.632290
 30
0.0
 10
133.725590
 20
151.632290
 30
0.0
 10
137.780630
 20
138.632290
 30
0.0
  0
LWPOLYLINE
  5
1e5
100
AcDbEntity
  8
chars
 62
7
100
AcDbPolyline
 90
12
 70
1
 10
161.868555
 20
138.632290
 30
0.0
 10
170.396085
 20
138.632290
 30
0.0
 10
170.396085
 20
140.580302
 30
0.0
 10
164.174365
 20
140.580302
 30
0.0
 10
164.174365
 20
144.416693
 30
0.0
 10
169.282935
 20
144.416693
 30
0.0
 10
169.282935
 20
146.364706
 30
0.0
 10
164.174365
 20
146.364706
 30
0.0
 10
164.174365
 20
149.684278
 30
0.0
 10
170.197305
 20
149.684278
 30
0.0
 10
170.197305
 20
151.632290
 30
0.0
 10
161.868555
 20
151.632290
 30
0.0
  0
SPLINE
  5
1e6
100
AcDbEntity
  8
chars
 62
7
100
AcDbSpline
 70
8
 71
3
 72
8
 73
4
 74
0
 40
0
 40
0
 40
0
 40
0
 40
1
 40
1
 40
1
 40
1
 10
190.846390
 20
144.317305
 30
0.0
 10
190.846390
 20
145.768375
 30
0.0
 10
190.627740
 20
147.318834
 30
0.0
 10
190.528350
 20
148.710271
 30
0.0
  0
LWPOLYLINE
  5
1e7
100
AcDbEntity
  8
chars
 62
7
100
AcDbPolyline
 90
3
 70
0
 10
188.639970
 20
138.632289
 30
0.0
 10
190.846390
 20
138.632289
 30
0.0
 10
190.846390
 20
144.317305
 30
0.0
  0
SPLINE
  5
1e8
100
AcDbEntity
  8
chars
 62
7
100
AcDbSpline
 70
8
 71
3
 72
8
 73
4
 74
0
 40
0
 40
0
 40
0
 40
0
 40
1
 40
1
 40
1
 40
1
 10
195.418230
 20
145.987029
 30
0.0
 10
195.418230
 20
144.535959
 30
0.0
 10
195.636880
 20
142.886112
 30
0.0
 10
195.736270
 20
141.554308
 30
0.0
  0
LWPOLYLINE
  5
1e9
100
AcDbEntity
  8
chars
 62
7
100
AcDbPolyline
 90
8
 70
0
 10
190.528350
 20
148.710271
 30
0.0
 10
190.587950
 20
148.710271
 30
0.0
 10
191.760730
 20
145.947274
 30
0.0
 10
195.199570
 20
138.632289
 30
0.0
 10
197.624650
 20
138.632289
 30
0.0
 10
197.624650
 20
151.632289
 30
0.0
 10
195.418230
 20
151.632289
 30
0.0
 10
195.418230
 20
145.987029
 30
0.0
  0
LWPOLYLINE
  5
1ea
100
AcDbEntity
  8
chars
 62
7
100
AcDbPolyline
 90
6
 70
0
 10
195.736270
 20
141.554308
 30
0.0
 10
195.676670
 20
141.554308
 30
0.0
 10
194.503880
 20
144.337182
 30
0.0
 10
191.065050
 20
151.632289
 30
0.0
 10
188.639970
 20
151.632289
 30
0.0
 10
188.639970
 20
138.632289
 30
0.0
  0
SPLINE
  5
1eb
100
AcDbEntity
  8
chars
 62
7
100
AcDbSpline
 70
8
 71
3
 72
8
 73
4
 74
0
 40
0
 40
0
 40
0
 40
0
 40
1
 40
1
 40
1
 40
1
 10
244.846390
 20
144.317305
 30
0.0
 10
244.846390
 20
145.768375
 30
0.0
 10
244.627740
 20
147.318834
 30
0.0
 10
244.528350
 20
148.710271
 30
0.0
  0
LWPOLYLINE
  5
1ec
100
AcDbEntity
  8
chars
 62
7
100
AcDbPolyline
 90
3
 70
0
 10
242.639970
 20
138.632289
 30
0.0
 10
244.846390
 20
138.632289
 30
0.0
 10
244.846390
 20
144.317305
 30
0.0
  0
SPLINE
  5
1ed
100
AcDbEntity
  8
chars
 62
7
100
AcDbSpline
 70
8
 71
3
 72
8
 73
4
 74
0
 40
0
 40
0
 40
0
 40
0
 40
1
 40
1
 40
1
 40
1
 10
249.418230
 20
145.987029
 30
0.0
 10
249.418230
 20
144.535959
 30
0.0
 10
249.636880
 20
142.886112
 30
0.0
 10
249.736270
 20
141.554308
 30
0.0
  0
LWPOLYLINE
  5
1ee
100
AcDbEntity
  8
chars
 62
7
100
AcDbPolyline
 90
8
 70
0
 10
244.528350
 20
148.710271
 30
0.0
 10
244.587950
 20
148.710271
 30
0.0
 10
245.760730
 20
145.947274
 30
0.0
 10
249.199570
 20
138.632289
 30
0.0
 10
251.624650
 20
138.632289
 30
0.0
 10
251.624650
 20
151.632289
 30
0.0
 10
249.418230
 20
151.632289
 30
0.0
 10
249.418230
 20
145.987029
 30
0.0
  0
LWPOLYLINE
  5
1ef
100
AcDbEntity
  8
chars
 62
7
100
AcDbPolyline
 90
6
 70
0
 10
249.736270
 20
141.554308
 30
0.0
 10
249.676670
 20
141.554308
 30
0.0
 10
248.503880
 20
144.337182
 30
0.0
 10
245.065050
 20
151.632289
 30
0.0
 10
242.639970
 20
151.632289
 30
0.0
 10
242.639970
 20
138.632289
 30
0.0
  0
SPLINE
  5
1f0
100
AcDbEntity
  8
chars
 62
7
100
AcDbSpline
 70
8
 71
3
 72
8
 73
4
 74
0
 40
0
 40
0
 40
0
 40
0
 40
1
 40
1
 40
1
 40
1
 10
352.846400
 20
144.317305
 30
0.0
 10
352.846400
 20
145.768375
 30
0.0
 10
352.627750
 20
147.318834
 30
0.0
 10
352.528360
 20
148.710271
 30
0.0
  0
LWPOLYLINE
  5
1f1
100
AcDbEntity
  8
chars
 62
7
100
AcDbPolyline
 90
3
 70
0
 10
350.639980
 20
138.632289
 30
0.0
 10
352.846400
 20
138.632289
 30
0.0
 10
352.846400
 20
144.317305
 30
0.0
  0
SPLINE
  5
1f2
100
AcDbEntity
  8
chars
 62
7
100
AcDbSpline
 70
8
 71
3
 72
8
 73
4
 74
0
 40
0
 40
0
 40
0
 40
0
 40
1
 40
1
 40
1
 40
1
 10
357.418240
 20
145.987029
 30
0.0
 10
357.418240
 20
144.535959
 30
0.0
 10
357.636890
 20
142.886112
 30
0.0
 10
357.736280
 20
141.554308
 30
0.0
  0
LWPOLYLINE
  5
1f3
100
AcDbEntity
  8
chars
 62
7
100
AcDbPolyline
 90
8
 70
0
 10
352.528360
 20
148.710271
 30
0.0
 10
352.587960
 20
148.710271
 30
0.0
 10
353.760740
 20
145.947274
 30
0.0
 10
357.199580
 20
138.632289
 30
0.0
 10
359.624660
 20
138.632289
 30
0.0
 10
359.624660
 20
151.632289
 30
0.0
 10
357.418240
 20
151.632289
 30
0.0
 10
357.418240
 20
145.987029
 30
0.0
  0
LWPOLYLINE
  5
1f4
100
AcDbEntity
  8
chars
 62
7
100
AcDbPolyline
 90
6
 70
0
 10
357.736280
 20
141.554308
 30
0.0
 10
357.676680
 20
141.554308
 30
0.0
 10
356.503890
 20
144.337182
 30
0.0
 10
353.065060
 20
151.632289
 30
0.0
 10
350.639980
 20
151.632289
 30
0.0
 10
350.639980
 20
138.632289
 30
0.0
  0
LWPOLYLINE
  5
1f5
100
AcDbEntity
  8
chars
 62
7
100
AcDbPolyline
 90
12
 70
1
 10
269.868545
 20
138.632290
 30
0.0
 10
278.396075
 20
138.632290
 30
0.0
 10
278.396075
 20
140.580302
 30
0.0
 10
272.174355
 20
140.580302
 30
0.0
 10
272.174355
 20
144.416693
 30
0.0
 10
277.282925
 20
144.416693
 30
0.0
 10
277.282925
 20
146.364706
 30
0.0
 10
272.174355
 20
146.364706
 30
0.0
 10
272.174355
 20
149.684278
 30
0.0
 10
278.197295
 20
149.684278
 30
0.0
 10
278.197295
 20
151.632290
 30
0.0
 10
269.868545
 20
151.632290
 30
0.0
  0
SPLINE
  5
1f6
100
AcDbEntity
  8
chars
 62
7
100
AcDbSpline
 70
8
 71
3
 72
8
 73
4
 74
0
 40
0
 40
0
 40
0
 40
0
 40
1
 40
1
 40
1
 40
1
 10
302.014310
 20
138.632290
 30
0.0
 10
303.624930
 20
138.632290
 30
0.0
 10
305.043810
 20
139.322560
 30
0.0
 10
305.849120
 20
140.127860
 30
0.0
  0
LWPOLYLINE
  5
1f7
100
AcDbEntity
  8
chars
 62
7
100
AcDbPolyline
 90
12
 70
1
 10
323.868545
 20
138.632290
 30
0.0
 10
332.396075
 20
138.632290
 30
0.0
 10
332.396075
 20
140.580302
 30
0.0
 10
326.174355
 20
140.580302
 30
0.0
 10
326.174355
 20
144.416693
 30
0.0
 10
331.282925
 20
144.416693
 30
0.0
 10
331.282925
 20
146.364706
 30
0.0
 10
326.174355
 20
146.364706
 30
0.0
 10
326.174355
 20
149.684278
 30
0.0
 10
332.197295
 20
149.684278
 30
0.0
 10
332.197295
 20
151.632290
 30
0.0
 10
323.868545
 20
151.632290
 30
0.0
  0
SPLINE
  5
1f8
100
AcDbEntity
  8
chars
 62
7
100
AcDbSpline
 70
8
 71
3
 72
8
 73
4
 74
0
 40
0
 40
0
 40
0
 40
0
 40
1
 40
1
 40
1
 40
1
 10
303.835840
 20
141.124920
 30
0.0
 10
303.471530
 20
140.760610
 30
0.0
 10
302.819620
 20
140.568870
 30
0.0
 10
302.148530
 20
140.568870
 30
0.0
  0
SPLINE
  5
1f9
100
AcDbEntity
  8
chars
 62
7
100
AcDbSpline
 70
8
 71
3
 72
8
 73
4
 74
0
 40
0
 40
0
 40
0
 40
0
 40
1
 40
1
 40
1
 40
1
 10
302.148530
 20
140.568870
 30
0.0
 10
299.924340
 20
140.568870
 30
0.0
 10
298.716370
 20
142.294530
 30
0.0
 10
298.716370
 20
145.151460
 30
0.0
  0
SPLINE
  5
1fa
100
AcDbEntity
  8
chars
 62
7
100
AcDbSpline
 70
8
 71
3
 72
8
 73
4
 74
0
 40
0
 40
0
 40
0
 40
0
 40
1
 40
1
 40
1
 40
1
 10
298.716370
 20
145.151460
 30
0.0
 10
298.716370
 20
147.970050
 30
0.0
 10
300.116080
 20
149.695710
 30
0.0
 10
302.110180
 20
149.695710
 30
0.0
  0
SPLINE
  5
1fb
100
AcDbEntity
  8
chars
 62
7
100
AcDbSpline
 70
8
 71
3
 72
8
 73
4
 74
0
 40
0
 40
0
 40
0
 40
0
 40
1
 40
1
 40
1
 40
1
 10
302.110180
 20
149.695710
 30
0.0
 10
303.203100
 20
149.695710
 30
0.0
 10
303.855020
 20
149.273880
 30
0.0
 10
304.430240
 20
148.679490
 30
0.0
  0
LWPOLYLINE
  5
1fc
100
AcDbEntity
  8
chars
 62
7
100
AcDbPolyline
 90
6
 70
0
 10
305.849120
 20
140.127860
 30
0.0
 10
305.849120
 20
145.649990
 30
0.0
 10
301.669170
 20
145.649990
 30
0.0
 10
301.669170
 20
143.828450
 30
0.0
 10
303.835840
 20
143.828450
 30
0.0
 10
303.835840
 20
141.124920
 30
0.0
  0
SPLINE
  5
1fd
100
AcDbEntity
  8
chars
 62
7
100
AcDbSpline
 70
8
 71
3
 72
8
 73
4
 74
0
 40
0
 40
0
 40
0
 40
0
 40
1
 40
1
 40
1
 40
1
 10
305.657380
 20
150.060020
 30
0.0
 10
304.909590
 20
150.846150
 30
0.0
 10
303.778320
 20
151.632290
 30
0.0
 10
302.110180
 20
151.632290
 30
0.0
  0
SPLINE
  5
1fe
100
AcDbEntity
  8
chars
 62
7
100
AcDbSpline
 70
8
 71
3
 72
8
 73
4
 74
0
 40
0
 40
0
 40
0
 40
0
 40
1
 40
1
 40
1
 40
1
 10
302.110180
 20
151.632290
 30
0.0
 10
298.850590
 20
151.632290
 30
0.0
 10
296.415490
 20
149.216360
 30
0.0
 10
296.415490
 20
145.093940
 30
0.0
  0
SPLINE
  5
1ff
100
AcDbEntity
  8
chars
 62
7
100
AcDbSpline
 70
8
 71
3
 72
8
 73
4
 74
0
 40
0
 40
0
 40
0
 40
0
 40
1
 40
1
 40
1
 40
1
 10
296.415490
 20
145.093940
 30
0.0
 10
296.415490
 20
140.933170
 30
0.0
 10
298.831420
 20
138.632290
 30
0.0
 10
302.014310
 20
138.632290
 30
0.0
  0
LWPOLYLINE
  5
200
100
AcDbEntity
  8
chars
 62
7
100
AcDbPolyline
 90
2
 70
0
 10
304.430240
 20
148.679490
 30
0.0
 10
305.657380
 20
150.060020
 30
0.0
  0
SPLINE
  5
201
100
AcDbEntity
  8
chars
 62
7
100
AcDbSpline
 70
8
 71
3
 72
8
 73
4
 74
0
 40
0
 40
0
 40
0
 40
0
 40
1
 40
1
 40
1
 40
1
 10
112.956805
 20
108.632290
 30
0.0
 10
114.624945
 20
108.632290
 30
0.0
 10
115.947955
 20
109.284200
 30
0.0
 10
116.945005
 20
110.453820
 30
0.0
  0
LWPOLYLINE
  5
202
100
AcDbEntity
  8
chars
 62
7
100
AcDbPolyline
 90
1
 70
1
 10
302.014310
 20
138.632290
 30
0.0
  0
SPLINE
  5
203
100
AcDbEntity
  8
chars
 62
7
100
AcDbSpline
 70
8
 71
3
 72
8
 73
4
 74
0
 40
0
 40
0
 40
0
 40
0
 40
1
 40
1
 40
1
 40
1
 10
115.717865
 20
111.815180
 30
0.0
 10
115.008425
 20
111.029040
 30
0.0
 10
114.183945
 20
110.568870
 30
0.0
 10
113.167715
 20
110.568870
 30
0.0
  0
SPLINE
  5
204
100
AcDbEntity
  8
chars
 62
7
100
AcDbSpline
 70
8
 71
3
 72
8
 73
4
 74
0
 40
0
 40
0
 40
0
 40
0
 40
1
 40
1
 40
1
 40
1
 10
113.167715
 20
110.568870
 30
0.0
 10
111.020225
 20
110.568870
 30
0.0
 10
109.601345
 20
112.294530
 30
0.0
 10
109.601345
 20
115.151460
 30
0.0
  0
SPLINE
  5
205
100
AcDbEntity
  8
chars
 62
7
100
AcDbSpline
 70
8
 71
3
 72
8
 73
4
 74
0
 40
0
 40
0
 40
0
 40
0
 40
1
 40
1
 40
1
 40
1
 10
109.601345
 20
115.151460
 30
0.0
 10
109.601345
 20
117.970050
 30
0.0
 10
111.020225
 20
119.695710
 30
0.0
 10
113.110195
 20
119.695710
 30
0.0
  0
SPLINE
  5
206
100
AcDbEntity
  8
chars
 62
7
100
AcDbSpline
 70
8
 71
3
 72
8
 73
4
 74
0
 40
0
 40
0
 40
0
 40
0
 40
1
 40
1
 40
1
 40
1
 10
113.110195
 20
119.695710
 30
0.0
 10
114.088075
 20
119.695710
 30
0.0
 10
114.835865
 20
119.293050
 30
0.0
 10
115.468605
 20
118.679490
 30
0.0
  0
LWPOLYLINE
  5
207
100
AcDbEntity
  8
chars
 62
7
100
AcDbPolyline
 90
2
 70
0
 10
116.945005
 20
110.453820
 30
0.0
 10
115.717865
 20
111.815180
 30
0.0
  0
SPLINE
  5
208
100
AcDbEntity
  8
chars
 62
7
100
AcDbSpline
 70
8
 71
3
 72
8
 73
4
 74
0
 40
0
 40
0
 40
0
 40
0
 40
1
 40
1
 40
1
 40
1
 10
116.695745
 20
120.060020
 30
0.0
 10
115.909605
 20
120.884500
 30
0.0
 10
114.663295
 20
121.632290
 30
0.0
 10
113.110195
 20
121.632290
 30
0.0
  0
SPLINE
  5
209
100
AcDbEntity
  8
chars
 62
7
100
AcDbSpline
 70
8
 71
3
 72
8
 73
4
 74
0
 40
0
 40
0
 40
0
 40
0
 40
1
 40
1
 40
1
 40
1
 10
113.110195
 20
121.632290
 30
0.0
 10
109.793085
 20
121.632290
 30
0.0
 10
107.319635
 20
119.197180
 30
0.0
 10
107.319635
 20
115.093940
 30
0.0
  0
SPLINE
  5
20a
100
AcDbEntity
  8
chars
 62
7
100
AcDbSpline
 70
8
 71
3
 72
8
 73
4
 74
0
 40
0
 40
0
 40
0
 40
0
 40
1
 40
1
 40
1
 40
1
 10
107.319635
 20
115.093940
 30
0.0
 10
107.319635
 20
110.933170
 30
0.0
 10
109.850615
 20
108.632290
 30
0.0
 10
112.956805
 20
108.632290
 30
0.0
  0
LWPOLYLINE
  5
20b
100
AcDbEntity
  8
chars
 62
7
100
AcDbPolyline
 90
2
 70
0
 10
115.468605
 20
118.679490
 30
0.0
 10
116.695745
 20
120.060020
 30
0.0
  0
LWPOLYLINE
  5
20c
100
AcDbEntity
  8
chars
 62
7
100
AcDbPolyline
 90
1
 70
1
 10
112.956805
 20
108.632290
 30
0.0
  0
LWPOLYLINE
  5
20d
100
AcDbEntity
  8
chars
 62
7
100
AcDbPolyline
 90
12
 70
1
 10
134.600209
 20
108.632290
 30
0.0
 10
136.906020
 20
108.632290
 30
0.0
 10
136.906020
 20
114.396820
 30
0.0
 10
141.358619
 20
114.396820
 30
0.0
 10
141.358619
 20
108.632290
 30
0.0
 10
143.664430
 20
108.632290
 30
0.0
 10
143.664430
 20
121.632290
 30
0.0
 10
141.358619
 20
121.632290
 30
0.0
 10
141.358619
 20
116.404470
 30
0.0
 10
136.906020
 20
116.404470
 30
0.0
 10
136.906020
 20
121.632290
 30
0.0
 10
134.600209
 20
121.632290
 30
0.0
  0
LWPOLYLINE
  5
20e
100
AcDbEntity
  8
chars
 62
7
100
AcDbPolyline
 90
8
 70
1
 10
164.979410
 20
108.632294
 30
0.0
 10
167.285220
 20
108.632294
 30
0.0
 10
167.285220
 20
119.684282
 30
0.0
 10
171.380030
 20
119.684282
 30
0.0
 10
171.380030
 20
121.632294
 30
0.0
 10
160.884610
 20
121.632294
 30
0.0
 10
160.884610
 20
119.684282
 30
0.0
 10
164.979410
 20
119.684282
 30
0.0
  0
LWPOLYLINE
  5
20f
100
AcDbEntity
  8
chars
 62
7
100
AcDbPolyline
 90
12
 70
1
 10
242.868550
 20
108.632289
 30
0.0
 10
251.396070
 20
108.632289
 30
0.0
 10
251.396070
 20
110.580302
 30
0.0
 10
245.174360
 20
110.580302
 30
0.0
 10
245.174360
 20
114.416693
 30
0.0
 10
250.282920
 20
114.416693
 30
0.0
 10
250.282920
 20
116.364705
 30
0.0
 10
245.174360
 20
116.364705
 30
0.0
 10
245.174360
 20
119.684277
 30
0.0
 10
251.197300
 20
119.684277
 30
0.0
 10
251.197300
 20
121.632289
 30
0.0
 10
242.868550
 20
121.632289
 30
0.0
  0
LWPOLYLINE
  5
210
100
AcDbEntity
  8
chars
 62
7
100
AcDbPolyline
 90
8
 70
1
 10
191.979409
 20
108.632290
 30
0.0
 10
194.285220
 20
108.632290
 30
0.0
 10
194.285220
 20
119.684280
 30
0.0
 10
198.380021
 20
119.684280
 30
0.0
 10
198.380021
 20
121.632290
 30
0.0
 10
187.884608
 20
121.632290
 30
0.0
 10
187.884608
 20
119.684280
 30
0.0
 10
191.979409
 20
119.684280
 30
0.0
  0
SPLINE
  5
211
100
AcDbEntity
  8
chars
 62
7
100
AcDbSpline
 70
8
 71
3
 72
8
 73
4
 74
0
 40
0
 40
0
 40
0
 40
0
 40
1
 40
1
 40
1
 40
1
 10
271.846390
 20
114.317305
 30
0.0
 10
271.846390
 20
115.768375
 30
0.0
 10
271.627740
 20
117.318834
 30
0.0
 10
271.528350
 20
118.710271
 30
0.0
  0
LWPOLYLINE
  5
212
100
AcDbEntity
  8
chars
 62
7
100
AcDbPolyline
 90
3
 70
0
 10
269.639970
 20
108.632289
 30
0.0
 10
271.846390
 20
108.632289
 30
0.0
 10
271.846390
 20
114.317305
 30
0.0
  0
SPLINE
  5
213
100
AcDbEntity
  8
chars
 62
7
100
AcDbSpline
 70
8
 71
3
 72
8
 73
4
 74
0
 40
0
 40
0
 40
0
 40
0
 40
1
 40
1
 40
1
 40
1
 10
276.418230
 20
115.987029
 30
0.0
 10
276.418230
 20
114.535959
 30
0.0
 10
276.636880
 20
112.886112
 30
0.0
 10
276.736270
 20
111.554308
 30
0.0
  0
LWPOLYLINE
  5
214
100
AcDbEntity
  8
chars
 62
7
100
AcDbPolyline
 90
8
 70
0
 10
271.528350
 20
118.710271
 30
0.0
 10
271.587950
 20
118.710271
 30
0.0
 10
272.760730
 20
115.947274
 30
0.0
 10
276.199570
 20
108.632289
 30
0.0
 10
278.624650
 20
108.632289
 30
0.0
 10
278.624650
 20
121.632289
 30
0.0
 10
276.418230
 20
121.632289
 30
0.0
 10
276.418230
 20
115.987029
 30
0.0
  0
LWPOLYLINE
  5
215
100
AcDbEntity
  8
chars
 62
7
100
AcDbPolyline
 90
6
 70
0
 10
276.736270
 20
111.554308
 30
0.0
 10
276.676670
 20
111.554308
 30
0.0
 10
275.503880
 20
114.337182
 30
0.0
 10
272.065050
 20
121.632289
 30
0.0
 10
269.639970
 20
121.632289
 30
0.0
 10
269.639970
 20
108.632289
 30
0.0
  0
LWPOLYLINE
  5
216
100
AcDbEntity
  8
chars
 62
7
100
AcDbPolyline
 90
12
 70
1
 10
215.838735
 20
108.632290
 30
0.0
 10
224.425885
 20
108.632290
 30
0.0
 10
224.425885
 20
110.580310
 30
0.0
 10
221.285215
 20
110.580310
 30
0.0
 10
221.285215
 20
119.684280
 30
0.0
 10
224.425885
 20
119.684280
 30
0.0
 10
224.425885
 20
121.632290
 30
0.0
 10
215.838735
 20
121.632290
 30
0.0
 10
215.838735
 20
119.684280
 30
0.0
 10
218.979405
 20
119.684280
 30
0.0
 10
218.979405
 20
110.580310
 30
0.0
 10
215.838735
 20
110.580310
 30
0.0
  0
LWPOLYLINE
  5
217
100
AcDbEntity
  8
chars
 62
7
100
AcDbPolyline
 90
12
 70
1
 10
296.868545
 20
108.632294
 30
0.0
 10
305.396075
 20
108.632294
 30
0.0
 10
305.396075
 20
110.580306
 30
0.0
 10
299.174355
 20
110.580306
 30
0.0
 10
299.174355
 20
114.416697
 30
0.0
 10
304.282925
 20
114.416697
 30
0.0
 10
304.282925
 20
116.364710
 30
0.0
 10
299.174355
 20
116.364710
 30
0.0
 10
299.174355
 20
119.684282
 30
0.0
 10
305.197295
 20
119.684282
 30
0.0
 10
305.197295
 20
121.632294
 30
0.0
 10
296.868545
 20
121.632294
 30
0.0
  0
LWPOLYLINE
  5
218
100
AcDbEntity
  8
chars
 62
7
100
AcDbPolyline
 90
8
 70
1
 10
83.979410
 20
78.632294
 30
0.0
 10
86.285220
 20
78.632294
 30
0.0
 10
86.285220
 20
89.684282
 30
0.0
 10
90.380030
 20
89.684282
 30
0.0
 10
90.380030
 20
91.632294
 30
0.0
 10
79.884610
 20
91.632294
 30
0.0
 10
79.884610
 20
89.684282
 30
0.0
 10
83.979410
 20
89.684282
 30
0.0
  0
SPLINE
  5
219
100
AcDbEntity
  8
chars
 62
7
100
AcDbSpline
 70
8
 71
3
 72
8
 73
4
 74
0
 40
0
 40
0
 40
0
 40
0
 40
1
 40
1
 40
1
 40
1
 10
111.714891
 20
83.243910
 30
0.0
 10
111.893790
 20
84.058900
 30
0.0
 10
111.993179
 20
84.873880
 30
0.0
 10
112.112445
 20
85.668990
 30
0.0
  0
LWPOLYLINE
  5
21a
100
AcDbEntity
  8
chars
 62
7
100
AcDbPolyline
 90
3
 70
0
 10
108.156787
 20
78.632290
 30
0.0
 10
110.721007
 20
78.632290
 30
0.0
 10
111.714891
 20
83.243910
 30
0.0
  0
SPLINE
  5
21b
100
AcDbEntity
  8
chars
 62
7
100
AcDbSpline
 70
8
 71
3
 72
8
 73
4
 74
0
 40
0
 40
0
 40
0
 40
0
 40
1
 40
1
 40
1
 40
1
 10
112.172075
 20
85.668990
 30
0.0
 10
112.251585
 20
84.873880
 30
0.0
 10
112.410607
 20
84.058900
 30
0.0
 10
112.589506
 20
83.243910
 30
0.0
  0
LWPOLYLINE
  5
21c
100
AcDbEntity
  8
chars
 62
7
100
AcDbPolyline
 90
2
 70
0
 10
112.112445
 20
85.668990
 30
0.0
 10
112.172075
 20
85.668990
 30
0.0
  0
SPLINE
  5
21d
100
AcDbEntity
  8
chars
 62
7
100
AcDbSpline
 70
8
 71
3
 72
8
 73
4
 74
0
 40
0
 40
0
 40
0
 40
0
 40
1
 40
1
 40
1
 40
1
 10
114.994705
 20
84.098650
 30
0.0
 10
114.915195
 20
83.025260
 30
0.0
 10
114.895315
 20
82.210280
 30
0.0
 10
114.835683
 20
80.977860
 30
0.0
  0
LWPOLYLINE
  5
21e
100
AcDbEntity
  8
chars
 62
7
100
AcDbPolyline
 90
6
 70
0
 10
112.589506
 20
83.243910
 30
0.0
 10
113.603267
 20
78.632290
 30
0.0
 10
116.207243
 20
78.632290
 30
0.0
 10
117.956478
 20
91.632290
 30
0.0
 10
115.630790
 20
91.632290
 30
0.0
 10
114.994705
 20
84.098650
 30
0.0
  0
SPLINE
  5
21f
100
AcDbEntity
  8
chars
 62
7
100
AcDbSpline
 70
8
 71
3
 72
8
 73
4
 74
0
 40
0
 40
0
 40
0
 40
0
 40
1
 40
1
 40
1
 40
1
 10
114.756173
 20
80.977860
 30
0.0
 10
114.557396
 20
82.210280
 30
0.0
 10
114.378497
 20
83.025260
 30
0.0
 10
114.120087
 20
84.098650
 30
0.0
  0
LWPOLYLINE
  5
220
100
AcDbEntity
  8
chars
 62
7
100
AcDbPolyline
 90
2
 70
0
 10
114.835683
 20
80.977860
 30
0.0
 10
114.756173
 20
80.977860
 30
0.0
  0
SPLINE
  5
221
100
AcDbEntity
  8
chars
 62
7
100
AcDbSpline
 70
8
 71
3
 72
8
 73
4
 74
0
 40
0
 40
0
 40
0
 40
0
 40
1
 40
1
 40
1
 40
1
 10
110.303573
 20
84.098650
 30
0.0
 10
110.065041
 20
83.005380
 30
0.0
 10
109.886142
 20
82.190400
 30
0.0
 10
109.667488
 20
80.977860
 30
0.0
  0
LWPOLYLINE
  5
222
100
AcDbEntity
  8
chars
 62
7
100
AcDbPolyline
 90
4
 70
0
 10
114.120087
 20
84.098650
 30
0.0
 10
113.106326
 20
88.312720
 30
0.0
 10
111.376968
 20
88.312720
 30
0.0
 10
110.303573
 20
84.098650
 30
0.0
  0
SPLINE
  5
223
100
AcDbEntity
  8
chars
 62
7
100
AcDbSpline
 70
8
 71
3
 72
8
 73
4
 74
0
 40
0
 40
0
 40
0
 40
0
 40
1
 40
1
 40
1
 40
1
 10
109.607858
 20
80.977860
 30
0.0
 10
109.568098
 20
82.190400
 30
0.0
 10
109.508468
 20
83.005380
 30
0.0
 10
109.428958
 20
84.098650
 30
0.0
  0
LWPOLYLINE
  5
224
100
AcDbEntity
  8
chars
 62
7
100
AcDbPolyline
 90
2
 70
0
 10
109.667488
 20
80.977860
 30
0.0
 10
109.607858
 20
80.977860
 30
0.0
  0
LWPOLYLINE
  5
225
100
AcDbEntity
  8
chars
 62
7
100
AcDbPolyline
 90
4
 70
0
 10
109.428958
 20
84.098650
 30
0.0
 10
108.772995
 20
91.632290
 30
0.0
 10
106.308163
 20
91.632290
 30
0.0
 10
108.156787
 20
78.632290
 30
0.0
  0
LWPOLYLINE
  5
226
100
AcDbEntity
  8
chars
 62
7
100
AcDbPolyline
 90
6
 70
1
 10
188.938120
 20
78.632290
 30
0.0
 10
197.326500
 20
78.632290
 30
0.0
 10
197.326500
 20
80.580310
 30
0.0
 10
191.224050
 20
80.580310
 30
0.0
 10
191.224050
 20
91.632290
 30
0.0
 10
188.938120
 20
91.632290
 30
0.0
  0
LWPOLYLINE
  5
227
100
AcDbEntity
  8
chars
 62
7
100
AcDbPolyline
 90
10
 70
1
 10
215.977880
 20
78.632294
 30
0.0
 10
218.283690
 20
78.632294
 30
0.0
 10
218.283690
 20
84.058899
 30
0.0
 10
223.392250
 20
84.058899
 30
0.0
 10
223.392250
 20
86.006912
 30
0.0
 10
218.283690
 20
86.006912
 30
0.0
 10
218.283690
 20
89.684282
 30
0.0
 10
224.286740
 20
89.684282
 30
0.0
 10
224.286740
 20
91.632294
 30
0.0
 10
215.977880
 20
91.632294
 30
0.0
  0
SPLINE
  5
228
100
AcDbEntity
  8
chars
 62
7
100
AcDbSpline
 70
8
 71
3
 72
8
 73
4
 74
0
 40
0
 40
0
 40
0
 40
0
 40
1
 40
1
 40
1
 40
1
 10
271.448885
 20
83.880000
 30
0.0
 10
271.448885
 20
85.251560
 30
0.0
 10
271.250115
 20
87.935040
 30
0.0
 10
271.110965
 20
89.207210
 30
0.0
  0
LWPOLYLINE
  5
229
100
AcDbEntity
  8
chars
 62
7
100
AcDbPolyline
 90
3
 70
0
 10
269.461125
 20
78.632290
 30
0.0
 10
271.448885
 20
78.632290
 30
0.0
 10
271.448885
 20
83.880000
 30
0.0
  0
SPLINE
  5
22a
100
AcDbEntity
  8
chars
 62
7
100
AcDbSpline
 70
8
 71
3
 72
8
 73
4
 74
0
 40
0
 40
0
 40
0
 40
0
 40
1
 40
1
 40
1
 40
1
 10
277.113955
 20
89.207210
 30
0.0
 10
276.994685
 20
87.935040
 30
0.0
 10
276.776035
 20
85.251560
 30
0.0
 10
276.776035
 20
83.880000
 30
0.0
  0
LWPOLYLINE
  5
22b
100
AcDbEntity
  8
chars
 62
7
100
AcDbPolyline
 90
8
 70
0
 10
271.110965
 20
89.207210
 30
0.0
 10
271.170565
 20
89.207210
 30
0.0
 10
272.025305
 20
86.185810
 30
0.0
 10
273.436615
 20
82.071130
 30
0.0
 10
274.748545
 20
82.071130
 30
0.0
 10
276.179735
 20
86.185810
 30
0.0
 10
277.054355
 20
89.207210
 30
0.0
 10
277.113955
 20
89.207210
 30
0.0
  0
SPLINE
  5
22c
100
AcDbEntity
  8
chars
 62
7
100
AcDbSpline
 70
8
 71
3
 72
8
 73
4
 74
0
 40
0
 40
0
 40
0
 40
0
 40
1
 40
1
 40
1
 40
1
 10
301.151830
 20
78.632290
 30
0.0
 10
303.962640
 20
78.632290
 30
0.0
 10
305.582760
 20
80.252410
 30
0.0
 10
305.582760
 20
83.746404
 30
0.0
  0
LWPOLYLINE
  5
22d
100
AcDbEntity
  8
chars
 62
7
100
AcDbPolyline
 90
12
 70
0
 10
276.776035
 20
83.880000
 30
0.0
 10
276.776035
 20
78.632290
 30
0.0
 10
278.803555
 20
78.632290
 30
0.0
 10
278.803555
 20
91.632290
 30
0.0
 10
276.259215
 20
91.632290
 30
0.0
 10
274.688875
 20
86.563480
 30
0.0
 10
274.172055
 20
84.615470
 30
0.0
 10
274.092555
 20
84.615470
 30
0.0
 10
273.555865
 20
86.563480
 30
0.0
 10
272.005405
 20
91.632290
 30
0.0
 10
269.461065
 20
91.632290
 30
0.0
 10
269.461125
 20
78.632290
 30
0.0
  0
SPLINE
  5
22e
100
AcDbEntity
  8
chars
 62
7
100
AcDbSpline
 70
8
 71
3
 72
8
 73
4
 74
0
 40
0
 40
0
 40
0
 40
0
 40
1
 40
1
 40
1
 40
1
 10
303.416100
 20
83.570728
 30
0.0
 10
303.416100
 20
81.482139
 30
0.0
 10
302.537720
 20
80.603761
 30
0.0
 10
301.151830
 20
80.603761
 30
0.0
  0
SPLINE
  5
22f
100
AcDbEntity
  8
chars
 62
7
100
AcDbSpline
 70
8
 71
3
 72
8
 73
4
 74
0
 40
0
 40
0
 40
0
 40
0
 40
1
 40
1
 40
1
 40
1
 10
301.151830
 20
80.603761
 30
0.0
 10
299.785470
 20
80.603761
 30
0.0
 10
298.946130
 20
81.482139
 30
0.0
 10
298.946130
 20
83.570728
 30
0.0
  0
LWPOLYLINE
  5
230
100
AcDbEntity
  8
chars
 62
7
100
AcDbPolyline
 90
4
 70
0
 10
305.582760
 20
83.746404
 30
0.0
 10
305.582760
 20
91.632290
 30
0.0
 10
303.416100
 20
91.632290
 30
0.0
 10
303.416100
 20
83.570728
 30
0.0
  0
SPLINE
  5
231
100
AcDbEntity
  8
chars
 62
7
100
AcDbSpline
 70
8
 71
3
 72
8
 73
4
 74
0
 40
0
 40
0
 40
0
 40
0
 40
1
 40
1
 40
1
 40
1
 10
296.681860
 20
83.746404
 30
0.0
 10
296.681860
 20
80.252410
 30
0.0
 10
298.360540
 20
78.632290
 30
0.0
 10
301.151830
 20
78.632290
 30
0.0
  0
LWPOLYLINE
  5
232
100
AcDbEntity
  8
chars
 62
7
100
AcDbPolyline
 90
4
 70
0
 10
298.946130
 20
83.570728
 30
0.0
 10
298.946130
 20
91.632290
 30
0.0
 10
296.681860
 20
91.632290
 30
0.0
 10
296.681860
 20
83.746404
 30
0.0
  0
SPLINE
  5
233
100
AcDbEntity
  8
chars
 62
7
100
AcDbSpline
 70
8
 71
3
 72
8
 73
4
 74
0
 40
0
 40
0
 40
0
 40
0
 40
1
 40
1
 40
1
 40
1
 10
328.151830
 20
78.632290
 30
0.0
 10
330.962640
 20
78.632290
 30
0.0
 10
332.582760
 20
80.252410
 30
0.0
 10
332.582760
 20
83.746404
 30
0.0
  0
LWPOLYLINE
  5
234
100
AcDbEntity
  8
chars
 62
7
100
AcDbPolyline
 90
1
 70
1
 10
301.151830
 20
78.632290
 30
0.0
  0
SPLINE
  5
235
100
AcDbEntity
  8
chars
 62
7
100
AcDbSpline
 70
8
 71
3
 72
8
 73
4
 74
0
 40
0
 40
0
 40
0
 40
0
 40
1
 40
1
 40
1
 40
1
 10
330.416100
 20
83.570728
 30
0.0
 10
330.416100
 20
81.482139
 30
0.0
 10
329.537720
 20
80.603761
 30
0.0
 10
328.151830
 20
80.603761
 30
0.0
  0
SPLINE
  5
236
100
AcDbEntity
  8
chars
 62
7
100
AcDbSpline
 70
8
 71
3
 72
8
 73
4
 74
0
 40
0
 40
0
 40
0
 40
0
 40
1
 40
1
 40
1
 40
1
 10
328.151830
 20
80.603761
 30
0.0
 10
326.785470
 20
80.603761
 30
0.0
 10
325.946130
 20
81.482139
 30
0.0
 10
325.946130
 20
83.570728
 30
0.0
  0
LWPOLYLINE
  5
237
100
AcDbEntity
  8
chars
 62
7
100
AcDbPolyline
 90
4
 70
0
 10
332.582760
 20
83.746404
 30
0.0
 10
332.582760
 20
91.632290
 30
0.0
 10
330.416100
 20
91.632290
 30
0.0
 10
330.416100
 20
83.570728
 30
0.0
  0
SPLINE
  5
238
100
AcDbEntity
  8
chars
 62
7
100
AcDbSpline
 70
8
 71
3
 72
8
 73
4
 74
0
 40
0
 40
0
 40
0
 40
0
 40
1
 40
1
 40
1
 40
1
 10
323.681860
 20
83.746404
 30
0.0
 10
323.681860
 20
80.252410
 30
0.0
 10
325.360540
 20
78.632290
 30
0.0
 10
328.151830
 20
78.632290
 30
0.0
  0
LWPOLYLINE
  5
239
100
AcDbEntity
  8
chars
 62
7
100
AcDbPolyline
 90
4
 70
0
 10
325.946130
 20
83.570728
 30
0.0
 10
325.946130
 20
91.632290
 30
0.0
 10
323.681860
 20
91.632290
 30
0.0
 10
323.681860
 20
83.746404
 30
0.0
  0
LWPOLYLINE
  5
23a
100
AcDbEntity
  8
chars
 62
7
100
AcDbPolyline
 90
1
 70
1
 10
328.151830
 20
78.632290
 30
0.0
  0
SPLINE
  5
23b
100
AcDbEntity
  8
chars
 62
7
100
AcDbSpline
 70
8
 71
3
 72
8
 73
4
 74
0
 40
0
 40
0
 40
0
 40
0
 40
1
 40
1
 40
1
 40
1
 10
298.448885
 20
323.879970
 30
0.0
 10
298.448885
 20
325.251530
 30
0.0
 10
298.250115
 20
327.935010
 30
0.0
 10
298.110965
 20
329.207180
 30
0.0
  0
LWPOLYLINE
  5
23c
100
AcDbEntity
  8
chars
 62
7
100
AcDbPolyline
 90
3
 70
0
 10
296.461125
 20
318.632260
 30
0.0
 10
298.448885
 20
318.632260
 30
0.0
 10
298.448885
 20
323.879970
 30
0.0
  0
SPLINE
  5
23d
100
AcDbEntity
  8
chars
 62
7
100
AcDbSpline
 70
8
 71
3
 72
8
 73
4
 74
0
 40
0
 40
0
 40
0
 40
0
 40
1
 40
1
 40
1
 40
1
 10
304.113955
 20
329.207180
 30
0.0
 10
303.994685
 20
327.935010
 30
0.0
 10
303.776035
 20
325.251530
 30
0.0
 10
303.776035
 20
323.879970
 30
0.0
  0
LWPOLYLINE
  5
23e
100
AcDbEntity
  8
chars
 62
7
100
AcDbPolyline
 90
8
 70
0
 10
298.110965
 20
329.207180
 30
0.0
 10
298.170565
 20
329.207180
 30
0.0
 10
299.025305
 20
326.185780
 30
0.0
 10
300.436615
 20
322.071100
 30
0.0
 10
301.748545
 20
322.071100
 30
0.0
 10
303.179735
 20
326.185780
 30
0.0
 10
304.054355
 20
329.207180
 30
0.0
 10
304.113955
 20
329.207180
 30
0.0
  0
LWPOLYLINE
  5
23f
100
AcDbEntity
  8
chars
 62
7
100
AcDbPolyline
 90
12
 70
0
 10
303.776035
 20
323.879970
 30
0.0
 10
303.776035
 20
318.632260
 30
0.0
 10
305.803555
 20
318.632260
 30
0.0
 10
305.803555
 20
331.632260
 30
0.0
 10
303.259215
 20
331.632260
 30
0.0
 10
301.688875
 20
326.563450
 30
0.0
 10
301.172055
 20
324.615440
 30
0.0
 10
301.092555
 20
324.615440
 30
0.0
 10
300.555865
 20
326.563450
 30
0.0
 10
299.005405
 20
331.632260
 30
0.0
 10
296.461065
 20
331.632260
 30
0.0
 10
296.461125
 20
318.632260
 30
0.0
  0
SPLINE
  5
240
100
AcDbEntity
  8
chars
 62
7
100
AcDbSpline
 70
8
 71
3
 72
8
 73
4
 74
0
 40
0
 40
0
 40
0
 40
0
 40
1
 40
1
 40
1
 40
1
 10
352.448895
 20
323.879970
 30
0.0
 10
352.448895
 20
325.251530
 30
0.0
 10
352.250125
 20
327.935010
 30
0.0
 10
352.110975
 20
329.207180
 30
0.0
  0
LWPOLYLINE
  5
241
100
AcDbEntity
  8
chars
 62
7
100
AcDbPolyline
 90
3
 70
0
 10
350.461135
 20
318.632260
 30
0.0
 10
352.448895
 20
318.632260
 30
0.0
 10
352.448895
 20
323.879970
 30
0.0
  0
SPLINE
  5
242
100
AcDbEntity
  8
chars
 62
7
100
AcDbSpline
 70
8
 71
3
 72
8
 73
4
 74
0
 40
0
 40
0
 40
0
 40
0
 40
1
 40
1
 40
1
 40
1
 10
358.113965
 20
329.207180
 30
0.0
 10
357.994695
 20
327.935010
 30
0.0
 10
357.776045
 20
325.251530
 30
0.0
 10
357.776045
 20
323.879970
 30
0.0
  0
LWPOLYLINE
  5
243
100
AcDbEntity
  8
chars
 62
7
100
AcDbPolyline
 90
8
 70
0
 10
352.110975
 20
329.207180
 30
0.0
 10
352.170575
 20
329.207180
 30
0.0
 10
353.025315
 20
326.185780
 30
0.0
 10
354.436625
 20
322.071100
 30
0.0
 10
355.748555
 20
322.071100
 30
0.0
 10
357.179745
 20
326.185780
 30
0.0
 10
358.054365
 20
329.207180
 30
0.0
 10
358.113965
 20
329.207180
 30
0.0
  0
SPLINE
  5
244
100
AcDbEntity
  8
chars
 62
7
100
AcDbSpline
 70
8
 71
3
 72
8
 73
4
 74
0
 40
0
 40
0
 40
0
 40
0
 40
1
 40
1
 40
1
 40
1
 10
242.840997
 20
90.424000
 30
0.0
 10
242.840997
 20
90.158783
 30
0.0
 10
242.735640
 20
89.904429
 30
0.0
 10
242.548103
 20
89.716893
 30
0.0
  0
SPLINE
  5
245
100
AcDbEntity
  8
chars
 62
7
100
AcDbSpline
 70
8
 71
3
 72
8
 73
4
 74
0
 40
0
 40
0
 40
0
 40
0
 40
1
 40
1
 40
1
 40
1
 10
242.548103
 20
89.716893
 30
0.0
 10
242.360567
 20
89.529357
 30
0.0
 10
242.106213
 20
89.424000
 30
0.0
 10
241.840997
 20
89.424001
 30
0.0
  0
SPLINE
  5
246
100
AcDbEntity
  8
chars
 62
7
100
AcDbSpline
 70
8
 71
3
 72
8
 73
4
 74
0
 40
0
 40
0
 40
0
 40
0
 40
1
 40
1
 40
1
 40
1
 10
241.840997
 20
89.424001
 30
0.0
 10
241.575781
 20
89.424000
 30
0.0
 10
241.321428
 20
89.529357
 30
0.0
 10
241.133891
 20
89.716893
 30
0.0
  0
SPLINE
  5
247
100
AcDbEntity
  8
chars
 62
7
100
AcDbSpline
 70
8
 71
3
 72
8
 73
4
 74
0
 40
0
 40
0
 40
0
 40
0
 40
1
 40
1
 40
1
 40
1
 10
241.133891
 20
89.716893
 30
0.0
 10
240.946355
 20
89.904429
 30
0.0
 10
240.840997
 20
90.158783
 30
0.0
 10
240.840997
 20
90.424000
 30
0.0
  0
SPLINE
  5
248
100
AcDbEntity
  8
chars
 62
7
100
AcDbSpline
 70
8
 71
3
 72
8
 73
4
 74
0
 40
0
 40
0
 40
0
 40
0
 40
1
 40
1
 40
1
 40
1
 10
240.840997
 20
90.424000
 30
0.0
 10
240.840997
 20
90.689218
 30
0.0
 10
240.946354
 20
90.943573
 30
0.0
 10
241.133890
 20
91.131109
 30
0.0
  0
SPLINE
  5
249
100
AcDbEntity
  8
chars
 62
7
100
AcDbSpline
 70
8
 71
3
 72
8
 73
4
 74
0
 40
0
 40
0
 40
0
 40
0
 40
1
 40
1
 40
1
 40
1
 10
241.133890
 20
91.131109
 30
0.0
 10
241.321427
 20
91.318646
 30
0.0
 10
241.575781
 20
91.424003
 30
0.0
 10
241.840997
 20
91.424001
 30
0.0
  0
SPLINE
  5
24a
100
AcDbEntity
  8
chars
 62
7
100
AcDbSpline
 70
8
 71
3
 72
8
 73
4
 74
0
 40
0
 40
0
 40
0
 40
0
 40
1
 40
1
 40
1
 40
1
 10
241.840997
 20
91.424001
 30
0.0
 10
242.106213
 20
91.424003
 30
0.0
 10
242.360567
 20
91.318646
 30
0.0
 10
242.548104
 20
91.131109
 30
0.0
  0
SPLINE
  5
24b
100
AcDbEntity
  8
chars
 62
7
100
AcDbSpline
 70
8
 71
3
 72
8
 73
4
 74
0
 40
0
 40
0
 40
0
 40
0
 40
1
 40
1
 40
1
 40
1
 10
242.548104
 20
91.131109
 30
0.0
 10
242.735640
 20
90.943573
 30
0.0
 10
242.840997
 20
90.689218
 30
0.0
 10
242.840997
 20
90.424000
 30
0.0
  0
LWPOLYLINE
  5
24c
100
AcDbEntity
  8
chars
 62
7
100
AcDbPolyline
 90
12
 70
0
 10
357.776045
 20
323.879970
 30
0.0
 10
357.776045
 20
318.632260
 30
0.0
 10
359.803565
 20
318.632260
 30
0.0
 10
359.803565
 20
331.632260
 30
0.0
 10
357.259225
 20
331.632260
 30
0.0
 10
355.688885
 20
326.563450
 30
0.0
 10
355.172065
 20
324.615440
 30
0.0
 10
355.092565
 20
324.615440
 30
0.0
 10
354.555875
 20
326.563450
 30
0.0
 10
353.005415
 20
331.632260
 30
0.0
 10
350.461075
 20
331.632260
 30
0.0
 10
350.461135
 20
318.632260
 30
0.0
  0
SPLINE
  5
24d
100
AcDbEntity
  8
chars
 62
7
100
AcDbSpline
 70
8
 71
3
 72
8
 73
4
 74
0
 40
0
 40
0
 40
0
 40
0
 40
1
 40
1
 40
1
 40
1
 10
247.956795
 20
78.632290
 30
0.0
 10
249.624935
 20
78.632290
 30
0.0
 10
250.947945
 20
79.284200
 30
0.0
 10
251.944995
 20
80.453820
 30
0.0
  0
LWPOLYLINE
  5
24e
100
AcDbEntity
  8
chars
 62
7
100
AcDbPolyline
 90
1
 70
1
 10
242.840997
 20
90.424000
 30
0.0
  0
SPLINE
  5
24f
100
AcDbEntity
  8
chars
 62
7
100
AcDbSpline
 70
8
 71
3
 72
8
 73
4
 74
0
 40
0
 40
0
 40
0
 40
0
 40
1
 40
1
 40
1
 40
1
 10
250.717855
 20
81.815180
 30
0.0
 10
250.008415
 20
81.029040
 30
0.0
 10
249.183935
 20
80.568870
 30
0.0
 10
248.167705
 20
80.568870
 30
0.0
  0
SPLINE
  5
250
100
AcDbEntity
  8
chars
 62
7
100
AcDbSpline
 70
8
 71
3
 72
8
 73
4
 74
0
 40
0
 40
0
 40
0
 40
0
 40
1
 40
1
 40
1
 40
1
 10
248.167705
 20
80.568870
 30
0.0
 10
246.020215
 20
80.568870
 30
0.0
 10
244.601335
 20
82.294530
 30
0.0
 10
244.601335
 20
85.151460
 30
0.0
  0
SPLINE
  5
251
100
AcDbEntity
  8
chars
 62
7
100
AcDbSpline
 70
8
 71
3
 72
8
 73
4
 74
0
 40
0
 40
0
 40
0
 40
0
 40
1
 40
1
 40
1
 40
1
 10
244.601335
 20
85.151460
 30
0.0
 10
244.601335
 20
87.970050
 30
0.0
 10
246.020215
 20
89.695710
 30
0.0
 10
248.110185
 20
89.695710
 30
0.0
  0
SPLINE
  5
252
100
AcDbEntity
  8
chars
 62
7
100
AcDbSpline
 70
8
 71
3
 72
8
 73
4
 74
0
 40
0
 40
0
 40
0
 40
0
 40
1
 40
1
 40
1
 40
1
 10
248.110185
 20
89.695710
 30
0.0
 10
249.088065
 20
89.695710
 30
0.0
 10
249.835855
 20
89.293050
 30
0.0
 10
250.468595
 20
88.679490
 30
0.0
  0
LWPOLYLINE
  5
253
100
AcDbEntity
  8
chars
 62
7
100
AcDbPolyline
 90
2
 70
0
 10
251.944995
 20
80.453820
 30
0.0
 10
250.717855
 20
81.815180
 30
0.0
  0
SPLINE
  5
254
100
AcDbEntity
  8
chars
 62
7
100
AcDbSpline
 70
8
 71
3
 72
8
 73
4
 74
0
 40
0
 40
0
 40
0
 40
0
 40
1
 40
1
 40
1
 40
1
 10
251.695735
 20
90.060020
 30
0.0
 10
250.909595
 20
90.884500
 30
0.0
 10
249.663285
 20
91.632290
 30
0.0
 10
248.110185
 20
91.632290
 30
0.0
  0
SPLINE
  5
255
100
AcDbEntity
  8
chars
 62
7
100
AcDbSpline
 70
8
 71
3
 72
8
 73
4
 74
0
 40
0
 40
0
 40
0
 40
0
 40
1
 40
1
 40
1
 40
1
 10
248.110185
 20
91.632290
 30
0.0
 10
244.793075
 20
91.632290
 30
0.0
 10
242.319625
 20
89.197180
 30
0.0
 10
242.319625
 20
85.093940
 30
0.0
  0
SPLINE
  5
256
100
AcDbEntity
  8
chars
 62
7
100
AcDbSpline
 70
8
 71
3
 72
8
 73
4
 74
0
 40
0
 40
0
 40
0
 40
0
 40
1
 40
1
 40
1
 40
1
 10
242.319625
 20
85.093940
 30
0.0
 10
242.319625
 20
80.933170
 30
0.0
 10
244.850605
 20
78.632290
 30
0.0
 10
247.956795
 20
78.632290
 30
0.0
  0
LWPOLYLINE
  5
257
100
AcDbEntity
  8
chars
 62
7
100
AcDbPolyline
 90
2
 70
0
 10
250.468595
 20
88.679490
 30
0.0
 10
251.695735
 20
90.060020
 30
0.0
  0
LWPOLYLINE
  5
258
100
AcDbEntity
  8
chars
 62
7
100
AcDbPolyline
 90
1
 70
1
 10
247.956795
 20
78.632290
 30
0.0
  0
LWPOLYLINE
  5
259
100
AcDbEntity
  8
chars
 62
7
100
AcDbPolyline
 90
4
 70
1
 10
273.534350
 20
242.703751
 30
0.0
 10
275.333520
 20
244.344168
 30
0.0
 10
274.486850
 20
245.159085
 30
0.0
 10
272.931100
 20
243.307001
 30
0.0
  0
LWPOLYLINE
  5
25a
100
AcDbEntity
  8
chars
 62
7
100
AcDbPolyline
 90
4
 70
1
 10
300.534350
 20
242.703751
 30
0.0
 10
302.333520
 20
244.344168
 30
0.0
 10
301.486850
 20
245.159085
 30
0.0
 10
299.931100
 20
243.307001
 30
0.0
  0
SPLINE
  5
25b
100
AcDbEntity
  8
chars
 62
7
100
AcDbSpline
 70
8
 71
3
 72
8
 73
4
 74
0
 40
0
 40
0
 40
0
 40
0
 40
1
 40
1
 40
1
 40
1
 10
327.615550
 20
329.783400
 30
0.0
 10
329.503920
 20
329.783400
 30
0.0
 10
330.477910
 20
329.246570
 30
0.0
 10
330.477910
 20
327.616600
 30
0.0
  0
SPLINE
  5
25c
100
AcDbEntity
  8
chars
 62
7
100
AcDbSpline
 70
8
 71
3
 72
8
 73
4
 74
0
 40
0
 40
0
 40
0
 40
0
 40
1
 40
1
 40
1
 40
1
 10
330.477910
 20
327.616600
 30
0.0
 10
330.477910
 20
326.026380
 30
0.0
 10
329.543680
 20
325.251370
 30
0.0
 10
327.615550
 20
325.251370
 30
0.0
  0
LWPOLYLINE
  5
25d
100
AcDbEntity
  8
chars
 62
7
100
AcDbPolyline
 90
5
 70
0
 10
323.520710
 20
331.632380
 30
0.0
 10
323.520710
 20
326.751540
 30
0.0
 10
325.826510
 20
326.751540
 30
0.0
 10
325.826510
 20
329.783400
 30
0.0
 10
327.615550
 20
329.783400
 30
0.0
  0
SPLINE
  5
25e
100
AcDbEntity
  8
chars
 62
7
100
AcDbSpline
 70
8
 71
3
 72
8
 73
4
 74
0
 40
0
 40
0
 40
0
 40
0
 40
1
 40
1
 40
1
 40
1
 10
327.794350
 20
323.402910
 30
0.0
 10
330.597100
 20
323.402910
 30
0.0
 10
332.743910
 20
324.734340
 30
0.0
 10
332.743910
 20
327.616600
 30
0.0
  0
SPLINE
  5
25f
100
AcDbEntity
  8
chars
 62
7
100
AcDbSpline
 70
8
 71
3
 72
8
 73
4
 74
0
 40
0
 40
0
 40
0
 40
0
 40
1
 40
1
 40
1
 40
1
 10
332.743910
 20
327.616600
 30
0.0
 10
332.743910
 20
330.638000
 30
0.0
 10
330.636850
 20
331.632380
 30
0.0
 10
327.794350
 20
331.632380
 30
0.0
  0
LWPOLYLINE
  5
260
100
AcDbEntity
  8
chars
 62
7
100
AcDbPolyline
 90
7
 70
0
 10
327.615550
 20
325.251370
 30
0.0
 10
325.826510
 20
325.251370
 30
0.0
 10
323.520710
 20
325.251370
 30
0.0
 10
323.520710
 20
318.632140
 30
0.0
 10
325.826510
 20
318.632140
 30
0.0
 10
325.826510
 20
323.402910
 30
0.0
 10
327.794350
 20
323.402910
 30
0.0
  0
LWPOLYLINE
  5
261
100
AcDbEntity
  8
chars
 62
7
100
AcDbPolyline
 90
2
 70
0
 10
327.794350
 20
331.632380
 30
0.0
 10
323.520710
 20
331.632380
 30
0.0
  0
SPLINE
  5
262
100
AcDbEntity
  8
chars
 62
7
100
AcDbSpline
 70
8
 71
3
 72
8
 73
4
 74
0
 40
0
 40
0
 40
0
 40
0
 40
1
 40
1
 40
1
 40
1
 10
272.900070
 20
325.549770
 30
0.0
 10
273.297630
 20
326.921330
 30
0.0
 10
273.695170
 20
328.391980
 30
0.0
 10
274.052970
 20
329.843050
 30
0.0
  0
LWPOLYLINE
  5
263
100
AcDbEntity
  8
chars
 62
7
100
AcDbPolyline
 90
4
 70
0
 10
272.780730
 20
331.632120
 30
0.0
 10
270.779820
 20
325.459370
 30
0.0
 10
272.874270
 20
325.459370
 30
0.0
 10
272.900070
 20
325.549770
 30
0.0
  0
SPLINE
  5
264
100
AcDbEntity
  8
chars
 62
7
100
AcDbSpline
 70
8
 71
3
 72
8
 73
4
 74
0
 40
0
 40
0
 40
0
 40
0
 40
1
 40
1
 40
1
 40
1
 10
274.132570
 20
329.843050
 30
0.0
 10
274.490370
 20
328.391980
 30
0.0
 10
274.907800
 20
326.921330
 30
0.0
 10
275.285470
 20
325.549770
 30
0.0
  0
LWPOLYLINE
  5
265
100
AcDbEntity
  8
chars
 62
7
100
AcDbPolyline
 90
2
 70
0
 10
274.052970
 20
329.843050
 30
0.0
 10
274.132570
 20
329.843050
 30
0.0
  0
SPLINE
  5
266
100
AcDbEntity
  8
chars
 62
7
100
AcDbSpline
 70
8
 71
3
 72
8
 73
4
 74
0
 40
0
 40
0
 40
0
 40
0
 40
1
 40
1
 40
1
 40
1
 10
85.132077
 20
301.632150
 30
0.0
 10
82.217617
 20
301.632150
 30
0.0
 10
80.204716
 20
299.312070
 30
0.0
 10
80.204716
 20
295.189650
 30
0.0
  0
SPLINE
  5
267
100
AcDbEntity
  8
chars
 62
7
100
AcDbSpline
 70
8
 71
3
 72
8
 73
4
 74
0
 40
0
 40
0
 40
0
 40
0
 40
1
 40
1
 40
1
 40
1
 10
80.204716
 20
295.189650
 30
0.0
 10
80.204716
 20
293.881810
 30
0.0
 10
80.400136
 20
292.752850
 30
0.0
 10
80.757136
 20
291.817760
 30
0.0
  0
LWPOLYLINE
  5
268
100
AcDbEntity
  8
chars
 62
7
100
AcDbPolyline
 90
13
 70
0
 10
275.285470
 20
325.549770
 30
0.0
 10
275.742810
 20
323.959690
 30
0.0
 10
273.864890
 20
323.959690
 30
0.0
 10
272.442750
 20
323.959690
 30
0.0
 10
270.293530
 20
323.959690
 30
0.0
 10
268.566500
 20
318.632400
 30
0.0
 10
270.912100
 20
318.632400
 30
0.0
 10
271.925990
 20
322.150530
 30
0.0
 10
276.259570
 20
322.150530
 30
0.0
 10
277.253310
 20
318.632400
 30
0.0
 10
279.698120
 20
318.632400
 30
0.0
 10
275.484430
 20
331.632120
 30
0.0
 10
272.780730
 20
331.632120
 30
0.0
  0
SPLINE
  5
269
100
AcDbEntity
  8
chars
 62
7
100
AcDbSpline
 70
8
 71
3
 72
8
 73
4
 74
0
 40
0
 40
0
 40
0
 40
0
 40
1
 40
1
 40
1
 40
1
 10
82.594246
 20
293.654860
 30
0.0
 10
82.523246
 20
294.118900
 30
0.0
 10
82.486246
 20
294.631080
 30
0.0
 10
82.486246
 20
295.189650
 30
0.0
  0
SPLINE
  5
26a
100
AcDbEntity
  8
chars
 62
7
100
AcDbSpline
 70
8
 71
3
 72
8
 73
4
 74
0
 40
0
 40
0
 40
0
 40
0
 40
1
 40
1
 40
1
 40
1
 10
82.486246
 20
295.189650
 30
0.0
 10
82.486246
 20
298.065760
 30
0.0
 10
83.521457
 20
299.695840
 30
0.0
 10
85.132077
 20
299.695840
 30
0.0
  0
SPLINE
  5
26b
100
AcDbEntity
  8
chars
 62
7
100
AcDbSpline
 70
8
 71
3
 72
8
 73
4
 74
0
 40
0
 40
0
 40
0
 40
0
 40
1
 40
1
 40
1
 40
1
 10
85.132077
 20
299.695840
 30
0.0
 10
86.023826
 20
299.695840
 30
0.0
 10
86.738147
 20
299.193900
 30
0.0
 10
87.199137
 20
298.259750
 30
0.0
  0
LWPOLYLINE
  5
26c
100
AcDbEntity
  8
chars
 62
7
100
AcDbPolyline
 90
2
 70
0
 10
80.757136
 20
291.817760
 30
0.0
 10
82.594246
 20
293.654860
 30
0.0
  0
SPLINE
  5
26d
100
AcDbEntity
  8
chars
 62
7
100
AcDbSpline
 70
8
 71
3
 72
8
 73
4
 74
0
 40
0
 40
0
 40
0
 40
0
 40
1
 40
1
 40
1
 40
1
 10
88.777847
 20
299.838460
 30
0.0
 10
87.906416
 20
301.009370
 30
0.0
 10
86.640307
 20
301.632150
 30
0.0
 10
85.132077
 20
301.632150
 30
0.0
  0
LWPOLYLINE
  5
26e
100
AcDbEntity
  8
chars
 62
7
100
AcDbPolyline
 90
2
 70
0
 10
87.199137
 20
298.259750
 30
0.0
 10
88.777847
 20
299.838460
 30
0.0
  0
LWPOLYLINE
  5
26f
100
AcDbEntity
  8
chars
 62
7
100
AcDbPolyline
 90
1
 70
1
 10
85.132077
 20
301.632150
 30
0.0
  0
SPLINE
  5
270
100
AcDbEntity
  8
chars
 62
7
100
AcDbSpline
 70
8
 71
3
 72
8
 73
4
 74
0
 40
0
 40
0
 40
0
 40
0
 40
1
 40
1
 40
1
 40
1
 10
87.679197
 20
296.618500
 30
0.0
 10
87.743697
 20
296.183570
 30
0.0
 10
87.778397
 20
295.707690
 30
0.0
 10
87.778397
 20
295.189650
 30
0.0
  0
SPLINE
  5
271
100
AcDbEntity
  8
chars
 62
7
100
AcDbSpline
 70
8
 71
3
 72
8
 73
4
 74
0
 40
0
 40
0
 40
0
 40
0
 40
1
 40
1
 40
1
 40
1
 10
87.778397
 20
295.189650
 30
0.0
 10
87.778397
 20
292.236850
 30
0.0
 10
86.742687
 20
290.568740
 30
0.0
 10
85.132056
 20
290.568740
 30
0.0
  0
SPLINE
  5
272
100
AcDbEntity
  8
chars
 62
7
100
AcDbSpline
 70
8
 71
3
 72
8
 73
4
 74
0
 40
0
 40
0
 40
0
 40
0
 40
1
 40
1
 40
1
 40
1
 10
85.132056
 20
290.568740
 30
0.0
 10
84.247767
 20
290.568740
 30
0.0
 10
83.538736
 20
291.074480
 30
0.0
 10
83.077386
 20
292.016720
 30
0.0
  0
LWPOLYLINE
  5
273
100
AcDbEntity
  8
chars
 62
7
100
AcDbPolyline
 90
2
 70
0
 10
89.520957
 20
298.460250
 30
0.0
 10
87.679197
 20
296.618500
 30
0.0
  0
SPLINE
  5
274
100
AcDbEntity
  8
chars
 62
7
100
AcDbSpline
 70
8
 71
3
 72
8
 73
4
 74
0
 40
0
 40
0
 40
0
 40
0
 40
1
 40
1
 40
1
 40
1
 10
81.499726
 20
290.439040
 30
0.0
 10
82.370707
 20
289.258940
 30
0.0
 10
83.631236
 20
288.632430
 30
0.0
 10
85.132056
 20
288.632430
 30
0.0
  0
SPLINE
  5
275
100
AcDbEntity
  8
chars
 62
7
100
AcDbSpline
 70
8
 71
3
 72
8
 73
4
 74
0
 40
0
 40
0
 40
0
 40
0
 40
1
 40
1
 40
1
 40
1
 10
85.132056
 20
288.632430
 30
0.0
 10
88.046496
 20
288.632430
 30
0.0
 10
90.059926
 20
290.990540
 30
0.0
 10
90.059926
 20
295.189650
 30
0.0
  0
SPLINE
  5
276
100
AcDbEntity
  8
chars
 62
7
100
AcDbSpline
 70
8
 71
3
 72
8
 73
4
 74
0
 40
0
 40
0
 40
0
 40
0
 40
1
 40
1
 40
1
 40
1
 10
90.059926
 20
295.189650
 30
0.0
 10
90.059926
 20
296.455440
 30
0.0
 10
89.868366
 20
297.549300
 30
0.0
 10
89.520937
 20
298.460250
 30
0.0
  0
LWPOLYLINE
  5
277
100
AcDbEntity
  8
chars
 62
7
100
AcDbPolyline
 90
2
 70
0
 10
83.077386
 20
292.016720
 30
0.0
 10
81.499726
 20
290.439040
 30
0.0
  0
SPLINE
  5
278
100
AcDbEntity
  8
chars
 62
7
100
AcDbSpline
 70
8
 71
3
 72
8
 73
4
 74
0
 40
0
 40
0
 40
0
 40
0
 40
1
 40
1
 40
1
 40
1
 10
112.132080
 20
271.632130
 30
0.0
 10
109.217620
 20
271.632130
 30
0.0
 10
107.204720
 20
269.312050
 30
0.0
 10
107.204720
 20
265.189630
 30
0.0
  0
SPLINE
  5
279
100
AcDbEntity
  8
chars
 62
7
100
AcDbSpline
 70
8
 71
3
 72
8
 73
4
 74
0
 40
0
 40
0
 40
0
 40
0
 40
1
 40
1
 40
1
 40
1
 10
107.204720
 20
265.189630
 30
0.0
 10
107.204720
 20
263.881790
 30
0.0
 10
107.400140
 20
262.752830
 30
0.0
 10
107.757140
 20
261.817740
 30
0.0
  0
LWPOLYLINE
  5
27a
100
AcDbEntity
  8
chars
 62
7
100
AcDbPolyline
 90
1
 70
1
 10
89.520937
 20
298.460250
 30
0.0
  0
SPLINE
  5
27b
100
AcDbEntity
  8
chars
 62
7
100
AcDbSpline
 70
8
 71
3
 72
8
 73
4
 74
0
 40
0
 40
0
 40
0
 40
0
 40
1
 40
1
 40
1
 40
1
 10
109.594250
 20
263.654840
 30
0.0
 10
109.523250
 20
264.118880
 30
0.0
 10
109.486250
 20
264.631060
 30
0.0
 10
109.486250
 20
265.189630
 30
0.0
  0
SPLINE
  5
27c
100
AcDbEntity
  8
chars
 62
7
100
AcDbSpline
 70
8
 71
3
 72
8
 73
4
 74
0
 40
0
 40
0
 40
0
 40
0
 40
1
 40
1
 40
1
 40
1
 10
109.486250
 20
265.189630
 30
0.0
 10
109.486250
 20
268.065740
 30
0.0
 10
110.521460
 20
269.695820
 30
0.0
 10
112.132080
 20
269.695820
 30
0.0
  0
SPLINE
  5
27d
100
AcDbEntity
  8
chars
 62
7
100
AcDbSpline
 70
8
 71
3
 72
8
 73
4
 74
0
 40
0
 40
0
 40
0
 40
0
 40
1
 40
1
 40
1
 40
1
 10
112.132080
 20
269.695820
 30
0.0
 10
113.023830
 20
269.695820
 30
0.0
 10
113.738150
 20
269.193880
 30
0.0
 10
114.199130
 20
268.259730
 30
0.0
  0
LWPOLYLINE
  5
27e
100
AcDbEntity
  8
chars
 62
7
100
AcDbPolyline
 90
2
 70
0
 10
107.757140
 20
261.817740
 30
0.0
 10
109.594250
 20
263.654840
 30
0.0
  0
SPLINE
  5
27f
100
AcDbEntity
  8
chars
 62
7
100
AcDbSpline
 70
8
 71
3
 72
8
 73
4
 74
0
 40
0
 40
0
 40
0
 40
0
 40
1
 40
1
 40
1
 40
1
 10
115.777850
 20
269.838440
 30
0.0
 10
114.906410
 20
271.009350
 30
0.0
 10
113.640300
 20
271.632130
 30
0.0
 10
112.132080
 20
271.632130
 30
0.0
  0
LWPOLYLINE
  5
280
100
AcDbEntity
  8
chars
 62
7
100
AcDbPolyline
 90
2
 70
0
 10
114.199130
 20
268.259730
 30
0.0
 10
115.777850
 20
269.838440
 30
0.0
  0
LWPOLYLINE
  5
281
100
AcDbEntity
  8
chars
 62
7
100
AcDbPolyline
 90
1
 70
1
 10
112.132080
 20
271.632130
 30
0.0
  0
SPLINE
  5
282
100
AcDbEntity
  8
chars
 62
7
100
AcDbSpline
 70
8
 71
3
 72
8
 73
4
 74
0
 40
0
 40
0
 40
0
 40
0
 40
1
 40
1
 40
1
 40
1
 10
114.679200
 20
266.618480
 30
0.0
 10
114.743700
 20
266.183550
 30
0.0
 10
114.778400
 20
265.707670
 30
0.0
 10
114.778400
 20
265.189630
 30
0.0
  0
SPLINE
  5
283
100
AcDbEntity
  8
chars
 62
7
100
AcDbSpline
 70
8
 71
3
 72
8
 73
4
 74
0
 40
0
 40
0
 40
0
 40
0
 40
1
 40
1
 40
1
 40
1
 10
114.778400
 20
265.189630
 30
0.0
 10
114.778400
 20
262.236830
 30
0.0
 10
113.742690
 20
260.568720
 30
0.0
 10
112.132060
 20
260.568720
 30
0.0
  0
SPLINE
  5
284
100
AcDbEntity
  8
chars
 62
7
100
AcDbSpline
 70
8
 71
3
 72
8
 73
4
 74
0
 40
0
 40
0
 40
0
 40
0
 40
1
 40
1
 40
1
 40
1
 10
112.132060
 20
260.568720
 30
0.0
 10
111.247770
 20
260.568720
 30
0.0
 10
110.538740
 20
261.074460
 30
0.0
 10
110.077390
 20
262.016700
 30
0.0
  0
LWPOLYLINE
  5
285
100
AcDbEntity
  8
chars
 62
7
100
AcDbPolyline
 90
2
 70
0
 10
116.520960
 20
268.460230
 30
0.0
 10
114.679200
 20
266.618480
 30
0.0
  0
SPLINE
  5
286
100
AcDbEntity
  8
chars
 62
7
100
AcDbSpline
 70
8
 71
3
 72
8
 73
4
 74
0
 40
0
 40
0
 40
0
 40
0
 40
1
 40
1
 40
1
 40
1
 10
108.499730
 20
260.439020
 30
0.0
 10
109.370710
 20
259.258920
 30
0.0
 10
110.631240
 20
258.632410
 30
0.0
 10
112.132060
 20
258.632410
 30
0.0
  0
SPLINE
  5
287
100
AcDbEntity
  8
chars
 62
7
100
AcDbSpline
 70
8
 71
3
 72
8
 73
4
 74
0
 40
0
 40
0
 40
0
 40
0
 40
1
 40
1
 40
1
 40
1
 10
112.132060
 20
258.632410
 30
0.0
 10
115.046500
 20
258.632410
 30
0.0
 10
117.059930
 20
260.990520
 30
0.0
 10
117.059930
 20
265.189630
 30
0.0
  0
SPLINE
  5
288
100
AcDbEntity
  8
chars
 62
7
100
AcDbSpline
 70
8
 71
3
 72
8
 73
4
 74
0
 40
0
 40
0
 40
0
 40
0
 40
1
 40
1
 40
1
 40
1
 10
117.059930
 20
265.189630
 30
0.0
 10
117.059930
 20
266.455420
 30
0.0
 10
116.868370
 20
267.549280
 30
0.0
 10
116.520940
 20
268.460230
 30
0.0
  0
LWPOLYLINE
  5
289
100
AcDbEntity
  8
chars
 62
7
100
AcDbPolyline
 90
2
 70
0
 10
110.077390
 20
262.016700
 30
0.0
 10
108.499730
 20
260.439020
 30
0.0
  0
SPLINE
  5
28a
100
AcDbEntity
  8
chars
 62
7
100
AcDbSpline
 70
8
 71
3
 72
8
 73
4
 74
0
 40
0
 40
0
 40
0
 40
0
 40
1
 40
1
 40
1
 40
1
 10
139.132080
 20
271.632130
 30
0.0
 10
136.217620
 20
271.632130
 30
0.0
 10
134.204710
 20
269.312050
 30
0.0
 10
134.204710
 20
265.189630
 30
0.0
  0
SPLINE
  5
28b
100
AcDbEntity
  8
chars
 62
7
100
AcDbSpline
 70
8
 71
3
 72
8
 73
4
 74
0
 40
0
 40
0
 40
0
 40
0
 40
1
 40
1
 40
1
 40
1
 10
134.204710
 20
265.189630
 30
0.0
 10
134.204710
 20
263.881790
 30
0.0
 10
134.400130
 20
262.752830
 30
0.0
 10
134.757130
 20
261.817740
 30
0.0
  0
LWPOLYLINE
  5
28c
100
AcDbEntity
  8
chars
 62
7
100
AcDbPolyline
 90
1
 70
1
 10
116.520940
 20
268.460230
 30
0.0
  0
SPLINE
  5
28d
100
AcDbEntity
  8
chars
 62
7
100
AcDbSpline
 70
8
 71
3
 72
8
 73
4
 74
0
 40
0
 40
0
 40
0
 40
0
 40
1
 40
1
 40
1
 40
1
 10
136.594240
 20
263.654840
 30
0.0
 10
136.523240
 20
264.118880
 30
0.0
 10
136.486240
 20
264.631060
 30
0.0
 10
136.486240
 20
265.189630
 30
0.0
  0
SPLINE
  5
28e
100
AcDbEntity
  8
chars
 62
7
100
AcDbSpline
 70
8
 71
3
 72
8
 73
4
 74
0
 40
0
 40
0
 40
0
 40
0
 40
1
 40
1
 40
1
 40
1
 10
136.486240
 20
265.189630
 30
0.0
 10
136.486240
 20
268.065740
 30
0.0
 10
137.521460
 20
269.695820
 30
0.0
 10
139.132080
 20
269.695820
 30
0.0
  0
SPLINE
  5
28f
100
AcDbEntity
  8
chars
 62
7
100
AcDbSpline
 70
8
 71
3
 72
8
 73
4
 74
0
 40
0
 40
0
 40
0
 40
0
 40
1
 40
1
 40
1
 40
1
 10
139.132080
 20
269.695820
 30
0.0
 10
140.023820
 20
269.695820
 30
0.0
 10
140.738150
 20
269.193880
 30
0.0
 10
141.199140
 20
268.259730
 30
0.0
  0
LWPOLYLINE
  5
290
100
AcDbEntity
  8
chars
 62
7
100
AcDbPolyline
 90
2
 70
0
 10
134.757130
 20
261.817740
 30
0.0
 10
136.594240
 20
263.654840
 30
0.0
  0
SPLINE
  5
291
100
AcDbEntity
  8
chars
 62
7
100
AcDbSpline
 70
8
 71
3
 72
8
 73
4
 74
0
 40
0
 40
0
 40
0
 40
0
 40
1
 40
1
 40
1
 40
1
 10
142.777850
 20
269.838440
 30
0.0
 10
141.906410
 20
271.009350
 30
0.0
 10
140.640310
 20
271.632130
 30
0.0
 10
139.132080
 20
271.632130
 30
0.0
  0
LWPOLYLINE
  5
292
100
AcDbEntity
  8
chars
 62
7
100
AcDbPolyline
 90
2
 70
0
 10
141.199140
 20
268.259730
 30
0.0
 10
142.777850
 20
269.838440
 30
0.0
  0
LWPOLYLINE
  5
293
100
AcDbEntity
  8
chars
 62
7
100
AcDbPolyline
 90
1
 70
1
 10
139.132080
 20
271.632130
 30
0.0
  0
SPLINE
  5
294
100
AcDbEntity
  8
chars
 62
7
100
AcDbSpline
 70
8
 71
3
 72
8
 73
4
 74
0
 40
0
 40
0
 40
0
 40
0
 40
1
 40
1
 40
1
 40
1
 10
141.679200
 20
266.618480
 30
0.0
 10
141.743700
 20
266.183550
 30
0.0
 10
141.778400
 20
265.707670
 30
0.0
 10
141.778400
 20
265.189630
 30
0.0
  0
SPLINE
  5
295
100
AcDbEntity
  8
chars
 62
7
100
AcDbSpline
 70
8
 71
3
 72
8
 73
4
 74
0
 40
0
 40
0
 40
0
 40
0
 40
1
 40
1
 40
1
 40
1
 10
141.778400
 20
265.189630
 30
0.0
 10
141.778400
 20
262.236830
 30
0.0
 10
140.742690
 20
260.568720
 30
0.0
 10
139.132050
 20
260.568720
 30
0.0
  0
SPLINE
  5
296
100
AcDbEntity
  8
chars
 62
7
100
AcDbSpline
 70
8
 71
3
 72
8
 73
4
 74
0
 40
0
 40
0
 40
0
 40
0
 40
1
 40
1
 40
1
 40
1
 10
139.132050
 20
260.568720
 30
0.0
 10
138.247770
 20
260.568720
 30
0.0
 10
137.538730
 20
261.074460
 30
0.0
 10
137.077380
 20
262.016700
 30
0.0
  0
LWPOLYLINE
  5
297
100
AcDbEntity
  8
chars
 62
7
100
AcDbPolyline
 90
2
 70
0
 10
143.520960
 20
268.460230
 30
0.0
 10
141.679200
 20
266.618480
 30
0.0
  0
SPLINE
  5
298
100
AcDbEntity
  8
chars
 62
7
100
AcDbSpline
 70
8
 71
3
 72
8
 73
4
 74
0
 40
0
 40
0
 40
0
 40
0
 40
1
 40
1
 40
1
 40
1
 10
135.499720
 20
260.439020
 30
0.0
 10
136.370720
 20
259.258920
 30
0.0
 10
137.631240
 20
258.632410
 30
0.0
 10
139.132050
 20
258.632410
 30
0.0
  0
SPLINE
  5
299
100
AcDbEntity
  8
chars
 62
7
100
AcDbSpline
 70
8
 71
3
 72
8
 73
4
 74
0
 40
0
 40
0
 40
0
 40
0
 40
1
 40
1
 40
1
 40
1
 10
139.132050
 20
258.632410
 30
0.0
 10
142.046490
 20
258.632410
 30
0.0
 10
144.059920
 20
260.990520
 30
0.0
 10
144.059920
 20
265.189630
 30
0.0
  0
SPLINE
  5
29a
100
AcDbEntity
  8
chars
 62
7
100
AcDbSpline
 70
8
 71
3
 72
8
 73
4
 74
0
 40
0
 40
0
 40
0
 40
0
 40
1
 40
1
 40
1
 40
1
 10
144.059920
 20
265.189630
 30
0.0
 10
144.059920
 20
266.455420
 30
0.0
 10
143.868360
 20
267.549280
 30
0.0
 10
143.520940
 20
268.460230
 30
0.0
  0
LWPOLYLINE
  5
29b
100
AcDbEntity
  8
chars
 62
7
100
AcDbPolyline
 90
2
 70
0
 10
137.077380
 20
262.016700
 30
0.0
 10
135.499720
 20
260.439020
 30
0.0
  0
SPLINE
  5
29c
100
AcDbEntity
  8
chars
 62
7
100
AcDbSpline
 70
8
 71
3
 72
8
 73
4
 74
0
 40
0
 40
0
 40
0
 40
0
 40
1
 40
1
 40
1
 40
1
 10
274.132060
 20
271.632130
 30
0.0
 10
271.217600
 20
271.632130
 30
0.0
 10
269.204700
 20
269.312050
 30
0.0
 10
269.204700
 20
265.189630
 30
0.0
  0
SPLINE
  5
29d
100
AcDbEntity
  8
chars
 62
7
100
AcDbSpline
 70
8
 71
3
 72
8
 73
4
 74
0
 40
0
 40
0
 40
0
 40
0
 40
1
 40
1
 40
1
 40
1
 10
269.204700
 20
265.189630
 30
0.0
 10
269.204700
 20
263.881790
 30
0.0
 10
269.400120
 20
262.752830
 30
0.0
 10
269.757120
 20
261.817740
 30
0.0
  0
LWPOLYLINE
  5
29e
100
AcDbEntity
  8
chars
 62
7
100
AcDbPolyline
 90
1
 70
1
 10
143.520940
 20
268.460230
 30
0.0
  0
SPLINE
  5
29f
100
AcDbEntity
  8
chars
 62
7
100
AcDbSpline
 70
8
 71
3
 72
8
 73
4
 74
0
 40
0
 40
0
 40
0
 40
0
 40
1
 40
1
 40
1
 40
1
 10
271.594230
 20
263.654840
 30
0.0
 10
271.523230
 20
264.118880
 30
0.0
 10
271.486230
 20
264.631060
 30
0.0
 10
271.486230
 20
265.189630
 30
0.0
  0
SPLINE
  5
2a0
100
AcDbEntity
  8
chars
 62
7
100
AcDbSpline
 70
8
 71
3
 72
8
 73
4
 74
0
 40
0
 40
0
 40
0
 40
0
 40
1
 40
1
 40
1
 40
1
 10
271.486230
 20
265.189630
 30
0.0
 10
271.486230
 20
268.065740
 30
0.0
 10
272.521440
 20
269.695820
 30
0.0
 10
274.132060
 20
269.695820
 30
0.0
  0
SPLINE
  5
2a1
100
AcDbEntity
  8
chars
 62
7
100
AcDbSpline
 70
8
 71
3
 72
8
 73
4
 74
0
 40
0
 40
0
 40
0
 40
0
 40
1
 40
1
 40
1
 40
1
 10
274.132060
 20
269.695820
 30
0.0
 10
275.023810
 20
269.695820
 30
0.0
 10
275.738130
 20
269.193880
 30
0.0
 10
276.199120
 20
268.259730
 30
0.0
  0
LWPOLYLINE
  5
2a2
100
AcDbEntity
  8
chars
 62
7
100
AcDbPolyline
 90
2
 70
0
 10
269.757120
 20
261.817740
 30
0.0
 10
271.594230
 20
263.654840
 30
0.0
  0
SPLINE
  5
2a3
100
AcDbEntity
  8
chars
 62
7
100
AcDbSpline
 70
8
 71
3
 72
8
 73
4
 74
0
 40
0
 40
0
 40
0
 40
0
 40
1
 40
1
 40
1
 40
1
 10
277.777830
 20
269.838440
 30
0.0
 10
276.906400
 20
271.009350
 30
0.0
 10
275.640290
 20
271.632130
 30
0.0
 10
274.132060
 20
271.632130
 30
0.0
  0
LWPOLYLINE
  5
2a4
100
AcDbEntity
  8
chars
 62
7
100
AcDbPolyline
 90
2
 70
0
 10
276.199120
 20
268.259730
 30
0.0
 10
277.777830
 20
269.838440
 30
0.0
  0
LWPOLYLINE
  5
2a5
100
AcDbEntity
  8
chars
 62
7
100
AcDbPolyline
 90
1
 70
1
 10
274.132060
 20
271.632130
 30
0.0
  0
SPLINE
  5
2a6
100
AcDbEntity
  8
chars
 62
7
100
AcDbSpline
 70
8
 71
3
 72
8
 73
4
 74
0
 40
0
 40
0
 40
0
 40
0
 40
1
 40
1
 40
1
 40
1
 10
276.679190
 20
266.618480
 30
0.0
 10
276.743690
 20
266.183550
 30
0.0
 10
276.778390
 20
265.707670
 30
0.0
 10
276.778390
 20
265.189630
 30
0.0
  0
SPLINE
  5
2a7
100
AcDbEntity
  8
chars
 62
7
100
AcDbSpline
 70
8
 71
3
 72
8
 73
4
 74
0
 40
0
 40
0
 40
0
 40
0
 40
1
 40
1
 40
1
 40
1
 10
276.778390
 20
265.189630
 30
0.0
 10
276.778390
 20
262.236830
 30
0.0
 10
275.742680
 20
260.568720
 30
0.0
 10
274.132040
 20
260.568720
 30
0.0
  0
SPLINE
  5
2a8
100
AcDbEntity
  8
chars
 62
7
100
AcDbSpline
 70
8
 71
3
 72
8
 73
4
 74
0
 40
0
 40
0
 40
0
 40
0
 40
1
 40
1
 40
1
 40
1
 10
274.132040
 20
260.568720
 30
0.0
 10
273.247750
 20
260.568720
 30
0.0
 10
272.538720
 20
261.074460
 30
0.0
 10
272.077380
 20
262.016700
 30
0.0
  0
LWPOLYLINE
  5
2a9
100
AcDbEntity
  8
chars
 62
7
100
AcDbPolyline
 90
2
 70
0
 10
278.520950
 20
268.460230
 30
0.0
 10
276.679190
 20
266.618480
 30
0.0
  0
SPLINE
  5
2aa
100
AcDbEntity
  8
chars
 62
7
100
AcDbSpline
 70
8
 71
3
 72
8
 73
4
 74
0
 40
0
 40
0
 40
0
 40
0
 40
1
 40
1
 40
1
 40
1
 10
270.499720
 20
260.439020
 30
0.0
 10
271.370690
 20
259.258920
 30
0.0
 10
272.631230
 20
258.632410
 30
0.0
 10
274.132050
 20
258.632410
 30
0.0
  0
SPLINE
  5
2ab
100
AcDbEntity
  8
chars
 62
7
100
AcDbSpline
 70
8
 71
3
 72
8
 73
4
 74
0
 40
0
 40
0
 40
0
 40
0
 40
1
 40
1
 40
1
 40
1
 10
274.132050
 20
258.632410
 30
0.0
 10
277.046490
 20
258.632410
 30
0.0
 10
279.059920
 20
260.990520
 30
0.0
 10
279.059920
 20
265.189630
 30
0.0
  0
SPLINE
  5
2ac
100
AcDbEntity
  8
chars
 62
7
100
AcDbSpline
 70
8
 71
3
 72
8
 73
4
 74
0
 40
0
 40
0
 40
0
 40
0
 40
1
 40
1
 40
1
 40
1
 10
279.059920
 20
265.189630
 30
0.0
 10
279.059920
 20
266.455420
 30
0.0
 10
278.868360
 20
267.549280
 30
0.0
 10
278.520930
 20
268.460230
 30
0.0
  0
LWPOLYLINE
  5
2ad
100
AcDbEntity
  8
chars
 62
7
100
AcDbPolyline
 90
2
 70
0
 10
272.077380
 20
262.016700
 30
0.0
 10
270.499720
 20
260.439020
 30
0.0
  0
LWPOLYLINE
  5
2ae
100
AcDbEntity
  8
chars
 62
7
100
AcDbPolyline
 90
1
 70
1
 10
278.520930
 20
268.460230
 30
0.0
  0
SPLINE
  5
2af
100
AcDbEntity
  8
chars
 62
7
100
AcDbSpline
 70
8
 71
3
 72
8
 73
4
 74
0
 40
0
 40
0
 40
0
 40
0
 40
1
 40
1
 40
1
 40
1
 10
165.406780
 20
299.783680
 30
0.0
 10
167.195760
 20
299.783680
 30
0.0
 10
168.169930
 20
299.266880
 30
0.0
 10
168.169930
 20
297.776050
 30
0.0
  0
SPLINE
  5
2b0
100
AcDbEntity
  8
chars
 62
7
100
AcDbSpline
 70
8
 71
3
 72
8
 73
4
 74
0
 40
0
 40
0
 40
0
 40
0
 40
1
 40
1
 40
1
 40
1
 10
168.169930
 20
297.776050
 30
0.0
 10
168.169930
 20
296.305100
 30
0.0
 10
167.195760
 20
295.549830
 30
0.0
 10
165.406780
 20
295.549830
 30
0.0
  0
LWPOLYLINE
  5
2b1
100
AcDbEntity
  8
chars
 62
7
100
AcDbPolyline
 90
5
 70
0
 10
161.311930
 20
301.632150
 30
0.0
 10
161.311930
 20
297.049480
 30
0.0
 10
163.617750
 20
297.049480
 30
0.0
 10
163.617750
 20
299.783680
 30
0.0
 10
165.406780
 20
299.783680
 30
0.0
  0
SPLINE
  5
2b2
100
AcDbEntity
  8
chars
 62
7
100
AcDbSpline
 70
8
 71
3
 72
8
 73
4
 74
0
 40
0
 40
0
 40
0
 40
0
 40
1
 40
1
 40
1
 40
1
 10
167.851580
 20
294.058970
 30
0.0
 10
169.402070
 20
294.595660
 30
0.0
 10
170.435930
 20
295.808170
 30
0.0
 10
170.435930
 20
297.776050
 30
0.0
  0
SPLINE
  5
2b3
100
AcDbEntity
  8
chars
 62
7
100
AcDbSpline
 70
8
 71
3
 72
8
 73
4
 74
0
 40
0
 40
0
 40
0
 40
0
 40
1
 40
1
 40
1
 40
1
 10
170.435930
 20
297.776050
 30
0.0
 10
170.435930
 20
300.678190
 30
0.0
 10
168.348890
 20
301.632150
 30
0.0
 10
165.645540
 20
301.632150
 30
0.0
  0
LWPOLYLINE
  5
2b4
100
AcDbEntity
  8
chars
 62
7
100
AcDbPolyline
 90
10
 70
0
 10
165.406780
 20
295.549830
 30
0.0
 10
163.617750
 20
295.549830
 30
0.0
 10
161.311930
 20
295.549830
 30
0.0
 10
161.311930
 20
288.632430
 30
0.0
 10
163.617750
 20
288.632430
 30
0.0
 10
163.617750
 20
293.721010
 30
0.0
 10
165.565950
 20
293.721010
 30
0.0
 10
168.348730
 20
288.632430
 30
0.0
 10
170.952710
 20
288.632430
 30
0.0
 10
167.851580
 20
294.058970
 30
0.0
  0
LWPOLYLINE
  5
2b5
100
AcDbEntity
  8
chars
 62
7
100
AcDbPolyline
 90
2
 70
0
 10
165.645540
 20
301.632150
 30
0.0
 10
161.311930
 20
301.632150
 30
0.0
  0
SPLINE
  5
2b6
100
AcDbEntity
  8
chars
 62
7
100
AcDbSpline
 70
8
 71
3
 72
8
 73
4
 74
0
 40
0
 40
0
 40
0
 40
0
 40
1
 40
1
 40
1
 40
1
 10
327.406770
 20
299.783680
 30
0.0
 10
329.195750
 20
299.783680
 30
0.0
 10
330.169930
 20
299.266880
 30
0.0
 10
330.169930
 20
297.776050
 30
0.0
  0
SPLINE
  5
2b7
100
AcDbEntity
  8
chars
 62
7
100
AcDbSpline
 70
8
 71
3
 72
8
 73
4
 74
0
 40
0
 40
0
 40
0
 40
0
 40
1
 40
1
 40
1
 40
1
 10
330.169930
 20
297.776050
 30
0.0
 10
330.169930
 20
296.305100
 30
0.0
 10
329.195750
 20
295.549830
 30
0.0
 10
327.406770
 20
295.549830
 30
0.0
  0
LWPOLYLINE
  5
2b8
100
AcDbEntity
  8
chars
 62
7
100
AcDbPolyline
 90
5
 70
0
 10
323.311920
 20
301.632150
 30
0.0
 10
323.311920
 20
297.049480
 30
0.0
 10
325.617750
 20
297.049480
 30
0.0
 10
325.617750
 20
299.783680
 30
0.0
 10
327.406770
 20
299.783680
 30
0.0
  0
SPLINE
  5
2b9
100
AcDbEntity
  8
chars
 62
7
100
AcDbSpline
 70
8
 71
3
 72
8
 73
4
 74
0
 40
0
 40
0
 40
0
 40
0
 40
1
 40
1
 40
1
 40
1
 10
329.851570
 20
294.058970
 30
0.0
 10
331.402070
 20
294.595660
 30
0.0
 10
332.435920
 20
295.808170
 30
0.0
 10
332.435920
 20
297.776050
 30
0.0
  0
SPLINE
  5
2ba
100
AcDbEntity
  8
chars
 62
7
100
AcDbSpline
 70
8
 71
3
 72
8
 73
4
 74
0
 40
0
 40
0
 40
0
 40
0
 40
1
 40
1
 40
1
 40
1
 10
332.435920
 20
297.776050
 30
0.0
 10
332.435920
 20
300.678190
 30
0.0
 10
330.348890
 20
301.632150
 30
0.0
 10
327.645530
 20
301.632150
 30
0.0
  0
LWPOLYLINE
  5
2bb
100
AcDbEntity
  8
chars
 62
7
100
AcDbPolyline
 90
10
 70
0
 10
327.406770
 20
295.549830
 30
0.0
 10
325.617750
 20
295.549830
 30
0.0
 10
323.311920
 20
295.549830
 30
0.0
 10
323.311920
 20
288.632430
 30
0.0
 10
325.617750
 20
288.632430
 30
0.0
 10
325.617750
 20
293.721010
 30
0.0
 10
327.565940
 20
293.721010
 30
0.0
 10
330.348720
 20
288.632430
 30
0.0
 10
332.952700
 20
288.632430
 30
0.0
 10
329.851570
 20
294.058970
 30
0.0
  0
LWPOLYLINE
  5
2bc
100
AcDbEntity
  8
chars
 62
7
100
AcDbPolyline
 90
2
 70
0
 10
327.645530
 20
301.632150
 30
0.0
 10
323.311920
 20
301.632150
 30
0.0
  0
SPLINE
  5
2bd
100
AcDbEntity
  8
chars
 62
7
100
AcDbSpline
 70
8
 71
3
 72
8
 73
4
 74
0
 40
0
 40
0
 40
0
 40
0
 40
1
 40
1
 40
1
 40
1
 10
299.900070
 20
295.549800
 30
0.0
 10
300.297630
 20
296.921360
 30
0.0
 10
300.695170
 20
298.392010
 30
0.0
 10
301.052970
 20
299.843080
 30
0.0
  0
LWPOLYLINE
  5
2be
100
AcDbEntity
  8
chars
 62
7
100
AcDbPolyline
 90
4
 70
0
 10
299.780730
 20
301.632150
 30
0.0
 10
297.779820
 20
295.459400
 30
0.0
 10
299.874270
 20
295.459400
 30
0.0
 10
299.900070
 20
295.549800
 30
0.0
  0
SPLINE
  5
2bf
100
AcDbEntity
  8
chars
 62
7
100
AcDbSpline
 70
8
 71
3
 72
8
 73
4
 74
0
 40
0
 40
0
 40
0
 40
0
 40
1
 40
1
 40
1
 40
1
 10
301.132570
 20
299.843080
 30
0.0
 10
301.490370
 20
298.392010
 30
0.0
 10
301.907800
 20
296.921360
 30
0.0
 10
302.285470
 20
295.549800
 30
0.0
  0
LWPOLYLINE
  5
2c0
100
AcDbEntity
  8
chars
 62
7
100
AcDbPolyline
 90
2
 70
0
 10
301.052970
 20
299.843080
 30
0.0
 10
301.132570
 20
299.843080
 30
0.0
  0
LWPOLYLINE
  5
2c1
100
AcDbEntity
  8
chars
 62
7
100
AcDbPolyline
 90
13
 70
0
 10
302.285470
 20
295.549800
 30
0.0
 10
302.742810
 20
293.959720
 30
0.0
 10
300.864890
 20
293.959720
 30
0.0
 10
299.442750
 20
293.959720
 30
0.0
 10
297.293530
 20
293.959720
 30
0.0
 10
295.566500
 20
288.632430
 30
0.0
 10
297.912100
 20
288.632430
 30
0.0
 10
298.925990
 20
292.150560
 30
0.0
 10
303.259570
 20
292.150560
 30
0.0
 10
304.253310
 20
288.632430
 30
0.0
 10
306.698120
 20
288.632430
 30
0.0
 10
302.484430
 20
301.632150
 30
0.0
 10
299.780730
 20
301.632150
 30
0.0
  0
SPLINE
  5
2c2
100
AcDbEntity
  8
chars
 62
7
100
AcDbSpline
 70
8
 71
3
 72
8
 73
4
 74
0
 40
0
 40
0
 40
0
 40
0
 40
1
 40
1
 40
1
 40
1
 10
354.406780
 20
269.783660
 30
0.0
 10
356.195760
 20
269.783660
 30
0.0
 10
357.169940
 20
269.266860
 30
0.0
 10
357.169940
 20
267.776030
 30
0.0
  0
SPLINE
  5
2c3
100
AcDbEntity
  8
chars
 62
7
100
AcDbSpline
 70
8
 71
3
 72
8
 73
4
 74
0
 40
0
 40
0
 40
0
 40
0
 40
1
 40
1
 40
1
 40
1
 10
357.169940
 20
267.776030
 30
0.0
 10
357.169940
 20
266.305080
 30
0.0
 10
356.195760
 20
265.549810
 30
0.0
 10
354.406780
 20
265.549810
 30
0.0
  0
LWPOLYLINE
  5
2c4
100
AcDbEntity
  8
chars
 62
7
100
AcDbPolyline
 90
5
 70
0
 10
350.311930
 20
271.632130
 30
0.0
 10
350.311930
 20
267.049460
 30
0.0
 10
352.617760
 20
267.049460
 30
0.0
 10
352.617760
 20
269.783660
 30
0.0
 10
354.406780
 20
269.783660
 30
0.0
  0
SPLINE
  5
2c5
100
AcDbEntity
  8
chars
 62
7
100
AcDbSpline
 70
8
 71
3
 72
8
 73
4
 74
0
 40
0
 40
0
 40
0
 40
0
 40
1
 40
1
 40
1
 40
1
 10
356.851580
 20
264.058950
 30
0.0
 10
358.402080
 20
264.595640
 30
0.0
 10
359.435930
 20
265.808150
 30
0.0
 10
359.435930
 20
267.776030
 30
0.0
  0
SPLINE
  5
2c6
100
AcDbEntity
  8
chars
 62
7
100
AcDbSpline
 70
8
 71
3
 72
8
 73
4
 74
0
 40
0
 40
0
 40
0
 40
0
 40
1
 40
1
 40
1
 40
1
 10
359.435930
 20
267.776030
 30
0.0
 10
359.435930
 20
270.678170
 30
0.0
 10
357.348900
 20
271.632130
 30
0.0
 10
354.645540
 20
271.632130
 30
0.0
  0
LWPOLYLINE
  5
2c7
100
AcDbEntity
  8
chars
 62
7
100
AcDbPolyline
 90
10
 70
0
 10
354.406780
 20
265.549810
 30
0.0
 10
352.617760
 20
265.549810
 30
0.0
 10
350.311930
 20
265.549810
 30
0.0
 10
350.311930
 20
258.632410
 30
0.0
 10
352.617760
 20
258.632410
 30
0.0
 10
352.617760
 20
263.720990
 30
0.0
 10
354.565950
 20
263.720990
 30
0.0
 10
357.348730
 20
258.632410
 30
0.0
 10
359.952710
 20
258.632410
 30
0.0
 10
356.851580
 20
264.058950
 30
0.0
  0
LWPOLYLINE
  5
2c8
100
AcDbEntity
  8
chars
 62
7
100
AcDbPolyline
 90
2
 70
0
 10
354.645540
 20
271.632130
 30
0.0
 10
350.311930
 20
271.632130
 30
0.0
  0
SPLINE
  5
2c9
100
AcDbEntity
  8
chars
 62
7
100
AcDbSpline
 70
8
 71
3
 72
8
 73
4
 74
0
 40
0
 40
0
 40
0
 40
0
 40
1
 40
1
 40
1
 40
1
 10
110.900080
 20
235.549800
 30
0.0
 10
111.297640
 20
236.921360
 30
0.0
 10
111.695180
 20
238.392010
 30
0.0
 10
112.052980
 20
239.843080
 30
0.0
  0
LWPOLYLINE
  5
2ca
100
AcDbEntity
  8
chars
 62
7
100
AcDbPolyline
 90
4
 70
0
 10
110.780740
 20
241.632150
 30
0.0
 10
108.779830
 20
235.459400
 30
0.0
 10
110.874280
 20
235.459400
 30
0.0
 10
110.900080
 20
235.549800
 30
0.0
  0
SPLINE
  5
2cb
100
AcDbEntity
  8
chars
 62
7
100
AcDbSpline
 70
8
 71
3
 72
8
 73
4
 74
0
 40
0
 40
0
 40
0
 40
0
 40
1
 40
1
 40
1
 40
1
 10
112.132580
 20
239.843080
 30
0.0
 10
112.490380
 20
238.392010
 30
0.0
 10
112.907810
 20
236.921360
 30
0.0
 10
113.285480
 20
235.549800
 30
0.0
  0
LWPOLYLINE
  5
2cc
100
AcDbEntity
  8
chars
 62
7
100
AcDbPolyline
 90
2
 70
0
 10
112.052980
 20
239.843080
 30
0.0
 10
112.132580
 20
239.843080
 30
0.0
  0
LWPOLYLINE
  5
2cd
100
AcDbEntity
  8
chars
 62
7
100
AcDbPolyline
 90
13
 70
0
 10
113.285480
 20
235.549800
 30
0.0
 10
113.742820
 20
233.959720
 30
0.0
 10
111.864900
 20
233.959720
 30
0.0
 10
110.442760
 20
233.959720
 30
0.0
 10
108.293540
 20
233.959720
 30
0.0
 10
106.566510
 20
228.632430
 30
0.0
 10
108.912110
 20
228.632430
 30
0.0
 10
109.926000
 20
232.150560
 30
0.0
 10
114.259580
 20
232.150560
 30
0.0
 10
115.253320
 20
228.632430
 30
0.0
 10
117.698130
 20
228.632430
 30
0.0
 10
113.484440
 20
241.632150
 30
0.0
 10
110.780740
 20
241.632150
 30
0.0
  0
SPLINE
  5
2ce
100
AcDbEntity
  8
chars
 62
7
100
AcDbSpline
 70
8
 71
3
 72
8
 73
4
 74
0
 40
0
 40
0
 40
0
 40
0
 40
1
 40
1
 40
1
 40
1
 10
272.641180
 20
209.763800
 30
0.0
 10
275.125890
 20
209.763800
 30
0.0
 10
276.537590
 20
208.372410
 30
0.0
 10
276.537590
 20
205.191990
 30
0.0
  0
SPLINE
  5
2cf
100
AcDbEntity
  8
chars
 62
7
100
AcDbSpline
 70
8
 71
3
 72
8
 73
4
 74
0
 40
0
 40
0
 40
0
 40
0
 40
1
 40
1
 40
1
 40
1
 10
276.537590
 20
205.191990
 30
0.0
 10
276.537590
 20
201.991680
 30
0.0
 10
275.125890
 20
200.500800
 30
0.0
 10
272.641180
 20
200.500800
 30
0.0
  0
LWPOLYLINE
  5
2d0
100
AcDbEntity
  8
chars
 62
7
100
AcDbPolyline
 90
5
 70
0
 10
269.361800
 20
211.632420
 30
0.0
 10
269.361800
 20
202.000970
 30
0.0
 10
271.667600
 20
202.000970
 30
0.0
 10
271.667600
 20
209.763800
 30
0.0
 10
272.641180
 20
209.763800
 30
0.0
  0
SPLINE
  5
2d1
100
AcDbEntity
  8
chars
 62
7
100
AcDbSpline
 70
8
 71
3
 72
8
 73
4
 74
0
 40
0
 40
0
 40
0
 40
0
 40
1
 40
1
 40
1
 40
1
 10
272.900080
 20
198.632180
 30
0.0
 10
276.617200
 20
198.632180
 30
0.0
 10
278.902820
 20
200.878530
 30
0.0
 10
278.902820
 20
205.191990
 30
0.0
  0
SPLINE
  5
2d2
100
AcDbEntity
  8
chars
 62
7
100
AcDbSpline
 70
8
 71
3
 72
8
 73
4
 74
0
 40
0
 40
0
 40
0
 40
0
 40
1
 40
1
 40
1
 40
1
 10
278.902820
 20
205.191990
 30
0.0
 10
278.902820
 20
209.485560
 30
0.0
 10
276.617100
 20
211.632420
 30
0.0
 10
272.780710
 20
211.632420
 30
0.0
  0
LWPOLYLINE
  5
2d3
100
AcDbEntity
  8
chars
 62
7
100
AcDbPolyline
 90
5
 70
0
 10
272.641180
 20
200.500800
 30
0.0
 10
271.667600
 20
200.500800
 30
0.0
 10
269.361800
 20
200.500800
 30
0.0
 10
269.361800
 20
198.632180
 30
0.0
 10
272.900080
 20
198.632180
 30
0.0
  0
LWPOLYLINE
  5
2d4
100
AcDbEntity
  8
chars
 62
7
100
AcDbPolyline
 90
2
 70
0
 10
272.780710
 20
211.632420
 30
0.0
 10
269.361800
 20
211.632420
 30
0.0
  0
SPLINE
  5
2d5
100
AcDbEntity
  8
chars
 62
7
100
AcDbSpline
 70
8
 71
3
 72
8
 73
4
 74
0
 40
0
 40
0
 40
0
 40
0
 40
1
 40
1
 40
1
 40
1
 10
300.406770
 20
209.783690
 30
0.0
 10
302.195750
 20
209.783690
 30
0.0
 10
303.169930
 20
209.266890
 30
0.0
 10
303.169930
 20
207.776060
 30
0.0
  0
SPLINE
  5
2d6
100
AcDbEntity
  8
chars
 62
7
100
AcDbSpline
 70
8
 71
3
 72
8
 73
4
 74
0
 40
0
 40
0
 40
0
 40
0
 40
1
 40
1
 40
1
 40
1
 10
303.169930
 20
207.776060
 30
0.0
 10
303.169930
 20
206.305110
 30
0.0
 10
302.195750
 20
205.549840
 30
0.0
 10
300.406770
 20
205.549840
 30
0.0
  0
LWPOLYLINE
  5
2d7
100
AcDbEntity
  8
chars
 62
7
100
AcDbPolyline
 90
5
 70
0
 10
296.311920
 20
211.632160
 30
0.0
 10
296.311920
 20
207.049490
 30
0.0
 10
298.617750
 20
207.049490
 30
0.0
 10
298.617750
 20
209.783690
 30
0.0
 10
300.406770
 20
209.783690
 30
0.0
  0
SPLINE
  5
2d8
100
AcDbEntity
  8
chars
 62
7
100
AcDbSpline
 70
8
 71
3
 72
8
 73
4
 74
0
 40
0
 40
0
 40
0
 40
0
 40
1
 40
1
 40
1
 40
1
 10
302.851570
 20
204.058980
 30
0.0
 10
304.402070
 20
204.595670
 30
0.0
 10
305.435920
 20
205.808180
 30
0.0
 10
305.435920
 20
207.776060
 30
0.0
  0
SPLINE
  5
2d9
100
AcDbEntity
  8
chars
 62
7
100
AcDbSpline
 70
8
 71
3
 72
8
 73
4
 74
0
 40
0
 40
0
 40
0
 40
0
 40
1
 40
1
 40
1
 40
1
 10
305.435920
 20
207.776060
 30
0.0
 10
305.435920
 20
210.678200
 30
0.0
 10
303.348890
 20
211.632160
 30
0.0
 10
300.645530
 20
211.632160
 30
0.0
  0
LWPOLYLINE
  5
2da
100
AcDbEntity
  8
chars
 62
7
100
AcDbPolyline
 90
10
 70
0
 10
300.406770
 20
205.549840
 30
0.0
 10
298.617750
 20
205.549840
 30
0.0
 10
296.311920
 20
205.549840
 30
0.0
 10
296.311920
 20
198.632440
 30
0.0
 10
298.617750
 20
198.632440
 30
0.0
 10
298.617750
 20
203.721020
 30
0.0
 10
300.565940
 20
203.721020
 30
0.0
 10
303.348720
 20
198.632440
 30
0.0
 10
305.952700
 20
198.632440
 30
0.0
 10
302.851570
 20
204.058980
 30
0.0
  0
LWPOLYLINE
  5
2db
100
AcDbEntity
  8
chars
 62
7
100
AcDbPolyline
 90
2
 70
0
 10
300.645530
 20
211.632160
 30
0.0
 10
296.311920
 20
211.632160
 30
0.0
  0
SPLINE
  5
2dc
100
AcDbEntity
  8
chars
 62
7
100
AcDbSpline
 70
8
 71
3
 72
8
 73
4
 74
0
 40
0
 40
0
 40
0
 40
0
 40
1
 40
1
 40
1
 40
1
 10
165.406780
 20
179.783670
 30
0.0
 10
167.195760
 20
179.783670
 30
0.0
 10
168.169940
 20
179.266870
 30
0.0
 10
168.169940
 20
177.776040
 30
0.0
  0
SPLINE
  5
2dd
100
AcDbEntity
  8
chars
 62
7
100
AcDbSpline
 70
8
 71
3
 72
8
 73
4
 74
0
 40
0
 40
0
 40
0
 40
0
 40
1
 40
1
 40
1
 40
1
 10
168.169940
 20
177.776040
 30
0.0
 10
168.169940
 20
176.305090
 30
0.0
 10
167.195760
 20
175.549820
 30
0.0
 10
165.406780
 20
175.549820
 30
0.0
  0
LWPOLYLINE
  5
2de
100
AcDbEntity
  8
chars
 62
7
100
AcDbPolyline
 90
5
 70
0
 10
161.311930
 20
181.632140
 30
0.0
 10
161.311930
 20
177.049470
 30
0.0
 10
163.617760
 20
177.049470
 30
0.0
 10
163.617760
 20
179.783670
 30
0.0
 10
165.406780
 20
179.783670
 30
0.0
  0
SPLINE
  5
2df
100
AcDbEntity
  8
chars
 62
7
100
AcDbSpline
 70
8
 71
3
 72
8
 73
4
 74
0
 40
0
 40
0
 40
0
 40
0
 40
1
 40
1
 40
1
 40
1
 10
167.851580
 20
174.058960
 30
0.0
 10
169.402080
 20
174.595650
 30
0.0
 10
170.435930
 20
175.808160
 30
0.0
 10
170.435930
 20
177.776040
 30
0.0
  0
SPLINE
  5
2e0
100
AcDbEntity
  8
chars
 62
7
100
AcDbSpline
 70
8
 71
3
 72
8
 73
4
 74
0
 40
0
 40
0
 40
0
 40
0
 40
1
 40
1
 40
1
 40
1
 10
170.435930
 20
177.776040
 30
0.0
 10
170.435930
 20
180.678180
 30
0.0
 10
168.348900
 20
181.632140
 30
0.0
 10
165.645540
 20
181.632140
 30
0.0
  0
LWPOLYLINE
  5
2e1
100
AcDbEntity
  8
chars
 62
7
100
AcDbPolyline
 90
10
 70
0
 10
165.406780
 20
175.549820
 30
0.0
 10
163.617760
 20
175.549820
 30
0.0
 10
161.311930
 20
175.549820
 30
0.0
 10
161.311930
 20
168.632420
 30
0.0
 10
163.617760
 20
168.632420
 30
0.0
 10
163.617760
 20
173.721000
 30
0.0
 10
165.565950
 20
173.721000
 30
0.0
 10
168.348730
 20
168.632420
 30
0.0
 10
170.952710
 20
168.632420
 30
0.0
 10
167.851580
 20
174.058960
 30
0.0
  0
LWPOLYLINE
  5
2e2
100
AcDbEntity
  8
chars
 62
7
100
AcDbPolyline
 90
2
 70
0
 10
165.645540
 20
181.632140
 30
0.0
 10
161.311930
 20
181.632140
 30
0.0
  0
SPLINE
  5
2e3
100
AcDbEntity
  8
chars
 62
7
100
AcDbSpline
 70
8
 71
3
 72
8
 73
4
 74
0
 40
0
 40
0
 40
0
 40
0
 40
1
 40
1
 40
1
 40
1
 10
83.900081
 20
115.549800
 30
0.0
 10
84.297641
 20
116.921360
 30
0.0
 10
84.695181
 20
118.392010
 30
0.0
 10
85.052981
 20
119.843080
 30
0.0
  0
LWPOLYLINE
  5
2e4
100
AcDbEntity
  8
chars
 62
7
100
AcDbPolyline
 90
4
 70
0
 10
83.780741
 20
121.632150
 30
0.0
 10
81.779831
 20
115.459400
 30
0.0
 10
83.874281
 20
115.459400
 30
0.0
 10
83.900081
 20
115.549800
 30
0.0
  0
SPLINE
  5
2e5
100
AcDbEntity
  8
chars
 62
7
100
AcDbSpline
 70
8
 71
3
 72
8
 73
4
 74
0
 40
0
 40
0
 40
0
 40
0
 40
1
 40
1
 40
1
 40
1
 10
85.132581
 20
119.843080
 30
0.0
 10
85.490381
 20
118.392010
 30
0.0
 10
85.907811
 20
116.921360
 30
0.0
 10
86.285482
 20
115.549800
 30
0.0
  0
LWPOLYLINE
  5
2e6
100
AcDbEntity
  8
chars
 62
7
100
AcDbPolyline
 90
2
 70
0
 10
85.052981
 20
119.843080
 30
0.0
 10
85.132581
 20
119.843080
 30
0.0
  0
LWPOLYLINE
  5
2e7
100
AcDbEntity
  8
chars
 62
7
100
AcDbPolyline
 90
13
 70
0
 10
86.285482
 20
115.549800
 30
0.0
 10
86.742822
 20
113.959720
 30
0.0
 10
84.864901
 20
113.959720
 30
0.0
 10
83.442761
 20
113.959720
 30
0.0
 10
81.293541
 20
113.959720
 30
0.0
 10
79.566511
 20
108.632430
 30
0.0
 10
81.912111
 20
108.632430
 30
0.0
 10
82.926001
 20
112.150560
 30
0.0
 10
87.259581
 20
112.150560
 30
0.0
 10
88.253321
 20
108.632430
 30
0.0
 10
90.698131
 20
108.632430
 30
0.0
 10
86.484441
 20
121.632150
 30
0.0
 10
83.780741
 20
121.632150
 30
0.0
  0
SPLINE
  5
2e8
100
AcDbEntity
  8
chars
 62
7
100
AcDbSpline
 70
8
 71
3
 72
8
 73
4
 74
0
 40
0
 40
0
 40
0
 40
0
 40
1
 40
1
 40
1
 40
1
 10
137.900080
 20
85.549800
 30
0.0
 10
138.297640
 20
86.921360
 30
0.0
 10
138.695180
 20
88.392010
 30
0.0
 10
139.052980
 20
89.843080
 30
0.0
  0
LWPOLYLINE
  5
2e9
100
AcDbEntity
  8
chars
 62
7
100
AcDbPolyline
 90
4
 70
0
 10
137.780740
 20
91.632150
 30
0.0
 10
135.779830
 20
85.459400
 30
0.0
 10
137.874280
 20
85.459400
 30
0.0
 10
137.900080
 20
85.549800
 30
0.0
  0
SPLINE
  5
2ea
100
AcDbEntity
  8
chars
 62
7
100
AcDbSpline
 70
8
 71
3
 72
8
 73
4
 74
0
 40
0
 40
0
 40
0
 40
0
 40
1
 40
1
 40
1
 40
1
 10
139.132580
 20
89.843080
 30
0.0
 10
139.490380
 20
88.392010
 30
0.0
 10
139.907810
 20
86.921360
 30
0.0
 10
140.285480
 20
85.549800
 30
0.0
  0
LWPOLYLINE
  5
2eb
100
AcDbEntity
  8
chars
 62
7
100
AcDbPolyline
 90
2
 70
0
 10
139.052980
 20
89.843080
 30
0.0
 10
139.132580
 20
89.843080
 30
0.0
  0
LWPOLYLINE
  5
2ec
100
AcDbEntity
  8
chars
 62
7
100
AcDbPolyline
 90
13
 70
0
 10
140.285480
 20
85.549800
 30
0.0
 10
140.742820
 20
83.959720
 30
0.0
 10
138.864900
 20
83.959720
 30
0.0
 10
137.442760
 20
83.959720
 30
0.0
 10
135.293540
 20
83.959720
 30
0.0
 10
133.566510
 20
78.632430
 30
0.0
 10
135.912110
 20
78.632430
 30
0.0
 10
136.926000
 20
82.150560
 30
0.0
 10
141.259580
 20
82.150560
 30
0.0
 10
142.253320
 20
78.632430
 30
0.0
 10
144.698130
 20
78.632430
 30
0.0
 10
140.484440
 20
91.632150
 30
0.0
 10
137.780740
 20
91.632150
 30
0.0
  0
SPLINE
  5
2ed
100
AcDbEntity
  8
chars
 62
7
100
AcDbSpline
 70
8
 71
3
 72
8
 73
4
 74
0
 40
0
 40
0
 40
0
 40
0
 40
1
 40
1
 40
1
 40
1
 10
164.900080
 20
85.549800
 30
0.0
 10
165.297640
 20
86.921360
 30
0.0
 10
165.695180
 20
88.392010
 30
0.0
 10
166.052980
 20
89.843080
 30
0.0
  0
LWPOLYLINE
  5
2ee
100
AcDbEntity
  8
chars
 62
7
100
AcDbPolyline
 90
4
 70
0
 10
164.780740
 20
91.632150
 30
0.0
 10
162.779830
 20
85.459400
 30
0.0
 10
164.874280
 20
85.459400
 30
0.0
 10
164.900080
 20
85.549800
 30
0.0
  0
SPLINE
  5
2ef
100
AcDbEntity
  8
chars
 62
7
100
AcDbSpline
 70
8
 71
3
 72
8
 73
4
 74
0
 40
0
 40
0
 40
0
 40
0
 40
1
 40
1
 40
1
 40
1
 10
166.132580
 20
89.843080
 30
0.0
 10
166.490380
 20
88.392010
 30
0.0
 10
166.907810
 20
86.921360
 30
0.0
 10
167.285480
 20
85.549800
 30
0.0
  0
LWPOLYLINE
  5
2f0
100
AcDbEntity
  8
chars
 62
7
100
AcDbPolyline
 90
2
 70
0
 10
166.052980
 20
89.843080
 30
0.0
 10
166.132580
 20
89.843080
 30
0.0
  0
LWPOLYLINE
  5
2f1
100
AcDbEntity
  8
chars
 62
7
100
AcDbPolyline
 90
13
 70
0
 10
167.285480
 20
85.549800
 30
0.0
 10
167.742820
 20
83.959720
 30
0.0
 10
165.864900
 20
83.959720
 30
0.0
 10
164.442760
 20
83.959720
 30
0.0
 10
162.293540
 20
83.959720
 30
0.0
 10
160.566510
 20
78.632430
 30
0.0
 10
162.912110
 20
78.632430
 30
0.0
 10
163.926000
 20
82.150560
 30
0.0
 10
168.259580
 20
82.150560
 30
0.0
 10
169.253320
 20
78.632430
 30
0.0
 10
171.698130
 20
78.632430
 30
0.0
 10
167.484440
 20
91.632150
 30
0.0
 10
164.780740
 20
91.632150
 30
0.0
  0
SPLINE
  5
2f2
100
AcDbEntity
  8
chars
 62
7
100
AcDbSpline
 70
8
 71
3
 72
8
 73
4
 74
0
 40
0
 40
0
 40
0
 40
0
 40
1
 40
1
 40
1
 40
1
 10
354.406780
 20
89.783680
 30
0.0
 10
356.195760
 20
89.783680
 30
0.0
 10
357.169940
 20
89.266880
 30
0.0
 10
357.169940
 20
87.776050
 30
0.0
  0
SPLINE
  5
2f3
100
AcDbEntity
  8
chars
 62
7
100
AcDbSpline
 70
8
 71
3
 72
8
 73
4
 74
0
 40
0
 40
0
 40
0
 40
0
 40
1
 40
1
 40
1
 40
1
 10
357.169940
 20
87.776050
 30
0.0
 10
357.169940
 20
86.305100
 30
0.0
 10
356.195760
 20
85.549830
 30
0.0
 10
354.406780
 20
85.549830
 30
0.0
  0
LWPOLYLINE
  5
2f4
100
AcDbEntity
  8
chars
 62
7
100
AcDbPolyline
 90
5
 70
0
 10
350.311930
 20
91.632150
 30
0.0
 10
350.311930
 20
87.049480
 30
0.0
 10
352.617760
 20
87.049480
 30
0.0
 10
352.617760
 20
89.783680
 30
0.0
 10
354.406780
 20
89.783680
 30
0.0
  0
SPLINE
  5
2f5
100
AcDbEntity
  8
chars
 62
7
100
AcDbSpline
 70
8
 71
3
 72
8
 73
4
 74
0
 40
0
 40
0
 40
0
 40
0
 40
1
 40
1
 40
1
 40
1
 10
356.851580
 20
84.058970
 30
0.0
 10
358.402080
 20
84.595660
 30
0.0
 10
359.435930
 20
85.808170
 30
0.0
 10
359.435930
 20
87.776050
 30
0.0
  0
SPLINE
  5
2f6
100
AcDbEntity
  8
chars
 62
7
100
AcDbSpline
 70
8
 71
3
 72
8
 73
4
 74
0
 40
0
 40
0
 40
0
 40
0
 40
1
 40
1
 40
1
 40
1
 10
359.435930
 20
87.776050
 30
0.0
 10
359.435930
 20
90.678190
 30
0.0
 10
357.348900
 20
91.632150
 30
0.0
 10
354.645540
 20
91.632150
 30
0.0
  0
LWPOLYLINE
  5
2f7
100
AcDbEntity
  8
chars
 62
7
100
AcDbPolyline
 90
10
 70
0
 10
354.406780
 20
85.549830
 30
0.0
 10
352.617760
 20
85.549830
 30
0.0
 10
350.311930
 20
85.549830
 30
0.0
 10
350.311930
 20
78.632430
 30
0.0
 10
352.617760
 20
78.632430
 30
0.0
 10
352.617760
 20
83.721010
 30
0.0
 10
354.565950
 20
83.721010
 30
0.0
 10
357.348730
 20
78.632430
 30
0.0
 10
359.952710
 20
78.632430
 30
0.0
 10
356.851580
 20
84.058970
 30
0.0
  0
LWPOLYLINE
  5
2f8
100
AcDbEntity
  8
chars
 62
7
100
AcDbPolyline
 90
2
 70
0
 10
354.645540
 20
91.632150
 30
0.0
 10
350.311930
 20
91.632150
 30
0.0
  0
SPLINE
  5
2f9
100
AcDbEntity
  8
chars
 62
7
100
AcDbSpline
 70
8
 71
3
 72
8
 73
4
 74
0
 40
0
 40
0
 40
0
 40
0
 40
1
 40
1
 40
1
 40
1
 10
165.406780
 20
269.783660
 30
0.0
 10
167.195760
 20
269.783660
 30
0.0
 10
168.169940
 20
269.266860
 30
0.0
 10
168.169940
 20
267.776030
 30
0.0
  0
SPLINE
  5
2fa
100
AcDbEntity
  8
chars
 62
7
100
AcDbSpline
 70
8
 71
3
 72
8
 73
4
 74
0
 40
0
 40
0
 40
0
 40
0
 40
1
 40
1
 40
1
 40
1
 10
168.169940
 20
267.776030
 30
0.0
 10
168.169940
 20
266.305080
 30
0.0
 10
167.195760
 20
265.549810
 30
0.0
 10
165.406780
 20
265.549810
 30
0.0
  0
LWPOLYLINE
  5
2fb
100
AcDbEntity
  8
chars
 62
7
100
AcDbPolyline
 90
5
 70
0
 10
161.311930
 20
271.632130
 30
0.0
 10
161.311930
 20
267.049460
 30
0.0
 10
163.617760
 20
267.049460
 30
0.0
 10
163.617760
 20
269.783660
 30
0.0
 10
165.406780
 20
269.783660
 30
0.0
  0
SPLINE
  5
2fc
100
AcDbEntity
  8
chars
 62
7
100
AcDbSpline
 70
8
 71
3
 72
8
 73
4
 74
0
 40
0
 40
0
 40
0
 40
0
 40
1
 40
1
 40
1
 40
1
 10
167.851580
 20
264.058950
 30
0.0
 10
169.402080
 20
264.595640
 30
0.0
 10
170.435930
 20
265.808150
 30
0.0
 10
170.435930
 20
267.776030
 30
0.0
  0
SPLINE
  5
2fd
100
AcDbEntity
  8
chars
 62
7
100
AcDbSpline
 70
8
 71
3
 72
8
 73
4
 74
0
 40
0
 40
0
 40
0
 40
0
 40
1
 40
1
 40
1
 40
1
 10
170.435930
 20
267.776030
 30
0.0
 10
170.435930
 20
270.678170
 30
0.0
 10
168.348900
 20
271.632130
 30
0.0
 10
165.645540
 20
271.632130
 30
0.0
  0
LWPOLYLINE
  5
2fe
100
AcDbEntity
  8
chars
 62
7
100
AcDbPolyline
 90
10
 70
0
 10
165.406780
 20
265.549810
 30
0.0
 10
163.617760
 20
265.549810
 30
0.0
 10
161.311930
 20
265.549810
 30
0.0
 10
161.311930
 20
258.632410
 30
0.0
 10
163.617760
 20
258.632410
 30
0.0
 10
163.617760
 20
263.720990
 30
0.0
 10
165.565950
 20
263.720990
 30
0.0
 10
168.348730
 20
258.632410
 30
0.0
 10
170.952710
 20
258.632410
 30
0.0
 10
167.851580
 20
264.058950
 30
0.0
  0
SPLINE
  5
2ff
100
AcDbEntity
  8
chars
 62
7
100
AcDbSpline
 70
8
 71
3
 72
8
 73
4
 74
0
 40
0
 40
0
 40
0
 40
0
 40
1
 40
1
 40
1
 40
1
 10
220.151490
 20
138.632290
 30
0.0
 10
223.065940
 20
138.632290
 30
0.0
 10
224.791600
 20
140.319610
 30
0.0
 10
224.791600
 20
142.352060
 30
0.0
  0
SPLINE
  5
300
100
AcDbEntity
  8
chars
 62
7
100
AcDbSpline
 70
8
 71
3
 72
8
 73
4
 74
0
 40
0
 40
0
 40
0
 40
0
 40
1
 40
1
 40
1
 40
1
 10
224.791600
 20
142.352060
 30
0.0
 10
224.791600
 20
144.173590
 30
0.0
 10
223.660340
 20
145.113120
 30
0.0
 10
222.068890
 20
145.745860
 30
0.0
  0
LWPOLYLINE
  5
301
100
AcDbEntity
  8
chars
 62
7
100
AcDbPolyline
 90
2
 70
0
 10
165.645540
 20
271.632130
 30
0.0
 10
161.311930
 20
271.632130
 30
0.0
  0
SPLINE
  5
302
100
AcDbEntity
  8
chars
 62
7
100
AcDbSpline
 70
8
 71
3
 72
8
 73
4
 74
0
 40
0
 40
0
 40
0
 40
0
 40
1
 40
1
 40
1
 40
1
 10
220.419920
 20
146.455300
 30
0.0
 10
219.288650
 20
146.896300
 30
0.0
 10
218.272430
 20
147.260610
 30
0.0
 10
218.272430
 20
148.219310
 30
0.0
  0
SPLINE
  5
303
100
AcDbEntity
  8
chars
 62
7
100
AcDbSpline
 70
8
 71
3
 72
8
 73
4
 74
0
 40
0
 40
0
 40
0
 40
0
 40
1
 40
1
 40
1
 40
1
 10
218.272430
 20
148.219310
 30
0.0
 10
218.272430
 20
149.158840
 30
0.0
 10
219.077740
 20
149.695710
 30
0.0
 10
220.266530
 20
149.695710
 30
0.0
  0
SPLINE
  5
304
100
AcDbEntity
  8
chars
 62
7
100
AcDbSpline
 70
8
 71
3
 72
8
 73
4
 74
0
 40
0
 40
0
 40
0
 40
0
 40
1
 40
1
 40
1
 40
1
 10
220.266530
 20
149.695710
 30
0.0
 10
221.532020
 20
149.695710
 30
0.0
 10
222.414020
 20
149.293060
 30
0.0
 10
223.257680
 20
148.621970
 30
0.0
  0
LWPOLYLINE
  5
305
100
AcDbEntity
  8
chars
 62
7
100
AcDbPolyline
 90
2
 70
0
 10
222.068890
 20
145.745860
 30
0.0
 10
220.419920
 20
146.455300
 30
0.0
  0
SPLINE
  5
306
100
AcDbEntity
  8
chars
 62
7
100
AcDbSpline
 70
8
 71
3
 72
8
 73
4
 74
0
 40
0
 40
0
 40
0
 40
0
 40
1
 40
1
 40
1
 40
1
 10
224.408120
 20
150.040850
 30
0.0
 10
223.372730
 20
151.018720
 30
0.0
 10
221.915500
 20
151.632290
 30
0.0
 10
220.381580
 20
151.632290
 30
0.0
  0
SPLINE
  5
307
100
AcDbEntity
  8
chars
 62
7
100
AcDbSpline
 70
8
 71
3
 72
8
 73
4
 74
0
 40
0
 40
0
 40
0
 40
0
 40
1
 40
1
 40
1
 40
1
 10
220.381580
 20
151.632290
 30
0.0
 10
217.831430
 20
151.632290
 30
0.0
 10
216.029070
 20
150.098370
 30
0.0
 10
216.029070
 20
148.104270
 30
0.0
  0
SPLINE
  5
308
100
AcDbEntity
  8
chars
 62
7
100
AcDbSpline
 70
8
 71
3
 72
8
 73
4
 74
0
 40
0
 40
0
 40
0
 40
0
 40
1
 40
1
 40
1
 40
1
 10
216.029070
 20
148.104270
 30
0.0
 10
216.029070
 20
146.263560
 30
0.0
 10
217.390420
 20
145.285680
 30
0.0
 10
218.713430
 20
144.767990
 30
0.0
  0
LWPOLYLINE
  5
309
100
AcDbEntity
  8
chars
 62
7
100
AcDbPolyline
 90
2
 70
0
 10
223.257680
 20
148.621970
 30
0.0
 10
224.408120
 20
150.040850
 30
0.0
  0
SPLINE
  5
30a
100
AcDbEntity
  8
chars
 62
7
100
AcDbSpline
 70
8
 71
3
 72
8
 73
4
 74
0
 40
0
 40
0
 40
0
 40
0
 40
1
 40
1
 40
1
 40
1
 10
220.419920
 20
144.020200
 30
0.0
 10
221.666240
 20
143.502500
 30
0.0
 10
222.529070
 20
143.195710
 30
0.0
 10
222.529070
 20
142.083620
 30
0.0
  0
SPLINE
  5
30b
100
AcDbEntity
  8
chars
 62
7
100
AcDbSpline
 70
8
 71
3
 72
8
 73
4
 74
0
 40
0
 40
0
 40
0
 40
0
 40
1
 40
1
 40
1
 40
1
 10
222.529070
 20
142.083620
 30
0.0
 10
222.529070
 20
141.201610
 30
0.0
 10
221.742930
 20
140.568870
 30
0.0
 10
220.285710
 20
140.568870
 30
0.0
  0
SPLINE
  5
30c
100
AcDbEntity
  8
chars
 62
7
100
AcDbSpline
 70
8
 71
3
 72
8
 73
4
 74
0
 40
0
 40
0
 40
0
 40
0
 40
1
 40
1
 40
1
 40
1
 10
220.285710
 20
140.568870
 30
0.0
 10
218.962700
 20
140.568870
 30
0.0
 10
217.716380
 20
141.144090
 30
0.0
 10
216.776860
 20
141.987750
 30
0.0
  0
LWPOLYLINE
  5
30d
100
AcDbEntity
  8
chars
 62
7
100
AcDbPolyline
 90
2
 70
0
 10
218.713430
 20
144.767990
 30
0.0
 10
220.419920
 20
144.020200
 30
0.0
  0
SPLINE
  5
30e
100
AcDbEntity
  8
chars
 62
7
100
AcDbSpline
 70
8
 71
3
 72
8
 73
4
 74
0
 40
0
 40
0
 40
0
 40
0
 40
1
 40
1
 40
1
 40
1
 10
215.473020
 20
140.473000
 30
0.0
 10
216.719330
 20
139.303380
 30
0.0
 10
218.387470
 20
138.632290
 30
0.0
 10
220.151490
 20
138.632290
 30
0.0
  0
LWPOLYLINE
  5
30f
100
AcDbEntity
  8
chars
 62
7
100
AcDbPolyline
 90
2
 70
0
 10
216.776860
 20
141.987750
 30
0.0
 10
215.473020
 20
140.473000
 30
0.0
  0
SPLINE
  5
310
100
AcDbEntity
  8
chars
 62
7
100
AcDbSpline
 70
8
 71
3
 72
8
 73
4
 74
0
 40
0
 40
0
 40
0
 40
0
 40
1
 40
1
 40
1
 40
1
 10
220.151830
 20
258.632270
 30
0.0
 10
222.962640
 20
258.632270
 30
0.0
 10
224.582760
 20
260.252390
 30
0.0
 10
224.582760
 20
263.746384
 30
0.0
  0
LWPOLYLINE
  5
311
100
AcDbEntity
  8
chars
 62
7
100
AcDbPolyline
 90
1
 70
1
 10
220.151490
 20
138.632290
 30
0.0
  0
SPLINE
  5
312
100
AcDbEntity
  8
chars
 62
7
100
AcDbSpline
 70
8
 71
3
 72
8
 73
4
 74
0
 40
0
 40
0
 40
0
 40
0
 40
1
 40
1
 40
1
 40
1
 10
222.416100
 20
263.570708
 30
0.0
 10
222.416100
 20
261.482119
 30
0.0
 10
221.537720
 20
260.603741
 30
0.0
 10
220.151830
 20
260.603741
 30
0.0
  0
SPLINE
  5
313
100
AcDbEntity
  8
chars
 62
7
100
AcDbSpline
 70
8
 71
3
 72
8
 73
4
 74
0
 40
0
 40
0
 40
0
 40
0
 40
1
 40
1
 40
1
 40
1
 10
220.151830
 20
260.603741
 30
0.0
 10
218.785470
 20
260.603741
 30
0.0
 10
217.946130
 20
261.482119
 30
0.0
 10
217.946130
 20
263.570708
 30
0.0
  0
LWPOLYLINE
  5
314
100
AcDbEntity
  8
chars
 62
7
100
AcDbPolyline
 90
4
 70
0
 10
224.582760
 20
263.746384
 30
0.0
 10
224.582760
 20
271.632270
 30
0.0
 10
222.416100
 20
271.632270
 30
0.0
 10
222.416100
 20
263.570708
 30
0.0
  0
SPLINE
  5
315
100
AcDbEntity
  8
chars
 62
7
100
AcDbSpline
 70
8
 71
3
 72
8
 73
4
 74
0
 40
0
 40
0
 40
0
 40
0
 40
1
 40
1
 40
1
 40
1
 10
215.681860
 20
263.746384
 30
0.0
 10
215.681860
 20
260.252390
 30
0.0
 10
217.360540
 20
258.632270
 30
0.0
 10
220.151830
 20
258.632270
 30
0.0
  0
LWPOLYLINE
  5
316
100
AcDbEntity
  8
chars
 62
7
100
AcDbPolyline
 90
4
 70
0
 10
217.946130
 20
263.570708
 30
0.0
 10
217.946130
 20
271.632270
 30
0.0
 10
215.681860
 20
271.632270
 30
0.0
 10
215.681860
 20
263.746384
 30
0.0
  0
SPLINE
  5
317
100
AcDbEntity
  8
chars
 62
7
100
AcDbSpline
 70
8
 71
3
 72
8
 73
4
 74
0
 40
0
 40
0
 40
0
 40
0
 40
1
 40
1
 40
1
 40
1
 10
247.956795
 20
348.632290
 30
0.0
 10
249.624935
 20
348.632290
 30
0.0
 10
250.947945
 20
349.284200
 30
0.0
 10
251.944995
 20
350.453820
 30
0.0
  0
LWPOLYLINE
  5
318
100
AcDbEntity
  8
chars
 62
7
100
AcDbPolyline
 90
1
 70
1
 10
220.151830
 20
258.632270
 30
0.0
  0
SPLINE
  5
319
100
AcDbEntity
  8
chars
 62
7
100
AcDbSpline
 70
8
 71
3
 72
8
 73
4
 74
0
 40
0
 40
0
 40
0
 40
0
 40
1
 40
1
 40
1
 40
1
 10
250.717855
 20
351.815180
 30
0.0
 10
250.008415
 20
351.029040
 30
0.0
 10
249.183935
 20
350.568870
 30
0.0
 10
248.167705
 20
350.568870
 30
0.0
  0
SPLINE
  5
31a
100
AcDbEntity
  8
chars
 62
7
100
AcDbSpline
 70
8
 71
3
 72
8
 73
4
 74
0
 40
0
 40
0
 40
0
 40
0
 40
1
 40
1
 40
1
 40
1
 10
248.167705
 20
350.568870
 30
0.0
 10
246.020215
 20
350.568870
 30
0.0
 10
244.601335
 20
352.294530
 30
0.0
 10
244.601335
 20
355.151460
 30
0.0
  0
SPLINE
  5
31b
100
AcDbEntity
  8
chars
 62
7
100
AcDbSpline
 70
8
 71
3
 72
8
 73
4
 74
0
 40
0
 40
0
 40
0
 40
0
 40
1
 40
1
 40
1
 40
1
 10
244.601335
 20
355.151460
 30
0.0
 10
244.601335
 20
357.970050
 30
0.0
 10
246.020215
 20
359.695710
 30
0.0
 10
248.110185
 20
359.695710
 30
0.0
  0
SPLINE
  5
31c
100
AcDbEntity
  8
chars
 62
7
100
AcDbSpline
 70
8
 71
3
 72
8
 73
4
 74
0
 40
0
 40
0
 40
0
 40
0
 40
1
 40
1
 40
1
 40
1
 10
248.110185
 20
359.695710
 30
0.0
 10
249.088065
 20
359.695710
 30
0.0
 10
249.835855
 20
359.293050
 30
0.0
 10
250.468595
 20
358.679490
 30
0.0
  0
LWPOLYLINE
  5
31d
100
AcDbEntity
  8
chars
 62
7
100
AcDbPolyline
 90
2
 70
0
 10
251.944995
 20
350.453820
 30
0.0
 10
250.717855
 20
351.815180
 30
0.0
  0
SPLINE
  5
31e
100
AcDbEntity
  8
chars
 62
7
100
AcDbSpline
 70
8
 71
3
 72
8
 73
4
 74
0
 40
0
 40
0
 40
0
 40
0
 40
1
 40
1
 40
1
 40
1
 10
251.695735
 20
360.060020
 30
0.0
 10
250.909595
 20
360.884500
 30
0.0
 10
249.663285
 20
361.632290
 30
0.0
 10
248.110185
 20
361.632290
 30
0.0
  0
SPLINE
  5
31f
100
AcDbEntity
  8
chars
 62
7
100
AcDbSpline
 70
8
 71
3
 72
8
 73
4
 74
0
 40
0
 40
0
 40
0
 40
0
 40
1
 40
1
 40
1
 40
1
 10
248.110185
 20
361.632290
 30
0.0
 10
244.793075
 20
361.632290
 30
0.0
 10
242.319625
 20
359.197180
 30
0.0
 10
242.319625
 20
355.093940
 30
0.0
  0
SPLINE
  5
320
100
AcDbEntity
  8
chars
 62
7
100
AcDbSpline
 70
8
 71
3
 72
8
 73
4
 74
0
 40
0
 40
0
 40
0
 40
0
 40
1
 40
1
 40
1
 40
1
 10
242.319625
 20
355.093940
 30
0.0
 10
242.319625
 20
350.933170
 30
0.0
 10
244.850605
 20
348.632290
 30
0.0
 10
247.956795
 20
348.632290
 30
0.0
  0
LWPOLYLINE
  5
321
100
AcDbEntity
  8
chars
 62
7
100
AcDbPolyline
 90
2
 70
0
 10
250.468595
 20
358.679490
 30
0.0
 10
251.695735
 20
360.060020
 30
0.0
  0
LWPOLYLINE
  5
322
100
AcDbEntity
  8
chars
 62
7
100
AcDbPolyline
 90
1
 70
1
 10
247.956795
 20
348.632290
 30
0.0
  0
LWPOLYLINE
  5
323
100
AcDbEntity
  8
chars
 62
7
100
AcDbPolyline
 90
10
 70
1
 10
188.977880
 20
318.632260
 30
0.0
 10
191.283690
 20
318.632260
 30
0.0
 10
191.283690
 20
324.058870
 30
0.0
 10
196.392250
 20
324.058870
 30
0.0
 10
196.392250
 20
326.006880
 30
0.0
 10
191.283690
 20
326.006880
 30
0.0
 10
191.283690
 20
329.684250
 30
0.0
 10
197.286740
 20
329.684250
 30
0.0
 10
197.286740
 20
331.632260
 30
0.0
 10
188.977880
 20
331.632260
 30
0.0
  0
LWPOLYLINE
  5
324
100
AcDbEntity
  8
chars
 62
7
100
AcDbPolyline
 90
10
 70
1
 10
188.341793
 20
198.632300
 30
0.0
 10
197.922833
 20
198.632300
 30
0.0
 10
197.922833
 20
200.580320
 30
0.0
 10
191.164423
 20
200.580320
 30
0.0
 10
197.843322
 20
210.240870
 30
0.0
 10
197.843322
 20
211.632300
 30
0.0
 10
188.938123
 20
211.632300
 30
0.0
 10
188.938123
 20
209.704170
 30
0.0
 10
195.000815
 20
209.704170
 30
0.0
 10
188.341793
 20
200.023740
 30
0.0
  0
SPLINE
  5
325
100
AcDbEntity
  8
dots_outline
 62
7
100
AcDbSpline
 70
8
 71
3
 72
8
 73
4
 74
0
 40
0
 40
0
 40
0
 40
0
 40
1
 40
1
 40
1
 40
1
 10
43.500000
 20
42.000000
 30
0.0
 10
43.500000
 20
41.602175
 30
0.0
 10
43.341965
 20
41.220644
 30
0.0
 10
43.060660
 20
40.939340
 30
0.0
  0
SPLINE
  5
326
100
AcDbEntity
  8
dots_outline
 62
7
100
AcDbSpline
 70
8
 71
3
 72
8
 73
4
 74
0
 40
0
 40
0
 40
0
 40
0
 40
1
 40
1
 40
1
 40
1
 10
43.060660
 20
40.939340
 30
0.0
 10
42.779356
 20
40.658035
 30
0.0
 10
42.397825
 20
40.500000
 30
0.0
 10
42.000000
 20
40.500000
 30
0.0
  0
SPLINE
  5
327
100
AcDbEntity
  8
dots_outline
 62
7
100
AcDbSpline
 70
8
 71
3
 72
8
 73
4
 74
0
 40
0
 40
0
 40
0
 40
0
 40
1
 40
1
 40
1
 40
1
 10
42.000000
 20
40.500000
 30
0.0
 10
41.602175
 20
40.500000
 30
0.0
 10
41.220644
 20
40.658035
 30
0.0
 10
40.939340
 20
40.939340
 30
0.0
  0
SPLINE
  5
328
100
AcDbEntity
  8
dots_outline
 62
7
100
AcDbSpline
 70
8
 71
3
 72
8
 73
4
 74
0
 40
0
 40
0
 40
0
 40
0
 40
1
 40
1
 40
1
 40
1
 10
40.939340
 20
40.939340
 30
0.0
 10
40.658035
 20
41.220644
 30
0.0
 10
40.500000
 20
41.602175
 30
0.0
 10
40.500000
 20
42.000000
 30
0.0
  0
SPLINE
  5
329
100
AcDbEntity
  8
dots_outline
 62
7
100
AcDbSpline
 70
8
 71
3
 72
8
 73
4
 74
0
 40
0
 40
0
 40
0
 40
0
 40
1
 40
1
 40
1
 40
1
 10
40.500000
 20
42.000000
 30
0.0
 10
40.500000
 20
42.397825
 30
0.0
 10
40.658035
 20
42.779356
 30
0.0
 10
40.939340
 20
43.060660
 30
0.0
  0
SPLINE
  5
32a
100
AcDbEntity
  8
dots_outline
 62
7
100
AcDbSpline
 70
8
 71
3
 72
8
 73
4
 74
0
 40
0
 40
0
 40
0
 40
0
 40
1
 40
1
 40
1
 40
1
 10
40.939340
 20
43.060660
 30
0.0
 10
41.220644
 20
43.341965
 30
0.0
 10
41.602175
 20
43.500000
 30
0.0
 10
42.000000
 20
43.500000
 30
0.0
  0
SPLINE
  5
32b
100
AcDbEntity
  8
dots_outline
 62
7
100
AcDbSpline
 70
8
 71
3
 72
8
 73
4
 74
0
 40
0
 40
0
 40
0
 40
0
 40
1
 40
1
 40
1
 40
1
 10
42.000000
 20
43.500000
 30
0.0
 10
42.397825
 20
43.500000
 30
0.0
 10
42.779356
 20
43.341965
 30
0.0
 10
43.060660
 20
43.060660
 30
0.0
  0
SPLINE
  5
32c
100
AcDbEntity
  8
dots_outline
 62
7
100
AcDbSpline
 70
8
 71
3
 72
8
 73
4
 74
0
 40
0
 40
0
 40
0
 40
0
 40
1
 40
1
 40
1
 40
1
 10
43.060660
 20
43.060660
 30
0.0
 10
43.341965
 20
42.779356
 30
0.0
 10
43.500000
 20
42.397825
 30
0.0
 10
43.500000
 20
42.000000
 30
0.0
  0
LWPOLYLINE
  5
32d
100
AcDbEntity
  8
border
 62
7
100
AcDbPolyline
 90
4
 70
1
 10
10.000000
 20
430.000000
 30
0.0
 10
430.000000
 20
430.000000
 30
0.0
 10
430.000000
 20
10.000000
 30
0.0
 10
10.000000
 20
10.000000
 30
0.0
  0
SPLINE
  5
32e
100
AcDbEntity
  8
dots_outline
 62
7
100
AcDbSpline
 70
8
 71
3
 72
8
 73
4
 74
0
 40
0
 40
0
 40
0
 40
0
 40
1
 40
1
 40
1
 40
1
 10
399.500000
 20
42.000000
 30
0.0
 10
399.500000
 20
41.602175
 30
0.0
 10
399.341965
 20
41.220644
 30
0.0
 10
399.060660
 20
40.939340
 30
0.0
  0
SPLINE
  5
32f
100
AcDbEntity
  8
dots_outline
 62
7
100
AcDbSpline
 70
8
 71
3
 72
8
 73
4
 74
0
 40
0
 40
0
 40
0
 40
0
 40
1
 40
1
 40
1
 40
1
 10
399.060660
 20
40.939340
 30
0.0
 10
398.779356
 20
40.658035
 30
0.0
 10
398.397825
 20
40.500000
 30
0.0
 10
398.000000
 20
40.500000
 30
0.0
  0
SPLINE
  5
330
100
AcDbEntity
  8
dots_outline
 62
7
100
AcDbSpline
 70
8
 71
3
 72
8
 73
4
 74
0
 40
0
 40
0
 40
0
 40
0
 40
1
 40
1
 40
1
 40
1
 10
398.000000
 20
40.500000
 30
0.0
 10
397.602175
 20
40.500000
 30
0.0
 10
397.220644
 20
40.658035
 30
0.0
 10
396.939340
 20
40.939340
 30
0.0
  0
SPLINE
  5
331
100
AcDbEntity
  8
dots_outline
 62
7
100
AcDbSpline
 70
8
 71
3
 72
8
 73
4
 74
0
 40
0
 40
0
 40
0
 40
0
 40
1
 40
1
 40
1
 40
1
 10
396.939340
 20
40.939340
 30
0.0
 10
396.658035
 20
41.220644
 30
0.0
 10
396.500000
 20
41.602175
 30
0.0
 10
396.500000
 20
42.000000
 30
0.0
  0
SPLINE
  5
332
100
AcDbEntity
  8
dots_outline
 62
7
100
AcDbSpline
 70
8
 71
3
 72
8
 73
4
 74
0
 40
0
 40
0
 40
0
 40
0
 40
1
 40
1
 40
1
 40
1
 10
396.500000
 20
42.000000
 30
0.0
 10
396.500000
 20
42.397825
 30
0.0
 10
396.658035
 20
42.779356
 30
0.0
 10
396.939340
 20
43.060660
 30
0.0
  0
SPLINE
  5
333
100
AcDbEntity
  8
dots_outline
 62
7
100
AcDbSpline
 70
8
 71
3
 72
8
 73
4
 74
0
 40
0
 40
0
 40
0
 40
0
 40
1
 40
1
 40
1
 40
1
 10
396.939340
 20
43.060660
 30
0.0
 10
397.220644
 20
43.341965
 30
0.0
 10
397.602175
 20
43.500000
 30
0.0
 10
398.000000
 20
43.500000
 30
0.0
  0
SPLINE
  5
334
100
AcDbEntity
  8
dots_outline
 62
7
100
AcDbSpline
 70
8
 71
3
 72
8
 73
4
 74
0
 40
0
 40
0
 40
0
 40
0
 40
1
 40
1
 40
1
 40
1
 10
398.000000
 20
43.500000
 30
0.0
 10
398.397825
 20
43.500000
 30
0.0
 10
398.779356
 20
43.341965
 30
0.0
 10
399.060660
 20
43.060660
 30
0.0
  0
SPLINE
  5
335
100
AcDbEntity
  8
dots_outline
 62
7
100
AcDbSpline
 70
8
 71
3
 72
8
 73
4
 74
0
 40
0
 40
0
 40
0
 40
0
 40
1
 40
1
 40
1
 40
1
 10
399.060660
 20
43.060660
 30
0.0
 10
399.341965
 20
42.779356
 30
0.0
 10
399.500000
 20
42.397825
 30
0.0
 10
399.500000
 20
42.000000
 30
0.0
  0
LWPOLYLINE
  5
336
100
AcDbEntity
  8
dots_outline
 62
7
100
AcDbPolyline
 90
1
 70
1
 10
43.500000
 20
42.000000
 30
0.0
  0
SPLINE
  5
337
100
AcDbEntity
  8
dots_outline
 62
7
100
AcDbSpline
 70
8
 71
3
 72
8
 73
4
 74
0
 40
0
 40
0
 40
0
 40
0
 40
1
 40
1
 40
1
 40
1
 10
399.500000
 20
397.999996
 30
0.0
 10
399.500000
 20
397.602171
 30
0.0
 10
399.341965
 20
397.220640
 30
0.0
 10
399.060660
 20
396.939336
 30
0.0
  0
SPLINE
  5
338
100
AcDbEntity
  8
dots_outline
 62
7
100
AcDbSpline
 70
8
 71
3
 72
8
 73
4
 74
0
 40
0
 40
0
 40
0
 40
0
 40
1
 40
1
 40
1
 40
1
 10
399.060660
 20
396.939336
 30
0.0
 10
398.779356
 20
396.658031
 30
0.0
 10
398.397825
 20
396.499996
 30
0.0
 10
398.000000
 20
396.499996
 30
0.0
  0
SPLINE
  5
339
100
AcDbEntity
  8
dots_outline
 62
7
100
AcDbSpline
 70
8
 71
3
 72
8
 73
4
 74
0
 40
0
 40
0
 40
0
 40
0
 40
1
 40
1
 40
1
 40
1
 10
398.000000
 20
396.499996
 30
0.0
 10
397.602175
 20
396.499996
 30
0.0
 10
397.220644
 20
396.658031
 30
0.0
 10
396.939340
 20
396.939336
 30
0.0
  0
SPLINE
  5
33a
100
AcDbEntity
  8
dots_outline
 62
7
100
AcDbSpline
 70
8
 71
3
 72
8
 73
4
 74
0
 40
0
 40
0
 40
0
 40
0
 40
1
 40
1
 40
1
 40
1
 10
396.939340
 20
396.939336
 30
0.0
 10
396.658035
 20
397.220640
 30
0.0
 10
396.500000
 20
397.602171
 30
0.0
 10
396.500000
 20
397.999996
 30
0.0
  0
SPLINE
  5
33b
100
AcDbEntity
  8
dots_outline
 62
7
100
AcDbSpline
 70
8
 71
3
 72
8
 73
4
 74
0
 40
0
 40
0
 40
0
 40
0
 40
1
 40
1
 40
1
 40
1
 10
396.500000
 20
397.999996
 30
0.0
 10
396.500000
 20
398.397821
 30
0.0
 10
396.658035
 20
398.779352
 30
0.0
 10
396.939340
 20
399.060656
 30
0.0
  0
SPLINE
  5
33c
100
AcDbEntity
  8
dots_outline
 62
7
100
AcDbSpline
 70
8
 71
3
 72
8
 73
4
 74
0
 40
0
 40
0
 40
0
 40
0
 40
1
 40
1
 40
1
 40
1
 10
396.939340
 20
399.060656
 30
0.0
 10
397.220644
 20
399.341961
 30
0.0
 10
397.602175
 20
399.499996
 30
0.0
 10
398.000000
 20
399.499996
 30
0.0
  0
SPLINE
  5
33d
100
AcDbEntity
  8
dots_outline
 62
7
100
AcDbSpline
 70
8
 71
3
 72
8
 73
4
 74
0
 40
0
 40
0
 40
0
 40
0
 40
1
 40
1
 40
1
 40
1
 10
398.000000
 20
399.499996
 30
0.0
 10
398.397825
 20
399.499996
 30
0.0
 10
398.779356
 20
399.341961
 30
0.0
 10
399.060660
 20
399.060656
 30
0.0
  0
SPLINE
  5
33e
100
AcDbEntity
  8
dots_outline
 62
7
100
AcDbSpline
 70
8
 71
3
 72
8
 73
4
 74
0
 40
0
 40
0
 40
0
 40
0
 40
1
 40
1
 40
1
 40
1
 10
399.060660
 20
399.060656
 30
0.0
 10
399.341965
 20
398.779352
 30
0.0
 10
399.500000
 20
398.397821
 30
0.0
 10
399.500000
 20
397.999996
 30
0.0
  0
LWPOLYLINE
  5
33f
100
AcDbEntity
  8
dots_outline
 62
7
100
AcDbPolyline
 90
1
 70
1
 10
399.500000
 20
42.000000
 30
0.0
  0
SPLINE
  5
340
100
AcDbEntity
  8
dots_outline
 62
7
100
AcDbSpline
 70
8
 71
3
 72
8
 73
4
 74
0
 40
0
 40
0
 40
0
 40
0
 40
1
 40
1
 40
1
 40
1
 10
43.500000
 20
398.000000
 30
0.0
 10
43.500000
 20
397.602175
 30
0.0
 10
43.341965
 20
397.220644
 30
0.0
 10
43.060660
 20
396.939340
 30
0.0
  0
SPLINE
  5
341
100
AcDbEntity
  8
dots_outline
 62
7
100
AcDbSpline
 70
8
 71
3
 72
8
 73
4
 74
0
 40
0
 40
0
 40
0
 40
0
 40
1
 40
1
 40
1
 40
1
 10
43.060660
 20
396.939340
 30
0.0
 10
42.779356
 20
396.658035
 30
0.0
 10
42.397825
 20
396.500000
 30
0.0
 10
42.000000
 20
396.500000
 30
0.0
  0
SPLINE
  5
342
100
AcDbEntity
  8
dots_outline
 62
7
100
AcDbSpline
 70
8
 71
3
 72
8
 73
4
 74
0
 40
0
 40
0
 40
0
 40
0
 40
1
 40
1
 40
1
 40
1
 10
42.000000
 20
396.500000
 30
0.0
 10
41.602175
 20
396.500000
 30
0.0
 10
41.220644
 20
396.658035
 30
0.0
 10
40.939340
 20
396.939340
 30
0.0
  0
SPLINE
  5
343
100
AcDbEntity
  8
dots_outline
 62
7
100
AcDbSpline
 70
8
 71
3
 72
8
 73
4
 74
0
 40
0
 40
0
 40
0
 40
0
 40
1
 40
1
 40
1
 40
1
 10
40.939340
 20
396.939340
 30
0.0
 10
40.658035
 20
397.220644
 30
0.0
 10
40.500000
 20
397.602175
 30
0.0
 10
40.500000
 20
398.000000
 30
0.0
  0
SPLINE
  5
344
100
AcDbEntity
  8
dots_outline
 62
7
100
AcDbSpline
 70
8
 71
3
 72
8
 73
4
 74
0
 40
0
 40
0
 40
0
 40
0
 40
1
 40
1
 40
1
 40
1
 10
40.500000
 20
398.000000
 30
0.0
 10
40.500000
 20
398.397825
 30
0.0
 10
40.658035
 20
398.779356
 30
0.0
 10
40.939340
 20
399.060660
 30
0.0
  0
SPLINE
  5
345
100
AcDbEntity
  8
dots_outline
 62
7
100
AcDbSpline
 70
8
 71
3
 72
8
 73
4
 74
0
 40
0
 40
0
 40
0
 40
0
 40
1
 40
1
 40
1
 40
1
 10
40.939340
 20
399.060660
 30
0.0
 10
41.220644
 20
399.341965
 30
0.0
 10
41.602175
 20
399.500000
 30
0.0
 10
42.000000
 20
399.500000
 30
0.0
  0
SPLINE
  5
346
100
AcDbEntity
  8
dots_outline
 62
7
100
AcDbSpline
 70
8
 71
3
 72
8
 73
4
 74
0
 40
0
 40
0
 40
0
 40
0
 40
1
 40
1
 40
1
 40
1
 10
42.000000
 20
399.500000
 30
0.0
 10
42.397825
 20
399.500000
 30
0.0
 10
42.779356
 20
399.341965
 30
0.0
 10
43.060660
 20
399.060660
 30
0.0
  0
SPLINE
  5
347
100
AcDbEntity
  8
dots_outline
 62
7
100
AcDbSpline
 70
8
 71
3
 72
8
 73
4
 74
0
 40
0
 40
0
 40
0
 40
0
 40
1
 40
1
 40
1
 40
1
 10
43.060660
 20
399.060660
 30
0.0
 10
43.341965
 20
398.779356
 30
0.0
 10
43.500000
 20
398.397825
 30
0.0
 10
43.500000
 20
398.000000
 30
0.0
  0
LWPOLYLINE
  5
348
100
AcDbEntity
  8
dots_outline
 62
7
100
AcDbPolyline
 90
1
 70
1
 10
399.500000
 20
397.999996
 30
0.0
  0
LWPOLYLINE
  5
349
100
AcDbEntity
  8
dots_outline
 62
7
100
AcDbPolyline
 90
1
 70
1
 10
43.500000
 20
398.000000
 30
0.0
  0
ENDSEC
  0
SECTION
  2
OBJECTS
  0
DICTIONARY
  5
C
330
0
100
AcDbDictionary
  3
ACAD_GROUP
350
D
  3
ACAD_MLINESTYLE
350
17
  0
DICTIONARY
  5
D
330
C
100
AcDbDictionary
  0
DICTIONARY
  5
1A
330
C
100
AcDbDictionary
  0
DICTIONARY
  5
17
330
C
100
AcDbDictionary
  3
STANDARD
350
18
  0
DICTIONARY
  5
19
330
C
100
AcDbDictionary
  0
ENDSEC
  0
EOF
