G04 #@! TF.GenerationSoftware,KiCad,Pcbnew,(5.1.5)-3*
G04 #@! TF.CreationDate,2020-12-20T17:30:11+01:00*
G04 #@! TF.ProjectId,Taster,54617374-6572-42e6-9b69-6361645f7063,rev?*
G04 #@! TF.SameCoordinates,Original*
G04 #@! TF.FileFunction,Soldermask,Top*
G04 #@! TF.FilePolarity,Negative*
%FSLAX46Y46*%
G04 Gerber Fmt 4.6, Leading zero omitted, Abs format (unit mm)*
G04 Created by KiCad (PCBNEW (5.1.5)-3) date 2020-12-20 17:30:11*
%MOMM*%
%LPD*%
G04 APERTURE LIST*
%ADD10C,0.100000*%
G04 APERTURE END LIST*
D10*
G36*
X12860426Y-6403313D02*
G01*
X13012812Y-6433624D01*
X13176784Y-6501544D01*
X13324354Y-6600147D01*
X13449853Y-6725646D01*
X13548456Y-6873216D01*
X13616376Y-7037188D01*
X13651000Y-7211259D01*
X13651000Y-7388741D01*
X13616376Y-7562812D01*
X13548456Y-7726784D01*
X13449853Y-7874354D01*
X13324354Y-7999853D01*
X13176784Y-8098456D01*
X13012812Y-8166376D01*
X12860426Y-8196687D01*
X12838742Y-8201000D01*
X12661258Y-8201000D01*
X12639574Y-8196687D01*
X12487188Y-8166376D01*
X12323216Y-8098456D01*
X12175646Y-7999853D01*
X12050147Y-7874354D01*
X11951544Y-7726784D01*
X11883624Y-7562812D01*
X11849000Y-7388741D01*
X11849000Y-7211259D01*
X11883624Y-7037188D01*
X11951544Y-6873216D01*
X12050147Y-6725646D01*
X12175646Y-6600147D01*
X12323216Y-6501544D01*
X12487188Y-6433624D01*
X12639574Y-6403313D01*
X12661258Y-6399000D01*
X12838742Y-6399000D01*
X12860426Y-6403313D01*
G37*
G36*
X17360426Y-6403313D02*
G01*
X17512812Y-6433624D01*
X17676784Y-6501544D01*
X17824354Y-6600147D01*
X17949853Y-6725646D01*
X18048456Y-6873216D01*
X18116376Y-7037188D01*
X18151000Y-7211259D01*
X18151000Y-7388741D01*
X18116376Y-7562812D01*
X18048456Y-7726784D01*
X17949853Y-7874354D01*
X17824354Y-7999853D01*
X17676784Y-8098456D01*
X17512812Y-8166376D01*
X17360426Y-8196687D01*
X17338742Y-8201000D01*
X17161258Y-8201000D01*
X17139574Y-8196687D01*
X16987188Y-8166376D01*
X16823216Y-8098456D01*
X16675646Y-7999853D01*
X16550147Y-7874354D01*
X16451544Y-7726784D01*
X16383624Y-7562812D01*
X16349000Y-7388741D01*
X16349000Y-7211259D01*
X16383624Y-7037188D01*
X16451544Y-6873216D01*
X16550147Y-6725646D01*
X16675646Y-6600147D01*
X16823216Y-6501544D01*
X16987188Y-6433624D01*
X17139574Y-6403313D01*
X17161258Y-6399000D01*
X17338742Y-6399000D01*
X17360426Y-6403313D01*
G37*
G36*
X43360426Y-6403313D02*
G01*
X43512812Y-6433624D01*
X43676784Y-6501544D01*
X43824354Y-6600147D01*
X43949853Y-6725646D01*
X44048456Y-6873216D01*
X44116376Y-7037188D01*
X44151000Y-7211259D01*
X44151000Y-7388741D01*
X44116376Y-7562812D01*
X44048456Y-7726784D01*
X43949853Y-7874354D01*
X43824354Y-7999853D01*
X43676784Y-8098456D01*
X43512812Y-8166376D01*
X43360426Y-8196687D01*
X43338742Y-8201000D01*
X43161258Y-8201000D01*
X43139574Y-8196687D01*
X42987188Y-8166376D01*
X42823216Y-8098456D01*
X42675646Y-7999853D01*
X42550147Y-7874354D01*
X42451544Y-7726784D01*
X42383624Y-7562812D01*
X42349000Y-7388741D01*
X42349000Y-7211259D01*
X42383624Y-7037188D01*
X42451544Y-6873216D01*
X42550147Y-6725646D01*
X42675646Y-6600147D01*
X42823216Y-6501544D01*
X42987188Y-6433624D01*
X43139574Y-6403313D01*
X43161258Y-6399000D01*
X43338742Y-6399000D01*
X43360426Y-6403313D01*
G37*
G36*
X25860426Y-6403313D02*
G01*
X26012812Y-6433624D01*
X26176784Y-6501544D01*
X26324354Y-6600147D01*
X26449853Y-6725646D01*
X26548456Y-6873216D01*
X26616376Y-7037188D01*
X26651000Y-7211259D01*
X26651000Y-7388741D01*
X26616376Y-7562812D01*
X26548456Y-7726784D01*
X26449853Y-7874354D01*
X26324354Y-7999853D01*
X26176784Y-8098456D01*
X26012812Y-8166376D01*
X25860426Y-8196687D01*
X25838742Y-8201000D01*
X25661258Y-8201000D01*
X25639574Y-8196687D01*
X25487188Y-8166376D01*
X25323216Y-8098456D01*
X25175646Y-7999853D01*
X25050147Y-7874354D01*
X24951544Y-7726784D01*
X24883624Y-7562812D01*
X24849000Y-7388741D01*
X24849000Y-7211259D01*
X24883624Y-7037188D01*
X24951544Y-6873216D01*
X25050147Y-6725646D01*
X25175646Y-6600147D01*
X25323216Y-6501544D01*
X25487188Y-6433624D01*
X25639574Y-6403313D01*
X25661258Y-6399000D01*
X25838742Y-6399000D01*
X25860426Y-6403313D01*
G37*
G36*
X30360426Y-6403313D02*
G01*
X30512812Y-6433624D01*
X30676784Y-6501544D01*
X30824354Y-6600147D01*
X30949853Y-6725646D01*
X31048456Y-6873216D01*
X31116376Y-7037188D01*
X31151000Y-7211259D01*
X31151000Y-7388741D01*
X31116376Y-7562812D01*
X31048456Y-7726784D01*
X30949853Y-7874354D01*
X30824354Y-7999853D01*
X30676784Y-8098456D01*
X30512812Y-8166376D01*
X30360426Y-8196687D01*
X30338742Y-8201000D01*
X30161258Y-8201000D01*
X30139574Y-8196687D01*
X29987188Y-8166376D01*
X29823216Y-8098456D01*
X29675646Y-7999853D01*
X29550147Y-7874354D01*
X29451544Y-7726784D01*
X29383624Y-7562812D01*
X29349000Y-7388741D01*
X29349000Y-7211259D01*
X29383624Y-7037188D01*
X29451544Y-6873216D01*
X29550147Y-6725646D01*
X29675646Y-6600147D01*
X29823216Y-6501544D01*
X29987188Y-6433624D01*
X30139574Y-6403313D01*
X30161258Y-6399000D01*
X30338742Y-6399000D01*
X30360426Y-6403313D01*
G37*
G36*
X38860426Y-6403313D02*
G01*
X39012812Y-6433624D01*
X39176784Y-6501544D01*
X39324354Y-6600147D01*
X39449853Y-6725646D01*
X39548456Y-6873216D01*
X39616376Y-7037188D01*
X39651000Y-7211259D01*
X39651000Y-7388741D01*
X39616376Y-7562812D01*
X39548456Y-7726784D01*
X39449853Y-7874354D01*
X39324354Y-7999853D01*
X39176784Y-8098456D01*
X39012812Y-8166376D01*
X38860426Y-8196687D01*
X38838742Y-8201000D01*
X38661258Y-8201000D01*
X38639574Y-8196687D01*
X38487188Y-8166376D01*
X38323216Y-8098456D01*
X38175646Y-7999853D01*
X38050147Y-7874354D01*
X37951544Y-7726784D01*
X37883624Y-7562812D01*
X37849000Y-7388741D01*
X37849000Y-7211259D01*
X37883624Y-7037188D01*
X37951544Y-6873216D01*
X38050147Y-6725646D01*
X38175646Y-6600147D01*
X38323216Y-6501544D01*
X38487188Y-6433624D01*
X38639574Y-6403313D01*
X38661258Y-6399000D01*
X38838742Y-6399000D01*
X38860426Y-6403313D01*
G37*
G36*
X51744097Y-3047033D02*
G01*
X51744100Y-3047034D01*
X51744099Y-3047034D01*
X52208352Y-3239333D01*
X52626168Y-3518509D01*
X52981491Y-3873832D01*
X53260667Y-4291648D01*
X53304264Y-4396902D01*
X53452967Y-4755903D01*
X53551000Y-5248747D01*
X53551000Y-5751253D01*
X53452967Y-6244097D01*
X53452966Y-6244099D01*
X53260667Y-6708352D01*
X52981491Y-7126168D01*
X52626168Y-7481491D01*
X52208352Y-7760667D01*
X51823752Y-7919973D01*
X51744097Y-7952967D01*
X51251253Y-8051000D01*
X50748747Y-8051000D01*
X50255903Y-7952967D01*
X50176248Y-7919973D01*
X49791648Y-7760667D01*
X49373832Y-7481491D01*
X49018509Y-7126168D01*
X48739333Y-6708352D01*
X48547034Y-6244099D01*
X48547033Y-6244097D01*
X48449000Y-5751253D01*
X48449000Y-5248747D01*
X48547033Y-4755903D01*
X48695736Y-4396902D01*
X48739333Y-4291648D01*
X49018509Y-3873832D01*
X49373832Y-3518509D01*
X49791648Y-3239333D01*
X50255901Y-3047034D01*
X50255900Y-3047034D01*
X50255903Y-3047033D01*
X50748747Y-2949000D01*
X51251253Y-2949000D01*
X51744097Y-3047033D01*
G37*
G36*
X5744097Y-3047033D02*
G01*
X5744100Y-3047034D01*
X5744099Y-3047034D01*
X6208352Y-3239333D01*
X6626168Y-3518509D01*
X6981491Y-3873832D01*
X7260667Y-4291648D01*
X7304264Y-4396902D01*
X7452967Y-4755903D01*
X7551000Y-5248747D01*
X7551000Y-5751253D01*
X7452967Y-6244097D01*
X7452966Y-6244099D01*
X7260667Y-6708352D01*
X6981491Y-7126168D01*
X6626168Y-7481491D01*
X6208352Y-7760667D01*
X5823752Y-7919973D01*
X5744097Y-7952967D01*
X5251253Y-8051000D01*
X4748747Y-8051000D01*
X4255903Y-7952967D01*
X4176248Y-7919973D01*
X3791648Y-7760667D01*
X3373832Y-7481491D01*
X3018509Y-7126168D01*
X2739333Y-6708352D01*
X2547034Y-6244099D01*
X2547033Y-6244097D01*
X2449000Y-5751253D01*
X2449000Y-5248747D01*
X2547033Y-4755903D01*
X2695736Y-4396902D01*
X2739333Y-4291648D01*
X3018509Y-3873832D01*
X3373832Y-3518509D01*
X3791648Y-3239333D01*
X4255901Y-3047034D01*
X4255900Y-3047034D01*
X4255903Y-3047033D01*
X4748747Y-2949000D01*
X5251253Y-2949000D01*
X5744097Y-3047033D01*
G37*
G36*
X44748226Y-3981702D02*
G01*
X44748229Y-3981703D01*
X44748228Y-3981703D01*
X44903100Y-4045853D01*
X45042481Y-4138985D01*
X45161015Y-4257519D01*
X45254147Y-4396900D01*
X45307291Y-4525202D01*
X45318298Y-4551774D01*
X45351000Y-4716182D01*
X45351000Y-4883818D01*
X45318298Y-5048226D01*
X45318297Y-5048228D01*
X45254147Y-5203100D01*
X45161015Y-5342481D01*
X45042481Y-5461015D01*
X44903100Y-5554147D01*
X44774798Y-5607291D01*
X44748226Y-5618298D01*
X44583818Y-5651000D01*
X44416182Y-5651000D01*
X44251774Y-5618298D01*
X44225202Y-5607291D01*
X44096900Y-5554147D01*
X43957519Y-5461015D01*
X43838985Y-5342481D01*
X43745853Y-5203100D01*
X43681703Y-5048228D01*
X43681702Y-5048226D01*
X43649000Y-4883818D01*
X43649000Y-4716182D01*
X43681702Y-4551774D01*
X43692709Y-4525202D01*
X43745853Y-4396900D01*
X43838985Y-4257519D01*
X43957519Y-4138985D01*
X44096900Y-4045853D01*
X44251772Y-3981703D01*
X44251771Y-3981703D01*
X44251774Y-3981702D01*
X44416182Y-3949000D01*
X44583818Y-3949000D01*
X44748226Y-3981702D01*
G37*
G36*
X24748226Y-3981702D02*
G01*
X24748229Y-3981703D01*
X24748228Y-3981703D01*
X24903100Y-4045853D01*
X25042481Y-4138985D01*
X25161015Y-4257519D01*
X25254147Y-4396900D01*
X25307291Y-4525202D01*
X25318298Y-4551774D01*
X25351000Y-4716182D01*
X25351000Y-4883818D01*
X25318298Y-5048226D01*
X25318297Y-5048228D01*
X25254147Y-5203100D01*
X25161015Y-5342481D01*
X25042481Y-5461015D01*
X24903100Y-5554147D01*
X24774798Y-5607291D01*
X24748226Y-5618298D01*
X24583818Y-5651000D01*
X24416182Y-5651000D01*
X24251774Y-5618298D01*
X24225202Y-5607291D01*
X24096900Y-5554147D01*
X23957519Y-5461015D01*
X23838985Y-5342481D01*
X23745853Y-5203100D01*
X23681703Y-5048228D01*
X23681702Y-5048226D01*
X23649000Y-4883818D01*
X23649000Y-4716182D01*
X23681702Y-4551774D01*
X23692709Y-4525202D01*
X23745853Y-4396900D01*
X23838985Y-4257519D01*
X23957519Y-4138985D01*
X24096900Y-4045853D01*
X24251772Y-3981703D01*
X24251771Y-3981703D01*
X24251774Y-3981702D01*
X24416182Y-3949000D01*
X24583818Y-3949000D01*
X24748226Y-3981702D01*
G37*
G36*
X31748226Y-3981702D02*
G01*
X31748229Y-3981703D01*
X31748228Y-3981703D01*
X31903100Y-4045853D01*
X32042481Y-4138985D01*
X32161015Y-4257519D01*
X32254147Y-4396900D01*
X32307291Y-4525202D01*
X32318298Y-4551774D01*
X32351000Y-4716182D01*
X32351000Y-4883818D01*
X32318298Y-5048226D01*
X32318297Y-5048228D01*
X32254147Y-5203100D01*
X32161015Y-5342481D01*
X32042481Y-5461015D01*
X31903100Y-5554147D01*
X31774798Y-5607291D01*
X31748226Y-5618298D01*
X31583818Y-5651000D01*
X31416182Y-5651000D01*
X31251774Y-5618298D01*
X31225202Y-5607291D01*
X31096900Y-5554147D01*
X30957519Y-5461015D01*
X30838985Y-5342481D01*
X30745853Y-5203100D01*
X30681703Y-5048228D01*
X30681702Y-5048226D01*
X30649000Y-4883818D01*
X30649000Y-4716182D01*
X30681702Y-4551774D01*
X30692709Y-4525202D01*
X30745853Y-4396900D01*
X30838985Y-4257519D01*
X30957519Y-4138985D01*
X31096900Y-4045853D01*
X31251772Y-3981703D01*
X31251771Y-3981703D01*
X31251774Y-3981702D01*
X31416182Y-3949000D01*
X31583818Y-3949000D01*
X31748226Y-3981702D01*
G37*
G36*
X18748226Y-3981702D02*
G01*
X18748229Y-3981703D01*
X18748228Y-3981703D01*
X18903100Y-4045853D01*
X19042481Y-4138985D01*
X19161015Y-4257519D01*
X19254147Y-4396900D01*
X19307291Y-4525202D01*
X19318298Y-4551774D01*
X19351000Y-4716182D01*
X19351000Y-4883818D01*
X19318298Y-5048226D01*
X19318297Y-5048228D01*
X19254147Y-5203100D01*
X19161015Y-5342481D01*
X19042481Y-5461015D01*
X18903100Y-5554147D01*
X18774798Y-5607291D01*
X18748226Y-5618298D01*
X18583818Y-5651000D01*
X18416182Y-5651000D01*
X18251774Y-5618298D01*
X18225202Y-5607291D01*
X18096900Y-5554147D01*
X17957519Y-5461015D01*
X17838985Y-5342481D01*
X17745853Y-5203100D01*
X17681703Y-5048228D01*
X17681702Y-5048226D01*
X17649000Y-4883818D01*
X17649000Y-4716182D01*
X17681702Y-4551774D01*
X17692709Y-4525202D01*
X17745853Y-4396900D01*
X17838985Y-4257519D01*
X17957519Y-4138985D01*
X18096900Y-4045853D01*
X18251772Y-3981703D01*
X18251771Y-3981703D01*
X18251774Y-3981702D01*
X18416182Y-3949000D01*
X18583818Y-3949000D01*
X18748226Y-3981702D01*
G37*
G36*
X37748226Y-3981702D02*
G01*
X37748229Y-3981703D01*
X37748228Y-3981703D01*
X37903100Y-4045853D01*
X38042481Y-4138985D01*
X38161015Y-4257519D01*
X38254147Y-4396900D01*
X38307291Y-4525202D01*
X38318298Y-4551774D01*
X38351000Y-4716182D01*
X38351000Y-4883818D01*
X38318298Y-5048226D01*
X38318297Y-5048228D01*
X38254147Y-5203100D01*
X38161015Y-5342481D01*
X38042481Y-5461015D01*
X37903100Y-5554147D01*
X37774798Y-5607291D01*
X37748226Y-5618298D01*
X37583818Y-5651000D01*
X37416182Y-5651000D01*
X37251774Y-5618298D01*
X37225202Y-5607291D01*
X37096900Y-5554147D01*
X36957519Y-5461015D01*
X36838985Y-5342481D01*
X36745853Y-5203100D01*
X36681703Y-5048228D01*
X36681702Y-5048226D01*
X36649000Y-4883818D01*
X36649000Y-4716182D01*
X36681702Y-4551774D01*
X36692709Y-4525202D01*
X36745853Y-4396900D01*
X36838985Y-4257519D01*
X36957519Y-4138985D01*
X37096900Y-4045853D01*
X37251772Y-3981703D01*
X37251771Y-3981703D01*
X37251774Y-3981702D01*
X37416182Y-3949000D01*
X37583818Y-3949000D01*
X37748226Y-3981702D01*
G37*
G36*
X11748226Y-3981702D02*
G01*
X11748229Y-3981703D01*
X11748228Y-3981703D01*
X11903100Y-4045853D01*
X12042481Y-4138985D01*
X12161015Y-4257519D01*
X12254147Y-4396900D01*
X12307291Y-4525202D01*
X12318298Y-4551774D01*
X12351000Y-4716182D01*
X12351000Y-4883818D01*
X12318298Y-5048226D01*
X12318297Y-5048228D01*
X12254147Y-5203100D01*
X12161015Y-5342481D01*
X12042481Y-5461015D01*
X11903100Y-5554147D01*
X11774798Y-5607291D01*
X11748226Y-5618298D01*
X11583818Y-5651000D01*
X11416182Y-5651000D01*
X11251774Y-5618298D01*
X11225202Y-5607291D01*
X11096900Y-5554147D01*
X10957519Y-5461015D01*
X10838985Y-5342481D01*
X10745853Y-5203100D01*
X10681703Y-5048228D01*
X10681702Y-5048226D01*
X10649000Y-4883818D01*
X10649000Y-4716182D01*
X10681702Y-4551774D01*
X10692709Y-4525202D01*
X10745853Y-4396900D01*
X10838985Y-4257519D01*
X10957519Y-4138985D01*
X11096900Y-4045853D01*
X11251772Y-3981703D01*
X11251771Y-3981703D01*
X11251774Y-3981702D01*
X11416182Y-3949000D01*
X11583818Y-3949000D01*
X11748226Y-3981702D01*
G37*
G36*
X24077395Y-685546D02*
G01*
X24178778Y-727541D01*
X24250467Y-757235D01*
X24406227Y-861310D01*
X24538690Y-993773D01*
X24642765Y-1149533D01*
X24642765Y-1149534D01*
X24714454Y-1322605D01*
X24751000Y-1506333D01*
X24751000Y-1693667D01*
X24714454Y-1877395D01*
X24672459Y-1978778D01*
X24642765Y-2050467D01*
X24538690Y-2206227D01*
X24406227Y-2338690D01*
X24250467Y-2442765D01*
X24178778Y-2472459D01*
X24077395Y-2514454D01*
X23893667Y-2551000D01*
X23706333Y-2551000D01*
X23522605Y-2514454D01*
X23421222Y-2472459D01*
X23349533Y-2442765D01*
X23193773Y-2338690D01*
X23061310Y-2206227D01*
X22957235Y-2050467D01*
X22927541Y-1978778D01*
X22885546Y-1877395D01*
X22849000Y-1693667D01*
X22849000Y-1506333D01*
X22885546Y-1322605D01*
X22957235Y-1149534D01*
X22957235Y-1149533D01*
X23061310Y-993773D01*
X23193773Y-861310D01*
X23349533Y-757235D01*
X23421222Y-727541D01*
X23522605Y-685546D01*
X23706333Y-649000D01*
X23893667Y-649000D01*
X24077395Y-685546D01*
G37*
G36*
X26877395Y-685546D02*
G01*
X26978778Y-727541D01*
X27050467Y-757235D01*
X27206227Y-861310D01*
X27338690Y-993773D01*
X27442765Y-1149533D01*
X27442765Y-1149534D01*
X27514454Y-1322605D01*
X27551000Y-1506333D01*
X27551000Y-1693667D01*
X27514454Y-1877395D01*
X27472459Y-1978778D01*
X27442765Y-2050467D01*
X27338690Y-2206227D01*
X27206227Y-2338690D01*
X27050467Y-2442765D01*
X26978778Y-2472459D01*
X26877395Y-2514454D01*
X26693667Y-2551000D01*
X26506333Y-2551000D01*
X26322605Y-2514454D01*
X26221222Y-2472459D01*
X26149533Y-2442765D01*
X25993773Y-2338690D01*
X25861310Y-2206227D01*
X25757235Y-2050467D01*
X25727541Y-1978778D01*
X25685546Y-1877395D01*
X25649000Y-1693667D01*
X25649000Y-1506333D01*
X25685546Y-1322605D01*
X25757235Y-1149534D01*
X25757235Y-1149533D01*
X25861310Y-993773D01*
X25993773Y-861310D01*
X26149533Y-757235D01*
X26221222Y-727541D01*
X26322605Y-685546D01*
X26506333Y-649000D01*
X26693667Y-649000D01*
X26877395Y-685546D01*
G37*
G36*
X32477395Y-685546D02*
G01*
X32578778Y-727541D01*
X32650467Y-757235D01*
X32806227Y-861310D01*
X32938690Y-993773D01*
X33042765Y-1149533D01*
X33042765Y-1149534D01*
X33114454Y-1322605D01*
X33151000Y-1506333D01*
X33151000Y-1693667D01*
X33114454Y-1877395D01*
X33072459Y-1978778D01*
X33042765Y-2050467D01*
X32938690Y-2206227D01*
X32806227Y-2338690D01*
X32650467Y-2442765D01*
X32578778Y-2472459D01*
X32477395Y-2514454D01*
X32293667Y-2551000D01*
X32106333Y-2551000D01*
X31922605Y-2514454D01*
X31821222Y-2472459D01*
X31749533Y-2442765D01*
X31593773Y-2338690D01*
X31461310Y-2206227D01*
X31357235Y-2050467D01*
X31327541Y-1978778D01*
X31285546Y-1877395D01*
X31249000Y-1693667D01*
X31249000Y-1506333D01*
X31285546Y-1322605D01*
X31357235Y-1149534D01*
X31357235Y-1149533D01*
X31461310Y-993773D01*
X31593773Y-861310D01*
X31749533Y-757235D01*
X31821222Y-727541D01*
X31922605Y-685546D01*
X32106333Y-649000D01*
X32293667Y-649000D01*
X32477395Y-685546D01*
G37*
G36*
X29677395Y-685546D02*
G01*
X29778778Y-727541D01*
X29850467Y-757235D01*
X30006227Y-861310D01*
X30138690Y-993773D01*
X30242765Y-1149533D01*
X30242765Y-1149534D01*
X30314454Y-1322605D01*
X30351000Y-1506333D01*
X30351000Y-1693667D01*
X30314454Y-1877395D01*
X30272459Y-1978778D01*
X30242765Y-2050467D01*
X30138690Y-2206227D01*
X30006227Y-2338690D01*
X29850467Y-2442765D01*
X29778778Y-2472459D01*
X29677395Y-2514454D01*
X29493667Y-2551000D01*
X29306333Y-2551000D01*
X29122605Y-2514454D01*
X29021222Y-2472459D01*
X28949533Y-2442765D01*
X28793773Y-2338690D01*
X28661310Y-2206227D01*
X28557235Y-2050467D01*
X28527541Y-1978778D01*
X28485546Y-1877395D01*
X28449000Y-1693667D01*
X28449000Y-1506333D01*
X28485546Y-1322605D01*
X28557235Y-1149534D01*
X28557235Y-1149533D01*
X28661310Y-993773D01*
X28793773Y-861310D01*
X28949533Y-757235D01*
X29021222Y-727541D01*
X29122605Y-685546D01*
X29306333Y-649000D01*
X29493667Y-649000D01*
X29677395Y-685546D01*
G37*
M02*
