M48
; DRILL file {KiCad (5.1.5)-3} date 03.12.2020 11:47:21
; FORMAT={-:-/ absolute / inch / decimal}
; #@! TF.CreationDate,2020-12-03T11:47:21+01:00
; #@! TF.GenerationSoftware,Kicad,Pcbnew,(5.1.5)-3
; #@! TF.FileFunction,Plated,1,2,PTH
FMAT,2
INCH
T1C0.0079
T2C0.0157
T3C0.0394
T4C0.0551
%
G90
G05
T1
X0.4911Y-10.997
X0.4911Y-11.0428
X0.4911Y-11.0886
X0.4911Y-11.1344
X0.4911Y-11.1801
X0.5369Y-10.997
X0.5369Y-11.0428
X0.5369Y-11.0886
X0.5369Y-11.1344
X0.5369Y-11.1801
X0.5827Y-10.997
X0.5827Y-11.0428
X0.5827Y-11.0886
X0.5827Y-11.1344
X0.5827Y-11.1801
X0.6284Y-10.997
X0.6284Y-11.0428
X0.6284Y-11.0886
X0.6284Y-11.1344
X0.6284Y-11.1801
X0.6742Y-10.997
X0.6742Y-11.0428
X0.6742Y-11.0886
X0.6742Y-11.1344
X0.6742Y-11.1801
T2
X0.0315Y-10.3543
X0.0315Y-10.4043
X0.0315Y-10.4543
X0.0315Y-10.5043
X0.0315Y-10.5543
X0.0315Y-10.6043
X0.0315Y-10.6543
X0.0315Y-10.7043
X0.0315Y-10.7543
X0.0787Y-0.315
X0.0787Y-1.7874
X0.0815Y-10.3543
X0.0837Y-12.3543
X0.1083Y-0.4528
X0.1315Y-10.3543
X0.1315Y-10.4543
X0.1315Y-10.5543
X0.1575Y-1.7874
X0.1815Y-10.3543
X0.2047Y-11.1811
X0.2165Y-12.0709
X0.2165Y-12.4055
X0.2244Y-10.7008
X0.2244Y-11.3622
X0.2315Y-10.3543
X0.2315Y-10.4543
X0.2315Y-10.5543
X0.2362Y-0.5512
X0.2362Y-0.6299
X0.2362Y-0.7087
X0.2362Y-0.7874
X0.2362Y-0.8661
X0.2362Y-0.9449
X0.2362Y-1.0236
X0.2362Y-1.1024
X0.2362Y-1.1811
X0.2362Y-1.2598
X0.2362Y-1.3386
X0.2362Y-1.4173
X0.2362Y-1.4961
X0.2362Y-1.5748
X0.2362Y-1.7874
X0.2456Y-12.1048
X0.2559Y-10.9094
X0.2815Y-10.3543
X0.2874Y-11.1575
X0.2874Y-11.2165
X0.2874Y-11.2795
X0.3135Y-12.1038
X0.315Y-1.5748
X0.315Y-1.7874
X0.3315Y-10.3543
X0.3315Y-10.4543
X0.3315Y-10.5543
X0.3386Y-11.4764
X0.3504Y-12.122
X0.3661Y-6.7677
X0.3661Y-6.8661
X0.378Y-12.748
X0.3815Y-10.3543
X0.3898Y-10.7992
X0.3937Y-1.7874
X0.4213Y-10.6811
X0.4213Y-11.3937
X0.4252Y-12.1201
X0.4315Y-10.3543
X0.4315Y-10.4543
X0.4315Y-10.5543
X0.4528Y-10.7992
X0.4528Y-11.3701
X0.4724Y-1.5748
X0.4724Y-1.7874
X0.4808Y-11.2869
X0.4815Y-10.3543
X0.4862Y-10.7697
X0.5039Y-11.5157
X0.5315Y-10.3543
X0.5315Y-11.5709
X0.5315Y-11.6102
X0.5315Y-11.6496
X0.5315Y-11.689
X0.5354Y-10.437
X0.5354Y-10.5276
X0.5441Y-11.2917
X0.5512Y-1.5748
X0.5807Y-10.7717
X0.6299Y-0.0787
X0.6299Y-0.1575
X0.6299Y-0.2362
X0.6299Y-0.315
X0.6299Y-0.3937
X0.6299Y-0.4724
X0.6299Y-0.5512
X0.6299Y-0.6299
X0.6299Y-0.7087
X0.6299Y-0.7874
X0.6299Y-0.8661
X0.6299Y-0.9449
X0.6299Y-1.0236
X0.6299Y-1.1024
X0.6299Y-1.1811
X0.6299Y-1.2598
X0.6299Y-1.3386
X0.6299Y-1.4173
X0.6299Y-1.4961
X0.6299Y-1.5748
X0.6299Y-1.7874
X0.6417Y-6.9961
X0.6476Y-10.3543
X0.6815Y-10.4543
X0.6815Y-10.5543
X0.6929Y-11.5709
X0.6929Y-11.6102
X0.6929Y-11.6496
X0.6929Y-11.689
X0.7087Y-1.5748
X0.7087Y-1.7874
X0.7087Y-11.3976
X0.7165Y-10.6772
X0.7283Y-7.1575
X0.7303Y-10.3543
X0.7795Y-10.9291
X0.7815Y-10.3543
X0.7815Y-10.4543
X0.7815Y-10.5543
X0.7874Y-1.5748
X0.7874Y-1.7874
X0.7894Y-12.1614
X0.7992Y-13.0236
X0.8268Y-12.1614
X0.8315Y-10.3543
X0.8376Y-11.4921
X0.8386Y-6.878
X0.8386Y-6.9173
X0.8425Y-10.5984
X0.8425Y-13.0236
X0.8622Y-12.1614
X0.8661Y-1.5748
X0.8661Y-1.7874
X0.878Y-6.878
X0.878Y-6.9173
X0.8815Y-10.3543
X0.8898Y-11.2598
X0.8937Y-12.6378
X0.9055Y-10.4094
X0.9173Y-6.878
X0.9173Y-6.9173
X0.9173Y-10.6772
X0.9213Y-11.378
X0.9213Y-13.0236
X0.9291Y-10.874
X0.9315Y-10.3543
X0.9449Y-1.5748
X0.9449Y-1.7874
X0.9567Y-6.878
X0.9567Y-6.9173
X0.9646Y-13.0236
X0.9685Y-11.0906
X0.9724Y-11.8465
X0.9724Y-11.9921
X0.9764Y-6.9606
X0.9764Y-7.0
X0.9815Y-10.3543
X1.0079Y-10.5118
X1.0197Y-10.9921
X1.0197Y-11.1024
X1.0236Y-1.5748
X1.0236Y-1.7874
X1.0315Y-10.3543
X1.0472Y-10.6772
X1.0709Y-2.6299
X1.0709Y-10.7559
X1.0719Y-10.8543
X1.0787Y-2.5197
X1.0787Y-11.5748
X1.0815Y-10.3543
X1.0815Y-10.4543
X1.0815Y-10.5543
X1.1024Y-1.5748
X1.1024Y-1.7874
X1.1102Y-12.4764
X1.1102Y-12.5236
X1.1102Y-12.5709
X1.122Y-11.7008
X1.1315Y-10.3543
X1.1315Y-10.5543
X1.1339Y-10.7559
X1.1339Y-11.7795
X1.1339Y-11.9134
X1.1496Y-12.4764
X1.1496Y-12.5236
X1.1496Y-12.5709
X1.1811Y-1.5748
X1.1811Y-1.7874
X1.1811Y-2.5039
X1.1811Y-2.7638
X1.1815Y-10.3543
X1.1815Y-10.4543
X1.1815Y-10.5543
X1.2315Y-10.3543
X1.2315Y-10.5543
X1.2598Y-1.5748
X1.2598Y-1.7874
X1.2815Y-10.3543
X1.2815Y-10.4543
X1.2815Y-10.5543
X1.2913Y-2.6299
X1.3315Y-10.3543
X1.3315Y-10.5543
X1.3386Y-1.5748
X1.3386Y-1.7874
X1.3622Y-10.7835
X1.378Y-11.937
X1.3815Y-10.3543
X1.3815Y-10.4543
X1.3815Y-10.5543
X1.4173Y-1.5748
X1.4173Y-1.7874
X1.4315Y-10.3543
X1.4315Y-10.5543
X1.4815Y-10.3543
X1.4815Y-10.4043
X1.4815Y-10.4543
X1.4815Y-10.5043
X1.4815Y-10.5543
X1.4961Y-1.5748
X1.4961Y-1.7874
X1.5039Y-12.7953
X1.5197Y-7.5591
X1.5748Y-1.5748
X1.5748Y-1.7874
X1.5748Y-1.8661
X1.5748Y-1.9449
X1.5748Y-2.0236
X1.5748Y-2.1024
X1.5748Y-2.1811
X1.5748Y-2.2598
X1.5748Y-2.3386
X1.5748Y-2.4173
X1.6063Y-7.5591
X1.6535Y-1.5748
X1.7323Y-1.5748
X1.811Y-1.5748
X1.811Y-2.1457
X1.811Y-4.5079
X1.811Y-6.8701
X1.811Y-9.2323
X1.811Y-11.5945
X1.8898Y-1.5748
X1.9685Y-1.5748
X2.0472Y-1.5748
X2.126Y-1.5748
X2.1457Y-2.9724
X2.1457Y-5.3346
X2.1457Y-7.6969
X2.1457Y-10.0591
X2.1457Y-12.4213
X2.2047Y-1.5748
X2.2835Y-1.5748
X2.3622Y-1.5748
X2.4409Y-1.5748
X2.5197Y-1.5748
X2.5984Y-1.5748
X2.6772Y-1.5748
X2.7559Y-1.5748
X2.8346Y-1.5748
X2.8543Y-2.1457
X2.8543Y-4.5079
X2.8543Y-6.8701
X2.8543Y-9.2323
X2.8543Y-11.5945
X2.9134Y-1.5748
X2.9921Y-1.5748
X3.0709Y-1.5748
X3.1496Y-1.5748
X3.2087Y-2.9724
X3.2087Y-5.3346
X3.2087Y-7.6969
X3.2087Y-10.0591
X3.2087Y-12.4213
X3.2283Y-1.5748
X3.3071Y-1.5748
X3.3858Y-1.5748
X3.4646Y-1.5748
X3.5433Y-1.5748
X3.622Y-1.5748
X3.7008Y-1.5748
X3.7795Y-1.5748
X3.8583Y-1.5748
X3.9173Y-2.1457
X3.9173Y-4.5079
X3.9173Y-6.8701
X3.9173Y-9.2323
X3.9173Y-11.5945
X3.937Y-1.5748
X4.0157Y-1.5748
X4.0945Y-1.5748
X4.1732Y-1.5748
X4.252Y-1.5748
X4.2717Y-2.9724
X4.2717Y-5.3346
X4.2717Y-7.6969
X4.2717Y-10.0591
X4.2717Y-12.4213
X4.3307Y-1.5748
X4.4094Y-1.5748
X4.4882Y-1.5748
X4.5669Y-0.0787
X4.5669Y-0.1575
X4.5669Y-0.2362
X4.5669Y-0.315
X4.5669Y-0.3937
X4.5669Y-0.4724
X4.5669Y-0.5512
X4.5669Y-0.6299
X4.5669Y-0.7087
X4.5669Y-0.7874
X4.5669Y-0.8661
X4.5669Y-0.9449
X4.5669Y-1.0236
X4.5669Y-1.1024
X4.5669Y-1.1811
X4.5669Y-1.2598
X4.5669Y-1.3386
X4.5669Y-1.4173
X4.5669Y-1.4961
X4.5669Y-1.5748
X4.9803Y-2.1457
X4.9803Y-4.5079
X4.9803Y-6.8701
X4.9803Y-9.2323
X4.9803Y-11.5945
X5.248Y-13.0236
X5.2913Y-13.0236
X5.3346Y-2.9724
X5.3346Y-5.3346
X5.3346Y-7.6969
X5.3346Y-10.0591
X5.3346Y-12.4213
X5.3701Y-13.0236
X5.4134Y-13.0236
X6.0433Y-2.1457
X6.0433Y-4.5079
X6.0433Y-6.8701
X6.0433Y-9.2323
X6.0433Y-11.5945
X6.3976Y-2.9724
X6.3976Y-5.3346
X6.3976Y-7.6969
X6.3976Y-10.0591
X6.3976Y-12.4213
X7.1063Y-2.1457
X7.1063Y-4.5079
X7.1063Y-6.8701
X7.1063Y-9.2323
X7.1063Y-11.5945
X7.4606Y-2.9724
X7.4606Y-5.3346
X7.4606Y-7.6969
X7.4606Y-10.0591
X7.4606Y-12.4213
X8.1693Y-2.1457
X8.1693Y-4.5079
X8.1693Y-6.8701
X8.1693Y-9.2323
X8.1693Y-11.5945
X8.5236Y-2.9724
X8.5236Y-5.3346
X8.5236Y-7.6969
X8.5236Y-10.0591
X8.5236Y-12.4213
X9.2323Y-2.1457
X9.2323Y-4.5079
X9.2323Y-6.8701
X9.2323Y-9.2323
X9.2323Y-11.5945
X9.5866Y-2.9724
X9.5866Y-5.3346
X9.5866Y-7.6969
X9.5866Y-10.0591
X9.5866Y-12.4213
X9.9567Y-13.0236
X10.0Y-13.0236
X10.0787Y-13.0236
X10.122Y-13.0236
X10.2953Y-2.1457
X10.2953Y-4.5079
X10.2953Y-6.8701
X10.2953Y-9.2323
X10.2953Y-11.5945
X10.6496Y-2.9724
X10.6496Y-5.3346
X10.6496Y-7.6969
X10.6496Y-10.0591
X10.6496Y-12.4213
X11.3583Y-2.1457
X11.3583Y-4.5079
X11.3583Y-6.8701
X11.3583Y-9.2323
X11.3583Y-11.5945
X11.7126Y-2.9724
X11.7126Y-5.3346
X11.7126Y-7.6969
X11.7126Y-10.0591
X11.7126Y-12.4213
X12.4213Y-2.1457
X12.4213Y-4.5079
X12.4213Y-6.8701
X12.4213Y-9.2323
X12.4213Y-11.5945
X12.7559Y-2.9724
X12.7559Y-5.3346
X12.7559Y-7.6969
X12.7559Y-10.0591
X12.7559Y-12.4213
X14.1339Y-0.4528
X14.3858Y-14.0669
T3
X0.1614Y-11.6205
X0.1614Y-11.7205
X1.061Y-2.2689
X1.161Y-2.2689
X1.261Y-2.2689
T4
X1.2807Y-11.186
X1.2807Y-11.286
X1.2807Y-11.386
X1.3807Y-11.236
X1.3807Y-11.336
X1.3807Y-11.436
T0
M30
