G04 #@! TF.GenerationSoftware,KiCad,Pcbnew,(5.1.5)-3*
G04 #@! TF.CreationDate,2020-11-10T12:22:49+01:00*
G04 #@! TF.ProjectId,Wordclock_V1.1,576f7264-636c-46f6-936b-5f56312e312e,rev?*
G04 #@! TF.SameCoordinates,Original*
G04 #@! TF.FileFunction,Legend,Bot*
G04 #@! TF.FilePolarity,Positive*
%FSLAX46Y46*%
G04 Gerber Fmt 4.6, Leading zero omitted, Abs format (unit mm)*
G04 Created by KiCad (PCBNEW (5.1.5)-3) date 2020-11-10 12:22:49*
%MOMM*%
%LPD*%
G04 APERTURE LIST*
%ADD10C,0.120000*%
%ADD11C,0.150000*%
G04 APERTURE END LIST*
D10*
X18730000Y-310750000D02*
X18730000Y-309050000D01*
X18730000Y-313250000D02*
X18730000Y-312350000D01*
X18730000Y-315750000D02*
X18730000Y-314850000D01*
X18730000Y-318250000D02*
X18730000Y-317350000D01*
X18730000Y-321550000D02*
X18730000Y-319850000D01*
X13120000Y-309050000D02*
X13120000Y-322550000D01*
X5558578Y-358290000D02*
X5041422Y-358290000D01*
X5558578Y-359710000D02*
X5041422Y-359710000D01*
X323650000Y-317250000D02*
X316350000Y-317250000D01*
X323650000Y-322750000D02*
X316350000Y-322750000D01*
X316350000Y-322750000D02*
X316350000Y-321600000D01*
X321241422Y-314790000D02*
X321758578Y-314790000D01*
X321241422Y-316210000D02*
X321758578Y-316210000D01*
X296650000Y-317250000D02*
X289350000Y-317250000D01*
X296650000Y-322750000D02*
X289350000Y-322750000D01*
X289350000Y-322750000D02*
X289350000Y-321600000D01*
X316350000Y-292750000D02*
X323650000Y-292750000D01*
X316350000Y-287250000D02*
X323650000Y-287250000D01*
X323650000Y-287250000D02*
X323650000Y-288400000D01*
X289350000Y-292750000D02*
X296650000Y-292750000D01*
X289350000Y-287250000D02*
X296650000Y-287250000D01*
X296650000Y-287250000D02*
X296650000Y-288400000D01*
X294241422Y-314790000D02*
X294758578Y-314790000D01*
X294241422Y-316210000D02*
X294758578Y-316210000D01*
X321241422Y-254790000D02*
X321758578Y-254790000D01*
X321241422Y-256210000D02*
X321758578Y-256210000D01*
X321241422Y-194790000D02*
X321758578Y-194790000D01*
X321241422Y-196210000D02*
X321758578Y-196210000D01*
X318758578Y-295210000D02*
X318241422Y-295210000D01*
X318758578Y-293790000D02*
X318241422Y-293790000D01*
X318758578Y-235210000D02*
X318241422Y-235210000D01*
X318758578Y-233790000D02*
X318241422Y-233790000D01*
X323650000Y-257250000D02*
X316350000Y-257250000D01*
X323650000Y-262750000D02*
X316350000Y-262750000D01*
X316350000Y-262750000D02*
X316350000Y-261600000D01*
X316350000Y-232750000D02*
X323650000Y-232750000D01*
X316350000Y-227250000D02*
X323650000Y-227250000D01*
X323650000Y-227250000D02*
X323650000Y-228400000D01*
X323650000Y-197250000D02*
X316350000Y-197250000D01*
X323650000Y-202750000D02*
X316350000Y-202750000D01*
X316350000Y-202750000D02*
X316350000Y-201600000D01*
X366650000Y-360250000D02*
X359350000Y-360250000D01*
X366650000Y-365750000D02*
X359350000Y-365750000D01*
X359350000Y-365750000D02*
X359350000Y-364600000D01*
X359350000Y-9750000D02*
X366650000Y-9750000D01*
X359350000Y-4250000D02*
X366650000Y-4250000D01*
X366650000Y-4250000D02*
X366650000Y-5400000D01*
X3350000Y-9750000D02*
X10650000Y-9750000D01*
X3350000Y-4250000D02*
X10650000Y-4250000D01*
X10650000Y-4250000D02*
X10650000Y-5400000D01*
X10650000Y-360250000D02*
X3350000Y-360250000D01*
X10650000Y-365750000D02*
X3350000Y-365750000D01*
X3350000Y-365750000D02*
X3350000Y-364600000D01*
X364241422Y-357790000D02*
X364758578Y-357790000D01*
X364241422Y-359210000D02*
X364758578Y-359210000D01*
X361758578Y-12210000D02*
X361241422Y-12210000D01*
X361758578Y-10790000D02*
X361241422Y-10790000D01*
X8441422Y-358290000D02*
X8958578Y-358290000D01*
X8441422Y-359710000D02*
X8958578Y-359710000D01*
X5758578Y-12210000D02*
X5241422Y-12210000D01*
X5758578Y-10790000D02*
X5241422Y-10790000D01*
X188650000Y-317250000D02*
X181350000Y-317250000D01*
X188650000Y-322750000D02*
X181350000Y-322750000D01*
X181350000Y-322750000D02*
X181350000Y-321600000D01*
X215650000Y-317250000D02*
X208350000Y-317250000D01*
X215650000Y-322750000D02*
X208350000Y-322750000D01*
X208350000Y-322750000D02*
X208350000Y-321600000D01*
X269650000Y-317250000D02*
X262350000Y-317250000D01*
X269650000Y-322750000D02*
X262350000Y-322750000D01*
X262350000Y-322750000D02*
X262350000Y-321600000D01*
X161650000Y-317250000D02*
X154350000Y-317250000D01*
X161650000Y-322750000D02*
X154350000Y-322750000D01*
X154350000Y-322750000D02*
X154350000Y-321600000D01*
X242650000Y-317250000D02*
X235350000Y-317250000D01*
X242650000Y-322750000D02*
X235350000Y-322750000D01*
X235350000Y-322750000D02*
X235350000Y-321600000D01*
X107650000Y-317250000D02*
X100350000Y-317250000D01*
X107650000Y-322750000D02*
X100350000Y-322750000D01*
X100350000Y-322750000D02*
X100350000Y-321600000D01*
X53650000Y-317250000D02*
X46350000Y-317250000D01*
X53650000Y-322750000D02*
X46350000Y-322750000D01*
X46350000Y-322750000D02*
X46350000Y-321600000D01*
X80650000Y-317250000D02*
X73350000Y-317250000D01*
X80650000Y-322750000D02*
X73350000Y-322750000D01*
X73350000Y-322750000D02*
X73350000Y-321600000D01*
X134650000Y-317250000D02*
X127350000Y-317250000D01*
X134650000Y-322750000D02*
X127350000Y-322750000D01*
X127350000Y-322750000D02*
X127350000Y-321600000D01*
X186241422Y-314790000D02*
X186758578Y-314790000D01*
X186241422Y-316210000D02*
X186758578Y-316210000D01*
X210758578Y-295210000D02*
X210241422Y-295210000D01*
X210758578Y-293790000D02*
X210241422Y-293790000D01*
X240241422Y-314790000D02*
X240758578Y-314790000D01*
X240241422Y-316210000D02*
X240758578Y-316210000D01*
X75758578Y-295210000D02*
X75241422Y-295210000D01*
X75758578Y-293790000D02*
X75241422Y-293790000D01*
X51241422Y-254790000D02*
X51758578Y-254790000D01*
X51241422Y-256210000D02*
X51758578Y-256210000D01*
X213241422Y-314790000D02*
X213758578Y-314790000D01*
X213241422Y-316210000D02*
X213758578Y-316210000D01*
X105241422Y-314790000D02*
X105758578Y-314790000D01*
X105241422Y-316210000D02*
X105758578Y-316210000D01*
X132241422Y-314790000D02*
X132758578Y-314790000D01*
X132241422Y-316210000D02*
X132758578Y-316210000D01*
X159241422Y-314790000D02*
X159758578Y-314790000D01*
X159241422Y-316210000D02*
X159758578Y-316210000D01*
X51241422Y-314790000D02*
X51758578Y-314790000D01*
X51241422Y-316210000D02*
X51758578Y-316210000D01*
X291758578Y-295210000D02*
X291241422Y-295210000D01*
X291758578Y-293790000D02*
X291241422Y-293790000D01*
X267241422Y-314790000D02*
X267758578Y-314790000D01*
X267241422Y-316210000D02*
X267758578Y-316210000D01*
X264758578Y-295210000D02*
X264241422Y-295210000D01*
X264758578Y-293790000D02*
X264241422Y-293790000D01*
X237758578Y-295210000D02*
X237241422Y-295210000D01*
X237758578Y-293790000D02*
X237241422Y-293790000D01*
X78241422Y-314790000D02*
X78758578Y-314790000D01*
X78241422Y-316210000D02*
X78758578Y-316210000D01*
X183758578Y-295260000D02*
X183241422Y-295260000D01*
X183758578Y-293840000D02*
X183241422Y-293840000D01*
X129758578Y-295210000D02*
X129241422Y-295210000D01*
X129758578Y-293790000D02*
X129241422Y-293790000D01*
X156758578Y-295210000D02*
X156241422Y-295210000D01*
X156758578Y-293790000D02*
X156241422Y-293790000D01*
X102758578Y-295210000D02*
X102241422Y-295210000D01*
X102758578Y-293790000D02*
X102241422Y-293790000D01*
X48758578Y-295210000D02*
X48241422Y-295210000D01*
X48758578Y-293790000D02*
X48241422Y-293790000D01*
X78241422Y-254790000D02*
X78758578Y-254790000D01*
X78241422Y-256210000D02*
X78758578Y-256210000D01*
X186241422Y-254790000D02*
X186758578Y-254790000D01*
X186241422Y-256210000D02*
X186758578Y-256210000D01*
X132241422Y-254790000D02*
X132758578Y-254790000D01*
X132241422Y-256210000D02*
X132758578Y-256210000D01*
X213241422Y-254790000D02*
X213758578Y-254790000D01*
X213241422Y-256210000D02*
X213758578Y-256210000D01*
X267241422Y-254790000D02*
X267758578Y-254790000D01*
X267241422Y-256210000D02*
X267758578Y-256210000D01*
X159241422Y-254790000D02*
X159758578Y-254790000D01*
X159241422Y-256210000D02*
X159758578Y-256210000D01*
X294241422Y-254790000D02*
X294758578Y-254790000D01*
X294241422Y-256210000D02*
X294758578Y-256210000D01*
X240241422Y-254790000D02*
X240758578Y-254790000D01*
X240241422Y-256210000D02*
X240758578Y-256210000D01*
X105241422Y-254790000D02*
X105758578Y-254790000D01*
X105241422Y-256210000D02*
X105758578Y-256210000D01*
X100350000Y-292750000D02*
X107650000Y-292750000D01*
X100350000Y-287250000D02*
X107650000Y-287250000D01*
X107650000Y-287250000D02*
X107650000Y-288400000D01*
X181350000Y-292750000D02*
X188650000Y-292750000D01*
X181350000Y-287250000D02*
X188650000Y-287250000D01*
X188650000Y-287250000D02*
X188650000Y-288400000D01*
X188650000Y-257250000D02*
X181350000Y-257250000D01*
X188650000Y-262750000D02*
X181350000Y-262750000D01*
X181350000Y-262750000D02*
X181350000Y-261600000D01*
X242650000Y-257250000D02*
X235350000Y-257250000D01*
X242650000Y-262750000D02*
X235350000Y-262750000D01*
X235350000Y-262750000D02*
X235350000Y-261600000D01*
X134650000Y-257250000D02*
X127350000Y-257250000D01*
X134650000Y-262750000D02*
X127350000Y-262750000D01*
X127350000Y-262750000D02*
X127350000Y-261600000D01*
X46350000Y-292750000D02*
X53650000Y-292750000D01*
X46350000Y-287250000D02*
X53650000Y-287250000D01*
X53650000Y-287250000D02*
X53650000Y-288400000D01*
X154350000Y-292750000D02*
X161650000Y-292750000D01*
X154350000Y-287250000D02*
X161650000Y-287250000D01*
X161650000Y-287250000D02*
X161650000Y-288400000D01*
X127350000Y-292750000D02*
X134650000Y-292750000D01*
X127350000Y-287250000D02*
X134650000Y-287250000D01*
X134650000Y-287250000D02*
X134650000Y-288400000D01*
X73350000Y-292750000D02*
X80650000Y-292750000D01*
X73350000Y-287250000D02*
X80650000Y-287250000D01*
X80650000Y-287250000D02*
X80650000Y-288400000D01*
X215650000Y-257250000D02*
X208350000Y-257250000D01*
X215650000Y-262750000D02*
X208350000Y-262750000D01*
X208350000Y-262750000D02*
X208350000Y-261600000D01*
X208350000Y-292750000D02*
X215650000Y-292750000D01*
X208350000Y-287250000D02*
X215650000Y-287250000D01*
X215650000Y-287250000D02*
X215650000Y-288400000D01*
X80650000Y-257250000D02*
X73350000Y-257250000D01*
X80650000Y-262750000D02*
X73350000Y-262750000D01*
X73350000Y-262750000D02*
X73350000Y-261600000D01*
X296650000Y-257250000D02*
X289350000Y-257250000D01*
X296650000Y-262750000D02*
X289350000Y-262750000D01*
X289350000Y-262750000D02*
X289350000Y-261600000D01*
X235350000Y-292750000D02*
X242650000Y-292750000D01*
X235350000Y-287250000D02*
X242650000Y-287250000D01*
X242650000Y-287250000D02*
X242650000Y-288400000D01*
X262350000Y-292750000D02*
X269650000Y-292750000D01*
X262350000Y-287250000D02*
X269650000Y-287250000D01*
X269650000Y-287250000D02*
X269650000Y-288400000D01*
X161650000Y-257250000D02*
X154350000Y-257250000D01*
X161650000Y-262750000D02*
X154350000Y-262750000D01*
X154350000Y-262750000D02*
X154350000Y-261600000D01*
X107650000Y-257250000D02*
X100350000Y-257250000D01*
X107650000Y-262750000D02*
X100350000Y-262750000D01*
X100350000Y-262750000D02*
X100350000Y-261600000D01*
X269650000Y-257250000D02*
X262350000Y-257250000D01*
X269650000Y-262750000D02*
X262350000Y-262750000D01*
X262350000Y-262750000D02*
X262350000Y-261600000D01*
X53650000Y-257250000D02*
X46350000Y-257250000D01*
X53650000Y-262750000D02*
X46350000Y-262750000D01*
X46350000Y-262750000D02*
X46350000Y-261600000D01*
X289350000Y-232750000D02*
X296650000Y-232750000D01*
X289350000Y-227250000D02*
X296650000Y-227250000D01*
X296650000Y-227250000D02*
X296650000Y-228400000D01*
X262350000Y-232750000D02*
X269650000Y-232750000D01*
X262350000Y-227250000D02*
X269650000Y-227250000D01*
X269650000Y-227250000D02*
X269650000Y-228400000D01*
X235350000Y-232750000D02*
X242650000Y-232750000D01*
X235350000Y-227250000D02*
X242650000Y-227250000D01*
X242650000Y-227250000D02*
X242650000Y-228400000D01*
X208350000Y-232750000D02*
X215650000Y-232750000D01*
X208350000Y-227250000D02*
X215650000Y-227250000D01*
X215650000Y-227250000D02*
X215650000Y-228400000D01*
X181350000Y-232750000D02*
X188650000Y-232750000D01*
X181350000Y-227250000D02*
X188650000Y-227250000D01*
X188650000Y-227250000D02*
X188650000Y-228400000D01*
X154350000Y-232750000D02*
X161650000Y-232750000D01*
X154350000Y-227250000D02*
X161650000Y-227250000D01*
X161650000Y-227250000D02*
X161650000Y-228400000D01*
X127350000Y-232750000D02*
X134650000Y-232750000D01*
X127350000Y-227250000D02*
X134650000Y-227250000D01*
X134650000Y-227250000D02*
X134650000Y-228400000D01*
X100350000Y-232750000D02*
X107650000Y-232750000D01*
X100350000Y-227250000D02*
X107650000Y-227250000D01*
X107650000Y-227250000D02*
X107650000Y-228400000D01*
X73350000Y-232750000D02*
X80650000Y-232750000D01*
X73350000Y-227250000D02*
X80650000Y-227250000D01*
X80650000Y-227250000D02*
X80650000Y-228400000D01*
X46350000Y-232750000D02*
X53650000Y-232750000D01*
X46350000Y-227250000D02*
X53650000Y-227250000D01*
X53650000Y-227250000D02*
X53650000Y-228400000D01*
X53650000Y-197250000D02*
X46350000Y-197250000D01*
X53650000Y-202750000D02*
X46350000Y-202750000D01*
X46350000Y-202750000D02*
X46350000Y-201600000D01*
X80650000Y-197250000D02*
X73350000Y-197250000D01*
X80650000Y-202750000D02*
X73350000Y-202750000D01*
X73350000Y-202750000D02*
X73350000Y-201600000D01*
X107650000Y-197250000D02*
X100350000Y-197250000D01*
X107650000Y-202750000D02*
X100350000Y-202750000D01*
X100350000Y-202750000D02*
X100350000Y-201600000D01*
X134650000Y-197250000D02*
X127350000Y-197250000D01*
X134650000Y-202750000D02*
X127350000Y-202750000D01*
X127350000Y-202750000D02*
X127350000Y-201600000D01*
X161650000Y-197250000D02*
X154350000Y-197250000D01*
X161650000Y-202750000D02*
X154350000Y-202750000D01*
X154350000Y-202750000D02*
X154350000Y-201600000D01*
X188650000Y-197250000D02*
X181350000Y-197250000D01*
X188650000Y-202750000D02*
X181350000Y-202750000D01*
X181350000Y-202750000D02*
X181350000Y-201600000D01*
X215650000Y-197250000D02*
X208350000Y-197250000D01*
X215650000Y-202750000D02*
X208350000Y-202750000D01*
X208350000Y-202750000D02*
X208350000Y-201600000D01*
X242650000Y-197250000D02*
X235350000Y-197250000D01*
X242650000Y-202750000D02*
X235350000Y-202750000D01*
X235350000Y-202750000D02*
X235350000Y-201600000D01*
X269650000Y-197250000D02*
X262350000Y-197250000D01*
X269650000Y-202750000D02*
X262350000Y-202750000D01*
X262350000Y-202750000D02*
X262350000Y-201600000D01*
X296650000Y-197250000D02*
X289350000Y-197250000D01*
X296650000Y-202750000D02*
X289350000Y-202750000D01*
X289350000Y-202750000D02*
X289350000Y-201600000D01*
X316350000Y-172750000D02*
X323650000Y-172750000D01*
X316350000Y-167250000D02*
X323650000Y-167250000D01*
X323650000Y-167250000D02*
X323650000Y-168400000D01*
X289350000Y-172750000D02*
X296650000Y-172750000D01*
X289350000Y-167250000D02*
X296650000Y-167250000D01*
X296650000Y-167250000D02*
X296650000Y-168400000D01*
X262350000Y-172750000D02*
X269650000Y-172750000D01*
X262350000Y-167250000D02*
X269650000Y-167250000D01*
X269650000Y-167250000D02*
X269650000Y-168400000D01*
X235350000Y-172750000D02*
X242650000Y-172750000D01*
X235350000Y-167250000D02*
X242650000Y-167250000D01*
X242650000Y-167250000D02*
X242650000Y-168400000D01*
X208350000Y-172750000D02*
X215650000Y-172750000D01*
X208350000Y-167250000D02*
X215650000Y-167250000D01*
X215650000Y-167250000D02*
X215650000Y-168400000D01*
X181350000Y-172750000D02*
X188650000Y-172750000D01*
X181350000Y-167250000D02*
X188650000Y-167250000D01*
X188650000Y-167250000D02*
X188650000Y-168400000D01*
X154350000Y-172750000D02*
X161650000Y-172750000D01*
X154350000Y-167250000D02*
X161650000Y-167250000D01*
X161650000Y-167250000D02*
X161650000Y-168400000D01*
X127350000Y-172750000D02*
X134650000Y-172750000D01*
X127350000Y-167250000D02*
X134650000Y-167250000D01*
X134650000Y-167250000D02*
X134650000Y-168400000D01*
X100350000Y-172750000D02*
X107650000Y-172750000D01*
X100350000Y-167250000D02*
X107650000Y-167250000D01*
X107650000Y-167250000D02*
X107650000Y-168400000D01*
X73350000Y-172750000D02*
X80650000Y-172750000D01*
X73350000Y-167250000D02*
X80650000Y-167250000D01*
X80650000Y-167250000D02*
X80650000Y-168400000D01*
X46350000Y-172750000D02*
X53650000Y-172750000D01*
X46350000Y-167250000D02*
X53650000Y-167250000D01*
X53650000Y-167250000D02*
X53650000Y-168400000D01*
X53650000Y-137250000D02*
X46350000Y-137250000D01*
X53650000Y-142750000D02*
X46350000Y-142750000D01*
X46350000Y-142750000D02*
X46350000Y-141600000D01*
X80650000Y-137250000D02*
X73350000Y-137250000D01*
X80650000Y-142750000D02*
X73350000Y-142750000D01*
X73350000Y-142750000D02*
X73350000Y-141600000D01*
X107650000Y-137250000D02*
X100350000Y-137250000D01*
X107650000Y-142750000D02*
X100350000Y-142750000D01*
X100350000Y-142750000D02*
X100350000Y-141600000D01*
X134650000Y-137250000D02*
X127350000Y-137250000D01*
X134650000Y-142750000D02*
X127350000Y-142750000D01*
X127350000Y-142750000D02*
X127350000Y-141600000D01*
X161650000Y-137250000D02*
X154350000Y-137250000D01*
X161650000Y-142750000D02*
X154350000Y-142750000D01*
X154350000Y-142750000D02*
X154350000Y-141600000D01*
X188650000Y-137250000D02*
X181350000Y-137250000D01*
X188650000Y-142750000D02*
X181350000Y-142750000D01*
X181350000Y-142750000D02*
X181350000Y-141600000D01*
X215650000Y-137250000D02*
X208350000Y-137250000D01*
X215650000Y-142750000D02*
X208350000Y-142750000D01*
X208350000Y-142750000D02*
X208350000Y-141600000D01*
X242650000Y-137250000D02*
X235350000Y-137250000D01*
X242650000Y-142750000D02*
X235350000Y-142750000D01*
X235350000Y-142750000D02*
X235350000Y-141600000D01*
X269650000Y-137250000D02*
X262350000Y-137250000D01*
X269650000Y-142750000D02*
X262350000Y-142750000D01*
X262350000Y-142750000D02*
X262350000Y-141600000D01*
X296650000Y-137250000D02*
X289350000Y-137250000D01*
X296650000Y-142750000D02*
X289350000Y-142750000D01*
X289350000Y-142750000D02*
X289350000Y-141600000D01*
X323650000Y-137250000D02*
X316350000Y-137250000D01*
X323650000Y-142750000D02*
X316350000Y-142750000D01*
X316350000Y-142750000D02*
X316350000Y-141600000D01*
X316350000Y-112750000D02*
X323650000Y-112750000D01*
X316350000Y-107250000D02*
X323650000Y-107250000D01*
X323650000Y-107250000D02*
X323650000Y-108400000D01*
X289350000Y-112750000D02*
X296650000Y-112750000D01*
X289350000Y-107250000D02*
X296650000Y-107250000D01*
X296650000Y-107250000D02*
X296650000Y-108400000D01*
X262350000Y-112750000D02*
X269650000Y-112750000D01*
X262350000Y-107250000D02*
X269650000Y-107250000D01*
X269650000Y-107250000D02*
X269650000Y-108400000D01*
X235350000Y-112750000D02*
X242650000Y-112750000D01*
X235350000Y-107250000D02*
X242650000Y-107250000D01*
X242650000Y-107250000D02*
X242650000Y-108400000D01*
X208350000Y-112750000D02*
X215650000Y-112750000D01*
X208350000Y-107250000D02*
X215650000Y-107250000D01*
X215650000Y-107250000D02*
X215650000Y-108400000D01*
X181350000Y-112750000D02*
X188650000Y-112750000D01*
X181350000Y-107250000D02*
X188650000Y-107250000D01*
X188650000Y-107250000D02*
X188650000Y-108400000D01*
X154350000Y-112750000D02*
X161650000Y-112750000D01*
X154350000Y-107250000D02*
X161650000Y-107250000D01*
X161650000Y-107250000D02*
X161650000Y-108400000D01*
X127350000Y-112750000D02*
X134650000Y-112750000D01*
X127350000Y-107250000D02*
X134650000Y-107250000D01*
X134650000Y-107250000D02*
X134650000Y-108400000D01*
X100350000Y-112750000D02*
X107650000Y-112750000D01*
X100350000Y-107250000D02*
X107650000Y-107250000D01*
X107650000Y-107250000D02*
X107650000Y-108400000D01*
X73350000Y-112750000D02*
X80650000Y-112750000D01*
X73350000Y-107250000D02*
X80650000Y-107250000D01*
X80650000Y-107250000D02*
X80650000Y-108400000D01*
X46350000Y-112750000D02*
X53650000Y-112750000D01*
X46350000Y-107250000D02*
X53650000Y-107250000D01*
X53650000Y-107250000D02*
X53650000Y-108400000D01*
X53650000Y-77250000D02*
X46350000Y-77250000D01*
X53650000Y-82750000D02*
X46350000Y-82750000D01*
X46350000Y-82750000D02*
X46350000Y-81600000D01*
X80650000Y-77250000D02*
X73350000Y-77250000D01*
X80650000Y-82750000D02*
X73350000Y-82750000D01*
X73350000Y-82750000D02*
X73350000Y-81600000D01*
X107650000Y-77250000D02*
X100350000Y-77250000D01*
X107650000Y-82750000D02*
X100350000Y-82750000D01*
X100350000Y-82750000D02*
X100350000Y-81600000D01*
X134650000Y-77250000D02*
X127350000Y-77250000D01*
X134650000Y-82750000D02*
X127350000Y-82750000D01*
X127350000Y-82750000D02*
X127350000Y-81600000D01*
X161650000Y-77250000D02*
X154350000Y-77250000D01*
X161650000Y-82750000D02*
X154350000Y-82750000D01*
X154350000Y-82750000D02*
X154350000Y-81600000D01*
X188650000Y-77250000D02*
X181350000Y-77250000D01*
X188650000Y-82750000D02*
X181350000Y-82750000D01*
X181350000Y-82750000D02*
X181350000Y-81600000D01*
X215650000Y-77250000D02*
X208350000Y-77250000D01*
X215650000Y-82750000D02*
X208350000Y-82750000D01*
X208350000Y-82750000D02*
X208350000Y-81600000D01*
X242650000Y-77250000D02*
X235350000Y-77250000D01*
X242650000Y-82750000D02*
X235350000Y-82750000D01*
X235350000Y-82750000D02*
X235350000Y-81600000D01*
X269650000Y-77250000D02*
X262350000Y-77250000D01*
X269650000Y-82750000D02*
X262350000Y-82750000D01*
X262350000Y-82750000D02*
X262350000Y-81600000D01*
X296650000Y-77250000D02*
X289350000Y-77250000D01*
X296650000Y-82750000D02*
X289350000Y-82750000D01*
X289350000Y-82750000D02*
X289350000Y-81600000D01*
X323650000Y-77250000D02*
X316350000Y-77250000D01*
X323650000Y-82750000D02*
X316350000Y-82750000D01*
X316350000Y-82750000D02*
X316350000Y-81600000D01*
X316350000Y-52750000D02*
X323650000Y-52750000D01*
X316350000Y-47250000D02*
X323650000Y-47250000D01*
X323650000Y-47250000D02*
X323650000Y-48400000D01*
X289350000Y-52750000D02*
X296650000Y-52750000D01*
X289350000Y-47250000D02*
X296650000Y-47250000D01*
X296650000Y-47250000D02*
X296650000Y-48400000D01*
X262350000Y-52750000D02*
X269650000Y-52750000D01*
X262350000Y-47250000D02*
X269650000Y-47250000D01*
X269650000Y-47250000D02*
X269650000Y-48400000D01*
X235350000Y-52750000D02*
X242650000Y-52750000D01*
X235350000Y-47250000D02*
X242650000Y-47250000D01*
X242650000Y-47250000D02*
X242650000Y-48400000D01*
X208350000Y-52750000D02*
X215650000Y-52750000D01*
X208350000Y-47250000D02*
X215650000Y-47250000D01*
X215650000Y-47250000D02*
X215650000Y-48400000D01*
X181350000Y-52750000D02*
X188650000Y-52750000D01*
X181350000Y-47250000D02*
X188650000Y-47250000D01*
X188650000Y-47250000D02*
X188650000Y-48400000D01*
X154350000Y-52750000D02*
X161650000Y-52750000D01*
X154350000Y-47250000D02*
X161650000Y-47250000D01*
X161650000Y-47250000D02*
X161650000Y-48400000D01*
X127350000Y-52750000D02*
X134650000Y-52750000D01*
X127350000Y-47250000D02*
X134650000Y-47250000D01*
X134650000Y-47250000D02*
X134650000Y-48400000D01*
X100350000Y-52750000D02*
X107650000Y-52750000D01*
X100350000Y-47250000D02*
X107650000Y-47250000D01*
X107650000Y-47250000D02*
X107650000Y-48400000D01*
X73350000Y-52750000D02*
X80650000Y-52750000D01*
X73350000Y-47250000D02*
X80650000Y-47250000D01*
X80650000Y-47250000D02*
X80650000Y-48400000D01*
X46350000Y-52750000D02*
X53650000Y-52750000D01*
X46350000Y-47250000D02*
X53650000Y-47250000D01*
X53650000Y-47250000D02*
X53650000Y-48400000D01*
X291758578Y-235210000D02*
X291241422Y-235210000D01*
X291758578Y-233790000D02*
X291241422Y-233790000D01*
X264758578Y-235210000D02*
X264241422Y-235210000D01*
X264758578Y-233790000D02*
X264241422Y-233790000D01*
X237758578Y-235210000D02*
X237241422Y-235210000D01*
X237758578Y-233790000D02*
X237241422Y-233790000D01*
X210758578Y-235210000D02*
X210241422Y-235210000D01*
X210758578Y-233790000D02*
X210241422Y-233790000D01*
X183758578Y-235210000D02*
X183241422Y-235210000D01*
X183758578Y-233790000D02*
X183241422Y-233790000D01*
X156758578Y-235210000D02*
X156241422Y-235210000D01*
X156758578Y-233790000D02*
X156241422Y-233790000D01*
X129758578Y-235210000D02*
X129241422Y-235210000D01*
X129758578Y-233790000D02*
X129241422Y-233790000D01*
X102758578Y-235210000D02*
X102241422Y-235210000D01*
X102758578Y-233790000D02*
X102241422Y-233790000D01*
X75758578Y-235210000D02*
X75241422Y-235210000D01*
X75758578Y-233790000D02*
X75241422Y-233790000D01*
X48758578Y-235210000D02*
X48241422Y-235210000D01*
X48758578Y-233790000D02*
X48241422Y-233790000D01*
X51241422Y-194790000D02*
X51758578Y-194790000D01*
X51241422Y-196210000D02*
X51758578Y-196210000D01*
X78241422Y-194790000D02*
X78758578Y-194790000D01*
X78241422Y-196210000D02*
X78758578Y-196210000D01*
X105241422Y-194790000D02*
X105758578Y-194790000D01*
X105241422Y-196210000D02*
X105758578Y-196210000D01*
X132241422Y-194790000D02*
X132758578Y-194790000D01*
X132241422Y-196210000D02*
X132758578Y-196210000D01*
X159241422Y-194790000D02*
X159758578Y-194790000D01*
X159241422Y-196210000D02*
X159758578Y-196210000D01*
X186241422Y-194790000D02*
X186758578Y-194790000D01*
X186241422Y-196210000D02*
X186758578Y-196210000D01*
X213241422Y-194790000D02*
X213758578Y-194790000D01*
X213241422Y-196210000D02*
X213758578Y-196210000D01*
X240241422Y-194790000D02*
X240758578Y-194790000D01*
X240241422Y-196210000D02*
X240758578Y-196210000D01*
X267241422Y-194790000D02*
X267758578Y-194790000D01*
X267241422Y-196210000D02*
X267758578Y-196210000D01*
X294241422Y-194790000D02*
X294758578Y-194790000D01*
X294241422Y-196210000D02*
X294758578Y-196210000D01*
X318758578Y-175210000D02*
X318241422Y-175210000D01*
X318758578Y-173790000D02*
X318241422Y-173790000D01*
X291758578Y-175210000D02*
X291241422Y-175210000D01*
X291758578Y-173790000D02*
X291241422Y-173790000D01*
X264758578Y-175210000D02*
X264241422Y-175210000D01*
X264758578Y-173790000D02*
X264241422Y-173790000D01*
X237758578Y-175210000D02*
X237241422Y-175210000D01*
X237758578Y-173790000D02*
X237241422Y-173790000D01*
X210758578Y-175210000D02*
X210241422Y-175210000D01*
X210758578Y-173790000D02*
X210241422Y-173790000D01*
X183758578Y-175210000D02*
X183241422Y-175210000D01*
X183758578Y-173790000D02*
X183241422Y-173790000D01*
X156758578Y-175210000D02*
X156241422Y-175210000D01*
X156758578Y-173790000D02*
X156241422Y-173790000D01*
X129758578Y-175210000D02*
X129241422Y-175210000D01*
X129758578Y-173790000D02*
X129241422Y-173790000D01*
X102758578Y-175210000D02*
X102241422Y-175210000D01*
X102758578Y-173790000D02*
X102241422Y-173790000D01*
X75758578Y-175210000D02*
X75241422Y-175210000D01*
X75758578Y-173790000D02*
X75241422Y-173790000D01*
X48758578Y-175210000D02*
X48241422Y-175210000D01*
X48758578Y-173790000D02*
X48241422Y-173790000D01*
X51241422Y-134790000D02*
X51758578Y-134790000D01*
X51241422Y-136210000D02*
X51758578Y-136210000D01*
X78241422Y-134790000D02*
X78758578Y-134790000D01*
X78241422Y-136210000D02*
X78758578Y-136210000D01*
X105241422Y-134790000D02*
X105758578Y-134790000D01*
X105241422Y-136210000D02*
X105758578Y-136210000D01*
X132241422Y-134790000D02*
X132758578Y-134790000D01*
X132241422Y-136210000D02*
X132758578Y-136210000D01*
X159241422Y-134790000D02*
X159758578Y-134790000D01*
X159241422Y-136210000D02*
X159758578Y-136210000D01*
X186178922Y-134790000D02*
X186696078Y-134790000D01*
X186178922Y-136210000D02*
X186696078Y-136210000D01*
X213241422Y-134790000D02*
X213758578Y-134790000D01*
X213241422Y-136210000D02*
X213758578Y-136210000D01*
X240241422Y-134790000D02*
X240758578Y-134790000D01*
X240241422Y-136210000D02*
X240758578Y-136210000D01*
X267241422Y-134790000D02*
X267758578Y-134790000D01*
X267241422Y-136210000D02*
X267758578Y-136210000D01*
X294241422Y-134790000D02*
X294758578Y-134790000D01*
X294241422Y-136210000D02*
X294758578Y-136210000D01*
X321241422Y-134790000D02*
X321758578Y-134790000D01*
X321241422Y-136210000D02*
X321758578Y-136210000D01*
X318758578Y-115210000D02*
X318241422Y-115210000D01*
X318758578Y-113790000D02*
X318241422Y-113790000D01*
X291758578Y-115210000D02*
X291241422Y-115210000D01*
X291758578Y-113790000D02*
X291241422Y-113790000D01*
X264758578Y-115210000D02*
X264241422Y-115210000D01*
X264758578Y-113790000D02*
X264241422Y-113790000D01*
X237758578Y-115210000D02*
X237241422Y-115210000D01*
X237758578Y-113790000D02*
X237241422Y-113790000D01*
X210758578Y-115210000D02*
X210241422Y-115210000D01*
X210758578Y-113790000D02*
X210241422Y-113790000D01*
X183758578Y-115210000D02*
X183241422Y-115210000D01*
X183758578Y-113790000D02*
X183241422Y-113790000D01*
X156758578Y-115210000D02*
X156241422Y-115210000D01*
X156758578Y-113790000D02*
X156241422Y-113790000D01*
X129758578Y-115210000D02*
X129241422Y-115210000D01*
X129758578Y-113790000D02*
X129241422Y-113790000D01*
X102758578Y-115210000D02*
X102241422Y-115210000D01*
X102758578Y-113790000D02*
X102241422Y-113790000D01*
X75758578Y-115210000D02*
X75241422Y-115210000D01*
X75758578Y-113790000D02*
X75241422Y-113790000D01*
X48758578Y-115210000D02*
X48241422Y-115210000D01*
X48758578Y-113790000D02*
X48241422Y-113790000D01*
X51241422Y-74790000D02*
X51758578Y-74790000D01*
X51241422Y-76210000D02*
X51758578Y-76210000D01*
X78241422Y-74790000D02*
X78758578Y-74790000D01*
X78241422Y-76210000D02*
X78758578Y-76210000D01*
X105241422Y-74790000D02*
X105758578Y-74790000D01*
X105241422Y-76210000D02*
X105758578Y-76210000D01*
X132241422Y-74790000D02*
X132758578Y-74790000D01*
X132241422Y-76210000D02*
X132758578Y-76210000D01*
X159241422Y-74790000D02*
X159758578Y-74790000D01*
X159241422Y-76210000D02*
X159758578Y-76210000D01*
X186241422Y-74790000D02*
X186758578Y-74790000D01*
X186241422Y-76210000D02*
X186758578Y-76210000D01*
X213241422Y-74790000D02*
X213758578Y-74790000D01*
X213241422Y-76210000D02*
X213758578Y-76210000D01*
X240241422Y-74790000D02*
X240758578Y-74790000D01*
X240241422Y-76210000D02*
X240758578Y-76210000D01*
X267241422Y-74790000D02*
X267758578Y-74790000D01*
X267241422Y-76210000D02*
X267758578Y-76210000D01*
X294241422Y-74790000D02*
X294758578Y-74790000D01*
X294241422Y-76210000D02*
X294758578Y-76210000D01*
X321241422Y-74790000D02*
X321758578Y-74790000D01*
X321241422Y-76210000D02*
X321758578Y-76210000D01*
X318758578Y-55210000D02*
X318241422Y-55210000D01*
X318758578Y-53790000D02*
X318241422Y-53790000D01*
X291758578Y-55210000D02*
X291241422Y-55210000D01*
X291758578Y-53790000D02*
X291241422Y-53790000D01*
X264758578Y-55210000D02*
X264241422Y-55210000D01*
X264758578Y-53790000D02*
X264241422Y-53790000D01*
X237696078Y-55210000D02*
X237178922Y-55210000D01*
X237696078Y-53790000D02*
X237178922Y-53790000D01*
X210758578Y-55210000D02*
X210241422Y-55210000D01*
X210758578Y-53790000D02*
X210241422Y-53790000D01*
X183758578Y-55210000D02*
X183241422Y-55210000D01*
X183758578Y-53790000D02*
X183241422Y-53790000D01*
X156758578Y-55210000D02*
X156241422Y-55210000D01*
X156758578Y-53790000D02*
X156241422Y-53790000D01*
X129758578Y-55210000D02*
X129241422Y-55210000D01*
X129758578Y-53790000D02*
X129241422Y-53790000D01*
X102758578Y-55210000D02*
X102241422Y-55210000D01*
X102758578Y-53790000D02*
X102241422Y-53790000D01*
X75758578Y-55210000D02*
X75241422Y-55210000D01*
X75758578Y-53790000D02*
X75241422Y-53790000D01*
X48758578Y-55210000D02*
X48241422Y-55210000D01*
X48758578Y-53790000D02*
X48241422Y-53790000D01*
D11*
X18680000Y-62400000D02*
G75*
G03X18680000Y-62400000I-1796051J0D01*
G01*
X33250000Y-67750000D02*
X33250000Y-55750000D01*
X33250000Y-55750000D02*
X8250000Y-55750000D01*
X8250000Y-55750000D02*
X8250000Y-67750000D01*
X33250000Y-67750000D02*
X8250000Y-67750000D01*
X8250000Y-57750000D02*
X9250000Y-57750000D01*
X9250000Y-57750000D02*
X9250000Y-65750000D01*
X9250000Y-65750000D02*
X8250000Y-65750000D01*
M02*
