M48
; DRILL file {KiCad (5.1.5)-3} date 10.11.2020 12:22:52
; FORMAT={-:-/ absolute / inch / decimal}
; #@! TF.CreationDate,2020-11-10T12:22:52+01:00
; #@! TF.GenerationSoftware,Kicad,Pcbnew,(5.1.5)-3
; #@! TF.FileFunction,NonPlated,1,2,NPTH
FMAT,2
INCH
T1C0.0472
T2C0.0827
T3C0.0984
T4C0.1969
%
G90
G05
T1
X1.2803Y-6.5669
X1.2803Y-7.0472
X1.4811Y-12.1378
X1.4811Y-12.6181
T2
X1.2807Y-11.4884
T3
X1.3807Y-11.1337
T4
X3.3858Y-0.315
X2.5Y-12.0079
X5.689Y-7.2835
X8.878Y-7.2835
X3.563Y-2.5591
X11.0039Y-2.5591
X12.0669Y-12.0079
X7.815Y-12.0079
X12.0669Y-2.5591
X2.5Y-2.5591
X1.9685Y-0.315
X12.0669Y-7.2835
X6.752Y-2.5591
X9.5669Y-14.3425
X2.5Y-7.2835
X3.3858Y-1.2598
X1.9685Y-1.2598
X2.5Y-10.8268
T0
M30
