G04 #@! TF.GenerationSoftware,KiCad,Pcbnew,(5.1.5)-3*
G04 #@! TF.CreationDate,2020-11-10T12:22:49+01:00*
G04 #@! TF.ProjectId,Wordclock_V1.1,576f7264-636c-46f6-936b-5f56312e312e,rev?*
G04 #@! TF.SameCoordinates,Original*
G04 #@! TF.FileFunction,Legend,Top*
G04 #@! TF.FilePolarity,Positive*
%FSLAX46Y46*%
G04 Gerber Fmt 4.6, Leading zero omitted, Abs format (unit mm)*
G04 Created by KiCad (PCBNEW (5.1.5)-3) date 2020-11-10 12:22:49*
%MOMM*%
%LPD*%
G04 APERTURE LIST*
%ADD10C,0.120000*%
%ADD11C,0.150000*%
%ADD12C,0.100000*%
%ADD13C,0.200000*%
G04 APERTURE END LIST*
D10*
X25690000Y-59837221D02*
X25690000Y-60162779D01*
X26710000Y-59837221D02*
X26710000Y-60162779D01*
D11*
X6550000Y-189600000D02*
X6100000Y-189150000D01*
X6100000Y-189150000D02*
X6100000Y-186300000D01*
X16700000Y-186300000D02*
X16700000Y-189600000D01*
X16700000Y-189600000D02*
X6550000Y-189600000D01*
X16700000Y-179000000D02*
X16700000Y-182300000D01*
X6100000Y-179000000D02*
X16700000Y-179000000D01*
X6100000Y-182300000D02*
X6100000Y-179000000D01*
D10*
X27570000Y-167100000D02*
X27570000Y-165400000D01*
X27570000Y-169600000D02*
X27570000Y-168700000D01*
X27570000Y-172100000D02*
X27570000Y-171200000D01*
X27570000Y-174600000D02*
X27570000Y-173700000D01*
X27570000Y-177100000D02*
X27570000Y-176200000D01*
X27570000Y-180400000D02*
X27570000Y-178700000D01*
X33180000Y-167800000D02*
X33180000Y-178000000D01*
D11*
X14350000Y-174500000D02*
X14350000Y-174250000D01*
X14350000Y-174250000D02*
X16050000Y-174250000D01*
X16050000Y-174250000D02*
X16050000Y-174500000D01*
X14350000Y-177550000D02*
X14350000Y-177300000D01*
X16050000Y-177550000D02*
X14350000Y-177550000D01*
X16050000Y-177300000D02*
X16050000Y-177550000D01*
D10*
X20560000Y-179102064D02*
X20560000Y-177897936D01*
X17840000Y-179102064D02*
X17840000Y-177897936D01*
X23960000Y-179102064D02*
X23960000Y-177897936D01*
X21240000Y-179102064D02*
X21240000Y-177897936D01*
X17840000Y-173097936D02*
X17840000Y-174302064D01*
X20560000Y-173097936D02*
X20560000Y-174302064D01*
X11458578Y-172610000D02*
X10941422Y-172610000D01*
X11458578Y-171190000D02*
X10941422Y-171190000D01*
X11458578Y-175110000D02*
X10941422Y-175110000D01*
X11458578Y-173690000D02*
X10941422Y-173690000D01*
X10941422Y-177610000D02*
X11458578Y-177610000D01*
X10941422Y-176190000D02*
X11458578Y-176190000D01*
X32670000Y-308600000D02*
X32670000Y-306900000D01*
X32670000Y-311100000D02*
X32670000Y-310200000D01*
X32670000Y-313600000D02*
X32670000Y-312700000D01*
X32670000Y-316100000D02*
X32670000Y-315200000D01*
X32670000Y-318600000D02*
X32670000Y-317700000D01*
X32670000Y-321900000D02*
X32670000Y-320200000D01*
X38280000Y-309300000D02*
X38280000Y-319500000D01*
X21500000Y-267700000D02*
X21000000Y-267700000D01*
X21500000Y-266300000D02*
X21000000Y-266300000D01*
X21500000Y-266300000D02*
X21500000Y-265700000D01*
X21500000Y-265700000D02*
X21700000Y-265500000D01*
X21700000Y-268500000D02*
X21500000Y-268500000D01*
X21500000Y-268500000D02*
X21500000Y-267700000D01*
X24500000Y-267700000D02*
X24500000Y-268500000D01*
X24500000Y-268500000D02*
X24300000Y-268500000D01*
X24300000Y-265500000D02*
X24500000Y-265500000D01*
X24500000Y-265500000D02*
X24500000Y-266300000D01*
X15710000Y-266412779D02*
X15710000Y-266087221D01*
X14690000Y-266412779D02*
X14690000Y-266087221D01*
X14562779Y-263640000D02*
X14237221Y-263640000D01*
X14562779Y-264660000D02*
X14237221Y-264660000D01*
X14562779Y-267840000D02*
X14237221Y-267840000D01*
X14562779Y-268860000D02*
X14237221Y-268860000D01*
X7250000Y-269650000D02*
X9050000Y-269650000D01*
X7250000Y-290950000D02*
X9050000Y-290950000D01*
X12250000Y-269650000D02*
X16550000Y-269650000D01*
X12250000Y-290950000D02*
X16550000Y-290950000D01*
X19750000Y-269650000D02*
X21550000Y-269650000D01*
X19750000Y-290950000D02*
X21550000Y-290950000D01*
X3750000Y-273150000D02*
X3750000Y-274950000D01*
X25050000Y-273150000D02*
X25050000Y-274950000D01*
X3750000Y-278150000D02*
X3750000Y-282450000D01*
X25050000Y-278150000D02*
X25050000Y-282450000D01*
X3750000Y-285650000D02*
X3750000Y-287450000D01*
X25050000Y-285650000D02*
X25050000Y-287450000D01*
D12*
X13200000Y-275200000D02*
X13200000Y-275700000D01*
X13600000Y-275200000D02*
X13200000Y-275200000D01*
D10*
X29180000Y-302100000D02*
X29180000Y-303300000D01*
X29180000Y-303300000D02*
X26480000Y-303300000D01*
X25180000Y-298500000D02*
X29180000Y-298500000D01*
X29180000Y-298500000D02*
X29180000Y-299700000D01*
X26341422Y-297910000D02*
X26858578Y-297910000D01*
X26341422Y-296490000D02*
X26858578Y-296490000D01*
X26858578Y-303890000D02*
X26341422Y-303890000D01*
X26858578Y-305310000D02*
X26341422Y-305310000D01*
X19390000Y-296958578D02*
X19390000Y-296441422D01*
X20810000Y-296958578D02*
X20810000Y-296441422D01*
X21437221Y-289510000D02*
X21762779Y-289510000D01*
X21437221Y-288490000D02*
X21762779Y-288490000D01*
X33260000Y-274300000D02*
X33260000Y-270850000D01*
X33260000Y-274300000D02*
X33260000Y-276250000D01*
X28140000Y-274300000D02*
X28140000Y-272350000D01*
X28140000Y-274300000D02*
X28140000Y-276250000D01*
D13*
X31700000Y-282700000D02*
G75*
G03X31700000Y-282700000I-100000J0D01*
G01*
X36700000Y-295005000D02*
X30900000Y-295005000D01*
X36700000Y-279595000D02*
X36700000Y-295005000D01*
X30900000Y-279595000D02*
X36700000Y-279595000D01*
X30900000Y-295005000D02*
X30900000Y-279595000D01*
D10*
X21890000Y-278237221D02*
X21890000Y-278562779D01*
X22910000Y-278237221D02*
X22910000Y-278562779D01*
X20190000Y-278562779D02*
X20190000Y-278237221D01*
X21210000Y-278562779D02*
X21210000Y-278237221D01*
X18510000Y-287487221D02*
X18510000Y-287812779D01*
X17490000Y-287487221D02*
X17490000Y-287812779D01*
X23110000Y-284037221D02*
X23110000Y-284362779D01*
X22090000Y-284037221D02*
X22090000Y-284362779D01*
X21837221Y-286890000D02*
X22162779Y-286890000D01*
X21837221Y-287910000D02*
X22162779Y-287910000D01*
X9162779Y-287010000D02*
X8837221Y-287010000D01*
X9162779Y-285990000D02*
X8837221Y-285990000D01*
X12462779Y-288310000D02*
X12137221Y-288310000D01*
X12462779Y-287290000D02*
X12137221Y-287290000D01*
X10310000Y-282762779D02*
X10310000Y-282437221D01*
X9290000Y-282762779D02*
X9290000Y-282437221D01*
X8710000Y-282437221D02*
X8710000Y-282762779D01*
X7690000Y-282437221D02*
X7690000Y-282762779D01*
X9162779Y-285410000D02*
X8837221Y-285410000D01*
X9162779Y-284390000D02*
X8837221Y-284390000D01*
X15390000Y-275262779D02*
X15390000Y-274937221D01*
X16410000Y-275262779D02*
X16410000Y-274937221D01*
X10990000Y-276162779D02*
X10990000Y-275837221D01*
X12010000Y-276162779D02*
X12010000Y-275837221D01*
X9390000Y-276162779D02*
X9390000Y-275837221D01*
X10410000Y-276162779D02*
X10410000Y-275837221D01*
D11*
X21400000Y-285150000D02*
X21400000Y-284050000D01*
X19600000Y-285150000D02*
X19600000Y-284050000D01*
X22000000Y-309700000D02*
X22000000Y-308500000D01*
X18000000Y-309700000D02*
X22000000Y-309700000D01*
X18000000Y-309700000D02*
X18000000Y-308500000D01*
X17955076Y-302932639D02*
G75*
G03X22000000Y-302900000I2044924J-2767361D01*
G01*
X22000000Y-301890000D02*
X22000000Y-305700000D01*
X18000000Y-301890000D02*
X22000000Y-301890000D01*
X18000000Y-305700000D02*
X18000000Y-301890000D01*
X22000000Y-305700000D02*
G75*
G02X18000000Y-305700000I-2000000J0D01*
G01*
D10*
X6250000Y-297750000D02*
X6250000Y-295100000D01*
X1950000Y-297750000D02*
X1950000Y-295100000D01*
X1965612Y-297775476D02*
G75*
G03X6250000Y-297750000I2134388J1325476D01*
G01*
X6232144Y-295071973D02*
G75*
G03X1950000Y-295100000I-2132144J-1378027D01*
G01*
X40000000Y-297640000D02*
X36550000Y-297640000D01*
X40000000Y-297640000D02*
X41950000Y-297640000D01*
X40000000Y-302760000D02*
X38050000Y-302760000D01*
X40000000Y-302760000D02*
X41950000Y-302760000D01*
X35710000Y-300941422D02*
X35710000Y-301458578D01*
X34290000Y-300941422D02*
X34290000Y-301458578D01*
X22400000Y-292700000D02*
X19200000Y-292700000D01*
X19200000Y-294700000D02*
X22400000Y-294700000D01*
X19200000Y-294700000D02*
X19200000Y-292700000D01*
X8641422Y-302890000D02*
X9158578Y-302890000D01*
X8641422Y-304310000D02*
X9158578Y-304310000D01*
X8641422Y-305090000D02*
X9158578Y-305090000D01*
X8641422Y-306510000D02*
X9158578Y-306510000D01*
X3190000Y-308158578D02*
X3190000Y-307641422D01*
X4610000Y-308158578D02*
X4610000Y-307641422D01*
X11310000Y-314491422D02*
X11310000Y-315008578D01*
X9890000Y-314491422D02*
X9890000Y-315008578D01*
X7610000Y-321091422D02*
X7610000Y-321608578D01*
X6190000Y-321091422D02*
X6190000Y-321608578D01*
X10400000Y-322450000D02*
X10800000Y-322450000D01*
X9000000Y-321350000D02*
X9000000Y-318450000D01*
X9000000Y-318450000D02*
X9600000Y-318450000D01*
X12200000Y-321350000D02*
X12200000Y-318450000D01*
X12200000Y-318450000D02*
X11600000Y-318450000D01*
X8800000Y-322250000D02*
X8800000Y-322950000D01*
X8800000Y-322950000D02*
X9500000Y-322950000D01*
X15890000Y-319450000D02*
X15890000Y-321400000D01*
X15890000Y-319450000D02*
X15890000Y-317500000D01*
X21010000Y-319450000D02*
X21010000Y-321400000D01*
X21010000Y-319450000D02*
X21010000Y-316000000D01*
X11750000Y-311850000D02*
X9750000Y-311850000D01*
X11750000Y-309050000D02*
X11750000Y-311850000D01*
X9750000Y-309050000D02*
X11750000Y-309050000D01*
X9750000Y-311850000D02*
X9750000Y-309050000D01*
X23410000Y-318691422D02*
X23410000Y-319208578D01*
X21990000Y-318691422D02*
X21990000Y-319208578D01*
X2410000Y-321091422D02*
X2410000Y-321608578D01*
X990000Y-321091422D02*
X990000Y-321608578D01*
X17708578Y-313240000D02*
X17191422Y-313240000D01*
X17708578Y-314660000D02*
X17191422Y-314660000D01*
X5010000Y-321091422D02*
X5010000Y-321608578D01*
X3590000Y-321091422D02*
X3590000Y-321608578D01*
X2410000Y-316008578D02*
X2410000Y-315491422D01*
X990000Y-316008578D02*
X990000Y-315491422D01*
D11*
X3075000Y-316075000D02*
X3200000Y-316075000D01*
X3075000Y-311425000D02*
X3300000Y-311425000D01*
X8325000Y-311425000D02*
X8100000Y-311425000D01*
X8325000Y-316075000D02*
X8100000Y-316075000D01*
X3075000Y-316075000D02*
X3075000Y-311425000D01*
X8325000Y-316075000D02*
X8325000Y-311425000D01*
X3200000Y-316075000D02*
X3200000Y-317425000D01*
D10*
X35310000Y-276158578D02*
X35310000Y-275641422D01*
X33890000Y-276158578D02*
X33890000Y-275641422D01*
D11*
X13650000Y-274100000D02*
G75*
G03X13650000Y-274100000I-100000J0D01*
G01*
D12*
X13350000Y-273300000D02*
X13750000Y-273300000D01*
X13350000Y-273800000D02*
X13350000Y-273300000D01*
X13750000Y-273800000D02*
X13350000Y-273800000D01*
X13750000Y-273300000D02*
X13750000Y-273800000D01*
D10*
X9600000Y-280850000D02*
X9600000Y-277550000D01*
X9600000Y-277550000D02*
X5600000Y-277550000D01*
X11665000Y-285260000D02*
X11190000Y-285260000D01*
X11190000Y-285260000D02*
X11190000Y-284785000D01*
X17935000Y-278040000D02*
X18410000Y-278040000D01*
X18410000Y-278040000D02*
X18410000Y-278515000D01*
X11665000Y-278040000D02*
X11190000Y-278040000D01*
X11190000Y-278040000D02*
X11190000Y-278515000D01*
X17935000Y-285260000D02*
X18410000Y-285260000D01*
X21941422Y-280890000D02*
X22458578Y-280890000D01*
X21941422Y-282310000D02*
X22458578Y-282310000D01*
X28600000Y-306150000D02*
X26600000Y-306150000D01*
X26600000Y-306150000D02*
X26600000Y-310050000D01*
X28600000Y-306150000D02*
X28600000Y-310050000D01*
X8210000Y-295941422D02*
X8210000Y-296458578D01*
X6790000Y-295941422D02*
X6790000Y-296458578D01*
X8990000Y-296458578D02*
X8990000Y-295941422D01*
X10410000Y-296458578D02*
X10410000Y-295941422D01*
X33890000Y-270658578D02*
X33890000Y-270141422D01*
X35310000Y-270658578D02*
X35310000Y-270141422D01*
X29800000Y-58550000D02*
X27800000Y-58550000D01*
X27800000Y-58550000D02*
X27800000Y-62450000D01*
X29800000Y-58550000D02*
X29800000Y-62450000D01*
M02*
